<?xml version="1.0" encoding="utf-8"?>
<!-- Generator: Adobe Illustrator 23.0.1, SVG Export Plug-In . SVG Version: 6.00 Build 0)  -->
<svg version="1.1" id="logo" xmlns="http://www.w3.org/2000/svg" xmlns:xlink="http://www.w3.org/1999/xlink" x="0px" y="0px"
	 viewBox="0 0 1000 1000" style="enable-background:new 0 0 1000 1000;" xml:space="preserve">
<style type="text/css">
	.st0{fill:#FFFFFF;}
</style>
<g>
	<g>
		<path class="st0" d="M526.62,293.72c-7.1-12.22-1.68-29.44-1.68-29.44s16.93,2.6,24.03,14.82c7.1,12.22,1.68,29.44,1.68,29.44
			S533.72,305.94,526.62,293.72z"/>
	</g>
	<g>
		<path class="st0" d="M479.1,291.83c-2.64-12.53,6.67-25.42,6.67-25.42s13.61,7.44,16.25,19.97c2.64,12.53-6.67,25.42-6.67,25.42
			S481.74,304.37,479.1,291.83z"/>
	</g>
	<g>
		<path class="st0" d="M619.89,353.9c-10.24,13.86-31.21,14.57-31.21,14.57s-4.38-21.77,5.86-35.63
			c10.24-13.86,31.21-14.57,31.21-14.57S630.13,340.04,619.89,353.9z"/>
	</g>
	<g>
		<path class="st0" d="M575.79,424.97c-8.3-15.25-1.07-36.15-1.07-36.15s20.67,3.83,28.97,19.08c8.3,15.25,1.07,36.15,1.07,36.15
			S584.08,440.22,575.79,424.97z"/>
	</g>
	<g>
		<path class="st0" d="M636.22,418.85c2.92-14.02,18.11-22.37,18.11-22.37s10.45,14.37,7.52,28.39
			c-2.92,14.02-18.11,22.37-18.11,22.37S633.3,432.87,636.22,418.85z"/>
	</g>
	<g>
		<path class="st0" d="M546.69,453.2c-12.6-8.63-14.92-28.58-14.92-28.58s18.1-5.97,30.7,2.65c12.6,8.63,14.92,28.58,14.92,28.58
			S559.29,461.83,546.69,453.2z"/>
	</g>
	<g>
		<path class="st0" d="M616.8,470.3c-9.76,5.19-22.41-0.64-22.41-0.64s3.16-14.25,12.92-19.44s22.41,0.64,22.41,0.64
			S626.55,465.11,616.8,470.3z"/>
	</g>
	<g>
		<path class="st0" d="M659.87,512.97c-9.46-5.77-11.86-20.18-11.86-20.18s12.95-5.07,22.41,0.7c9.46,5.77,11.86,20.18,11.86,20.18
			S669.34,518.73,659.87,512.97z"/>
	</g>
	<g>
		<path class="st0" d="M664.06,549.39c-11.28,4.19-24.26-4.02-24.26-4.02s5.31-15.01,16.59-19.2c11.28-4.19,24.26,4.02,24.26,4.02
			S675.34,545.2,664.06,549.39z"/>
	</g>
	<g>
		<path class="st0" d="M561.68,501.46c-2.14-11.35,6.51-22.76,6.51-22.76s12.12,7,14.26,18.35c2.14,11.35-6.51,22.76-6.51,22.76
			S563.82,512.81,561.68,501.46z"/>
	</g>
	<g>
		<path class="st0" d="M572.65,295.92c11.39-5.91,26.03,1.02,26.03,1.02s-3.83,16.52-15.22,22.43c-11.39,5.91-26.03-1.02-26.03-1.02
			S561.26,301.83,572.65,295.92z"/>
	</g>
	<g>
		<path class="st0" d="M675.88,449.34c10.27,3.9,15.03,17.64,15.03,17.64s-11.9,7.41-22.17,3.5c-10.27-3.9-15.03-17.64-15.03-17.64
			S665.61,445.43,675.88,449.34z"/>
	</g>
	<g>
		<path class="st0" d="M464.22,426.97c8.22-11.41,25.31-12.2,25.31-12.2s3.77,17.7-4.44,29.11c-8.22,11.41-25.31,12.2-25.31,12.2
			S456.01,438.38,464.22,426.97z"/>
	</g>
	<g>
		<path class="st0" d="M450.45,528.3c11.91-2.3,23.67,8.1,23.67,8.1s-7.56,14.12-19.47,16.42c-11.91,2.3-23.67-8.1-23.67-8.1
			S438.54,530.6,450.45,528.3z"/>
	</g>
	<g>
		<path class="st0" d="M486.12,560.16c8.93-8.67,24.1-6.51,24.1-6.51s0.69,16.22-8.24,24.9c-8.93,8.67-24.1,6.51-24.1,6.51
			S477.19,568.83,486.12,560.16z"/>
	</g>
	<g>
		<path class="st0" d="M542.14,533.02c0.1-12.84,11.92-23.16,11.92-23.16s11.67,10.51,11.57,23.36
			c-0.1,12.84-11.92,23.16-11.92,23.16S542.04,545.87,542.14,533.02z"/>
	</g>
	<g>
		<path class="st0" d="M496.29,501.52c8.28-5,19.58-0.54,19.58-0.54s-2.14,12.58-10.42,17.59c-8.28,5-19.58,0.54-19.58,0.54
			S488,506.53,496.29,501.52z"/>
	</g>
	<g>
		<path class="st0" d="M542.81,402.9c-9.63-4.89-12.97-18.77-12.97-18.77s12.28-5.95,21.92-1.06c9.63,4.89,12.97,18.77,12.97,18.77
			S552.45,407.79,542.81,402.9z"/>
	</g>
	<g>
		<path class="st0" d="M655.54,392.34c-9.39-4.77-12.64-18.3-12.64-18.3s11.97-5.8,21.36-1.03c9.39,4.77,12.64,18.3,12.64,18.3
			S664.93,397.1,655.54,392.34z"/>
	</g>
	<g>
		<path class="st0" d="M645.59,575.51c-1.76-8.66,4.73-17.49,4.73-17.49s9.35,5.21,11.11,13.87c1.76,8.66-4.73,17.49-4.73,17.49
			S647.35,584.17,645.59,575.51z"/>
	</g>
	<g>
		<path class="st0" d="M525.58,592.29c3.65-12.25,17.81-18.42,17.81-18.42s8.24,13.68,4.59,25.93
			c-3.65,12.25-17.81,18.42-17.81,18.42S521.93,604.54,525.58,592.29z"/>
	</g>
	<g>
		<path class="st0" d="M613.08,584.31c-3.99-13.19,4.85-27.99,4.85-27.99s15.29,6.59,19.28,19.78c3.99,13.19-4.85,27.99-4.85,27.99
			S617.07,597.5,613.08,584.31z"/>
	</g>
	<g>
		<path class="st0" d="M595.87,606.97c11.63-3.56,24.32,5.52,24.32,5.52s-6.17,14.86-17.81,18.42c-11.63,3.56-24.32-5.52-24.32-5.52
			S584.23,610.53,595.87,606.97z"/>
	</g>
	<g>
		<path class="st0" d="M562.64,627.48c14.61,6.4,20.6,26.62,20.6,26.62s-17.69,9.85-32.3,3.45c-14.61-6.4-20.6-26.62-20.6-26.62
			S548.03,621.08,562.64,627.48z"/>
	</g>
	<g>
		<path class="st0" d="M470.03,603.32c11.96-2.02,23.5,8.65,23.5,8.65s-7.85,13.94-19.81,15.96c-11.96,2.02-23.5-8.65-23.5-8.65
			S458.07,605.34,470.03,603.32z"/>
	</g>
	<g>
		<path class="st0" d="M520.9,647.15c2.64,12.53-6.67,25.42-6.67,25.42s-13.61-7.44-16.25-19.97c-2.64-12.53,6.67-25.42,6.67-25.42
			S518.26,634.61,520.9,647.15z"/>
	</g>
	<g>
		<path class="st0" d="M573.78,581.04c11.63-3.56,24.32,5.52,24.32,5.52s-6.17,14.86-17.81,18.42c-11.63,3.56-24.32-5.52-24.32-5.52
			S562.14,584.6,573.78,581.04z"/>
	</g>
	<g>
		<path class="st0" d="M605.65,523.34c-8.3-15.25-1.07-36.15-1.07-36.15s20.67,3.83,28.97,19.08c8.3,15.25,1.07,36.15,1.07,36.15
			S613.95,538.59,605.65,523.34z"/>
	</g>
	<g>
		<path class="st0" d="M393.08,571.75c14.79-0.45,27.19,14.4,27.19,14.4s-11.58,15.58-26.37,16.03
			c-14.79,0.45-27.19-14.4-27.19-14.4S378.29,572.2,393.08,571.75z"/>
	</g>
	<g>
		<path class="st0" d="M344.38,565.54c7.93-8.91,22.51-7.97,22.51-7.97s1.72,15.38-6.21,24.29c-7.93,8.91-22.51,7.97-22.51,7.97
			S336.45,574.45,344.38,565.54z"/>
	</g>
	<g>
		<path class="st0" d="M414.62,521.5c8.3,15.25,1.07,36.15,1.07,36.15s-20.67-3.83-28.97-19.08c-8.3-15.25-1.07-36.15-1.07-36.15
			S406.32,506.25,414.62,521.5z"/>
	</g>
	<g>
		<path class="st0" d="M363.78,520.13c-2.92,14.02-18.11,22.37-18.11,22.37s-10.45-14.37-7.52-28.39
			c2.92-14.02,18.11-22.37,18.11-22.37S366.7,506.11,363.78,520.13z"/>
	</g>
	<g>
		<path class="st0" d="M453.31,485.78c12.6,8.63,14.92,28.58,14.92,28.58s-18.1,5.97-30.7-2.65c-12.6-8.63-14.92-28.58-14.92-28.58
			S440.71,477.15,453.31,485.78z"/>
	</g>
	<g>
		<path class="st0" d="M383.2,468.68c9.76-5.19,22.41,0.64,22.41,0.64s-3.16,14.25-12.92,19.44s-22.41-0.64-22.41-0.64
			S373.45,473.87,383.2,468.68z"/>
	</g>
	<g>
		<path class="st0" d="M340.13,426.02c9.46,5.77,11.86,20.18,11.86,20.18s-12.95,5.07-22.41-0.7c-9.46-5.77-11.86-20.18-11.86-20.18
			S330.66,420.25,340.13,426.02z"/>
	</g>
	<g>
		<path class="st0" d="M438.32,437.53c2.14,11.35-6.51,22.76-6.51,22.76s-12.12-7-14.26-18.35c-2.14-11.35,6.51-22.76,6.51-22.76
			S436.18,426.17,438.32,437.53z"/>
	</g>
	<g>
		<path class="st0" d="M427.35,643.07c-11.39,5.91-26.03-1.02-26.03-1.02s3.83-16.52,15.22-22.43c11.39-5.91,26.03,1.02,26.03,1.02
			S438.74,637.15,427.35,643.07z"/>
	</g>
	<g>
		<path class="st0" d="M382.85,624.11c-8.46,0.26-15.59-9.75-15.59-9.75s6.58-10.43,15.03-10.69c8.46-0.26,15.59,9.75,15.59,9.75
			S391.3,623.85,382.85,624.11z"/>
	</g>
	<g>
		<path class="st0" d="M324.12,489.65c-10.27-3.9-15.03-17.64-15.03-17.64s11.9-7.41,22.17-3.5c10.27,3.9,15.03,17.64,15.03,17.64
			S334.39,493.55,324.12,489.65z"/>
	</g>
	<g>
		<path class="st0" d="M499.8,491.46c-13.53,0.5-24.94-13.02-24.94-13.02s10.51-14.32,24.04-14.82
			c13.53-0.5,24.94,13.02,24.94,13.02S513.32,490.97,499.8,491.46z"/>
	</g>
	<g>
		<path class="st0" d="M487.69,390.29c-11.6-2.42-18.79-16.31-18.79-16.31s11.61-9.97,23.2-7.56s18.79,16.31,18.79,16.31
			S499.28,392.7,487.69,390.29z"/>
	</g>
	<g>
		<path class="st0" d="M473.38,645.27c7.1,12.22,1.68,29.44,1.68,29.44s-16.93-2.6-24.03-14.82c-7.1-12.22-1.68-29.44-1.68-29.44
			S466.28,633.04,473.38,645.27z"/>
	</g>
	<g>
		<path class="st0" d="M468.17,411.58c-6.33,10.95-21.48,13.31-21.48,13.31s-4.88-15.39,1.45-26.34
			c6.33-10.95,21.48-13.31,21.48-13.31S474.5,400.63,468.17,411.58z"/>
	</g>
	<g>
		<path class="st0" d="M474.42,346.69c-3.65,12.25-17.81,18.42-17.81,18.42s-8.24-13.68-4.59-25.93
			c3.65-12.25,17.81-18.42,17.81-18.42S478.07,334.45,474.42,346.69z"/>
	</g>
	<g>
		<path class="st0" d="M340.57,412.79c-9.29,5.31-21.68,0.04-21.68,0.04s2.68-13.87,11.97-19.18c9.29-5.3,21.68-0.04,21.68-0.04
			S349.86,407.48,340.57,412.79z"/>
	</g>
	<g>
		<path class="st0" d="M505.94,452.7c-7.48-3.89-9.99-14.75-9.99-14.75s9.63-4.56,17.11-0.67c7.48,3.89,9.99,14.75,9.99,14.75
			S513.42,456.58,505.94,452.7z"/>
	</g>
	<g>
		<path class="st0" d="M410.34,318.36c-0.32,12.84-12.32,22.92-12.32,22.92s-11.48-10.74-11.17-23.58
			c0.32-12.84,12.32-22.92,12.32-22.92S410.66,305.52,410.34,318.36z"/>
	</g>
	<g>
		<path class="st0" d="M371.8,347.07c11.62,8.75,13.04,27.8,13.04,27.8s-17.42,4.87-29.04-3.88c-11.62-8.75-13.04-27.8-13.04-27.8
			S360.18,338.32,371.8,347.07z"/>
	</g>
	<g>
		<path class="st0" d="M458.19,307.55c-5.64,11.37-20.6,14.78-20.6,14.78s-5.82-15.02-0.19-26.39c5.64-11.37,20.6-14.78,20.6-14.78
			S463.82,296.19,458.19,307.55z"/>
	</g>
	<g>
		<path class="st0" d="M529.97,335.66c-11.96,2.02-23.5-8.65-23.5-8.65s7.85-13.94,19.81-15.96c11.96-2.02,23.5,8.65,23.5,8.65
			S541.93,333.65,529.97,335.66z"/>
	</g>
	<g>
		<path class="st0" d="M426.22,357.94c-11.63,3.56-24.32-5.52-24.32-5.52s6.17-14.86,17.81-18.42c11.63-3.56,24.32,5.52,24.32,5.52
			S437.86,354.38,426.22,357.94z"/>
	</g>
	<g>
		<path class="st0" d="M394.35,415.64c8.3,15.25,1.07,36.15,1.07,36.15s-20.67-3.83-28.97-19.08c-8.3-15.25-1.07-36.15-1.07-36.15
			S386.05,400.39,394.35,415.64z"/>
	</g>
	<g>
		<path class="st0" d="M692.53,480.24c-0.12-0.58-0.24-1.17-0.36-1.75c-0.14-0.7-0.79-1.23-1.48-1.08
			c-49.78,11.01-104.19,7.55-151.17-13.85c-0.66-0.3-1.37,0.15-1.63,0.79c-0.16,0.39-0.32,0.78-0.48,1.17
			c-10.33-25.31-16.34-52.4-16.08-80.24c0.01-0.69-0.43-1.44-1.15-1.46c-0.62-0.01-1.24-0.02-1.87-0.03
			c-0.64-0.01-1.36,0.46-1.37,1.22c-0.59,63.24,30.2,122.78,71.19,166.87c0.08,0.09,0.17,0.16,0.26,0.22
			c0.41,0.38,1.01,0.48,1.52-0.06c0.44-0.47,0.88-0.93,1.32-1.4c0.45-0.48,0.67-1.34,0.15-1.89
			c-21.55-23.18-40.31-50.72-52.98-80.85c23.43,10.59,48.32,16.35,73.63,18.82c26.63,2.28,53.31,0.84,79.48-4.94
			C692.17,481.67,692.68,480.97,692.53,480.24z"/>
		<path class="st0" d="M627.17,478.61c-0.31,0.63-0.13,1.49,0.49,1.83c0.5,0.27,1,0.55,1.5,0.82c0.22,0.12,0.43,0.16,0.63,0.15
			c0.42,0.03,0.84-0.16,1.1-0.67c12.51-24.89,32.97-43.65,58.04-53.09c0.63-0.24,1.09-0.95,0.85-1.67c-0.18-0.57-0.36-1.13-0.55-1.7
			c-0.21-0.66-0.91-1.16-1.58-0.91C661.57,433.2,640.19,452.69,627.17,478.61z"/>
		<path class="st0" d="M553.22,356.13c0.13,0.02,0.26,0.03,0.41,0.01c0.56-0.07,1.12-0.15,1.68-0.22c0.71-0.09,1.09-0.88,1.02-1.57
			c-2.94-27.28,1.05-54.49,11.58-79.57c0.29-0.7-0.16-1.44-0.75-1.73c-0.51-0.25-1.02-0.5-1.54-0.75c-0.65-0.32-1.37,0.17-1.63,0.79
			c-10.84,25.83-14.86,53.88-11.83,81.97C552.23,355.78,552.71,356.11,553.22,356.13z"/>
		<path class="st0" d="M671.14,553.48c-60.96-3.98-126.9-3.11-177.79,37.74c-0.56,0.45-0.56,1.34-0.15,1.89
			c0.38,0.52,0.76,1.04,1.14,1.57c0.39,0.54,0.93,0.6,1.38,0.38c0.14-0.05,0.27-0.11,0.4-0.22c27.58-22.12,59.73-32.2,93.05-36.13
			c8.09,26.35,23.51,46.67,46.27,60.56c0.1,0.06,0.2,0.1,0.3,0.14c0.5,0.27,1.11,0.22,1.46-0.46c0.28-0.52,0.55-1.04,0.83-1.56
			c0.31-0.59,0.34-1.48-0.3-1.87c-21.58-13.19-36.47-32.33-44.28-57.28c25.69-2.63,51.99-1.77,77.35-0.11
			c0.67,0.04,1.33-0.48,1.37-1.22c0.04-0.66,0.08-1.32,0.12-1.98C672.34,554.22,671.84,553.52,671.14,553.48z"/>
		<path class="st0" d="M472.77,581.47c-0.38-0.22-0.77-0.43-1.15-0.65c-0.64-0.37-1.28-0.29-1.77,0.32
			c-0.37,0.47-0.74,0.94-1.11,1.4c-0.4,0.51-0.27,1.55,0.3,1.87c12.2,6.92,23.95,16.36,34.27,27.49
			c-11.86,18.81-18.32,40.32-18.83,62.95c0,0.14,0.02,0.28,0.05,0.4c0.06,0.56,0.41,1.05,1.11,1.06c0.56,0.01,1.13,0.01,1.69,0.02
			c0.65,0.01,1.35-0.45,1.37-1.22c0.5-21.53,6.48-41.89,17.61-59.87c13.53,15.46,24.27,33.85,29.78,53.12
			c0.18,0.64,0.76,1.3,1.48,1.08c0.54-0.17,1.08-0.34,1.62-0.51c0.6-0.19,1.23-0.81,1.02-1.57
			C529.93,631.45,502.91,599.86,472.77,581.47z M538.56,667.74L538.56,667.74c0,0.03,0,0.05,0,0.07
			C538.56,667.79,538.56,667.76,538.56,667.74z"/>
		<path class="st0" d="M478.67,553.69c-0.01,0.69,0.43,1.44,1.15,1.46c0.62,0.01,1.24,0.02,1.87,0.03c0.64,0.01,1.36-0.46,1.37-1.22
			c0.59-63.24-30.2-122.78-71.19-166.87c-0.08-0.09-0.17-0.16-0.26-0.22c-0.41-0.38-1.01-0.48-1.52,0.06
			c-0.44,0.47-0.88,0.93-1.32,1.4c-0.45,0.48-0.67,1.34-0.15,1.89c21.55,23.18,40.31,50.72,52.98,80.85
			c-23.43-10.59-48.32-16.35-73.63-18.82c-26.63-2.28-53.31-0.84-79.48,4.94c-0.66,0.14-1.16,0.84-1.02,1.57
			c0.12,0.58,0.24,1.17,0.36,1.75c0.14,0.7,0.79,1.23,1.48,1.08c17.88-3.96,36.37-6.03,54.89-6.09c-8.9,26-26.19,47.34-49.18,60.52
			c-0.58,0.33-0.93,1.12-0.6,1.79c0.26,0.53,0.52,1.06,0.79,1.59c0.31,0.62,1.07,1,1.69,0.64c24.35-13.96,42.65-36.71,51.76-64.44
			c0.01-0.02,0.01-0.05,0.02-0.07c31.54,0.46,63.07,6.82,91.81,19.92c0.66,0.3,1.37-0.15,1.63-0.79c0.16-0.39,0.32-0.78,0.48-1.17
			C472.92,498.76,478.93,525.85,478.67,553.69z"/>
		<path class="st0" d="M446.78,582.85c-0.13-0.02-0.26-0.03-0.41-0.01c-0.56,0.07-1.12,0.15-1.68,0.22
			c-0.71,0.09-1.09,0.88-1.02,1.57c2.94,27.28-1.05,54.49-11.58,79.57c-0.29,0.7,0.16,1.44,0.75,1.73c0.51,0.25,1.02,0.5,1.54,0.75
			c0.65,0.32,1.37-0.17,1.63-0.79c10.84-25.83,14.86-53.88,11.83-81.97C447.77,583.2,447.29,582.87,446.78,582.85z"/>
		<path class="st0" d="M328.86,385.5c60.96,3.98,126.9,3.11,177.79-37.74c0.56-0.45,0.56-1.34,0.15-1.89
			c-0.38-0.52-0.76-1.04-1.14-1.57c-0.39-0.54-0.93-0.6-1.38-0.38c-0.14,0.05-0.27,0.11-0.4,0.22
			c-27.58,22.12-59.73,32.2-93.05,36.13c-8.09-26.35-23.51-46.67-46.27-60.56c-0.1-0.06-0.2-0.1-0.3-0.14
			c-0.5-0.27-1.11-0.22-1.46,0.46c-0.28,0.52-0.55,1.04-0.83,1.56c-0.31,0.59-0.34,1.48,0.3,1.87
			c21.58,13.19,36.47,32.33,44.28,57.28c-25.69,2.63-51.99,1.77-77.35,0.11c-0.67-0.04-1.33,0.48-1.37,1.22
			c-0.04,0.66-0.08,1.32-0.12,1.98C327.66,384.76,328.16,385.46,328.86,385.5z"/>
		<path class="st0" d="M500.34,336.73c15.05,14.71,32.55,25.98,52.5,31.21c19.59,5.14,40.07,5.88,60.14,4.84
			c18.63-0.96,37.2-3.54,55.48-7.47c0.78-0.17,1.3-1.11,0.91-1.9c-0.27-0.55-0.54-1.1-0.8-1.66c-0.06-0.12-0.13-0.22-0.21-0.31
			c-0.25-0.34-0.64-0.54-1.17-0.43c-19.16,4.1-38.67,6.76-58.22,7.51c-25.01,0.96-51.94-0.62-74.86-12.25
			c-13.42-6.81-26.33-16.93-37.51-29.07c0.01-0.02,0.03-0.03,0.04-0.06c11.89-18.83,18.36-40.36,18.88-63.02
			c0-0.14-0.02-0.28-0.05-0.4c-0.06-0.56-0.41-1.05-1.11-1.06c-0.56-0.01-1.13-0.01-1.69-0.02c-0.65-0.01-1.35,0.45-1.37,1.22
			c-0.5,21.58-6.51,41.99-17.69,59.99c-13.55-15.59-24.24-34.16-29.7-53.25c-0.18-0.64-0.76-1.3-1.48-1.08
			c-0.54,0.17-1.08,0.34-1.62,0.51c-0.6,0.19-1.23,0.81-1.02,1.57C466.85,296.27,482.71,319.49,500.34,336.73z"/>
		<path class="st0" d="M451.26,571.98c-0.03-0.52-0.38-1-0.83-1.2c-25.32-11.27-53.31-14.74-80.45-17.37
			c-15.83-1.36-31.46-1.32-47.02,2.39c-0.64,0.15-1.18,0.84-1.02,1.57c0.13,0.58,0.26,1.16,0.4,1.74c0.16,0.69,0.78,1.24,1.48,1.08
			c21.06-5.02,42.39-3.04,63.6-0.25c19.56,2.57,39.06,5.82,57.5,13.33c-22.77,15.56-43.32,35.04-56.44,60.51
			c-0.3,0.57-0.35,1.5,0.3,1.87c0.5,0.28,0.99,0.56,1.49,0.84c0.55,0.31,1.41,0.38,1.77-0.32c13.59-26.37,35.27-46.23,59.13-61.82
			C452,573.8,452.13,572.51,451.26,571.98z"/>
	</g>
	<g>
		<path class="st0" d="M537.17,473.82c-21.68,14.77-26.7,41.52-28.82,66.98c-0.29,3.45,4.76,3.92,5.05,0.46
			c1.94-23.17,5.99-48.98,25.95-62.58C542.05,476.84,539.92,471.95,537.17,473.82L537.17,473.82z"/>
	</g>
	<g>
		<path class="st0" d="M597.4,373.02c7.07,17.02,23.36,23.58,39.26,27.99c2.15,0.6,3.38-2.86,1.21-3.47
			c-15-4.17-30.6-9.94-37.32-26.11C599.64,369.26,596.49,370.84,597.4,373.02L597.4,373.02z"/>
	</g>
</g>
</svg>
