<?xml version="1.0" encoding="utf-8"?>
<!-- Generator: Adobe Illustrator 23.0.1, SVG Export Plug-In . SVG Version: 6.00 Build 0)  -->
<svg version="1.1" id="Icons" xmlns="http://www.w3.org/2000/svg" xmlns:xlink="http://www.w3.org/1999/xlink" x="0px" y="0px"
	 viewBox="0 0 800 800" style="enable-background:new 0 0 800 800;" xml:space="preserve">
<style type="text/css">
	.st0{fill:#FFFFFF;}
	.st1{fill:#395398;}
</style>
<rect id="BG" class="st0" width="800" height="800"/>
<g>
	<g>
		<path id="path3797" class="st1" d="M308.51,610.86c0-2.32,1.8-3.58,7.26-5.09c8.19-2.27,11.75-3.62,11.56-4.4
			c-0.26-1.08-3.5-1.27-5.42-0.32c-0.77,0.38-2.4,0.99-3.63,1.35c-1.23,0.36-3.73,1.18-5.56,1.81c-3.62,1.25-5.53,0.64-5.21-1.66
			c0.2-1.44,10.21-6.55,11.55-5.9c1.09,0.53,2.85-0.36,2.85-1.44c0-0.55,0.83-0.89,2.09-0.86c1.15,0.03,2.78-0.41,3.61-0.97
			c0.85-0.58,3.98-1.14,7.15-1.28c4.27-0.19,5.85-0.56,6.54-1.51c1.39-1.93-0.04-2.3-5.21-1.37c-11.29,2.03-12.71,2.36-13.26,3.11
			c-0.32,0.44-1.48,0.81-2.58,0.81c-1.1,0-3.37,0.53-5.05,1.18c-3.42,1.32-9.09,1.94-10.06,1.11c-0.42-0.36-0.12-1.2,0.89-2.5
			c0.88-1.13,1.4-2.44,1.22-3.09c-0.37-1.31,0.58-2.87,1.73-2.87c0.66,0,0.67,0.2,0.06,1.22c-1.6,2.67,1.66,3.05,5.17,0.6
			c0.83-0.58,2.34-1.06,3.35-1.08c1.01-0.02,2.47-0.52,3.24-1.12c1.38-1.08,1.36-1.09-0.72-0.85c-1.16,0.13-2.27,0.46-2.47,0.73
			c-0.67,0.93-3.06,0.52-2.82-0.47c0.13-0.53,1.59-1.18,3.26-1.45c1.66-0.27,4.2-1.2,5.63-2.07c1.43-0.87,3.1-1.4,3.71-1.18
			c1.39,0.5,3.45-0.97,3.45-2.47c0-1.48,0.91-1.46,1.32,0.03c0.53,1.9,4.57,1.52,5.61-0.53c0.81-1.59,0.91-1.61,1.9-0.37
			c0.99,1.24,1.35,1.22,6.3-0.34c2.89-0.91,5.69-1.98,6.24-2.37c1.35-0.97,0.58-2.41-1.06-1.97c-0.73,0.19-1.33,0.02-1.33-0.38
			c0-1.32-4.7,0.25-5.63,1.89c-0.75,1.31-1.08,1.42-2.1,0.66c-0.91-0.68-2.34-0.69-5.73-0.05c-2.49,0.47-4.9,0.65-5.37,0.4
			c-0.47-0.25-1.38-0.01-2.03,0.54c-0.73,0.61-2.13,0.84-3.69,0.59l-2.51-0.4l1.82-0.92c4.21-2.14,0.39-4-4.33-2.1
			c-1.69,0.68-3.82,1.35-4.74,1.48c-0.92,0.14-2.38,0.63-3.25,1.09c-0.87,0.46-2.5,0.84-3.64,0.84c-1.14,0-2.61,0.53-3.28,1.17
			c-1.63,1.58-2.27,0.05-0.92-2.18c0.56-0.93,1.08-1.82,1.16-1.99c0.07-0.17,0.45,0.06,0.84,0.5c0.47,0.52,1.67,0.56,3.5,0.11
			c1.53-0.38,3.74-0.91,4.9-1.18c1.16-0.27,2.24-0.79,2.41-1.16c0.16-0.37,0.85-0.67,1.52-0.68c0.67-0.01,1.85-0.7,2.62-1.53
			c1.52-1.64,2.79-1.99,2.79-0.77c0,1.18,1.83,0.92,3.26-0.46c0.7-0.68,1.77-1.06,2.37-0.84c1.55,0.56,4.98-0.89,4.98-2.11
			c0-0.56-0.81-1.25-1.8-1.52c-1.34-0.37-2.2-0.1-3.35,1.08c-1.43,1.46-1.64,1.49-2.88,0.37c-1.22-1.1-1.42-1.1-2.24,0.04
			c-0.64,0.89-1.39,1.1-2.61,0.73c-1.65-0.5-4.98,0.77-4.98,1.9c0,0.3-1.7,0.6-3.78,0.68c-2.08,0.08-4.65,0.48-5.72,0.91
			c-3.14,1.25-4.46,1-4.46-0.85c0-0.98-0.45-1.78-1.14-2.03c-1.6-0.58-1.15-2.59,0.99-4.45c0.98-0.86,1.8-1.81,1.81-2.13
			c0.02-0.32-1.1-0.58-2.48-0.58c-2.03,0-2.67-0.35-3.39-1.88c-0.7-1.49-1.56-1.99-4.06-2.41c-1.74-0.29-3.47-0.86-3.84-1.27
			c-0.37-0.41-1-0.46-1.4-0.12c-0.4,0.35-1.16,0.53-1.7,0.41c-0.54-0.12-0.98,0.19-0.98,0.69c0,0.53-0.46,0.74-1.12,0.51
			c-0.61-0.22-1.26-0.08-1.44,0.33c-0.18,0.4-0.8,0.52-1.38,0.27c-0.58-0.25-1.93,0.11-3,0.81c-1.07,0.7-2.15,1.1-2.4,0.88
			c-0.25-0.22-2.17,0.1-4.26,0.7c-2.09,0.61-4.02,0.91-4.3,0.68c-0.27-0.23-1.24,0.33-2.14,1.26c-0.99,1.01-2.02,1.48-2.59,1.18
			c-0.52-0.28-1.3-0.11-1.72,0.38c-0.45,0.52-1.7,0.71-3.01,0.47c-1.48-0.27-2.86,0.01-4.04,0.82c-1.7,1.17-3.98,1.91-9.05,2.92
			c-1.22,0.25-2.48,0.72-2.79,1.05c-0.31,0.34-1.83,0.81-3.37,1.04c-1.54,0.24-4.68,1.35-6.98,2.46c-2.3,1.11-5.45,2.47-7,3.01
			c-1.55,0.54-3.81,1.73-5.02,2.65c-2.68,2.02-6.42,3.9-9.59,4.82c-1.3,0.38-3.15,1.25-4.12,1.94c-0.97,0.69-4.92,1.9-8.8,2.69
			c-3.87,0.79-7.99,1.67-9.14,1.96c-1.25,0.31-2.09,0.22-2.09-0.23c0-1.73,2.18-3.25,5.31-3.71c1.84-0.27,3.55-0.77,3.81-1.11
			c0.95-1.27-0.59-1.42-3.83-0.37c-4.04,1.3-7.42,1.24-8.9-0.16c-0.98-0.93-1-1.04-0.12-1.04c1.44,0,1.82-2.21,0.59-3.45
			c-0.99-1.01-0.97-1.1,0.49-1.87c1.79-0.95,1.99-2.21,0.46-3c-1.92-0.99,0.03-3.37,3.14-3.83c3.06-0.45,4.57-1.61,3.41-2.6
			c-0.79-0.68-3.15-0.1-4.18,1.03c-0.44,0.48-1.79-0.04-3.97-1.51c-2.96-2-3.19-2.31-2.13-2.95c1.76-1.07,1.85-3.98,0.15-5.05
			c-1.45-0.91-2.25-3.96-1.36-5.19c0.33-0.45,0.3-0.92-0.08-1.24c-0.88-0.75-0.74-1.97,0.22-1.97c0.66,0,0.76-0.7,0.48-3.47
			c-0.29-2.89-0.19-3.47,0.57-3.47c0.5,0,0.91-0.52,0.91-1.16c0-0.82-0.6-1.16-2.01-1.16c-1.7,0-1.95-0.21-1.61-1.35
			c0.88-2.95,0.94-4.11,0.26-5.23c-0.57-0.95-0.53-1.43,0.21-2.56c1.24-1.89,1.18-2.25-0.76-4.75c-1.71-2.21-2.16-3.86-1.06-3.86
			c0.34,0,1.41-0.5,2.37-1.11c0.97-0.61,2.89-1.29,4.27-1.52c5.59-0.92,7.24-1.44,7.86-2.46c0.94-1.57-0.71-2.23-2.91-1.17
			c-2.23,1.08-6.81,1.13-6.34,0.08c0.19-0.42,1.15-0.78,2.13-0.78c0.98-0.01,2.16-0.35,2.62-0.77c0.74-0.68,0.74-0.85,0-1.53
			c-0.46-0.42-1.47-0.6-2.23-0.38c-3.52,0.97-6.14,1.13-6.14,0.37c0-1.23,0.4-1.34,10.33-2.93c1.84-0.3,3.97-1.14,4.73-1.88
			c0.76-0.74,1.76-1.36,2.23-1.38c0.47-0.02,1.84-1.23,3.04-2.7l2.19-2.67h-1.52c-1.62,0-4.81,1.96-4.81,2.96
			c0,0.33-1.26,0.63-2.79,0.66c-1.54,0.03-3.14,0.46-3.57,0.94c-0.58,0.67-1.13,0.66-2.23-0.03c-1.06-0.67-1.81-0.69-2.76-0.09
			c-0.79,0.5-1.62,0.55-2.09,0.14c-0.43-0.38-1.7-0.69-2.81-0.7c-1.73-0.01-3.9-1.79-3.22-2.63c0.79-0.97,3.98-2.78,4.9-2.78
			c0.61,0,1.26-0.33,1.44-0.74c0.2-0.46-1.51-0.65-4.47-0.52c-4.71,0.22-4.8,0.19-4.49-1.49c0.35-1.92-0.75-2.63-4.07-2.65
			c-1.6-0.01-1.78-0.18-1.19-1.16c0.56-0.94,0.5-1.24-0.35-1.63c-4.13-1.93-4.81-2.78-3.21-4.01c0.82-0.63,0.82-0.74,0.02-1.17
			c-1.31-0.69-0.47-2.85,1.1-2.85c0.74,0,1.34-0.37,1.34-0.83c0-0.46-0.56-0.77-1.26-0.69c-3.02,0.34-3.13,0.2-2.57-3.25
			c0.31-1.92,0.32-3.4,0.02-3.67c-0.28-0.25-0.48-1.32-0.44-2.38c0.05-1.58-0.23-1.98-1.55-2.18l-1.61-0.25l1.78-2.25
			c1.95-2.46,1.85-3.8-0.27-3.8c-0.75,0-1.36-0.32-1.36-0.71c0-0.39-0.12-1.17-0.28-1.74c-0.29-1.07,2.59-3.22,5.44-4.07
			c2.37-0.71,1.92-2.26-0.5-1.72c-2.84,0.64-4.03-0.49-4.46-4.2c-0.24-2.06-0.94-3.87-2.05-5.31c-1.54-2-1.61-2.29-0.8-3.41
			c0.49-0.68,1.23-1.23,1.65-1.23c0.8,0,2.11-1.47,2.11-2.38c0-0.58-2.92-1.54-4.88-1.6c-1.41-0.05-1.71-1.79-0.42-2.47
			c0.46-0.24,0.84-0.94,0.84-1.54c0-0.6,0.38-1.3,0.84-1.54c0.91-0.48,1.17-2.81,0.31-2.81c-0.29,0-0.75,0.53-1.01,1.19
			c-0.4,0.99-0.61,0.85-1.25-0.79c-0.66-1.71-0.65-2.14,0.08-3.14c1.1-1.53,0.67-5.54-0.7-6.56c-1.28-0.95-1.44-4.58-0.19-4.58
			c1.14,0,1.73-2.3,0.8-3.11c-0.58-0.49-0.59-0.88-0.09-1.73c0.85-1.42,0.31-2.11-1.66-2.11c-1.19,0-1.58-0.37-1.58-1.49
			c0-1.5,2.93-5.01,3.5-4.21c0.29,0.4,1.3-0.22,3.16-1.93c1.24-1.14-0.27-3.16-2.4-3.22c-1.6-0.05-1.64-0.11-0.49-0.75
			c0.69-0.38,1.26-1.23,1.26-1.88c0-1.38-1.72-1.58-2.64-0.31c-0.73,1.01-2.62,0.28-2.13-0.82c0.18-0.4-0.1-1.06-0.62-1.46
			c-0.52-0.4-1.01-1.55-1.1-2.56c-0.09-1-0.32-2.9-0.51-4.21c-0.25-1.66-0.09-2.75,0.52-3.59c0.79-1.08,0.79-1.25,0.02-1.66
			c-0.51-0.27-0.79-1.16-0.68-2.17c0.13-1.24,0.69-1.85,2.02-2.23c2.3-0.65,2.79-1.28,1.51-1.96c-0.55-0.29-1.44-0.14-1.99,0.33
			c-0.78,0.67-1.06,0.6-1.32-0.33c-0.46-1.64,0.08-2.6,1.45-2.6c0.86,0,1.08-0.37,0.86-1.5c-0.24-1.27,0.15-1.63,2.55-2.34
			c1.56-0.46,3.1-1.15,3.43-1.52c0.33-0.37,1.22-0.8,1.99-0.94c0.77-0.15,1.37-0.61,1.35-1.04s1.1-1.46,2.5-2.3
			c1.4-0.84,2.97-2.1,3.48-2.81c0.88-1.22,5.47-3,7.74-3c1.69,0,1.83-1.37,0.28-2.78c-1.36-1.23-1.48-1.22-2.19,0.13
			c-0.63,1.18-0.99,1.28-2.11,0.57c-0.74-0.47-2-0.68-2.78-0.48c-1.28,0.34-1.52,0.01-2.33-3.27c-0.49-2-0.78-3.9-0.64-4.22
			c0.14-0.32,1.34-0.96,2.66-1.42c1.36-0.47,2.97-1.74,3.71-2.91l1.31-2.08l-3.19,0.52c-2.84,0.46-3.34,0.33-4.53-1.23
			c-1.75-2.29-1.87-6.44-0.2-7.17c1.07-0.47,1.09-0.58,0.19-1.48c-0.63-0.64-0.8-1.34-0.49-2.04c0.91-2.04,0.55-4.96-0.62-4.99
			c-1.65-0.05-2.47-1.03-2.08-2.51c0.46-1.73,1.11-2.32,3.64-3.29c1.15-0.44,2.09-1.17,2.09-1.63c0-0.45-0.41-0.61-0.91-0.34
			c-0.5,0.27-1.77,0.26-2.82-0.01c-1.52-0.39-1.89-0.83-1.79-2.14c0.06-0.9-0.08-2.26-0.31-3c-0.24-0.78-0.14-1.83,0.23-2.44
			c0.52-0.86,0.41-1.19-0.5-1.59c-0.63-0.28-1.15-0.99-1.15-1.59c0-0.64,0.34-0.9,0.82-0.64c0.53,0.28,1.06-0.29,1.48-1.57
			c0.36-1.1,0.87-2.01,1.13-2.01c0.93,0,0.44-1.45-0.65-1.93c-1.33-0.58-1.45-2.13-0.27-3.49c0.76-0.87,0.76-1.17-0.04-2.85
			c-0.73-1.54-0.76-2.09-0.17-3.06c0.59-0.99,0.53-1.37-0.35-2.26c-0.58-0.59-1.68-1.08-2.44-1.08c-1.29,0-1.32-0.08-0.46-1.4
			c0.72-1.1,0.77-1.6,0.24-2.34c-0.53-0.73-0.53-1.27,0.02-2.47c0.58-1.28,0.52-1.88-0.38-3.65c-0.7-1.38-1.17-3.91-1.34-7.34
			c-0.23-4.56-0.13-5.33,0.78-6.01c2.08-1.54,0.95-3.79-1.92-3.83c-0.98-0.02-0.81-0.34,0.88-1.7c2.39-1.92,2.58-2.56,0.93-3.16
			c-0.87-0.32-1.08-0.81-0.81-1.99c0.2-0.86,0.1-2.24-0.22-3.06c-1.11-2.87,0.7-3.82,12.8-6.67c4.45-1.05,8.97-2.28,10.05-2.73
			c1.07-0.45,4.46-1.47,7.53-2.27c12.55-3.27,24.1-7.32,47.44-16.65c30.39-12.14,30.99-12.37,38.52-15.04
			c9.58-3.39,13.77-5.09,16.19-6.55c2.71-1.64,9.94-5.29,14.51-7.32c10.68-4.74,23.19-10.1,25.12-10.76
			c3.73-1.28,7.59-2.86,12.22-5.02c2.42-1.13,5.69-2.43,7.26-2.89c1.57-0.46,3.53-1.31,4.36-1.9c0.83-0.58,2.15-1.06,2.94-1.06
			c0.79,0,1.87-0.33,2.4-0.73c0.88-0.67,9.89-4.05,14.65-5.49c1.07-0.33,4.97-1.69,8.65-3.04c3.69-1.34,7.78-2.76,9.11-3.14
			c1.33-0.38,3.96-1.39,5.86-2.24c5.62-2.51,17.41-7.22,30.15-12.04c2.71-1.02,7.17-2.9,9.92-4.17c2.74-1.27,7.44-3.05,10.42-3.96
			c2.99-0.91,6.82-2.1,8.5-2.66c1.69-0.55,4.58-1.42,6.42-1.92c1.84-0.5,4.6-1.38,6.14-1.95c1.54-0.57,4.8-1.42,7.26-1.89
			c2.46-0.47,5.97-1.18,7.81-1.59c1.84-0.41,4.48-0.91,5.86-1.13c1.38-0.22,3.27-0.7,4.19-1.08c0.92-0.38,5.94-1.78,11.16-3.12
			c5.22-1.34,11.12-2.91,13.12-3.5c1.99-0.58,5.26-1.46,7.26-1.94c2-0.49,5.39-1.36,7.54-1.94c6.76-1.85,8.65-1.74,8.65,0.46
			c0,1.21-0.25,1.49-1.05,1.14c-0.72-0.32-1.13-0.02-1.32,0.96c-0.22,1.14-0.68,1.36-2.34,1.09c-1.21-0.19-2.82,0.16-3.85,0.85
			c-0.97,0.65-3.91,1.59-6.52,2.09c-6.4,1.22-12.55,2.92-15.76,4.37c-1.46,0.66-3,1.01-3.44,0.78c-0.44-0.23-0.95-0.2-1.14,0.06
			c-0.19,0.27-1.5,0.58-2.9,0.69c-1.4,0.11-2.89,0.6-3.31,1.07c-0.41,0.48-1.46,0.79-2.32,0.69c-0.86-0.1-2.19,0.06-2.96,0.35
			c-0.77,0.29-3.15,0.85-5.3,1.23c-5.51,0.98-13.6,2.94-15.91,3.85c-1.07,0.42-3.45,0.96-5.27,1.2c-3.73,0.48-6.88,1.43-11.7,3.55
			c-1.82,0.8-4.12,1.45-5.13,1.45c-1.01,0-1.98,0.35-2.17,0.77c-0.19,0.42-0.78,0.77-1.31,0.77c-0.53,0-1.95,0.69-3.16,1.54
			c-1.2,0.85-3.25,1.54-4.55,1.54c-1.3,0-2.5,0.31-2.67,0.68c-0.17,0.38-1.5,0.93-2.96,1.23c-1.46,0.3-3.31,1.02-4.11,1.59
			c-1.46,1.04-6.9,3.23-14.19,5.69c-2.15,0.73-4.59,1.94-5.42,2.69c-0.83,0.75-1.76,1.16-2.06,0.9c-0.3-0.26-1.38,0.03-2.4,0.62
			c-1.02,0.6-3.23,1.52-4.92,2.04c-1.69,0.52-3.32,1.21-3.63,1.53c-0.56,0.57-2.75,1.21-6.34,1.84c-1.03,0.18-2.15,0.71-2.48,1.17
			c-0.33,0.46-1.13,0.84-1.77,0.84c-0.64,0-1.75,0.57-2.47,1.27c-0.72,0.7-2.85,1.52-4.73,1.82c-1.88,0.3-5.56,1.31-8.16,2.25
			c-2.61,0.93-5.62,2-6.7,2.38c-1.07,0.38-3.21,1.26-4.74,1.96c-1.54,0.7-4.97,2.08-7.63,3.07c-2.66,0.99-5.34,2.17-5.96,2.63
			c-0.62,0.46-1.76,0.83-2.54,0.83c-0.78,0-1.86,0.66-2.41,1.46c-0.55,0.8-2,1.63-3.23,1.85c-2.19,0.39-3.28,0.77-8.93,3.13
			c-9.5,3.97-14.23,6.15-16.22,7.49c-1.25,0.83-2.89,1.52-3.66,1.52c-0.76,0-1.67,0.39-2.01,0.86c-0.34,0.47-1.71,1.14-3.04,1.49
			c-3.58,0.93-5.49,2.1-5.49,3.38c0,0.62,0.21,1.32,0.48,1.54c0.53,0.45,3.46-0.71,5.85-2.33c0.87-0.59,2.12-1.09,2.79-1.1
			c0.67-0.02,1.84-0.52,2.61-1.13c0.77-0.61,2.05-1.12,2.85-1.13c0.8-0.02,2.1-0.72,2.88-1.57c0.78-0.85,1.78-1.36,2.22-1.12
			c0.44,0.24,2.03-0.24,3.54-1.06c1.51-0.82,3.87-1.74,5.25-2.06c1.38-0.32,3.44-1.22,4.58-2.02c1.14-0.8,2.6-1.45,3.24-1.45
			c0.64,0,2.33-0.89,3.74-1.99c1.47-1.14,3.05-1.81,3.69-1.58c0.62,0.22,1.77-0.07,2.56-0.65c0.79-0.58,4.7-2.17,8.69-3.53
			c3.99-1.36,7.5-2.78,7.79-3.15c0.29-0.37,1.04-0.68,1.67-0.68c0.63,0,1.9-0.58,2.82-1.28c0.92-0.7,3.06-1.53,4.74-1.84
			c5.55-1.02,7.51-1.73,9.49-3.45c1.33-1.16,3.34-1.88,6.28-2.26c2.37-0.31,4.44-0.84,4.59-1.18c0.15-0.34,1.19-0.85,2.3-1.14
			c1.12-0.29,2.44-0.81,2.94-1.15c1.48-1.02,4.82-2.36,5.88-2.36c0.54,0,1.66-0.48,2.47-1.07c0.82-0.59,3.99-1.83,7.06-2.75
			c3.07-0.92,6.34-2.13,7.26-2.69c0.92-0.56,2.81-1.44,4.19-1.96s3.18-1.43,3.99-2.02c0.81-0.59,2.49-1.08,3.73-1.08
			c1.59,0,2.74-0.57,3.93-1.96c1.21-1.4,2.3-1.94,3.81-1.88c2.11,0.08,6.82-1.37,9.83-3.01c0.86-0.47,2.33-0.86,3.25-0.86
			c0.92,0,2.15-0.35,2.72-0.77c1.22-0.9,8.13-3.19,9.77-3.23c0.61-0.02,1.95-0.37,2.96-0.79c2.9-1.19,11.43-3.75,12.67-3.8
			c0.61-0.03,3-0.4,5.3-0.83c2.3-0.43,4.91-0.73,5.79-0.67c0.88,0.06,1.89-0.22,2.23-0.61c0.35-0.39,2.31-1.07,4.36-1.5
			c2.25-0.48,4.4-1.48,5.43-2.53c1.32-1.35,1.96-1.57,2.91-0.98c1.2,0.74,9.22-0.52,13.05-2.06c0.92-0.37,3.31-0.87,5.3-1.11
			l3.63-0.44l-3.35,1.9c-1.84,1.05-4.35,1.93-5.58,1.97c-1.23,0.03-3.86,0.6-5.86,1.24c-4.36,1.41-15.01,4.24-16.19,4.3
			c-0.46,0.02-2.69,0.54-4.95,1.16c-2.26,0.62-4.47,0.93-4.92,0.69c-0.45-0.24-1.53,0.09-2.42,0.72c-0.97,0.69-3.14,1.15-5.43,1.15
			c-2.1,0-4.08,0.35-4.38,0.77c-0.31,0.43-1.8,0.94-3.32,1.14c-4.31,0.56-8.23,1.6-9.46,2.49c-1.34,0.98-4.74,2.25-10.05,3.75
			c-2.15,0.61-4.41,1.42-5.02,1.79c-0.61,0.38-2.2,1.13-3.52,1.68c-1.32,0.55-2.53,1.28-2.68,1.63c-0.54,1.2,4.09,0.66,4.82-0.56
			c0.39-0.65,1.37-1.09,2.16-0.97c1.54,0.23,7.16-1.39,15.4-4.44c2.76-1.02,6.66-2.22,8.65-2.65c5.74-1.25,10.48-2.66,10.9-3.24
			c0.21-0.29,0.97-0.22,1.68,0.15c0.77,0.41,2.05,0.39,3.15-0.05c1.02-0.4,2.78-0.73,3.91-0.73c1.14,0,2.2-0.3,2.37-0.68
			c0.17-0.37,2.38-1.08,4.92-1.58c6.48-1.27,6.48-1.27,10.2-2.77c3.09-1.24,5.13-1.72,14.51-3.39c1.84-0.33,4.06-1,4.92-1.5
			c0.86-0.49,2.7-0.9,4.08-0.9c1.38,0,3.02-0.37,3.63-0.83c1.36-1.01,7.35-1.61,9.83-0.99c1.29,0.32,1.81,0.87,1.81,1.91
			c0,0.93-0.39,1.46-1.08,1.46c-1.5,0-2.07,1.59-0.96,2.7c0.5,0.51,0.75,1.15,0.55,1.43c-0.2,0.28-0.07,0.5,0.29,0.5
			c0.36,0,0.65,0.67,0.65,1.5c0,0.82,0.24,1.71,0.54,1.96c0.59,0.5-1.56,3.84-2.48,3.86c-1.13,0.03-4.2,2.15-4.2,2.9
			c0,0.46,1.33,0.64,3.35,0.44c1.84-0.19,3.35-0.05,3.35,0.29c0,0.35-0.77,0.63-1.71,0.63c-0.94,0-2.26,0.4-2.93,0.9
			c-1.17,0.87-3.12,1.48-4.85,1.52c-0.46,0.01-1.34,0.3-1.95,0.64c-0.61,0.34-3.12,1.03-5.58,1.54c-2.46,0.5-5.72,1.21-7.26,1.56
			c-1.53,0.35-4.55,1.04-6.7,1.53c-2.15,0.49-4.41,1.19-5.02,1.57c-0.61,0.38-2.87,0.91-5.02,1.2c-2.15,0.28-4.76,1-5.79,1.59
			c-1.04,0.59-3.17,1.1-4.75,1.13c-2.84,0.05-3.76,0.23-12.35,2.51c-4.91,1.3-6.78,1.76-11.61,2.87c-1.78,0.41-3.78,1.14-4.44,1.63
			c-0.66,0.49-2.09,0.97-3.18,1.08c-2.79,0.26-6.99,1.66-8.81,2.93c-0.85,0.59-3.05,1.29-4.89,1.55c-1.84,0.26-5.31,1.52-7.71,2.81
			c-2.4,1.29-4.99,2.34-5.75,2.34c-0.76,0-2.43,0.7-3.7,1.54c-1.27,0.85-2.83,1.55-3.46,1.55c-0.63,0-1.87,0.52-2.75,1.16
			c-0.88,0.63-1.99,1.15-2.48,1.15c-0.48,0-1.43,0.72-2.12,1.61c-0.95,1.23-1.48,1.43-2.27,0.85c-0.73-0.54-1.69-0.42-3.26,0.38
			c-1.23,0.63-3.17,1.42-4.31,1.75c-1.15,0.33-2.4,0.95-2.79,1.38s-1.97,1-3.51,1.27c-1.54,0.27-4.18,1.19-5.86,2.05
			c-1.68,0.86-4.44,1.87-6.12,2.24c-4.55,1.01-6.21,1.57-8.08,2.74c-0.93,0.58-2.57,1.29-3.64,1.59c-1.07,0.29-2.21,0.78-2.51,1.09
			c-0.31,0.31-2.44,1.02-4.74,1.58c-2.3,0.56-4.87,1.49-5.69,2.05c-0.83,0.57-2,1.04-2.6,1.04c-0.6,0-2.93,0.89-5.19,1.99
			c-2.25,1.1-6.23,2.82-8.84,3.84c-6.85,2.67-10.58,4.61-11.61,6.04c-0.84,1.16-0.82,1.25,0.26,1.25c0.64,0,2.09-0.53,3.21-1.18
			c1.13-0.65,2.28-0.99,2.56-0.75c0.28,0.24,1.35-0.05,2.38-0.64c1.03-0.59,3.61-1.68,5.75-2.42c2.13-0.74,4.2-1.71,4.6-2.16
			c0.4-0.45,1.5-0.94,2.45-1.08c0.95-0.14,2.82-0.78,4.17-1.41c1.35-0.63,2.82-1.15,3.26-1.15c0.44,0,2.38-0.68,4.31-1.5
			c1.93-0.83,8.75-3.29,15.17-5.47c6.42-2.18,12.07-4.27,12.56-4.63c1.4-1.04,9.72-4.6,10.75-4.6c0.51,0,2.14-0.73,3.63-1.62
			c1.48-0.89,4.07-2.12,5.74-2.73c1.67-0.61,3.35-1.47,3.74-1.92c0.39-0.44,1.16-0.61,1.71-0.37c0.55,0.24,1.72-0.08,2.6-0.71
			c0.88-0.63,2.13-1.15,2.77-1.15c0.65,0,2.19-0.49,3.43-1.08c1.24-0.59,3.38-1.5,4.76-2.02c1.38-0.52,3.79-1.61,5.35-2.43
			c1.56-0.82,4.07-1.63,5.58-1.81c1.51-0.18,3.98-0.86,5.49-1.51c1.51-0.65,3.4-1.18,4.2-1.18c0.8,0,1.99-0.51,2.63-1.13
			c0.64-0.63,1.89-1.11,2.78-1.08c0.88,0.03,2.7-0.34,4.03-0.82c2.73-0.98,6.47-1.84,15.43-3.54c5.83-1.1,10.15-2.29,12-3.31
			c0.46-0.25,1.59-0.53,2.51-0.61c0.92-0.08,4.94-1.08,8.93-2.21c3.99-1.13,8.76-2.23,10.61-2.43c1.84-0.2,3.98-0.7,4.75-1.09
			c1.85-0.96,13.01-3.95,15.56-4.18c1.11-0.1,2.4-0.39,2.86-0.66c1.8-1.04,5.22-2.03,5.67-1.65c0.88,0.75,0.48,1.89-0.92,2.63
			c-1.57,0.83-1.82,2.14-0.54,2.82c0.54,0.29,0.73,0.99,0.52,1.9c-0.61,2.64,0.24,4.6,1.88,4.37c1.32-0.19,1.47,0.03,1.33,1.91
			l-0.16,2.12l5.18,0.01c5.66,0.01,7.21,0.63,5.77,2.27c-1.1,1.26-1.11,2.82-0.02,3.4c0.62,0.33,0.8,1.48,0.71,4.46
			c-0.07,2.35,0.12,4.13,0.48,4.3c1.79,0.82,2.4,2.4,2.65,6.78c0.41,7.24,1.44,12.66,2.55,13.49c1.57,1.16,1.76,3.63,0.38,4.92
			c-0.96,0.91-1.06,1.32-0.5,2.12c0.39,0.55,0.7,2.13,0.7,3.51c0,1.51,0.36,2.79,0.9,3.21c0.74,0.57,0.78,1,0.24,2.41
			c-0.53,1.37-0.49,2.06,0.18,3.49c0.46,0.98,0.7,2.52,0.53,3.42c-0.23,1.22,0.02,1.8,0.99,2.3l1.3,0.66l-1.27,0.94
			c-1.72,1.27-1.24,2.68,1.07,3.15l1.9,0.39l-1.59,2.04c-0.88,1.12-1.45,2.37-1.27,2.76c0.61,1.37,6.39,2.76,9.4,2.27
			c3.19-0.52,6.04,0.64,6.04,2.47c0,0.74,0.46,0.94,1.53,0.65c2.09-0.55,5.16,1.31,5.16,3.13c0,1.53-1.92,4.82-2.81,4.82
			c-0.29,0-0.54,0.68-0.54,1.5c0,2.03-1.14,2.87-1.77,1.31c-0.67-1.66-1.8-1.64-1.33,0.02c0.2,0.71,0.03,1.58-0.36,1.93
			c-0.71,0.63-0.24,1.41,1.52,2.51c0.31,0.19,0.12,0.85-0.42,1.45c-1.72,1.93-1.57,2.01,3.98,2.11c2.23,0.04,2.35,0.14,1.4,1.14
			c-0.58,0.6-1.49,1.11-2.02,1.12c-1.05,0.03-1.3,1.56-0.46,2.76c0.28,0.4,0.69,2.04,0.9,3.63c0.36,2.73,0.31,2.9-1.05,2.9
			c-0.83,0-1.67,0.61-2,1.44c-0.68,1.76-0.28,2.42,1.49,2.42c1.09,0,1.27,0.29,0.99,1.54c-0.27,1.19-0.1,1.54,0.77,1.54
			c1.17,0,2.1,1.31,1.51,2.12c-0.19,0.26-0.64,0.06-1-0.44c-0.36-0.5-0.99-0.91-1.39-0.91c-1.09,0-0.87,3.07,0.25,3.55
			c0.54,0.23,1.39,0.72,1.89,1.09c0.5,0.37,1.51,0.47,2.23,0.22c1.08-0.36,1.2-0.26,0.62,0.59c-0.38,0.57-0.7,1.63-0.7,2.36
			c0,0.73,0.31,1.51,0.7,1.74c0.38,0.23,0.03,0.23-0.79,0c-1.12-0.32-1.64-0.04-2.09,1.14c-0.76,1.96,0.06,2.82,1.6,1.68
			c0.89-0.66,1.22-0.53,1.69,0.69c0.97,2.5,0.72,4.69-0.54,4.69c-1.33,0-1.46,1.73-0.26,3.39c0.59,0.82,1.4,1.04,2.59,0.71
			c1.33-0.37,1.67-0.23,1.46,0.6c-0.15,0.6-0.97,1.08-1.84,1.08c-0.87,0-1.68,0.43-1.81,0.96c-0.13,0.53-0.7,0.96-1.27,0.96
			c-1.35,0-1.62,0.7-1.26,3.29c0.16,1.18,0.66,2.12,1.12,2.12c0.5,0,0.71-0.45,0.52-1.12c-0.78-2.83,3.77,1.5,5.34,5.08
			c0.76,1.74,1.29,2.21,1.99,1.79c0.53-0.31,1.46-0.56,2.07-0.56c0.61,0.01,5.51-0.63,10.88-1.43c10.66-1.57,15.67-1.8,17.17-0.8
			c3.88,2.59,4.31,3.02,4.15,4.23c-0.11,0.86,0.21,1.3,0.94,1.3c1.68,0,1.87,1.19,0.65,3.96c-0.83,1.89-0.95,2.77-0.49,3.54
			c0.47,0.78,0.37,1.28-0.39,2.04c-0.73,0.74-0.82,1.17-0.33,1.59c0.52,0.44,0.51,0.84-0.03,1.74c-0.58,0.96-0.47,1.39,0.58,2.49
			c1.14,1.19,1.18,1.43,0.39,2.34c-1.1,1.27-1.13,3.17-0.06,5.11c0.95,1.74,1.11,4.66,0.29,5.36c-0.91,0.78-0.41,5.07,0.69,5.88
			c1.33,0.98,1.26,2.78-0.12,3.38c-1.29,0.56-1.52,2.7-0.3,2.7c1.19,0,2.3,3.1,1.39,3.88c-0.52,0.44-0.31,1.1,0.78,2.5
			c1.67,2.14,1.84,2.88,0.69,2.88c-0.44,0-0.96,1.11-1.18,2.51c-0.21,1.38-0.62,2.91-0.91,3.41c-0.33,0.56-0.3,1.08,0.07,1.4
			c0.32,0.28,0.58-0.07,0.58-0.77c0-1.94,1.33-0.9,1.95,1.54c0.47,1.85,0.37,2.33-0.7,3.31c-1.6,1.47-1.58,3.08,0.07,5.55
			c1.69,2.52,2.4,6.22,1.2,6.22c-0.6,0-0.85,0.8-0.85,2.7c0,1.49,0.25,2.7,0.56,2.7c0.31,0,0.56,0.5,0.56,1.12
			c0,0.62,0.44,1.46,0.98,1.88c0.92,0.72,0.92,0.83-0.07,1.84c-0.84,0.86-0.93,1.38-0.44,2.63c0.44,1.14,0.43,1.8-0.06,2.47
			c-0.51,0.7-0.5,1.26,0.02,2.4c0.37,0.82,0.53,2.03,0.34,2.69c-0.18,0.66-0.07,1.63,0.24,2.16c0.32,0.53,0.76,3.14,0.97,5.81
			c0.28,3.47,0.68,5.05,1.39,5.58c0.85,0.63,0.91,1.07,0.36,3.08c-0.49,1.79-0.48,2.69,0.05,3.86c0.89,1.96,0.86,2.31-0.15,2.31
			c-0.55,0-0.84,0.77-0.84,2.26c0,2.07-0.25,2.36-3.02,3.47c-1.66,0.67-3.4,1.21-3.86,1.21c-0.47,0-1.56,0.82-2.43,1.81
			c-1.44,1.65-2.3,1.86-9.58,2.33c-7.59,0.49-13.53,2.17-15.47,4.39c-0.32,0.37-2,1.18-3.73,1.81c-5.22,1.88-6.33,3.13-4.58,5.14
			c0.79,0.91,0.79,1.06,0,1.68c-0.48,0.37-0.87,1.16-0.87,1.75c0,1.75,1.14,2.2,1.91,0.74c0.59-1.12,0.8-1.17,1.21-0.27
			c0.78,1.71,0.75,5.33-0.04,5.33c-0.39,0-1.03,0.54-1.42,1.2c-0.61,1.01-0.54,1.26,0.43,1.61c0.8,0.29,1.06,0.86,0.86,1.89
			c-0.15,0.81-0.53,1.48-0.83,1.48c-0.3,0,0.04,0.86,0.76,1.92c0.72,1.05,1.63,1.92,2.01,1.93c0.38,0.01,0.7,0.4,0.7,0.87
			c0,0.53-0.53,0.67-1.4,0.37c-1.6-0.56-1.86,0.69-0.62,3.03c0.9,1.7,0.58,3.32-1.03,5.15c-1.13,1.3-1.12,1.34,1.51,4.85
			c1.46,1.95,2.65,4.22,2.65,5.06c0,0.83,0.25,1.52,0.56,1.52c0.31,0,0.56,0.69,0.56,1.54c0,1.6-1.35,2.13-1.95,0.77
			c-0.8-1.78-1.26-0.59-0.53,1.35c0.44,1.17,0.8,2.54,0.8,3.04c0,1.66-1.17,1.97-1.94,0.51c-0.92-1.74-1.64-0.98-1.14,1.21
			c0.2,0.88,0.83,1.6,1.4,1.6c0.57,0,1.44,0.22,1.94,0.48c0.82,0.44,0.81,0.58-0.1,1.43c-0.55,0.52-1.69,1.18-2.54,1.46
			c-0.84,0.28-1.53,1.03-1.53,1.66c0,1.39,1.19,1.49,2.16,0.18c0.57-0.77,0.84-0.72,1.37,0.24c0.36,0.66,1.13,1.45,1.71,1.75
			c0.9,0.47,1,1.07,0.68,4.33c-0.23,2.4-0.14,3.98,0.24,4.3c0.73,0.63-0.35,2.69-1.41,2.69c-0.9,0-2.23,2.19-1.74,2.87
			c0.21,0.28,1.41,0.43,2.68,0.33c2.02-0.16,2.22-0.04,1.6,1c-0.39,0.65-0.56,1.73-0.38,2.38c0.22,0.8-0.13,1.43-1.05,1.92
			c-0.76,0.4-1.38,1.05-1.38,1.44c0,0.97,1.5,1.69,2.47,1.18c1.07-0.57,3.11,1.02,3.11,2.43c0,0.62-0.25,1.13-0.56,1.13
			c-0.31,0-0.56-0.55-0.56-1.21c0-0.72-0.38-1.11-0.94-0.96c-1.35,0.36-2.53,7.16-1.85,10.63c0.4,2,0.33,2.96-0.24,3.86
			c-0.42,0.66-0.86,2.05-0.96,3.09c-0.17,1.66-0.62,1.99-3.82,2.8c-2,0.5-7.48,1.55-12.18,2.32c-7.15,1.18-8.63,1.23-9.02,0.36
			c-0.38-0.85-2.23-0.94-9.82-0.5c-5.14,0.3-9.75,0.84-10.24,1.2c-0.49,0.36-3.37,0.87-6.4,1.13c-3.03,0.27-5.7,0.64-5.93,0.83
			c-0.95,0.81-12.23,2.73-20.45,3.48c-4.87,0.44-10.61,1.13-12.76,1.53c-2.15,0.4-5.59,0.74-7.65,0.75
			c-2.06,0.01-4.32,0.34-5.02,0.72c-0.7,0.38-4.04,1.26-7.42,1.95c-5.78,1.18-8,1.53-15.27,2.4c-1.64,0.2-3.2,0.54-3.45,0.76
			c-1.32,1.13-14.66,4.58-26.77,6.93c-3.22,0.63-7.37,1.65-9.21,2.28c-3.64,1.24-18.04,4.42-26.51,5.85
			c-2.92,0.49-10.45,2.24-16.75,3.88c-6.29,1.64-15.21,3.52-19.82,4.16c-4.6,0.65-11.01,1.55-14.23,2
			c-3.22,0.45-10.88,2.16-17.02,3.79c-6.14,1.63-13.42,3.37-16.19,3.86c-2.76,0.48-9.54,2.21-15.07,3.83
			c-11.32,3.33-12,3.42-12,1.57L308.51,610.86z M331.4,600.09c0-0.42-0.36-0.77-0.8-0.77c-0.44,0-0.96,0.35-1.15,0.77
			c-0.19,0.42,0.17,0.77,0.8,0.77C330.88,600.86,331.4,600.51,331.4,600.09z M336.18,599.76c1.03-1.05,1.04-1.13,0.07-1.64
			c-1.14-0.61-3.73,0.75-3.73,1.96C332.52,601.24,334.93,601.03,336.18,599.76L336.18,599.76z M342.42,599.6
			c0.69-0.25,1.26-0.97,1.26-1.58c0-1.73-4.12-1.05-4.36,0.72C339.12,600.17,340.13,600.45,342.42,599.6z M347.31,597
			c0.19-0.42-0.03-0.77-0.49-0.77c-0.46,0-0.99,0.35-1.18,0.77c-0.19,0.42,0.03,0.77,0.49,0.77
			C346.59,597.77,347.12,597.43,347.31,597z M355.11,594.97c1.04-1,0.99-1.06-0.66-1.06c-2.34,0-4.79,1.34-4.33,2.36
			C350.56,597.26,353.53,596.49,355.11,594.97z M359.79,594c0.55-0.49,0.58-0.81,0.11-1.22c-0.8-0.68-2.27,0.03-2.27,1.11
			C357.63,594.85,358.75,594.91,359.79,594L359.79,594z M365.97,592.84c1.5-0.75,1.71-1.07,0.97-1.46c-1.4-0.74-4.29,0.25-4.29,1.48
			C362.66,594.12,363.41,594.12,365.97,592.84L365.97,592.84z M382.43,590.79c1.08-1.47-0.34-1.62-6.48-0.69
			c-8.81,1.34-9.35,2.29-1.02,1.81C378.77,591.68,382.15,591.18,382.43,590.79z M348.34,588.9c1.1-0.64,2.95-1.16,4.11-1.16
			c1.16,0,2.83-0.52,3.71-1.16c0.88-0.64,2.51-1.16,3.63-1.17c1.12-0.01,4.67-0.53,7.89-1.17c3.22-0.64,8.5-1.53,11.72-1.99
			c11.73-1.67,19.58-3.25,20.63-4.14c2.07-1.77-0.94-2.57-4.44-1.18c-1.07,0.42-3.96,1.13-6.42,1.57c-2.46,0.44-6.4,1.14-8.75,1.56
			c-2.35,0.42-6.75,0.89-9.77,1.05c-3.02,0.16-7.5,0.85-9.95,1.52c-2.46,0.68-5.85,1.61-7.54,2.07c-7.67,2.09-9.83,3.19-9.17,4.66
			C344.45,590.38,346.07,590.2,348.34,588.9L348.34,588.9z M396.38,588.31c1.93-1.37-0.39-2.33-3.15-1.3
			c-2.92,1.08-3.32,1.41-2.91,2.32C390.68,590.15,394.76,589.46,396.38,588.31z M403.12,586.2c0.19-0.42-0.05-0.77-0.52-0.77
			c-0.48,0-0.87,0.35-0.87,0.77c0,0.42,0.24,0.77,0.52,0.77C402.54,586.97,402.93,586.62,403.12,586.2L403.12,586.2z M408.49,584.93
			c2.27-0.5,3.57-1.83,1.79-1.82c-1.69,0.01-5.13,1.54-5.55,2.47c-0.26,0.58-0.07,0.7,0.59,0.36
			C405.85,585.65,407.28,585.2,408.49,584.93L408.49,584.93z M327.77,584.65c0.19-0.42-0.05-0.77-0.53-0.77
			c-0.48,0-0.87,0.35-0.87,0.77c0,0.42,0.24,0.77,0.53,0.77C327.19,585.42,327.58,585.08,327.77,584.65z M201.88,581.98
			c0.56-0.93,0.42-1.22-0.78-1.63c-1.41-0.49-3.11,0.64-3.11,2.08C197.99,583.55,201.16,583.19,201.88,581.98L201.88,581.98z
			 M424.47,582.62c1.67-0.62,1.61-1.83-0.09-1.83c-1.83,0-3.18,0.78-2.8,1.62C421.94,583.22,422.72,583.27,424.47,582.62
			L424.47,582.62z M346.19,580.79c0.19-0.42-0.03-0.77-0.49-0.77c-0.46,0-0.99,0.35-1.18,0.77c-0.19,0.42,0.03,0.77,0.49,0.77
			C345.47,581.56,346,581.22,346.19,580.79z M437.31,580.03c0.38-0.01,0.7-0.4,0.7-0.88c0-1.08-4.48-0.22-5.3,1.01
			c-0.4,0.59,0.09,0.69,1.67,0.36C435.61,580.25,436.93,580.03,437.31,580.03L437.31,580.03z M207.49,579.25
			c0-0.42-0.36-0.77-0.8-0.77c-0.44,0-0.96,0.35-1.15,0.77c-0.19,0.42,0.17,0.77,0.8,0.77
			C206.97,580.02,207.49,579.67,207.49,579.25z M351.49,579.25c0-0.42-0.36-0.77-0.8-0.77c-0.44,0-0.96,0.35-1.15,0.77
			c-0.19,0.42,0.17,0.77,0.8,0.77C350.98,580.02,351.49,579.67,351.49,579.25z M405.5,575.97c-0.13-0.53-0.69-0.97-1.26-0.97
			s-1.13,0.44-1.26,0.97c-0.15,0.61,0.31,0.96,1.26,0.96C405.18,576.93,405.64,576.58,405.5,575.97z M453.36,576.16
			c-0.19-0.42-0.58-0.77-0.87-0.77c-0.29,0-0.53,0.35-0.53,0.77c0,0.42,0.39,0.77,0.87,0.77S453.55,576.58,453.36,576.16z
			 M459.08,576.45c1.92-0.71,1.49-1.83-0.7-1.83c-1.85,0-2.42,0.65-1.58,1.8C457.25,577.04,457.47,577.04,459.08,576.45
			L459.08,576.45z M372.98,575.39c0.19-0.42-0.05-0.77-0.53-0.77c-0.48,0-0.87,0.35-0.87,0.77c0,0.42,0.24,0.77,0.53,0.77
			C372.4,576.16,372.79,575.81,372.98,575.39L372.98,575.39z M379.68,574.61c-0.19-0.42-0.71-0.77-1.15-0.77
			c-0.44,0-0.8,0.35-0.8,0.77c0,0.42,0.52,0.77,1.15,0.77C379.51,575.39,379.87,575.04,379.68,574.61z M410.27,574.63
			c0.58-0.01,0.85-0.36,0.64-0.84c-0.42-0.94-3.02-0.28-3.88,0.99c-0.39,0.58-0.14,0.68,0.84,0.34
			C408.64,574.85,409.72,574.63,410.27,574.63z M219.88,572.48c-1.05-0.48-2.48,0.45-2.07,1.36c0.23,0.51,0.76,0.47,1.57-0.12
			C220.17,573.13,220.35,572.7,219.88,572.48L219.88,572.48z M333.74,572.73c0.87-0.5,1.41-1.16,1.2-1.45
			c-0.67-0.93-4.91-0.51-5.95,0.59c-0.98,1.03-0.98,1.09,0,1.88C330.02,574.57,330.91,574.38,333.74,572.73z M362.27,573.28
			c3.89-0.53,3.11-2.18-0.94-1.97c-3.58,0.19-4.26,0.55-4.26,2.28c0,0.9,0.31,1.06,1.26,0.63
			C359.02,573.91,360.79,573.48,362.27,573.28z M416.44,573.46c0.24-0.87-0.09-1.16-1.3-1.16c-1.62,0-2.53,0.89-1.86,1.82
			C413.96,575.07,416.12,574.61,416.44,573.46z M426.01,572.66c7.37-1.26,10.99-3.73,4.43-3.02c-2.13,0.23-4.75,0.75-5.83,1.15
			c-1.07,0.4-2.88,0.74-4.01,0.74c-2.03,0-3.02,0.82-2.27,1.86c0.21,0.29,1.65,0.31,3.19,0.05
			C423.07,573.16,425.09,572.82,426.01,572.66L426.01,572.66z M343.94,571.12c2.45-0.64,4.67-1.47,4.95-1.86
			c0.28-0.38,0.82-0.53,1.21-0.32c0.39,0.2,1.68-0.35,2.86-1.24l2.16-1.61l-2.51,0.43c-7.63,1.32-15.81,3.42-16.39,4.21
			c-0.88,1.21,0.28,2.5,1.8,2.01C338.83,572.49,341.49,571.75,343.94,571.12L343.94,571.12z M397.08,571.32
			c0.23-0.52-0.12-0.63-0.98-0.31c-0.74,0.27-1.66,0.5-2.04,0.51c-0.38,0.01-0.7,0.3-0.7,0.65
			C393.36,573.05,396.64,572.3,397.08,571.32z M372.02,570.88c0.16-0.66-0.11-0.94-0.75-0.77c-0.55,0.15-1.11,0.74-1.24,1.31
			c-0.16,0.66,0.11,0.94,0.75,0.77C371.33,572.04,371.89,571.45,372.02,570.88L372.02,570.88z M473.73,571.53
			c0-0.42-0.24-0.77-0.53-0.77c-0.29,0-0.68,0.35-0.87,0.77c-0.19,0.42,0.05,0.77,0.53,0.77
			C473.34,572.3,473.73,571.95,473.73,571.53z M442.47,569.24c1.69-0.44,4.95-1.16,7.26-1.6c9.78-1.85,12.05-2.3,12.84-2.56
			c0.46-0.15,1.84-0.52,3.07-0.83c1.23-0.31,2.78-0.93,3.45-1.38c0.67-0.45,1.62-0.6,2.12-0.34c0.56,0.3,1.42-0.23,2.23-1.36
			c0.9-1.25,1.41-1.53,1.59-0.88c0.29,1.03,6.03,0.33,8.74-1.08c1.39-0.72,8.11-1.65,11.62-1.6c1.01,0.01,2.3-0.31,2.84-0.72
			c0.55-0.41,2.29-0.88,3.86-1.05c1.57-0.17,3.18-0.67,3.57-1.11c0.39-0.44,2.41-0.77,4.49-0.74c2.22,0.03,4.05-0.32,4.44-0.86
			c0.36-0.5,1.11-0.92,1.67-0.92c0.55,0,1.01-0.33,1.01-0.73c0-0.82,3.1-0.6,4.65,0.33c0.56,0.34,3.07,0.38,5.58,0.1
			c2.51-0.28,6.56-0.69,9-0.91c2.44-0.22,5.46-0.73,6.7-1.12c1.24-0.4,3.19-0.73,4.32-0.74c1.13-0.01,2.23-0.4,2.44-0.86
			c0.22-0.5,1.12-0.65,2.22-0.36c1.1,0.29,2,0.14,2.22-0.36c0.22-0.49,1.04-0.64,1.95-0.36c0.86,0.26,3.04,0.11,4.83-0.33
			c1.79-0.44,4.77-0.84,6.61-0.89c1.84-0.05,4.81-0.78,6.59-1.62c1.78-0.85,4.25-1.64,5.49-1.77c2.55-0.26,3.57-1.28,3.07-3.08
			c-0.3-1.07-1.31-1.18-7.75-0.82c-4.07,0.22-9.42,0.74-11.87,1.15c-2.46,0.41-7.48,1.15-11.16,1.64c-3.68,0.49-7.42,1.4-8.3,2.02
			c-0.88,0.62-2.12,0.94-2.75,0.71c-0.63-0.23-1.87,0.17-2.75,0.89c-1.34,1.1-1.68,1.13-2.08,0.24c-0.38-0.85-1.48-0.96-5.42-0.51
			c-2.72,0.31-5.57,0.55-6.34,0.54c-0.77-0.01-2.28,0.38-3.35,0.88c-1.07,0.49-2.96,0.95-4.19,1.02
			c-8.26,0.46-14.52,1.25-18.14,2.29c-2.3,0.66-6.55,1.36-9.44,1.55c-3.06,0.2-5.95,0.83-6.92,1.5c-0.92,0.64-2.32,1.16-3.11,1.16
			c-1.61,0-12.93,2.69-16.81,4c-2.57,0.86-6.25,1.8-10.47,2.66c-2.58,0.53-3.05,1.42-1.19,2.24c3.16,1.39-3.55,3.84-12.23,4.47
			c-2.31,0.17-3.74,1.59-3.08,3.07C435.91,570.9,436.51,570.81,442.47,569.24z M406.19,569.21c0.65-0.58,0.5-0.75-0.7-0.76
			c-0.85-0.01-1.54,0.33-1.54,0.76C403.96,570.19,405.1,570.19,406.19,569.21z M414.5,568.52c1.15-1.01,0.18-2.54-1.23-1.94
			c-1.56,0.66-1.67,0.83-1.23,1.81C412.47,569.38,413.45,569.43,414.5,568.52L414.5,568.52z M420.41,567.7
			c0.18-0.41,0.7-0.54,1.15-0.3c0.45,0.24,1.26,0.19,1.8-0.12c0.93-0.52,0.93-0.58,0-1.05c-0.53-0.28-2.11-0.38-3.51-0.22
			c-2.1,0.23-2.43,0.47-1.89,1.36C418.7,568.61,419.93,568.78,420.41,567.7L420.41,567.7z M200.23,566.08
			c0.56-0.45-0.13-0.68-2.05-0.7c-3.29-0.03-4.8,0.56-4.3,1.68C194.25,567.9,198.85,567.19,200.23,566.08L200.23,566.08z
			 M342.84,565.06c0.61-0.47,1.37-0.89,1.67-0.93c0.52-0.07,0.97-0.28,3.07-1.42c0.46-0.25-0.1-0.3-1.25-0.11
			c-1.15,0.19-2.23,0.02-2.41-0.38c-0.59-1.31-2.28-0.75-3.61,1.21c-0.81,1.19-1.92,1.93-2.92,1.93c-0.9,0-1.46,0.33-1.27,0.75
			C336.54,567.01,341.25,566.27,342.84,565.06L342.84,565.06z M364.55,565.61c2.8-0.27,5.72-0.83,6.48-1.25l1.4-0.77l-1.4-0.57
			c-1.83-0.74-6.02-0.05-7.97,1.31c-0.85,0.6-1.78,0.88-2.07,0.64c-0.74-0.63-3.36,0.4-3.36,1.32c0,0.42,0.41,0.55,0.91,0.29
			C359.05,566.31,361.75,565.88,364.55,565.61z M400.89,566.12c0.19-0.44-0.27-0.77-1.08-0.77c-0.79,0-1.43,0.35-1.43,0.77
			c0,0.42,0.49,0.77,1.08,0.77C400.06,566.9,400.7,566.55,400.89,566.12L400.89,566.12z M434.41,565.29
			c0.75-1.68-0.65-2.28-2.44-1.05c-0.98,0.68-1.78,1.38-1.78,1.56C430.2,566.53,434.06,566.06,434.41,565.29L434.41,565.29z
			 M440.49,563.73c0.32-0.41-0.41-0.69-1.82-0.69c-1.76,0-2.34,0.3-2.34,1.22c0,0.97,0.37,1.11,1.81,0.69
			C439.15,564.66,440.2,564.11,440.49,563.73z M207.44,563.71c1.1-0.48,4.25-2.22,7.02-3.87c2.76-1.65,5.36-2.99,5.78-2.98
			c0.41,0.01,3.23-1.37,6.26-3.06c3.03-1.69,5.87-2.88,6.31-2.65c0.44,0.24,1.57-0.12,2.5-0.79c0.93-0.67,2.58-1.21,3.65-1.21
			c1.07,0,2.53-0.31,3.24-0.69c1.22-0.66,5.7-2.04,12.98-4c3.7-0.99,5.88-2.17,5.88-3.15c0-0.72-4.1-0.19-7.54,0.98
			c-5.2,1.77-9.62,3.06-11.44,3.34c-1.07,0.16-2.71,0.72-3.63,1.24c-0.92,0.52-2.55,1.22-3.63,1.55c-3.35,1.04-4.14,1.35-5.86,2.28
			c-0.92,0.5-2.39,1.04-3.27,1.2c-2.29,0.42-3.57,1.01-7.34,3.41c-1.84,1.18-4.48,2.74-5.86,3.48c-1.38,0.74-3.01,1.62-3.63,1.95
			c-0.61,0.33-1.94,1.03-2.94,1.55C202.24,564.21,203.53,565.43,207.44,563.71L207.44,563.71z M447.92,562.85
			c1.48-1.63,0.66-2.26-2.23-1.73c-3.07,0.57-4.53,1.6-3.99,2.81C442.08,564.8,446.92,563.95,447.92,562.85z M376.89,563.04
			c-0.19-0.42-0.83-0.77-1.43-0.77c-0.6,0-1.08,0.35-1.08,0.77c0,0.42,0.64,0.77,1.43,0.77
			C376.62,563.81,377.09,563.47,376.89,563.04z M383.8,562.73c1.64-1.26,0.75-2.24-1.45-1.6c-0.86,0.25-2.18,0.63-2.93,0.85
			c-1.08,0.31-1.2,0.54-0.56,1.1C380.02,564.08,382.25,563.93,383.8,562.73L383.8,562.73z M353.4,561.87
			c0.59-0.62,1.62-0.92,2.31-0.69c0.68,0.24,1.42,0.04,1.63-0.44c0.29-0.65,0.58-0.65,1.15,0c0.58,0.66,1.09,0.54,2.16-0.54
			c1.86-1.87,1.81-2.9-0.09-2.17c-0.85,0.32-2.92,0.68-4.6,0.79c-4.1,0.27-4.07,0.27-4.99,1.07c-0.66,0.58-0.68,0.91-0.07,1.92
			C351.79,563.29,352.03,563.3,353.4,561.87L353.4,561.87z M389.03,561.11c-0.21-1.15-2.52-0.94-2.81,0.25
			c-0.17,0.73,0.22,0.95,1.35,0.77C388.45,561.99,389.11,561.53,389.03,561.11L389.03,561.11z M535.97,560.72
			c-0.19-0.42-0.69-0.77-1.12-0.77c-0.42,0-0.93,0.35-1.12,0.77c-0.2,0.44,0.29,0.77,1.12,0.77
			C535.69,561.49,536.17,561.16,535.97,560.72z M309.63,559.47c0-0.16-0.5-0.3-1.12-0.3c-0.61,0-1.12,0.32-1.12,0.7
			c0,0.38,0.5,0.52,1.12,0.3C309.13,559.95,309.63,559.64,309.63,559.47z M371.17,558.09c1.15-0.35,2.09-0.96,2.09-1.35
			c0-0.84-3.93-0.03-4.71,0.98c-0.3,0.38-0.95,0.14-1.52-0.59c-0.82-1.02-1.16-1.07-1.85-0.28c-0.47,0.53-0.85,1.21-0.85,1.49
			C364.33,559.04,368.55,558.88,371.17,558.09z M399.78,558.4c1.42-0.85-0.05-0.85-1.95,0c-1.12,0.5-1.18,0.62-0.28,0.64
			C398.16,559.06,399.16,558.77,399.78,558.4L399.78,558.4z M315.21,557.63c0-0.42-0.5-0.77-1.12-0.77c-0.61,0-1.12,0.35-1.12,0.77
			s0.5,0.77,1.12,0.77C314.71,558.4,315.21,558.06,315.21,557.63z M324.93,555.62c0.49-0.26,0.88-0.8,0.88-1.21
			c0-1.07-2.38-0.43-2.66,0.72C322.91,556.17,323.55,556.35,324.93,555.62z M336.56,553.23c2.68-0.7,1.66-1.56-1.4-1.17
			c-3.33,0.42-3.47,0.51-2.92,1.73c0.23,0.52,0.89,0.67,1.59,0.36C334.49,553.86,335.72,553.45,336.56,553.23z M346.78,550.28
			c1.03-1.12,1.01-1.17-0.55-0.97c-0.9,0.12-1.73,0.64-1.86,1.18C344.06,551.83,345.47,551.7,346.78,550.28L346.78,550.28z
			 M353.17,548.37c0-0.42-0.5-0.77-1.12-0.77c-0.61,0-1.11,0.35-1.11,0.77c0,0.42,0.5,0.77,1.11,0.77
			C352.67,549.14,353.17,548.8,353.17,548.37z M357.99,547.6c0.15,0,0.13-0.31-0.05-0.7c-0.17-0.38-0.81-0.52-1.42-0.3
			c-0.61,0.22-0.96,0.73-0.78,1.14c0.18,0.41,0.7,0.54,1.16,0.3C357.35,547.79,357.85,547.6,357.99,547.6L357.99,547.6z
			 M363.38,545.97c-0.44-0.61-0.91-0.62-1.65-0.02c-0.9,0.73-0.83,0.83,0.62,0.85C363.55,546.82,363.83,546.6,363.38,545.97
			L363.38,545.97z M375.9,545.73c5.46-0.57,11.51-2.54,8.26-2.69c-2.14-0.1-17.1,1.48-18.06,1.9c-0.4,0.18-0.62,0.59-0.47,0.91
			C365.94,546.53,368.59,546.49,375.9,545.73z M394.54,541.4c2.65-1.24,2.79-1.42,1.25-1.47c-2.05-0.06-7.46,2.21-7.46,3.13
			C388.33,543.86,390.63,543.24,394.54,541.4z M267.83,540.58c1.65-0.47,3.38-0.84,3.85-0.83c0.87,0.01,5.16-1.01,9.49-2.26
			c4.34-1.26,8.93-3.27,8.93-3.93c0-0.72-4.53-0.29-8.65,0.81c-1.53,0.41-4.24,1.11-6.01,1.55c-1.77,0.44-3.53,1.08-3.91,1.42
			c-0.38,0.34-2.43,0.96-4.55,1.39c-2.16,0.43-3.97,1.2-4.09,1.74C262.6,541.65,263.9,541.68,267.83,540.58L267.83,540.58z
			 M407.47,538.97c1.77-0.47,3.35-1.13,3.5-1.46c0.41-0.92-0.76-1.66-1.55-0.99c-0.38,0.33-1.5,0.49-2.5,0.38
			c-1.83-0.22-4.66,0.77-7.7,2.69c-1.59,1-1.5,1.04,1.67,0.65C402.73,540.01,405.69,539.44,407.47,538.97L407.47,538.97z
			 M420.05,537.19c3.94-0.24,6.8-1.37,6.8-2.69c0-0.97-2.15-0.95-5.86,0.05c-1.53,0.41-3.61,0.73-4.61,0.7
			c-2.13-0.06-4.22,1.29-3.73,2.4c0.19,0.44,1.08,0.56,2.01,0.27C415.57,537.64,418,537.31,420.05,537.19z M430.2,534.47
			c0-0.42-0.38-0.77-0.84-0.77c-0.46,0-0.84,0.35-0.84,0.77c0,0.42,0.38,0.77,0.84,0.77C429.82,535.25,430.2,534.9,430.2,534.47z
			 M446.7,532.71c0.94-0.16,2.07-0.6,2.51-0.99c0.44-0.38,3.08-0.76,5.88-0.85c3.08-0.09,5.89-0.62,7.14-1.34
			c1.14-0.66,4.12-1.4,6.64-1.66c3.02-0.31,4.92-0.89,5.57-1.7c0.54-0.68,2.05-1.32,3.35-1.43c3.6-0.31,6.72-1.21,7.82-2.25
			c0.9-0.85,0.83-0.99-0.7-1.41c-1.89-0.52-4.97,0.1-5.99,1.21c-0.37,0.4-1.2,0.5-1.84,0.21c-0.64-0.28-1.47-0.19-1.84,0.2
			c-0.37,0.39-1.8,0.79-3.18,0.88c-1.38,0.09-3.27,0.78-4.2,1.54c-0.93,0.75-2.94,1.43-4.46,1.51c-1.53,0.07-5.29,0.79-8.36,1.58
			c-3.07,0.8-6.21,1.45-6.98,1.45c-6.12,0.02-10.6,1.41-10.6,3.27C437.45,533.48,442.95,533.35,446.7,532.71L446.7,532.71z
			 M487.41,526.76c0.19-0.42-0.19-0.77-0.84-0.77c-0.65,0-1.03,0.35-0.84,0.77c0.19,0.42,0.57,0.77,0.84,0.77
			C486.84,527.53,487.22,527.18,487.41,526.76z M456.71,525.21c0.19-0.42-0.05-0.77-0.53-0.77c-0.48,0-0.87,0.35-0.87,0.77
			c0,0.42,0.24,0.77,0.53,0.77C456.13,525.98,456.52,525.64,456.71,525.21z M496.62,525.34c0-1.09-0.63-1.59-1.45-1.15
			c-1.17,0.62-0.94,1.79,0.33,1.79C496.12,525.98,496.62,525.69,496.62,525.34z M502.63,523.52c-0.35-1.43-1.55-1.67-1.55-0.31
			c0,0.67,0.4,1.22,0.88,1.22C502.45,524.44,502.75,524.03,502.63,523.52L502.63,523.52z M495.19,522.37
			c3.78-0.33,5.69-0.74,8.68-1.85c1.38-0.51,3.77-1.02,5.3-1.12c12.33-0.82,16.08-1.2,16.65-1.69c0.36-0.31,2.41-0.68,4.56-0.82
			c6.45-0.41,7.22-0.53,8.07-1.29c0.45-0.4,2.16-0.67,3.8-0.61c1.64,0.06,3.65-0.24,4.45-0.66c1.77-0.93,10.29-1.57,11.15-0.84
			c0.34,0.29,0.64,0.78,0.67,1.1c0.03,0.32,0.24,0.49,0.47,0.39c0.23-0.11,0.34-0.61,0.26-1.12c-0.09-0.53,0.74-1.13,1.96-1.41
			c3.34-0.77,3.78-1.06,3.07-2.05c-0.46-0.64-2.49-0.62-7.77,0.08c-3.93,0.52-8.52,1.1-10.21,1.3c-3.67,0.42-5.99,0.81-6.56,1.11
			c-0.23,0.12-1.55,0.3-2.93,0.4c-2.21,0.16-6.95,0.66-20.09,2.14c-11.07,1.25-16.68,2.14-18.42,2.94c-1.07,0.49-3.71,1.1-5.86,1.36
			c-3.04,0.36-3.94,0.75-4.08,1.76c-0.12,0.92,0.28,1.38,1.39,1.57c0.86,0.15,1.81,0.11,2.1-0.08
			C492.13,522.78,493.64,522.5,495.19,522.37L495.19,522.37z M515.6,522.12c0-0.42-0.52-0.77-1.15-0.77c-0.63,0-0.99,0.35-0.8,0.77
			c0.19,0.42,0.71,0.77,1.15,0.77C515.23,522.9,515.6,522.55,515.6,522.12z M520.62,521.43c0-0.95-1.57-1.71-1.92-0.93
			c-0.16,0.35-0.12,0.85,0.07,1.12C519.31,522.37,520.62,522.23,520.62,521.43L520.62,521.43z M488.25,517.49
			c0-0.42-0.49-0.77-1.08-0.77c-0.6,0-1.24,0.35-1.43,0.77c-0.19,0.44,0.27,0.77,1.08,0.77
			C487.6,518.26,488.25,517.92,488.25,517.49z M198.52,515.49c1.1-1.43,0.24-2.4-1.1-1.25c-0.6,0.52-1.46,0.94-1.93,0.94
			c-0.46,0-0.84,0.53-0.84,1.17C194.65,517.75,197.22,517.17,198.52,515.49z M497.18,515.95c0.68-0.6,0.6-0.75-0.42-0.76
			c-0.69-0.01-1.26,0.34-1.26,0.76C495.5,516.92,496.09,516.92,497.18,515.95z M190.18,513.63c0-0.42-0.24-0.77-0.53-0.77
			c-0.29,0-0.68,0.35-0.87,0.77c-0.19,0.42,0.05,0.77,0.53,0.77C189.79,514.4,190.18,514.06,190.18,513.63z M573.65,513.25
			c0-0.64-0.38-1.16-0.84-1.16c-0.46,0-0.84,0.52-0.84,1.16c0,0.64,0.38,1.16,0.84,1.16C573.27,514.4,573.65,513.88,573.65,513.25z
			 M572.25,510.55c0.84-0.5,0.44-0.68-1.57-0.72c-1.66-0.03-2.55,0.24-2.34,0.72C568.76,511.47,570.7,511.47,572.25,510.55z
			 M607.79,489.53c-1.13-1.56-1.8,0.21-0.79,2.08c0.94,1.74,0.98,1.75,1.16,0.25C608.26,491,608.1,489.95,607.79,489.53z
			 M623.88,411.69c0-0.4-0.38-0.73-0.84-0.73c-0.86,0-1.11,0.91-0.48,1.78C623.01,413.36,623.88,412.67,623.88,411.69L623.88,411.69
			z M516.15,323.74c0-0.42-0.36-0.77-0.8-0.77c-0.44,0-0.96,0.35-1.15,0.77c-0.19,0.42,0.17,0.77,0.8,0.77
			C515.64,324.51,516.15,324.16,516.15,323.74z M504.42,323c0.45-0.4,0.7-0.88,0.56-1.07c-0.93-1.25-5.57-0.37-5.57,1.05
			C499.41,323.94,503.32,323.95,504.42,323L504.42,323z M515.71,320.66c1.44-0.01,4.08-0.55,5.86-1.21
			c1.78-0.66,4.73-1.37,6.55-1.59c3.57-0.42,4.22-0.73,4.22-1.97c0-0.81-0.79-0.74-9.49,0.77c-4.44,0.77-15.58,3.86-16.38,4.54
			c-1.3,1.1,1.23,1.44,3.75,0.51C511.79,321.14,514.26,320.66,515.71,320.66z M526.2,321.42c0-0.42-0.36-0.77-0.8-0.77
			c-0.44,0-0.96,0.35-1.15,0.77c-0.19,0.42,0.17,0.77,0.8,0.77C525.68,322.2,526.2,321.85,526.2,321.42L526.2,321.42z
			 M532.27,320.94c2.63-0.73,2.15-2.11-0.56-1.61c-2.53,0.47-4.35,2.09-2.35,2.09C530.01,321.42,531.31,321.21,532.27,320.94z
			 M553.27,316.79c0.19-0.42-0.19-0.77-0.84-0.77s-1.03,0.35-0.84,0.77c0.19,0.42,0.57,0.77,0.84,0.77S553.08,317.22,553.27,316.79z
			 M557.69,316.32c0.49-0.26,0.88-0.8,0.88-1.21c0-1.07-2.38-0.43-2.66,0.71C555.67,316.88,556.31,317.06,557.69,316.32
			L557.69,316.32z M540.85,314.86c-0.21-1.18-5.3-0.96-5.59,0.24c-0.18,0.77,0.48,0.95,2.74,0.77
			C539.65,315.74,540.93,315.29,540.85,314.86L540.85,314.86z M551.88,313.29c7.96-1.15,11.89-2.2,12.14-3.25
			c0.36-1.49-4.77-0.88-12.42,1.46c-4.15,1.27-4.29,1.35-3.89,2.25c0.2,0.46,0.78,0.6,1.29,0.32
			C549.51,313.79,550.8,313.44,551.88,313.29L551.88,313.29z M601.31,312.86c0.6-1.34-1.27-3.54-2.07-2.43
			c-0.49,0.68-0.48,1.18,0.06,2.09C600.14,313.91,600.79,314.03,601.31,312.86L601.31,312.86z M594.2,242.05
			c0.12-1.11-0.12-1.68-0.7-1.68c-0.57,0-0.88,0.7-0.88,2C592.62,244.78,593.94,244.52,594.2,242.05z M230.73,232.53
			c0.66,0.05,2.64-0.57,4.4-1.37c1.76-0.8,3.54-1.29,3.95-1.07c0.69,0.37,4.82-1.28,17.13-6.81c2.7-1.21,5.42-2.21,6.03-2.21
			c0.61,0,1.85-0.53,2.75-1.17c0.9-0.64,2.83-1.39,4.3-1.65c1.46-0.26,3.34-0.95,4.17-1.53c0.83-0.58,2.08-1.05,2.79-1.06
			c0.71,0,2-0.52,2.88-1.16c0.88-0.63,1.92-1.15,2.3-1.15c0.39,0,1.02-0.52,1.4-1.16c0.42-0.7,1.64-1.16,3.1-1.16
			c1.33,0,2.57-0.35,2.76-0.77c0.19-0.42,0.97-0.77,1.73-0.77c0.76,0,2.37-0.69,3.57-1.54c1.2-0.85,2.55-1.54,2.98-1.54
			c1.26,0,2.34-2.21,1.59-3.25c-0.68-0.95-3-0.07-9.6,3.63c-1.99,1.12-5.64,2.69-8.09,3.49c-5.16,1.68-7.7,2.62-10.05,3.74
			c-0.92,0.44-2.81,1.19-4.19,1.68c-4.06,1.43-8.33,3.15-13.4,5.42c-2.61,1.16-6.13,2.55-7.81,3.08c-1.69,0.53-5.03,1.96-7.43,3.17
			c-2.4,1.21-4.85,2.21-5.45,2.21c-0.6,0-1.52,0.32-2.05,0.71c-0.53,0.39-1.41,0.91-1.95,1.13c-0.54,0.23-0.98,0.82-0.98,1.3
			c0,0.54,0.38,0.66,0.98,0.3C229.09,232.7,230.07,232.48,230.73,232.53z M269.06,222.93c2.78-1.31,3.59-2.24,2.47-2.84
			c-0.81-0.43-7.11,2.21-7.91,3.31C262.75,224.61,266.13,224.31,269.06,222.93L269.06,222.93z M377.52,219.66
			c-1.34-0.36-2.73,0.47-2.32,1.38c0.21,0.47,0.89,0.4,1.82-0.19C378.19,220.11,378.29,219.86,377.52,219.66z M275.88,220.25
			c0.57-1.27-0.1-1.73-1.69-1.18c-0.79,0.28-1.29,0.84-1.11,1.25C273.53,221.33,275.42,221.28,275.88,220.25L275.88,220.25z
			 M283.04,217.53c2.19-0.67,4.76-1.73,5.7-2.36c0.94-0.63,1.95-1.08,2.23-1.01c1.21,0.32,1.91-0.12,1.91-1.2
			c0-1.29-1.97-1.59-2.51-0.39c-0.19,0.42-1.15,0.77-2.13,0.78c-0.98,0-2.5,0.52-3.38,1.16c-0.88,0.63-2.13,1.16-2.79,1.17
			c-1.11,0.02-4.55,3.01-3.5,3.05C278.84,218.75,280.84,218.21,283.04,217.53z M340.58,216.03c1.03-1.07,0.99-1.13-0.66-1.13
			c-1.73,0-2.68,0.87-1.99,1.82C338.49,217.5,339.4,217.26,340.58,216.03z M331.4,214.9c0-0.42-0.24-0.77-0.53-0.77
			c-0.29,0-0.68,0.35-0.87,0.77c-0.19,0.42,0.05,0.77,0.53,0.77C331.01,215.67,331.4,215.32,331.4,214.9z M337.54,212.58
			c0-0.42-0.24-0.77-0.52-0.77c-0.29,0-0.68,0.35-0.87,0.77c-0.19,0.42,0.04,0.77,0.52,0.77C337.15,213.35,337.54,213,337.54,212.58
			z M300.14,209.62c1.69-0.84,3.95-2.17,5.02-2.95c1.93-1.41,1.94-1.43,0.49-1.66c-1.7-0.27-10.68,4.67-11.02,6.07
			C294.37,212.2,295.63,211.86,300.14,209.62z M352.05,206.71l1.4-1.02l-1.45-0.03c-1.82-0.04-4.97,1.44-4.97,2.34
			C347.03,208.87,350.22,208.04,352.05,206.71z M310.19,204.09c0-0.42-0.38-0.77-0.84-0.77c-0.46,0-0.84,0.35-0.84,0.77
			c0,0.42,0.38,0.77,0.84,0.77C309.81,204.86,310.19,204.51,310.19,204.09z M315,202c1.83-1.11,1.98-1.36,0.93-1.59
			c-1.37-0.31-3.52,1.01-3.52,2.16C312.42,203.55,312.48,203.54,315,202z M366.32,200.64c1.04-1.09,1.03-1.13-0.34-1.16
			c-0.78-0.01-1.91,0.49-2.51,1.11c-1.04,1.09-1.03,1.13,0.35,1.16C364.59,201.76,365.72,201.26,366.32,200.64z M324.47,198.36
			c0.62-0.6,2.12-1.32,3.33-1.6c1.21-0.28,2.83-0.79,3.6-1.14c0.77-0.35,2.9-1.24,4.75-1.98c4.09-1.64,5.19-2.65,3.95-3.62
			c-0.53-0.41-1.89-0.23-3.52,0.47c-8.45,3.64-10.52,4.62-11,5.21c-0.29,0.36-1.08,0.66-1.74,0.66c-1.51,0-2.88,1.96-1.79,2.56
			C323.15,199.56,323.26,199.53,324.47,198.36z M371.31,198.69c0.44-0.99-1.41-0.99-2.51,0c-0.65,0.59-0.51,0.75,0.66,0.76
			C370.29,199.45,371.12,199.11,371.31,198.69z M377.31,196.79c1.15-0.27,2.09-0.82,2.09-1.23c0-0.97-1.09-0.93-3.4,0.14
			c-2.13,0.99-3.72,2.64-1.9,1.98C374.71,197.46,376.16,197.06,377.31,196.79z M388.12,193.21c0.52-0.6,0.63-1.21,0.29-1.68
			c-0.57-0.79-6.05,1.32-7.05,2.72C380.54,195.39,387.1,194.38,388.12,193.21L388.12,193.21z M393.67,190.6
			c1.04-1.09,1.03-1.13-0.34-1.16c-0.79-0.01-1.92,0.49-2.51,1.11c-1.04,1.09-1.03,1.13,0.35,1.16
			C391.94,191.73,393.07,191.23,393.67,190.6z M451.41,190.97c0-0.42-0.36-0.77-0.8-0.77c-0.44,0-0.96,0.35-1.15,0.77
			c-0.19,0.42,0.17,0.77,0.8,0.77C450.89,191.74,451.41,191.39,451.41,190.97z M460.34,189.85c3.78-1.17,10.74-3.16,15.07-4.3
			c1.38-0.36,3.64-1.06,5.02-1.55c1.38-0.49,4.77-1.38,7.53-1.99c8.79-1.93,14.4-3.47,15.45-4.25c1.39-1.03,1.28-2.24-0.21-2.24
			c-1.23,0-2.41,0.27-13.37,3.1c-3.27,0.84-6.94,1.53-8.16,1.53c-1.22,0-3.2,0.47-4.38,1.05c-1.19,0.58-3.67,1.3-5.51,1.61
			c-1.84,0.31-4.1,1.01-5.02,1.56c-3.35,2-5.09,2.7-8.52,3.44c-3.72,0.8-4.6,1.26-4.6,2.42
			C453.64,191.29,456.17,191.14,460.34,189.85L460.34,189.85z M346.21,189.15c0.6-0.57,1.8-1.28,2.66-1.57
			c0.86-0.29,1.41-0.86,1.22-1.27c-0.44-0.98-2.9-0.97-3.34,0.02c-0.19,0.42-1.07,0.77-1.95,0.77c-1.36,0-3.36,1.64-3.36,2.76
			C341.45,190.66,345.21,190.1,346.21,189.15L346.21,189.15z M357.92,184.41c0.62-0.53,2.25-1.21,3.63-1.5
			c1.38-0.29,4.51-1.35,6.97-2.36c5.32-2.17,12.59-4.87,15.47-5.73c1.14-0.34,2.65-1.11,3.35-1.72c0.7-0.61,2.62-1.19,4.26-1.31
			c1.89-0.13,4.2-1.02,6.27-2.41c1.86-1.25,3.78-2.02,4.42-1.79c1.48,0.53,8.67-2.68,10.22-4.57c1.21-1.47,1.2-1.48-2.3-1
			c-1.93,0.26-4.7,1.19-6.14,2.07c-1.45,0.87-4.01,2.04-5.7,2.61c-1.69,0.56-4.45,1.6-6.14,2.32c-1.69,0.71-4.2,1.57-5.58,1.89
			c-4.68,1.11-8.09,2.23-10.61,3.48c-1.38,0.69-4.14,1.74-6.14,2.35c-4.98,1.51-9.93,3.75-10.73,4.85c-0.36,0.5-1.55,0.92-2.64,0.92
			c-1.72,0-5.61,2.38-5.61,3.42C350.94,186.61,356.82,185.36,357.92,184.41z M412.61,183.25c0.19-0.42-0.17-0.77-0.8-0.77
			c-0.63,0-1.15,0.35-1.15,0.77c0,0.42,0.36,0.77,0.8,0.77C411.91,184.02,412.42,183.67,412.61,183.25z M418.47,180.86
			c0.66-0.52,0.58-0.66-0.37-0.68c-1.6-0.03-2.98,0.74-2.98,1.66C415.12,182.59,416.94,182.06,418.47,180.86z M511.97,174.8
			l2.23-1.46l-2.34-0.06c-2.4-0.06-5.19,1.21-5.19,2.38C506.67,176.79,509.66,176.31,511.97,174.8z M432.99,174.75
			c0-0.42-0.24-0.77-0.53-0.77c-0.29,0-0.68,0.35-0.87,0.77c-0.19,0.42,0.05,0.77,0.53,0.77S432.99,175.18,432.99,174.75z
			 M520.62,171.67c0-0.42-0.36-0.77-0.8-0.77c-0.44,0-0.96,0.35-1.15,0.77c-0.19,0.42,0.17,0.77,0.8,0.77
			C520.1,172.44,520.62,172.09,520.62,171.67z M506.38,170.11c-0.19-0.43-0.58-0.59-0.87-0.34c-0.78,0.66-0.63,1.12,0.35,1.12
			C506.34,170.89,506.57,170.54,506.38,170.11z M450.25,168.47c1.1-0.48,2.34-1.01,2.77-1.18c0.43-0.16,0.64-0.49,0.47-0.72
			c-0.44-0.61-6.68,1.09-7.34,2C445.39,169.65,447.73,169.58,450.25,168.47z M461.13,165.02c0.49-0.26,0.88-0.78,0.88-1.16
			c0-1.05-2.34-0.77-3.91,0.47l-1.4,1.1l1.77,0.03C459.45,165.48,460.64,165.28,461.13,165.02L461.13,165.02z M471.22,161.45
			c3.84-1.2,4.41-2.17,1.08-1.82c-3.17,0.33-7.5,2.08-7.5,3.03C464.8,163.3,466.03,163.07,471.22,161.45z M419.7,160.38
			c0.83-0.58,2.03-1.06,2.66-1.06s1.59-0.3,2.12-0.68c1.63-1.14,4.89-2.41,6.17-2.41c1.42,0,7.88-2.95,8.89-4.06
			c0.38-0.42,0.7-1.11,0.7-1.53c0-1.01-3.14-0.18-8.25,2.17c-2.23,1.03-4.43,1.87-4.89,1.87s-1.27,0.31-1.8,0.69
			c-0.53,0.38-2.85,1.48-5.15,2.45c-4.65,1.96-5.33,2.49-4.76,3.76C415.8,162.52,417.21,162.13,419.7,160.38L419.7,160.38z
			 M477.92,159.32c0.19-0.44-0.27-0.77-1.08-0.77c-0.79,0-1.43,0.35-1.43,0.77c0,0.42,0.49,0.77,1.08,0.77
			C477.09,160.09,477.73,159.74,477.92,159.32z M486.71,157.96c2.73-0.65,1.69-1.86-1.12-1.3c-3.05,0.61-3.18,0.7-2.65,1.88
			c0.21,0.48,0.8,0.63,1.31,0.33C484.76,158.57,485.87,158.16,486.71,157.96z M549.09,158.54c0-0.42-0.39-0.77-0.87-0.77
			c-0.48,0-0.71,0.35-0.53,0.77c0.19,0.42,0.58,0.77,0.87,0.77C548.85,159.32,549.09,158.97,549.09,158.54z M492.15,156.23
			c0-0.42-0.38-0.77-0.84-0.77c-0.46,0-0.84,0.35-0.84,0.77c0,0.42,0.38,0.77,0.84,0.77C491.78,157,492.15,156.65,492.15,156.23z
			 M494.94,155.46c0-0.42-0.38-0.77-0.84-0.77c-0.46,0-0.84,0.35-0.84,0.77c0,0.42,0.38,0.77,0.84,0.77
			C494.57,156.23,494.94,155.88,494.94,155.46z M513.85,151.12c0.96-0.27,1.74-0.82,1.74-1.22c0-0.85-3.35-0.03-4.16,1.01
			C510.8,151.73,511.42,151.79,513.85,151.12L513.85,151.12z M528.43,146.88c0-0.91-2.64-0.89-3.04,0.02
			c-0.36,0.8,1.27,1.49,2.34,0.99C528.12,147.72,528.43,147.26,528.43,146.88L528.43,146.88z M533.53,146.19
			c0.58,0,1.05-0.39,1.05-0.87c0-1.08-4.47-0.22-5.3,1.01c-0.4,0.59-0.02,0.69,1.33,0.35C531.63,146.41,532.95,146.19,533.53,146.19
			z M537.64,144.65c0.19-0.42-0.05-0.77-0.53-0.77c-0.48,0-0.87,0.35-0.87,0.77c0,0.42,0.24,0.77,0.53,0.77
			C537.06,145.42,537.45,145.07,537.64,144.65z M314.39,580.06c-0.37-0.83,1.41-2.35,2.74-2.35c0.71,0,0.67,0.28-0.24,1.54
			C315.66,580.94,314.9,581.19,314.39,580.06L314.39,580.06z M318.56,577.7c0-0.42,0.94-0.77,2.09-0.76
			c1.56,0.01,1.88,0.21,1.26,0.76C320.81,578.68,318.56,578.68,318.56,577.7z M613.03,553.07c-0.48-1.08,0.27-3.16,1.14-3.16
			c0.85,0,0.97,0.74,0.44,2.64C614.24,553.91,613.51,554.15,613.03,553.07L613.03,553.07z M613.5,542.52
			c0.19-0.67,0.34-1.89,0.34-2.7c0-0.99,0.39-1.48,1.18-1.48c0.95,0,1.12,0.34,0.84,1.74c-0.19,0.96-0.34,2.17-0.34,2.7
			c0,0.53-0.54,0.96-1.18,0.96C613.49,543.74,613.25,543.39,613.5,542.52L613.5,542.52z M599.66,296.27
			c-0.21-0.75-0.08-1.11,0.32-0.92c0.83,0.39,1.29,2.14,0.56,2.14C600.24,297.49,599.85,296.94,599.66,296.27z M601.88,291.42
			c-0.24-0.54-0.29-1.19-0.1-1.44c0.5-0.69,1.04,0.33,0.77,1.44C602.36,292.21,602.23,292.21,601.88,291.42L601.88,291.42z
			 M596.53,266.61c0-0.42,0.24-0.77,0.52-0.77c0.29,0,0.68,0.35,0.87,0.77c0.19,0.42-0.04,0.77-0.53,0.77
			C596.92,267.39,596.53,267.04,596.53,266.61z M595.5,263.87c0.11-0.76,0.53-1.53,0.94-1.72c0.48-0.22,0.68,0.15,0.56,1.03
			c-0.11,0.76-0.53,1.53-0.94,1.72C595.58,265.12,595.38,264.75,595.5,263.87L595.5,263.87z M529.55,123.87
			c0-0.49,0.44-1.07,0.98-1.3c0.54-0.23,1.41-0.74,1.95-1.13c0.53-0.39,1.84-0.72,2.9-0.72c1.06,0,3.23-0.38,4.81-0.85
			c1.96-0.58,3.05-0.6,3.44-0.06c0.64,0.89-1.47,1.81-7.38,3.2c-2,0.47-4.32,1.06-5.16,1.3
			C530.11,124.59,529.55,124.43,529.55,123.87L529.55,123.87z"/>
		<path class="st1" d="M441.36,578.47c0-0.42-0.25-0.77-0.56-0.77c-0.31,0-0.56,0.35-0.56,0.77c0,0.42,0.25,0.77,0.56,0.77
			C441.11,579.25,441.36,578.9,441.36,578.47z"/>
		<path class="st1" d="M370.58,575.63c-0.4-0.22-0.88-0.2-1.07,0.06c-0.19,0.26,0.14,0.44,0.73,0.41
			C370.89,576.06,371.02,575.88,370.58,575.63z"/>
		<path class="st1" d="M383.97,574.09c-0.4-0.22-0.88-0.2-1.07,0.06c-0.19,0.25,0.14,0.44,0.73,0.41
			C384.29,574.52,384.42,574.34,383.97,574.09z"/>
		<ellipse class="st1" cx="191.3" cy="573.07" rx="0.56" ry="0.77"/>
		<path class="st1" d="M470.94,572.26c0-0.45-0.25-0.6-0.56-0.34c-0.31,0.26-0.56,0.63-0.56,0.82s0.25,0.34,0.56,0.34
			C470.69,573.07,470.94,572.7,470.94,572.26L470.94,572.26z"/>
		<ellipse class="st1" cx="461.45" cy="562.26" rx="0.56" ry="0.77"/>
		<path class="st1" d="M493.83,553.77c0-0.42,0.11-0.77,0.25-0.77c0.14,0,0.4,0.35,0.59,0.77c0.19,0.42,0.08,0.77-0.24,0.77
			C494.09,554.55,493.83,554.2,493.83,553.77z"/>
		<path class="st1" d="M495.05,567.14c-0.4-0.22-0.89-0.2-1.07,0.06c-0.19,0.26,0.14,0.44,0.73,0.41
			C495.36,567.57,495.49,567.39,495.05,567.14z"/>
		<path class="st1" d="M511.26,564.04c-0.69-0.18-1.7-0.18-2.23,0.02c-0.53,0.19,0.03,0.34,1.26,0.33
			C511.52,564.38,511.96,564.22,511.26,564.04L511.26,564.04z"/>
		<path class="st1" d="M340.43,551.7c-0.4-0.22-0.88-0.2-1.07,0.06c-0.19,0.26,0.15,0.44,0.73,0.41
			C340.75,552.13,340.88,551.95,340.43,551.7z"/>
		<path class="st1" d="M464.52,522.9c0.19-0.42,0.09-0.77-0.21-0.77c-0.31,0-0.71,0.35-0.9,0.77c-0.19,0.42-0.09,0.77,0.21,0.77
			C463.93,523.67,464.33,523.32,464.52,522.9z"/>
		<path class="st1" d="M481.55,518.22c0-0.45-0.25-0.6-0.56-0.34c-0.31,0.26-0.56,0.63-0.56,0.82c0,0.19,0.25,0.34,0.56,0.34
			C481.3,519.04,481.55,518.67,481.55,518.22L481.55,518.22z"/>
		<ellipse class="st1" cx="554.11" cy="515.95" rx="0.56" ry="0.77"/>
		<path class="st1" d="M604.07,484.3c-0.19-0.42-0.46-0.77-0.59-0.77c-0.14,0-0.25,0.35-0.25,0.77c0,0.42,0.27,0.77,0.59,0.77
			C604.15,485.07,604.26,484.72,604.07,484.3z"/>
		<path class="st1" d="M603.89,465.25c-0.4-0.22-0.88-0.2-1.07,0.06c-0.19,0.26,0.14,0.44,0.73,0.41
			C604.21,465.68,604.34,465.49,603.89,465.25z"/>
		<path class="st1" d="M606.58,461.14c0-0.42-0.25-0.77-0.56-0.77s-0.56,0.35-0.56,0.77c0,0.42,0.25,0.77,0.56,0.77
			S606.58,461.57,606.58,461.14z"/>
		<ellipse class="st1" cx="162.83" cy="439.53" rx="0.56" ry="0.77"/>
		<path class="st1" d="M160.7,413.53c-0.4-0.22-0.88-0.2-1.07,0.06c-0.19,0.26,0.14,0.44,0.73,0.41
			C161.02,413.96,161.15,413.77,160.7,413.53z"/>
		<path class="st1" d="M522.29,322.15c0-0.45-0.25-0.6-0.56-0.34c-0.31,0.26-0.56,0.63-0.56,0.82s0.25,0.34,0.56,0.34
			C522.04,322.97,522.29,322.6,522.29,322.15L522.29,322.15z"/>
		<path class="st1" d="M537.92,319.11c0-0.42-0.25-0.77-0.56-0.77c-0.31,0-0.56,0.35-0.56,0.77s0.25,0.77,0.56,0.77
			C537.67,319.88,537.92,319.53,537.92,319.11z"/>
		<ellipse class="st1" cx="561.37" cy="314.48" rx="0.56" ry="0.77"/>
		<path class="st1" d="M544.76,313.96c-0.38-0.21-1.01-0.21-1.4,0c-0.38,0.21-0.07,0.39,0.7,0.39
			C544.83,314.35,545.14,314.18,544.76,313.96z"/>
		<path class="st1" d="M566.95,313.7c0-0.42-0.25-0.77-0.56-0.77c-0.31,0-0.56,0.35-0.56,0.77c0,0.42,0.25,0.77,0.56,0.77
			C566.7,314.48,566.95,314.13,566.95,313.7z"/>
		<path class="st1" d="M167.85,294.41c0-0.42-0.25-0.77-0.56-0.77s-0.56,0.35-0.56,0.77c0,0.42,0.25,0.77,0.56,0.77
			S167.85,294.83,167.85,294.41z"/>
		<path class="st1" d="M259.4,225.27c0-0.19-0.25-0.34-0.56-0.34c-0.31,0-0.56,0.37-0.56,0.82c0,0.45,0.25,0.6,0.56,0.34
			C259.14,225.83,259.4,225.46,259.4,225.27z"/>
		<path class="st1" d="M380.8,219.53c0.19-0.42,0.1-0.77-0.21-0.77c-0.31,0-0.71,0.35-0.9,0.77c-0.19,0.42-0.09,0.77,0.21,0.77
			C380.2,220.3,380.61,219.95,380.8,219.53z"/>
		<path class="st1" d="M335.03,213.35c0.19-0.42,0.09-0.77-0.21-0.77c-0.31,0-0.71,0.35-0.9,0.77c-0.19,0.42-0.09,0.77,0.21,0.77
			C334.43,214.13,334.84,213.78,335.03,213.35z"/>
		<path class="st1" d="M404.24,186.33c0.19-0.42,0.1-0.77-0.21-0.77c-0.31,0-0.71,0.35-0.9,0.77c-0.19,0.42-0.09,0.77,0.21,0.77
			C403.64,187.11,404.05,186.76,404.24,186.33z"/>
		<path class="st1" d="M443.14,170.37c-0.4-0.22-0.89-0.2-1.07,0.06c-0.19,0.26,0.15,0.44,0.73,0.41
			C443.45,170.8,443.58,170.61,443.14,170.37z"/>
		<path class="st1" d="M520.17,148.75c-0.4-0.22-0.89-0.2-1.07,0.06c-0.18,0.26,0.14,0.44,0.73,0.41
			C520.48,149.18,520.61,149,520.17,148.75z"/>
		<path class="st1" d="M308.23,581.56c0.19-0.42,0.6-0.77,0.9-0.77c0.31,0,0.4,0.35,0.21,0.77c-0.19,0.42-0.6,0.77-0.9,0.77
			C308.14,582.33,308.05,581.99,308.23,581.56z"/>
		<path class="st1" d="M545.33,119.48c0.18-0.26,0.67-0.28,1.07-0.06c0.44,0.25,0.31,0.43-0.34,0.47
			C545.47,119.92,545.14,119.74,545.33,119.48z"/>
		<path class="st0" d="M416.41,512.91V375.3h33.4l5-53.63h-38.4v-34.24c0-15.53,3.12-26.11,19.22-26.11l20.53-0.01v-47.97
			c-3.55-0.65-15.74-2.11-29.93-2.11c-29.6,0-49.87,24.99-49.87,70.89v39.55h-33.48v53.63h33.48v137.61H416.41L416.41,512.91z"/>
	</g>
</g>
</svg>
