<?xml version="1.0" encoding="utf-8"?>
<!-- Generator: Adobe Illustrator 23.0.1, SVG Export Plug-In . SVG Version: 6.00 Build 0)  -->
<svg version="1.1" id="Icons" xmlns="http://www.w3.org/2000/svg" xmlns:xlink="http://www.w3.org/1999/xlink" x="0px" y="0px"
	 viewBox="0 0 800 800" style="enable-background:new 0 0 800 800;" xml:space="preserve">
<style type="text/css">
	.st0{fill:#FFFFFF;}
	.st1{fill:url(#path3797_1_);}
	.st2{fill:url(#SVGID_1_);}
	.st3{fill:url(#SVGID_2_);}
	.st4{fill:url(#SVGID_3_);}
	.st5{fill:url(#SVGID_4_);}
	.st6{fill:url(#SVGID_5_);}
	.st7{fill:url(#SVGID_6_);}
	.st8{fill:url(#SVGID_7_);}
	.st9{fill:url(#SVGID_8_);}
	.st10{fill:url(#SVGID_9_);}
	.st11{fill:url(#SVGID_10_);}
	.st12{fill:url(#SVGID_11_);}
	.st13{fill:url(#SVGID_12_);}
	.st14{fill:url(#SVGID_13_);}
	.st15{fill:url(#SVGID_14_);}
	.st16{fill:url(#SVGID_15_);}
	.st17{fill:url(#SVGID_16_);}
	.st18{fill:url(#SVGID_17_);}
	.st19{fill:url(#SVGID_18_);}
	.st20{fill:url(#SVGID_19_);}
	.st21{fill:url(#SVGID_20_);}
	.st22{fill:url(#SVGID_21_);}
	.st23{fill:url(#SVGID_22_);}
	.st24{fill:url(#SVGID_23_);}
	.st25{fill:url(#SVGID_24_);}
	.st26{fill:url(#SVGID_25_);}
	.st27{fill:url(#SVGID_26_);}
	.st28{fill:url(#SVGID_27_);}
	.st29{fill:url(#SVGID_28_);}
	.st30{fill:url(#SVGID_29_);}
	.st31{fill:url(#SVGID_30_);}
	.st32{fill:url(#SVGID_31_);}
	.st33{fill:url(#SVGID_32_);}
</style>
<rect id="BG" class="st0" width="800" height="800"/>
<g>
	<g>
		
			<radialGradient id="path3797_1_" cx="363.3018" cy="452.1416" r="240.1836" gradientTransform="matrix(2.8583 0 0 3.9529 -802.7863 -1105.6738)" gradientUnits="userSpaceOnUse">
			<stop  offset="0" style="stop-color:#F9ED32"/>
			<stop  offset="0.0615" style="stop-color:#F8D939"/>
			<stop  offset="0.1874" style="stop-color:#F5A54D"/>
			<stop  offset="0.365" style="stop-color:#F0536C"/>
			<stop  offset="0.4486" style="stop-color:#EE2A7B"/>
			<stop  offset="0.5994" style="stop-color:#9E2AA7"/>
			<stop  offset="0.7418" style="stop-color:#5B2ACD"/>
			<stop  offset="0.86" style="stop-color:#2A2AE8"/>
			<stop  offset="0.9496" style="stop-color:#0B2AF9"/>
			<stop  offset="1" style="stop-color:#002AFF"/>
		</radialGradient>
		<path id="path3797_2_" class="st1" d="M340.99,623.23c0-2.32,1.8-3.58,7.26-5.09c8.19-2.27,11.75-3.62,11.56-4.4
			c-0.26-1.08-3.5-1.27-5.42-0.32c-0.77,0.38-2.4,0.99-3.63,1.35c-1.23,0.36-3.73,1.18-5.56,1.81c-3.62,1.25-5.53,0.64-5.21-1.66
			c0.2-1.44,10.21-6.55,11.55-5.9c1.09,0.53,2.85-0.36,2.85-1.45c0-0.55,0.83-0.89,2.09-0.86c1.15,0.03,2.78-0.41,3.61-0.97
			c0.85-0.58,3.98-1.14,7.15-1.28c4.27-0.19,5.85-0.56,6.54-1.51c1.39-1.93-0.04-2.31-5.21-1.37c-11.29,2.03-12.71,2.36-13.26,3.11
			c-0.32,0.44-1.48,0.81-2.58,0.81c-1.1,0-3.37,0.53-5.05,1.18c-3.42,1.32-9.09,1.94-10.06,1.11c-0.42-0.36-0.12-1.2,0.89-2.5
			c0.88-1.13,1.4-2.44,1.22-3.09c-0.37-1.31,0.58-2.87,1.73-2.87c0.66,0,0.67,0.2,0.06,1.22c-1.6,2.67,1.66,3.05,5.17,0.6
			c0.83-0.58,2.34-1.06,3.35-1.08c1.01-0.02,2.47-0.52,3.24-1.12c1.38-1.08,1.36-1.09-0.72-0.85c-1.16,0.13-2.27,0.46-2.47,0.73
			c-0.67,0.93-3.06,0.52-2.82-0.47c0.13-0.53,1.59-1.18,3.26-1.45c1.66-0.27,4.2-1.2,5.63-2.07c1.43-0.87,3.1-1.4,3.71-1.18
			c1.39,0.5,3.45-0.97,3.45-2.47c0-1.48,0.91-1.46,1.32,0.03c0.53,1.9,4.57,1.52,5.61-0.53c0.81-1.59,0.91-1.61,1.9-0.37
			c0.99,1.24,1.35,1.22,6.3-0.34c2.89-0.91,5.69-1.98,6.24-2.37c1.35-0.97,0.58-2.41-1.06-1.97c-0.73,0.19-1.33,0.02-1.33-0.38
			c0-1.32-4.7,0.25-5.63,1.88c-0.75,1.31-1.08,1.42-2.1,0.66c-0.91-0.68-2.34-0.69-5.73-0.05c-2.49,0.47-4.9,0.65-5.37,0.4
			c-0.47-0.25-1.38-0.01-2.03,0.54c-0.73,0.61-2.13,0.84-3.69,0.59l-2.51-0.4l1.81-0.92c4.21-2.14,0.39-4-4.33-2.1
			c-1.69,0.68-3.82,1.35-4.74,1.48c-0.92,0.14-2.38,0.63-3.24,1.09c-0.87,0.46-2.5,0.84-3.64,0.84c-1.14,0-2.61,0.53-3.28,1.17
			c-1.63,1.58-2.27,0.05-0.92-2.18c0.56-0.93,1.08-1.82,1.16-1.99c0.07-0.17,0.45,0.06,0.84,0.5c0.47,0.52,1.67,0.56,3.5,0.11
			c1.53-0.38,3.74-0.91,4.9-1.18c1.16-0.27,2.24-0.79,2.41-1.16c0.16-0.37,0.85-0.67,1.52-0.68c0.67-0.01,1.85-0.7,2.62-1.53
			c1.52-1.64,2.79-1.99,2.79-0.77c0,1.18,1.83,0.92,3.26-0.46c0.7-0.68,1.77-1.06,2.37-0.84c1.55,0.56,4.98-0.89,4.98-2.11
			c0-0.56-0.81-1.25-1.8-1.52c-1.34-0.37-2.2-0.1-3.35,1.08c-1.43,1.46-1.64,1.49-2.88,0.37c-1.22-1.1-1.42-1.1-2.24,0.04
			c-0.64,0.89-1.39,1.1-2.61,0.73c-1.65-0.5-4.98,0.77-4.98,1.9c0,0.3-1.7,0.6-3.78,0.68c-2.08,0.08-4.65,0.48-5.72,0.91
			c-3.14,1.25-4.46,1-4.46-0.85c0-0.98-0.45-1.78-1.14-2.03c-1.6-0.58-1.15-2.59,0.99-4.45c0.98-0.86,1.8-1.81,1.81-2.13
			c0.02-0.32-1.1-0.58-2.48-0.58c-2.03,0-2.67-0.35-3.39-1.88c-0.7-1.49-1.56-1.99-4.06-2.41c-1.74-0.29-3.47-0.86-3.84-1.27
			c-0.37-0.41-1-0.46-1.4-0.12c-0.4,0.35-1.16,0.53-1.7,0.41c-0.54-0.12-0.98,0.19-0.98,0.69c0,0.53-0.46,0.74-1.11,0.51
			c-0.61-0.22-1.26-0.08-1.44,0.33c-0.18,0.4-0.8,0.52-1.38,0.27c-0.58-0.25-1.93,0.11-3,0.81c-1.07,0.7-2.15,1.1-2.4,0.88
			c-0.25-0.22-2.17,0.1-4.26,0.7c-2.09,0.61-4.02,0.91-4.3,0.68c-0.27-0.23-1.24,0.33-2.14,1.26c-0.99,1.01-2.02,1.48-2.59,1.18
			c-0.52-0.28-1.3-0.11-1.72,0.38c-0.45,0.52-1.7,0.71-3.01,0.47c-1.48-0.27-2.86,0.01-4.04,0.82c-1.7,1.17-3.98,1.91-9.05,2.92
			c-1.22,0.25-2.48,0.72-2.79,1.05c-0.31,0.34-1.83,0.81-3.37,1.04c-1.54,0.24-4.68,1.35-6.98,2.46c-2.3,1.11-5.45,2.47-7,3.01
			c-1.55,0.54-3.81,1.73-5.02,2.65c-2.68,2.02-6.42,3.9-9.59,4.82c-1.3,0.38-3.15,1.25-4.12,1.94c-0.97,0.69-4.92,1.9-8.8,2.69
			c-3.87,0.79-7.99,1.67-9.14,1.96c-1.25,0.31-2.09,0.22-2.09-0.23c0-1.73,2.18-3.25,5.31-3.71c1.84-0.27,3.55-0.77,3.81-1.11
			c0.95-1.27-0.59-1.42-3.83-0.37c-4.04,1.3-7.42,1.24-8.9-0.16c-0.98-0.93-1-1.04-0.12-1.04c1.44,0,1.82-2.21,0.59-3.45
			c-0.99-1.01-0.97-1.1,0.49-1.87c1.79-0.95,1.99-2.21,0.46-3c-1.92-0.99,0.03-3.37,3.14-3.83c3.06-0.46,4.57-1.61,3.41-2.6
			c-0.79-0.68-3.15-0.1-4.18,1.03c-0.44,0.48-1.79-0.04-3.97-1.51c-2.96-2-3.19-2.31-2.13-2.95c1.76-1.07,1.85-3.98,0.15-5.05
			c-1.45-0.91-2.25-3.96-1.36-5.19c0.33-0.45,0.3-0.92-0.08-1.24c-0.88-0.75-0.74-1.97,0.22-1.97c0.66,0,0.76-0.7,0.48-3.47
			c-0.29-2.89-0.19-3.47,0.57-3.47c0.5,0,0.91-0.52,0.91-1.16c0-0.82-0.6-1.16-2.01-1.16c-1.7,0-1.95-0.21-1.61-1.35
			c0.88-2.95,0.94-4.11,0.26-5.23c-0.57-0.95-0.53-1.43,0.21-2.56c1.24-1.89,1.18-2.25-0.76-4.75c-1.71-2.21-2.16-3.86-1.06-3.86
			c0.34,0,1.41-0.5,2.37-1.11c0.97-0.61,2.89-1.29,4.27-1.52c5.59-0.92,7.24-1.44,7.86-2.46c0.94-1.57-0.71-2.23-2.91-1.17
			c-2.23,1.08-6.81,1.13-6.34,0.08c0.19-0.42,1.15-0.78,2.13-0.78c0.98-0.01,2.16-0.35,2.62-0.77c0.74-0.68,0.74-0.85,0-1.53
			c-0.46-0.42-1.47-0.6-2.23-0.38c-3.52,0.97-6.14,1.13-6.14,0.37c0-1.22,0.4-1.34,10.33-2.93c1.84-0.3,3.97-1.14,4.73-1.88
			c0.76-0.74,1.76-1.36,2.23-1.38c0.47-0.02,1.84-1.23,3.04-2.7l2.19-2.67h-1.52c-1.62,0-4.81,1.96-4.81,2.96
			c0,0.33-1.26,0.63-2.79,0.66c-1.54,0.03-3.14,0.46-3.57,0.94c-0.58,0.67-1.13,0.66-2.23-0.03c-1.06-0.67-1.81-0.69-2.76-0.09
			c-0.79,0.5-1.62,0.55-2.09,0.14c-0.43-0.38-1.7-0.69-2.81-0.7c-1.73-0.01-3.9-1.79-3.22-2.63c0.79-0.97,3.98-2.78,4.9-2.78
			c0.61,0,1.26-0.33,1.44-0.74c0.2-0.46-1.51-0.65-4.47-0.52c-4.71,0.22-4.8,0.19-4.49-1.49c0.35-1.92-0.75-2.63-4.07-2.65
			c-1.6-0.01-1.78-0.18-1.19-1.16c0.56-0.94,0.5-1.24-0.35-1.63c-4.13-1.93-4.81-2.78-3.21-4.01c0.82-0.63,0.82-0.74,0.02-1.17
			c-1.31-0.69-0.47-2.85,1.1-2.85c0.74,0,1.34-0.37,1.34-0.83c0-0.46-0.56-0.77-1.26-0.69c-3.02,0.34-3.13,0.2-2.57-3.25
			c0.31-1.92,0.32-3.4,0.02-3.67c-0.28-0.25-0.48-1.32-0.44-2.38c0.05-1.58-0.23-1.98-1.55-2.18l-1.61-0.25l1.78-2.25
			c1.95-2.46,1.85-3.8-0.27-3.8c-0.75,0-1.36-0.32-1.36-0.71c0-0.39-0.12-1.17-0.28-1.74c-0.29-1.07,2.59-3.22,5.44-4.07
			c2.37-0.71,1.92-2.26-0.5-1.72c-2.84,0.64-4.03-0.49-4.46-4.2c-0.24-2.06-0.94-3.87-2.05-5.3c-1.54-2-1.61-2.29-0.8-3.41
			c0.49-0.68,1.23-1.23,1.65-1.23c0.8,0,2.11-1.47,2.11-2.38c0-0.58-2.92-1.54-4.88-1.6c-1.41-0.05-1.71-1.79-0.42-2.47
			c0.46-0.24,0.84-0.94,0.84-1.54c0-0.6,0.38-1.3,0.84-1.54c0.91-0.48,1.17-2.81,0.31-2.81c-0.29,0-0.75,0.53-1.01,1.19
			c-0.4,0.99-0.61,0.85-1.25-0.79c-0.66-1.71-0.65-2.14,0.08-3.14c1.1-1.53,0.67-5.54-0.7-6.56c-1.28-0.95-1.44-4.58-0.19-4.58
			c1.14,0,1.73-2.3,0.8-3.11c-0.58-0.49-0.59-0.88-0.09-1.73c0.85-1.42,0.31-2.11-1.66-2.11c-1.19,0-1.58-0.37-1.58-1.49
			c0-1.5,2.93-5.01,3.5-4.21c0.29,0.4,1.3-0.22,3.16-1.93c1.24-1.14-0.27-3.16-2.4-3.22c-1.6-0.05-1.64-0.11-0.49-0.75
			c0.69-0.38,1.26-1.23,1.26-1.88c0-1.38-1.72-1.58-2.64-0.31c-0.73,1.01-2.62,0.28-2.13-0.82c0.18-0.4-0.1-1.06-0.62-1.46
			c-0.52-0.4-1.01-1.55-1.1-2.56c-0.09-1-0.32-2.9-0.51-4.21c-0.25-1.66-0.09-2.75,0.52-3.59c0.79-1.08,0.79-1.25,0.02-1.66
			c-0.51-0.27-0.79-1.16-0.68-2.17c0.13-1.24,0.69-1.86,2.02-2.23c2.3-0.65,2.79-1.28,1.51-1.96c-0.55-0.29-1.44-0.14-1.99,0.33
			c-0.78,0.67-1.06,0.6-1.32-0.33c-0.46-1.64,0.08-2.6,1.45-2.6c0.86,0,1.08-0.37,0.86-1.5c-0.24-1.27,0.15-1.63,2.55-2.34
			c1.56-0.46,3.1-1.14,3.43-1.52c0.33-0.37,1.22-0.8,1.99-0.94c0.77-0.15,1.37-0.61,1.35-1.04c-0.03-0.42,1.1-1.46,2.5-2.3
			c1.4-0.84,2.97-2.1,3.48-2.81c0.88-1.22,5.47-3,7.74-3c1.69,0,1.83-1.37,0.28-2.78c-1.36-1.23-1.48-1.22-2.19,0.13
			c-0.63,1.18-0.99,1.28-2.11,0.57c-0.74-0.47-2-0.68-2.78-0.48c-1.28,0.34-1.52,0.01-2.33-3.27c-0.49-2-0.78-3.9-0.64-4.22
			c0.14-0.32,1.34-0.96,2.66-1.42c1.36-0.47,2.97-1.74,3.71-2.91l1.31-2.08l-3.19,0.52c-2.84,0.46-3.34,0.33-4.53-1.23
			c-1.75-2.29-1.87-6.44-0.2-7.17c1.07-0.47,1.09-0.58,0.19-1.48c-0.63-0.64-0.8-1.34-0.49-2.04c0.91-2.04,0.55-4.96-0.62-4.99
			c-1.65-0.05-2.47-1.03-2.08-2.51c0.46-1.73,1.11-2.32,3.64-3.29c1.15-0.44,2.09-1.17,2.09-1.63c0-0.45-0.41-0.61-0.91-0.34
			c-0.5,0.27-1.77,0.26-2.82-0.01c-1.52-0.39-1.89-0.83-1.79-2.14c0.06-0.9-0.08-2.26-0.31-3c-0.24-0.78-0.14-1.83,0.23-2.44
			c0.52-0.86,0.41-1.19-0.5-1.59c-0.63-0.28-1.15-0.99-1.15-1.58c0-0.64,0.34-0.9,0.82-0.64c0.53,0.28,1.06-0.29,1.48-1.57
			c0.36-1.1,0.87-2.01,1.13-2.01c0.93,0,0.44-1.45-0.65-1.93c-1.33-0.58-1.45-2.13-0.27-3.49c0.76-0.87,0.76-1.17-0.04-2.85
			c-0.73-1.54-0.76-2.09-0.17-3.06c0.59-0.99,0.53-1.37-0.35-2.26c-0.58-0.59-1.68-1.08-2.44-1.08c-1.29,0-1.32-0.08-0.46-1.4
			c0.72-1.1,0.77-1.6,0.24-2.34c-0.53-0.73-0.53-1.27,0.02-2.47c0.58-1.28,0.52-1.89-0.38-3.65c-0.7-1.38-1.17-3.91-1.34-7.34
			c-0.23-4.56-0.13-5.33,0.78-6.01c2.08-1.54,0.95-3.79-1.92-3.83c-0.98-0.02-0.81-0.34,0.88-1.7c2.39-1.91,2.58-2.56,0.93-3.16
			c-0.87-0.32-1.08-0.81-0.81-1.99c0.2-0.86,0.1-2.24-0.22-3.06c-1.11-2.87,0.7-3.82,12.8-6.67c4.45-1.05,8.97-2.28,10.05-2.73
			c1.07-0.45,4.46-1.47,7.53-2.27c12.55-3.27,24.1-7.32,47.44-16.65c30.39-12.14,30.99-12.37,38.52-15.04
			c9.58-3.39,13.77-5.09,16.19-6.55c2.71-1.64,9.94-5.29,14.51-7.32c10.68-4.74,23.19-10.1,25.12-10.76
			c3.73-1.28,7.59-2.86,12.22-5.02c2.42-1.13,5.69-2.43,7.26-2.89c1.57-0.46,3.53-1.31,4.36-1.9c0.83-0.58,2.15-1.06,2.94-1.06
			c0.79,0,1.87-0.33,2.4-0.73c0.88-0.67,9.89-4.05,14.65-5.49c1.07-0.33,4.97-1.7,8.65-3.04c3.69-1.34,7.78-2.76,9.11-3.14
			c1.33-0.38,3.96-1.39,5.86-2.24c5.62-2.51,17.41-7.22,30.15-12.04c2.71-1.02,7.17-2.9,9.92-4.18c2.74-1.27,7.44-3.05,10.42-3.96
			c2.99-0.91,6.82-2.1,8.5-2.66c1.69-0.55,4.58-1.42,6.42-1.92c1.84-0.5,4.6-1.38,6.14-1.95c1.54-0.57,4.8-1.42,7.26-1.89
			c2.46-0.47,5.97-1.18,7.81-1.59c1.84-0.41,4.48-0.91,5.86-1.13c1.38-0.22,3.27-0.7,4.19-1.08c0.92-0.38,5.94-1.78,11.16-3.12
			c5.22-1.34,11.12-2.91,13.12-3.5c1.99-0.58,5.26-1.46,7.26-1.94c2-0.49,5.39-1.36,7.54-1.95c6.76-1.85,8.65-1.74,8.65,0.46
			c0,1.21-0.25,1.49-1.05,1.14c-0.72-0.32-1.13-0.02-1.32,0.96c-0.22,1.14-0.68,1.36-2.34,1.09c-1.21-0.19-2.82,0.16-3.85,0.85
			c-0.97,0.65-3.91,1.59-6.52,2.09c-6.4,1.22-12.55,2.92-15.76,4.37c-1.46,0.66-3,1.01-3.44,0.78c-0.43-0.23-0.95-0.2-1.14,0.06
			c-0.19,0.26-1.5,0.58-2.9,0.69c-1.4,0.11-2.89,0.6-3.31,1.07c-0.41,0.48-1.46,0.79-2.32,0.69c-0.86-0.1-2.19,0.06-2.96,0.35
			c-0.77,0.29-3.15,0.85-5.3,1.23c-5.51,0.98-13.6,2.94-15.91,3.85c-1.07,0.42-3.45,0.96-5.27,1.2c-3.73,0.48-6.88,1.43-11.7,3.55
			c-1.82,0.8-4.12,1.45-5.13,1.45c-1.01,0-1.98,0.35-2.17,0.77c-0.19,0.42-0.78,0.77-1.31,0.77c-0.53,0-1.95,0.69-3.16,1.54
			c-1.2,0.85-3.25,1.54-4.55,1.54c-1.3,0-2.5,0.31-2.67,0.68c-0.17,0.38-1.5,0.93-2.95,1.23c-1.46,0.3-3.31,1.02-4.11,1.59
			c-1.46,1.04-6.9,3.23-14.19,5.69c-2.15,0.73-4.59,1.94-5.42,2.69c-0.83,0.75-1.76,1.16-2.06,0.9c-0.3-0.26-1.38,0.03-2.4,0.62
			c-1.02,0.6-3.23,1.52-4.92,2.04c-1.69,0.52-3.32,1.21-3.63,1.53c-0.56,0.57-2.75,1.21-6.34,1.84c-1.03,0.18-2.15,0.71-2.48,1.17
			c-0.33,0.46-1.13,0.84-1.77,0.84c-0.64,0-1.75,0.57-2.47,1.27c-0.72,0.7-2.85,1.52-4.73,1.82c-1.88,0.3-5.56,1.31-8.16,2.25
			c-2.61,0.93-5.62,2-6.7,2.38c-1.07,0.38-3.21,1.26-4.74,1.96c-1.54,0.7-4.97,2.08-7.63,3.07s-5.34,2.17-5.96,2.63
			c-0.62,0.46-1.76,0.83-2.54,0.83c-0.78,0-1.86,0.66-2.41,1.46c-0.55,0.8-2,1.63-3.23,1.85c-2.19,0.39-3.28,0.77-8.93,3.13
			c-9.5,3.97-14.23,6.15-16.22,7.49c-1.25,0.83-2.89,1.52-3.66,1.52c-0.76,0-1.67,0.39-2.01,0.86c-0.34,0.47-1.71,1.14-3.04,1.49
			c-3.58,0.93-5.49,2.1-5.49,3.38c0,0.62,0.21,1.32,0.48,1.54c0.53,0.45,3.46-0.71,5.85-2.33c0.87-0.59,2.12-1.09,2.79-1.1
			c0.67-0.02,1.84-0.52,2.61-1.13c0.77-0.61,2.05-1.12,2.85-1.13c0.8-0.02,2.1-0.72,2.88-1.57c0.78-0.85,1.78-1.36,2.22-1.12
			c0.44,0.23,2.03-0.24,3.54-1.06c1.51-0.82,3.87-1.74,5.25-2.06c1.38-0.31,3.44-1.22,4.58-2.02c1.14-0.8,2.6-1.45,3.24-1.45
			c0.64,0,2.33-0.89,3.74-1.99c1.47-1.14,3.05-1.81,3.69-1.58c0.62,0.22,1.77-0.07,2.56-0.65c0.79-0.58,4.7-2.17,8.69-3.53
			c3.99-1.36,7.5-2.78,7.79-3.15c0.29-0.37,1.04-0.68,1.67-0.68c0.63,0,1.9-0.58,2.82-1.28c0.92-0.7,3.06-1.53,4.74-1.84
			c5.55-1.02,7.51-1.73,9.49-3.45c1.33-1.16,3.34-1.88,6.28-2.26c2.37-0.31,4.44-0.84,4.59-1.18c0.15-0.34,1.19-0.85,2.3-1.14
			c1.12-0.29,2.44-0.81,2.94-1.15c1.48-1.02,4.82-2.36,5.88-2.36c0.54,0,1.66-0.48,2.47-1.07c0.82-0.59,3.99-1.83,7.06-2.75
			c3.07-0.92,6.34-2.13,7.26-2.69c0.92-0.56,2.81-1.44,4.19-1.96c1.38-0.52,3.18-1.43,3.99-2.02c0.81-0.59,2.49-1.08,3.73-1.08
			c1.59,0,2.74-0.57,3.93-1.96c1.21-1.4,2.3-1.94,3.81-1.88c2.11,0.08,6.82-1.37,9.83-3.01c0.86-0.47,2.33-0.86,3.25-0.86
			c0.92,0,2.15-0.35,2.72-0.77c1.22-0.9,8.13-3.19,9.77-3.23c0.61-0.02,1.95-0.37,2.96-0.79c2.9-1.19,11.43-3.75,12.67-3.8
			c0.61-0.03,3-0.4,5.3-0.83c2.3-0.43,4.91-0.73,5.79-0.68c0.88,0.06,1.89-0.22,2.23-0.61c0.35-0.39,2.31-1.07,4.36-1.5
			c2.25-0.48,4.4-1.48,5.43-2.53c1.32-1.35,1.96-1.57,2.91-0.98c1.2,0.74,9.22-0.52,13.05-2.06c0.92-0.37,3.31-0.87,5.3-1.11
			l3.63-0.44l-3.35,1.9c-1.84,1.05-4.35,1.93-5.58,1.97c-1.23,0.03-3.86,0.6-5.86,1.24c-4.36,1.41-15.01,4.24-16.19,4.3
			c-0.46,0.02-2.69,0.54-4.95,1.16c-2.26,0.62-4.47,0.93-4.92,0.69c-0.45-0.24-1.53,0.09-2.42,0.72c-0.97,0.69-3.14,1.15-5.43,1.15
			c-2.1,0-4.08,0.35-4.38,0.77c-0.31,0.43-1.8,0.94-3.32,1.14c-4.31,0.56-8.23,1.6-9.46,2.49c-1.34,0.98-4.74,2.25-10.05,3.75
			c-2.15,0.61-4.41,1.42-5.02,1.79c-0.61,0.38-2.2,1.13-3.52,1.68c-1.32,0.55-2.53,1.28-2.68,1.63c-0.54,1.2,4.09,0.66,4.82-0.56
			c0.39-0.65,1.37-1.09,2.16-0.97c1.54,0.23,7.16-1.39,15.4-4.44c2.76-1.02,6.66-2.22,8.65-2.65c5.74-1.25,10.48-2.66,10.9-3.24
			c0.21-0.29,0.97-0.22,1.68,0.15c0.77,0.41,2.05,0.39,3.15-0.05c1.02-0.4,2.78-0.73,3.91-0.73c1.13,0,2.2-0.3,2.37-0.68
			c0.17-0.37,2.38-1.08,4.92-1.58c6.48-1.27,6.48-1.27,10.2-2.77c3.09-1.24,5.13-1.72,14.51-3.39c1.84-0.33,4.06-1,4.92-1.5
			c0.86-0.49,2.7-0.9,4.08-0.9c1.38,0,3.02-0.37,3.63-0.83c1.36-1.01,7.35-1.61,9.83-0.99c1.29,0.32,1.81,0.87,1.81,1.91
			c0,0.93-0.39,1.46-1.08,1.46c-1.5,0-2.07,1.59-0.96,2.7c0.5,0.51,0.75,1.15,0.55,1.43c-0.2,0.28-0.07,0.5,0.29,0.5
			c0.36,0,0.65,0.67,0.65,1.5c0,0.82,0.24,1.71,0.54,1.96c0.59,0.5-1.56,3.84-2.48,3.86c-1.13,0.03-4.2,2.15-4.2,2.9
			c0,0.46,1.33,0.64,3.35,0.44c1.84-0.19,3.35-0.05,3.35,0.29c0,0.34-0.77,0.63-1.71,0.63c-0.94,0-2.26,0.4-2.93,0.9
			c-1.17,0.87-3.12,1.48-4.85,1.52c-0.46,0.01-1.34,0.3-1.95,0.64c-0.61,0.34-3.12,1.03-5.58,1.54c-2.46,0.5-5.72,1.21-7.26,1.56
			c-1.53,0.35-4.55,1.04-6.7,1.53c-2.15,0.49-4.41,1.19-5.02,1.57c-0.61,0.38-2.87,0.91-5.02,1.2c-2.15,0.28-4.76,1-5.79,1.59
			c-1.04,0.59-3.17,1.1-4.75,1.13c-2.84,0.05-3.76,0.23-12.35,2.51c-4.91,1.3-6.78,1.76-11.61,2.87c-1.78,0.41-3.78,1.14-4.44,1.63
			c-0.66,0.49-2.09,0.97-3.18,1.08c-2.79,0.26-6.99,1.66-8.81,2.93c-0.85,0.59-3.05,1.29-4.89,1.55c-1.84,0.26-5.31,1.52-7.71,2.81
			c-2.4,1.29-4.99,2.34-5.75,2.34c-0.76,0-2.43,0.7-3.7,1.54c-1.27,0.85-2.83,1.55-3.46,1.55c-0.63,0-1.87,0.52-2.75,1.16
			c-0.88,0.63-1.99,1.15-2.48,1.15c-0.48,0-1.43,0.72-2.12,1.61c-0.95,1.23-1.48,1.43-2.27,0.85c-0.73-0.54-1.69-0.42-3.26,0.38
			c-1.23,0.63-3.17,1.42-4.31,1.75c-1.15,0.33-2.4,0.95-2.79,1.38c-0.39,0.43-1.97,1-3.51,1.27c-1.54,0.27-4.18,1.19-5.86,2.05
			c-1.68,0.86-4.44,1.87-6.12,2.24c-4.55,1.01-6.21,1.57-8.08,2.74c-0.93,0.58-2.57,1.29-3.64,1.59c-1.07,0.29-2.21,0.78-2.51,1.09
			c-0.31,0.31-2.44,1.02-4.74,1.58c-2.3,0.56-4.87,1.49-5.69,2.05c-0.83,0.57-2,1.04-2.6,1.04c-0.6,0-2.93,0.89-5.19,1.99
			c-2.25,1.1-6.23,2.82-8.84,3.84c-6.85,2.67-10.58,4.61-11.61,6.04c-0.84,1.16-0.82,1.25,0.26,1.25c0.64,0,2.09-0.53,3.21-1.18
			c1.13-0.65,2.28-0.99,2.56-0.75c0.28,0.24,1.35-0.05,2.38-0.64c1.03-0.59,3.61-1.68,5.75-2.42c2.13-0.74,4.2-1.71,4.6-2.16
			c0.4-0.45,1.5-0.94,2.45-1.08c0.95-0.14,2.82-0.78,4.17-1.41c1.35-0.63,2.82-1.15,3.26-1.15c0.44,0,2.38-0.68,4.31-1.5
			c1.93-0.83,8.75-3.29,15.17-5.47c6.42-2.18,12.07-4.27,12.56-4.63c1.4-1.04,9.72-4.6,10.75-4.6c0.51,0,2.14-0.73,3.63-1.62
			c1.48-0.89,4.07-2.12,5.74-2.73c1.67-0.61,3.35-1.47,3.74-1.92c0.39-0.44,1.16-0.61,1.71-0.37c0.55,0.24,1.72-0.08,2.6-0.71
			c0.88-0.63,2.13-1.15,2.77-1.15c0.65,0,2.19-0.49,3.43-1.08c1.24-0.59,3.38-1.5,4.76-2.02c1.38-0.52,3.79-1.61,5.35-2.43
			c1.56-0.82,4.07-1.63,5.58-1.81c1.51-0.18,3.98-0.86,5.49-1.51c1.51-0.65,3.4-1.18,4.2-1.18c0.8,0,1.99-0.51,2.63-1.13
			c0.64-0.63,1.89-1.11,2.78-1.08c0.88,0.03,2.7-0.34,4.03-0.82c2.73-0.98,6.46-1.84,15.43-3.54c5.83-1.1,10.15-2.29,12-3.31
			c0.46-0.25,1.59-0.53,2.51-0.61c0.92-0.08,4.94-1.08,8.93-2.21c3.99-1.13,8.76-2.23,10.61-2.43c1.84-0.21,3.98-0.7,4.75-1.09
			c1.85-0.96,13.01-3.95,15.56-4.18c1.11-0.1,2.4-0.39,2.86-0.66c1.8-1.04,5.22-2.03,5.67-1.65c0.88,0.75,0.48,1.89-0.92,2.63
			c-1.57,0.83-1.82,2.14-0.54,2.82c0.54,0.28,0.73,0.99,0.52,1.9c-0.61,2.64,0.24,4.6,1.88,4.37c1.32-0.19,1.47,0.03,1.33,1.91
			l-0.16,2.12l5.18,0.01c5.66,0.01,7.21,0.63,5.77,2.28c-1.1,1.26-1.11,2.82-0.02,3.4c0.62,0.33,0.8,1.48,0.71,4.46
			c-0.07,2.35,0.12,4.13,0.48,4.3c1.79,0.82,2.4,2.4,2.65,6.78c0.41,7.24,1.44,12.66,2.55,13.49c1.57,1.16,1.76,3.63,0.38,4.92
			c-0.96,0.91-1.06,1.32-0.5,2.12c0.39,0.55,0.7,2.13,0.7,3.51c0,1.51,0.36,2.79,0.9,3.21c0.74,0.57,0.78,1,0.24,2.41
			c-0.53,1.37-0.49,2.06,0.18,3.49c0.46,0.98,0.7,2.52,0.53,3.42c-0.23,1.22,0.02,1.8,0.99,2.3l1.3,0.66l-1.27,0.94
			c-1.72,1.27-1.24,2.68,1.07,3.15l1.9,0.39l-1.59,2.04c-0.88,1.12-1.45,2.37-1.27,2.77c0.61,1.37,6.39,2.76,9.4,2.27
			c3.19-0.52,6.04,0.64,6.04,2.47c0,0.74,0.46,0.94,1.53,0.65c2.09-0.55,5.16,1.31,5.16,3.13c0,1.53-1.92,4.82-2.81,4.82
			c-0.29,0-0.54,0.67-0.54,1.5c0,2.03-1.14,2.87-1.77,1.31c-0.67-1.66-1.8-1.64-1.33,0.02c0.2,0.71,0.03,1.58-0.36,1.93
			c-0.71,0.63-0.24,1.41,1.52,2.51c0.31,0.19,0.12,0.85-0.42,1.45c-1.72,1.93-1.57,2.01,3.98,2.11c2.23,0.04,2.35,0.14,1.4,1.14
			c-0.58,0.6-1.49,1.11-2.02,1.12c-1.05,0.03-1.3,1.56-0.46,2.76c0.28,0.4,0.69,2.04,0.9,3.63c0.36,2.73,0.31,2.9-1.05,2.9
			c-0.83,0-1.67,0.61-2,1.44c-0.68,1.76-0.28,2.42,1.49,2.42c1.09,0,1.27,0.29,0.99,1.54c-0.27,1.19-0.1,1.54,0.77,1.54
			c1.17,0,2.1,1.31,1.51,2.12c-0.19,0.26-0.64,0.06-1-0.44c-0.36-0.5-0.99-0.91-1.39-0.91c-1.09,0-0.87,3.07,0.25,3.55
			c0.54,0.23,1.39,0.72,1.89,1.09c0.5,0.37,1.51,0.47,2.23,0.22c1.08-0.36,1.2-0.26,0.62,0.59c-0.38,0.57-0.7,1.63-0.7,2.36
			s0.31,1.51,0.7,1.74c0.38,0.23,0.03,0.23-0.79,0c-1.12-0.32-1.64-0.04-2.09,1.14c-0.76,1.96,0.06,2.82,1.6,1.68
			c0.89-0.66,1.22-0.53,1.69,0.69c0.97,2.5,0.72,4.69-0.54,4.69c-1.33,0-1.46,1.73-0.26,3.39c0.59,0.81,1.4,1.04,2.59,0.71
			c1.33-0.37,1.67-0.23,1.46,0.6c-0.15,0.6-0.97,1.08-1.84,1.08c-0.87,0-1.68,0.43-1.81,0.96c-0.13,0.53-0.7,0.96-1.27,0.96
			c-1.35,0-1.62,0.7-1.26,3.29c0.16,1.18,0.66,2.12,1.12,2.12c0.5,0,0.71-0.45,0.52-1.12c-0.78-2.83,3.77,1.5,5.34,5.08
			c0.76,1.74,1.29,2.21,1.99,1.79c0.53-0.31,1.46-0.56,2.07-0.56c0.61,0.01,5.51-0.63,10.88-1.43c10.66-1.57,15.67-1.8,17.17-0.8
			c3.88,2.59,4.31,3.02,4.15,4.23c-0.11,0.86,0.21,1.3,0.94,1.3c1.68,0,1.87,1.19,0.65,3.96c-0.83,1.89-0.95,2.77-0.49,3.55
			c0.47,0.78,0.37,1.28-0.39,2.04c-0.73,0.74-0.82,1.17-0.33,1.59c0.52,0.44,0.51,0.84-0.03,1.74c-0.58,0.96-0.47,1.39,0.58,2.49
			c1.14,1.19,1.18,1.43,0.39,2.34c-1.1,1.27-1.13,3.17-0.06,5.11c0.95,1.74,1.11,4.66,0.29,5.36c-0.91,0.78-0.41,5.07,0.69,5.88
			c1.33,0.98,1.26,2.78-0.12,3.38c-1.29,0.56-1.52,2.7-0.3,2.7c1.19,0,2.3,3.1,1.39,3.88c-0.52,0.44-0.31,1.1,0.78,2.5
			c1.67,2.14,1.84,2.88,0.69,2.88c-0.44,0-0.96,1.11-1.18,2.51c-0.21,1.38-0.62,2.91-0.91,3.41c-0.33,0.56-0.3,1.08,0.07,1.4
			c0.32,0.28,0.58-0.07,0.58-0.77c0-1.94,1.33-0.9,1.95,1.54c0.47,1.85,0.37,2.33-0.7,3.31c-1.6,1.47-1.58,3.08,0.07,5.55
			c1.69,2.52,2.4,6.22,1.2,6.22c-0.6,0-0.85,0.8-0.85,2.7c0,1.49,0.25,2.7,0.56,2.7c0.31,0,0.56,0.5,0.56,1.12
			c0,0.62,0.44,1.46,0.98,1.88c0.92,0.72,0.92,0.83-0.07,1.84c-0.84,0.86-0.93,1.38-0.44,2.63c0.44,1.14,0.43,1.8-0.06,2.47
			c-0.51,0.7-0.5,1.26,0.02,2.4c0.37,0.82,0.53,2.03,0.34,2.69c-0.18,0.66-0.07,1.63,0.24,2.16c0.32,0.53,0.76,3.14,0.97,5.81
			c0.28,3.47,0.68,5.05,1.39,5.58c0.85,0.63,0.91,1.07,0.36,3.08c-0.49,1.79-0.48,2.69,0.05,3.86c0.89,1.96,0.86,2.31-0.15,2.31
			c-0.55,0-0.84,0.77-0.84,2.26c0,2.07-0.25,2.36-3.02,3.47c-1.66,0.67-3.4,1.21-3.86,1.21c-0.47,0-1.56,0.81-2.43,1.81
			c-1.44,1.65-2.3,1.86-9.58,2.33c-7.59,0.49-13.53,2.17-15.47,4.39c-0.32,0.37-2,1.18-3.73,1.8c-5.22,1.88-6.33,3.13-4.58,5.14
			c0.79,0.91,0.79,1.06,0,1.68c-0.48,0.37-0.87,1.16-0.87,1.75c0,1.75,1.14,2.2,1.91,0.74c0.59-1.12,0.8-1.17,1.21-0.27
			c0.78,1.71,0.75,5.33-0.04,5.33c-0.39,0-1.03,0.54-1.42,1.2c-0.61,1.01-0.54,1.26,0.43,1.61c0.8,0.29,1.06,0.86,0.86,1.89
			c-0.15,0.81-0.53,1.48-0.83,1.48c-0.3,0,0.04,0.86,0.76,1.92c0.72,1.05,1.63,1.92,2.01,1.93c0.38,0.01,0.7,0.4,0.7,0.87
			c0,0.53-0.53,0.67-1.4,0.37c-1.6-0.56-1.86,0.69-0.62,3.03c0.9,1.7,0.58,3.32-1.03,5.15c-1.13,1.3-1.12,1.34,1.51,4.85
			c1.46,1.95,2.65,4.22,2.65,5.06c0,0.83,0.25,1.52,0.56,1.52c0.31,0,0.56,0.69,0.56,1.54c0,1.6-1.35,2.13-1.95,0.77
			c-0.8-1.78-1.26-0.59-0.53,1.35c0.44,1.17,0.8,2.54,0.8,3.04c0,1.66-1.17,1.97-1.94,0.51c-0.92-1.74-1.64-0.98-1.14,1.21
			c0.2,0.88,0.83,1.6,1.4,1.6c0.57,0,1.44,0.22,1.94,0.48c0.82,0.44,0.81,0.58-0.1,1.43c-0.55,0.52-1.69,1.18-2.54,1.46
			c-0.84,0.28-1.53,1.03-1.53,1.66c0,1.39,1.19,1.49,2.16,0.18c0.57-0.77,0.84-0.72,1.37,0.24c0.36,0.66,1.13,1.45,1.71,1.75
			c0.9,0.47,1,1.07,0.68,4.33c-0.23,2.4-0.14,3.98,0.24,4.3c0.73,0.63-0.35,2.69-1.41,2.69c-0.9,0-2.23,2.19-1.74,2.87
			c0.21,0.29,1.41,0.43,2.68,0.33c2.02-0.16,2.22-0.04,1.6,1c-0.39,0.65-0.56,1.73-0.38,2.38c0.22,0.8-0.13,1.43-1.05,1.92
			c-0.76,0.4-1.38,1.05-1.38,1.44c0,0.97,1.5,1.69,2.47,1.18c1.07-0.57,3.11,1.02,3.11,2.43c0,0.62-0.25,1.13-0.56,1.13
			c-0.31,0-0.56-0.55-0.56-1.21c0-0.72-0.38-1.11-0.94-0.96c-1.35,0.36-2.53,7.16-1.85,10.63c0.4,2,0.33,2.96-0.24,3.86
			c-0.42,0.66-0.86,2.05-0.96,3.09c-0.17,1.66-0.62,1.99-3.82,2.8c-2,0.5-7.48,1.55-12.18,2.32c-7.15,1.18-8.63,1.23-9.02,0.36
			c-0.38-0.85-2.23-0.94-9.82-0.5c-5.14,0.3-9.75,0.84-10.24,1.2c-0.49,0.36-3.37,0.87-6.4,1.13c-3.03,0.27-5.7,0.64-5.93,0.83
			c-0.95,0.81-12.23,2.73-20.45,3.48c-4.87,0.44-10.61,1.13-12.76,1.53c-2.15,0.4-5.59,0.74-7.65,0.75
			c-2.06,0.01-4.32,0.34-5.02,0.72c-0.7,0.38-4.04,1.26-7.42,1.95c-5.78,1.18-8,1.53-15.27,2.4c-1.64,0.2-3.2,0.54-3.45,0.76
			c-1.32,1.13-14.66,4.58-26.77,6.94c-3.22,0.63-7.37,1.65-9.21,2.28c-3.64,1.24-18.04,4.42-26.51,5.85
			c-2.92,0.49-10.45,2.24-16.75,3.88c-6.29,1.64-15.21,3.52-19.82,4.16c-4.6,0.65-11.01,1.55-14.23,2
			c-3.22,0.45-10.88,2.16-17.02,3.79c-6.14,1.63-13.42,3.37-16.19,3.86c-2.76,0.49-9.54,2.21-15.07,3.83
			c-11.32,3.33-12,3.42-12,1.57L340.99,623.23z M363.88,612.46c0-0.42-0.36-0.77-0.8-0.77c-0.44,0-0.96,0.35-1.15,0.77
			c-0.19,0.42,0.17,0.77,0.8,0.77C363.36,613.23,363.88,612.88,363.88,612.46z M368.66,612.13c1.03-1.05,1.04-1.13,0.07-1.64
			c-1.14-0.61-3.73,0.75-3.73,1.96C364.99,613.61,367.41,613.4,368.66,612.13L368.66,612.13z M374.9,611.97
			c0.69-0.25,1.26-0.97,1.26-1.58c0-1.73-4.12-1.05-4.36,0.72C371.6,612.54,372.61,612.82,374.9,611.97z M379.79,609.37
			c0.19-0.42-0.03-0.77-0.49-0.77c-0.46,0-0.99,0.35-1.18,0.77c-0.19,0.42,0.03,0.77,0.49,0.77
			C379.06,610.14,379.6,609.8,379.79,609.37z M387.58,607.34c1.04-1,0.99-1.06-0.66-1.06c-2.34,0-4.79,1.33-4.33,2.36
			C383.04,609.63,386.01,608.86,387.58,607.34z M392.26,606.37c0.55-0.48,0.58-0.81,0.11-1.22c-0.8-0.68-2.27,0.03-2.27,1.11
			C390.11,607.22,391.22,607.28,392.26,606.37L392.26,606.37z M398.45,605.21c1.5-0.75,1.71-1.07,0.97-1.46
			c-1.4-0.74-4.29,0.25-4.29,1.48C395.14,606.49,395.89,606.49,398.45,605.21L398.45,605.21z M414.91,603.16
			c1.08-1.47-0.34-1.62-6.48-0.69c-8.81,1.34-9.35,2.3-1.02,1.81C411.25,604.05,414.63,603.55,414.91,603.16z M380.82,601.27
			c1.1-0.64,2.95-1.16,4.11-1.16c1.16,0,2.83-0.52,3.71-1.16c0.88-0.64,2.51-1.16,3.63-1.17c1.12-0.01,4.67-0.53,7.89-1.17
			c3.22-0.64,8.5-1.53,11.72-1.99c11.73-1.67,19.58-3.25,20.63-4.14c2.07-1.77-0.94-2.57-4.44-1.18c-1.07,0.42-3.96,1.13-6.42,1.57
			c-2.46,0.44-6.4,1.14-8.75,1.56c-2.35,0.42-6.75,0.89-9.77,1.05c-3.02,0.16-7.5,0.85-9.95,1.52c-2.46,0.68-5.85,1.61-7.54,2.07
			c-7.67,2.09-9.83,3.19-9.17,4.66C376.93,602.75,378.55,602.58,380.82,601.27L380.82,601.27z M428.85,600.68
			c1.93-1.37-0.39-2.32-3.15-1.3c-2.92,1.08-3.32,1.41-2.91,2.33C423.15,602.52,427.24,601.83,428.85,600.68z M435.6,598.57
			c0.19-0.42-0.05-0.77-0.52-0.77c-0.48,0-0.87,0.35-0.87,0.77c0,0.42,0.24,0.77,0.52,0.77
			C435.02,599.34,435.41,598.99,435.6,598.57L435.6,598.57z M440.97,597.3c2.27-0.5,3.57-1.83,1.79-1.82
			c-1.69,0.01-5.13,1.54-5.55,2.47c-0.26,0.58-0.07,0.7,0.59,0.36C438.33,598.02,439.76,597.57,440.97,597.3L440.97,597.3z
			 M360.25,597.02c0.19-0.42-0.05-0.77-0.53-0.77c-0.48,0-0.87,0.35-0.87,0.77c0,0.42,0.24,0.77,0.53,0.77
			C359.67,597.79,360.06,597.45,360.25,597.02z M234.36,594.35c0.56-0.93,0.42-1.22-0.78-1.63c-1.41-0.49-3.11,0.64-3.11,2.08
			C230.47,595.92,233.64,595.56,234.36,594.35L234.36,594.35z M456.95,594.99c1.67-0.62,1.61-1.83-0.09-1.83
			c-1.83,0-3.18,0.78-2.8,1.62C454.42,595.59,455.19,595.64,456.95,594.99L456.95,594.99z M378.67,593.16
			c0.19-0.42-0.03-0.77-0.49-0.77c-0.46,0-0.99,0.35-1.18,0.77c-0.19,0.42,0.03,0.77,0.49,0.77
			C377.95,593.93,378.48,593.59,378.67,593.16z M469.79,592.4c0.38-0.01,0.7-0.4,0.7-0.88c0-1.08-4.48-0.22-5.3,1.01
			c-0.4,0.59,0.09,0.69,1.67,0.36C468.09,592.62,469.41,592.4,469.79,592.4L469.79,592.4z M239.96,591.62c0-0.42-0.36-0.77-0.8-0.77
			c-0.44,0-0.96,0.35-1.15,0.77c-0.19,0.42,0.17,0.77,0.8,0.77C239.45,592.39,239.96,592.04,239.96,591.62z M383.97,591.62
			c0-0.42-0.36-0.77-0.8-0.77c-0.44,0-0.96,0.35-1.15,0.77c-0.19,0.42,0.17,0.77,0.8,0.77
			C383.45,592.39,383.97,592.04,383.97,591.62z M437.98,588.34c-0.13-0.53-0.69-0.97-1.26-0.97c-0.56,0-1.13,0.44-1.26,0.97
			c-0.15,0.61,0.31,0.96,1.26,0.96C437.66,589.3,438.12,588.95,437.98,588.34z M485.84,588.53c-0.19-0.42-0.58-0.77-0.87-0.77
			c-0.29,0-0.53,0.35-0.53,0.77s0.39,0.77,0.87,0.77S486.03,588.95,485.84,588.53z M491.56,588.82c1.92-0.71,1.49-1.83-0.7-1.83
			c-1.85,0-2.42,0.65-1.58,1.8C489.73,589.41,489.95,589.41,491.56,588.82L491.56,588.82z M405.46,587.76
			c0.19-0.42-0.05-0.77-0.53-0.77c-0.48,0-0.87,0.35-0.87,0.77c0,0.42,0.24,0.77,0.53,0.77
			C404.88,588.53,405.27,588.18,405.46,587.76L405.46,587.76z M412.16,586.99c-0.19-0.42-0.71-0.77-1.15-0.77
			c-0.44,0-0.8,0.35-0.8,0.77s0.52,0.77,1.15,0.77C411.99,587.76,412.35,587.41,412.16,586.99z M442.75,587
			c0.58-0.01,0.85-0.36,0.64-0.84c-0.42-0.94-3.02-0.28-3.88,0.99c-0.39,0.58-0.14,0.68,0.84,0.34
			C441.11,587.23,442.2,587,442.75,587z M252.36,584.85c-1.05-0.48-2.48,0.45-2.07,1.36c0.23,0.51,0.76,0.47,1.57-0.12
			C252.65,585.5,252.82,585.07,252.36,584.85L252.36,584.85z M366.22,585.1c0.87-0.5,1.41-1.16,1.2-1.45
			c-0.67-0.93-4.91-0.51-5.95,0.59c-0.98,1.03-0.98,1.09,0,1.88C362.5,586.94,363.39,586.75,366.22,585.1z M394.74,585.65
			c3.89-0.53,3.11-2.18-0.94-1.97c-3.58,0.19-4.26,0.55-4.26,2.28c0,0.9,0.31,1.06,1.26,0.63
			C391.5,586.28,393.27,585.85,394.74,585.65z M448.92,585.83c0.24-0.87-0.09-1.16-1.3-1.16c-1.62,0-2.53,0.89-1.86,1.82
			C446.44,587.44,448.6,586.98,448.92,585.83z M458.49,585.03c7.37-1.26,10.99-3.73,4.43-3.02c-2.13,0.23-4.75,0.75-5.83,1.15
			c-1.07,0.4-2.88,0.74-4.01,0.74c-2.03,0-3.02,0.82-2.27,1.86c0.21,0.29,1.65,0.31,3.19,0.05
			C455.55,585.53,457.57,585.19,458.49,585.03L458.49,585.03z M376.42,583.49c2.44-0.64,4.67-1.47,4.95-1.86
			c0.28-0.38,0.82-0.53,1.21-0.32c0.39,0.21,1.68-0.35,2.86-1.24l2.16-1.61l-2.51,0.43c-7.63,1.32-15.81,3.42-16.39,4.21
			c-0.88,1.21,0.28,2.5,1.8,2.01C371.31,584.86,373.97,584.12,376.42,583.49L376.42,583.49z M429.56,583.69
			c0.23-0.52-0.12-0.63-0.98-0.31c-0.74,0.27-1.66,0.5-2.04,0.51c-0.38,0.01-0.7,0.3-0.7,0.65
			C425.83,585.42,429.12,584.68,429.56,583.69z M404.5,583.25c0.16-0.66-0.11-0.94-0.75-0.77c-0.55,0.15-1.11,0.74-1.24,1.31
			c-0.16,0.66,0.11,0.94,0.75,0.77C403.8,584.41,404.37,583.82,404.5,583.25L404.5,583.25z M506.21,583.9
			c0-0.42-0.24-0.77-0.53-0.77c-0.29,0-0.68,0.35-0.87,0.77c-0.19,0.42,0.05,0.77,0.53,0.77
			C505.82,584.67,506.21,584.32,506.21,583.9z M474.95,581.61c1.69-0.44,4.95-1.16,7.26-1.6c9.78-1.85,12.05-2.3,12.84-2.56
			c0.46-0.15,1.84-0.52,3.07-0.83c1.23-0.31,2.78-0.93,3.45-1.38c0.67-0.45,1.62-0.6,2.12-0.34c0.56,0.3,1.42-0.23,2.23-1.36
			c0.9-1.25,1.41-1.53,1.59-0.88c0.29,1.03,6.03,0.33,8.74-1.08c1.39-0.72,8.11-1.65,11.62-1.6c1.02,0.01,2.3-0.31,2.84-0.72
			c0.55-0.41,2.29-0.88,3.86-1.05c1.57-0.17,3.18-0.67,3.57-1.11c0.39-0.44,2.41-0.77,4.49-0.74c2.22,0.03,4.05-0.32,4.44-0.86
			c0.36-0.5,1.11-0.92,1.67-0.92c0.55,0,1.01-0.33,1.01-0.73c0-0.82,3.1-0.6,4.65,0.33c0.56,0.34,3.07,0.38,5.58,0.1
			c2.51-0.28,6.56-0.69,9-0.91c2.44-0.22,5.46-0.73,6.7-1.12c1.24-0.4,3.19-0.73,4.32-0.74c1.13-0.01,2.23-0.4,2.44-0.86
			c0.22-0.5,1.12-0.65,2.22-0.36c1.1,0.29,2,0.14,2.22-0.36c0.22-0.49,1.04-0.64,1.95-0.36c0.86,0.26,3.04,0.11,4.83-0.33
			c1.79-0.44,4.77-0.84,6.61-0.89c1.84-0.05,4.81-0.78,6.59-1.62c1.78-0.85,4.25-1.64,5.49-1.77c2.55-0.26,3.57-1.28,3.07-3.08
			c-0.3-1.07-1.31-1.18-7.75-0.82c-4.07,0.22-9.42,0.74-11.87,1.15c-2.46,0.41-7.48,1.15-11.16,1.64c-3.68,0.49-7.42,1.4-8.3,2.02
			c-0.88,0.62-2.12,0.94-2.75,0.71c-0.63-0.23-1.87,0.17-2.75,0.89c-1.34,1.1-1.68,1.13-2.08,0.23c-0.38-0.85-1.48-0.96-5.42-0.51
			c-2.72,0.31-5.57,0.55-6.34,0.54c-0.77-0.01-2.28,0.38-3.35,0.88c-1.07,0.49-2.96,0.95-4.19,1.02
			c-8.26,0.45-14.52,1.25-18.14,2.29c-2.3,0.66-6.55,1.36-9.44,1.55c-3.06,0.2-5.95,0.83-6.92,1.5c-0.92,0.64-2.32,1.16-3.11,1.16
			c-1.61,0-12.93,2.69-16.81,4c-2.57,0.86-6.25,1.8-10.47,2.66c-2.58,0.53-3.05,1.42-1.19,2.24c3.16,1.39-3.55,3.84-12.23,4.47
			c-2.31,0.17-3.74,1.59-3.08,3.07C468.38,583.27,468.99,583.18,474.95,581.61z M438.67,581.58c0.65-0.58,0.5-0.75-0.7-0.76
			c-0.85-0.01-1.54,0.33-1.54,0.76C436.44,582.56,437.58,582.56,438.67,581.58z M446.98,580.89c1.15-1.01,0.18-2.54-1.23-1.94
			c-1.56,0.66-1.67,0.83-1.23,1.81C444.95,581.75,445.93,581.8,446.98,580.89L446.98,580.89z M452.89,580.07
			c0.18-0.41,0.7-0.54,1.15-0.3c0.45,0.24,1.26,0.19,1.8-0.12c0.93-0.52,0.93-0.58,0-1.05c-0.53-0.28-2.11-0.38-3.51-0.22
			c-2.1,0.23-2.43,0.47-1.89,1.36C451.18,580.98,452.4,581.15,452.89,580.07L452.89,580.07z M232.71,578.45
			c0.56-0.45-0.13-0.68-2.05-0.7c-3.29-0.03-4.8,0.56-4.3,1.68C226.73,580.27,231.33,579.56,232.71,578.45L232.71,578.45z
			 M375.32,577.43c0.61-0.47,1.37-0.89,1.67-0.93c0.52-0.07,0.97-0.28,3.07-1.42c0.46-0.25-0.1-0.3-1.25-0.11
			c-1.15,0.19-2.23,0.02-2.41-0.38c-0.59-1.31-2.28-0.75-3.61,1.21c-0.81,1.19-1.92,1.93-2.92,1.93c-0.9,0-1.46,0.33-1.27,0.75
			C369.02,579.38,373.73,578.64,375.32,577.43L375.32,577.43z M397.02,577.98c2.8-0.27,5.72-0.83,6.48-1.25l1.4-0.77l-1.4-0.57
			c-1.83-0.74-6.02-0.05-7.97,1.31c-0.85,0.6-1.78,0.88-2.07,0.64c-0.74-0.63-3.36,0.4-3.36,1.32c0,0.42,0.41,0.55,0.91,0.29
			C391.53,578.68,394.23,578.25,397.02,577.98z M433.37,578.5c0.19-0.44-0.27-0.77-1.08-0.77c-0.79,0-1.43,0.35-1.43,0.77
			c0,0.42,0.49,0.77,1.08,0.77C432.54,579.27,433.18,578.92,433.37,578.5L433.37,578.5z M466.89,577.66
			c0.75-1.68-0.65-2.28-2.44-1.05c-0.98,0.67-1.78,1.38-1.78,1.56C462.67,578.9,466.54,578.43,466.89,577.66L466.89,577.66z
			 M472.97,576.1c0.32-0.41-0.41-0.69-1.82-0.69c-1.76,0-2.34,0.3-2.34,1.22c0,0.97,0.37,1.11,1.81,0.69
			C471.63,577.03,472.68,576.48,472.97,576.1z M239.92,576.08c1.1-0.48,4.25-2.22,7.02-3.87c2.76-1.65,5.36-2.99,5.78-2.98
			c0.41,0.01,3.23-1.37,6.26-3.06c3.03-1.69,5.87-2.88,6.31-2.65c0.44,0.24,1.57-0.12,2.5-0.79c0.93-0.67,2.58-1.21,3.65-1.21
			c1.07,0,2.53-0.31,3.24-0.69c1.22-0.66,5.7-2.04,12.98-4c3.7-0.99,5.88-2.16,5.88-3.15c0-0.72-4.1-0.19-7.54,0.98
			c-5.2,1.77-9.62,3.06-11.44,3.34c-1.07,0.16-2.71,0.72-3.63,1.24c-0.92,0.52-2.55,1.22-3.63,1.55c-3.35,1.04-4.14,1.35-5.86,2.28
			c-0.92,0.5-2.39,1.04-3.27,1.2c-2.29,0.42-3.57,1.01-7.34,3.41c-1.84,1.18-4.48,2.74-5.86,3.49s-3.01,1.62-3.63,1.95
			c-0.61,0.33-1.94,1.03-2.94,1.55C234.72,576.58,236.01,577.8,239.92,576.08L239.92,576.08z M480.4,575.22
			c1.48-1.63,0.66-2.26-2.23-1.73c-3.08,0.57-4.53,1.6-3.99,2.81C474.56,577.17,479.39,576.32,480.4,575.22z M409.37,575.41
			c-0.19-0.42-0.83-0.77-1.43-0.77c-0.6,0-1.08,0.35-1.08,0.77c0,0.42,0.64,0.77,1.43,0.77
			C409.09,576.18,409.56,575.85,409.37,575.41z M416.28,575.1c1.64-1.26,0.75-2.24-1.45-1.6c-0.86,0.25-2.18,0.63-2.93,0.85
			c-1.08,0.31-1.2,0.54-0.56,1.1C412.5,576.45,414.73,576.3,416.28,575.1L416.28,575.1z M385.88,574.24
			c0.59-0.62,1.62-0.92,2.31-0.69c0.68,0.24,1.42,0.04,1.63-0.44c0.29-0.65,0.58-0.65,1.15,0c0.58,0.66,1.09,0.54,2.16-0.54
			c1.86-1.87,1.81-2.9-0.09-2.16c-0.85,0.32-2.92,0.68-4.6,0.79c-4.1,0.27-4.07,0.27-4.99,1.07c-0.66,0.58-0.68,0.91-0.07,1.92
			C384.26,575.66,384.51,575.67,385.88,574.24L385.88,574.24z M421.51,573.48c-0.21-1.15-2.52-0.94-2.81,0.25
			c-0.17,0.73,0.22,0.95,1.35,0.77C420.93,574.36,421.59,573.9,421.51,573.48L421.51,573.48z M568.45,573.09
			c-0.19-0.42-0.69-0.77-1.12-0.77c-0.42,0-0.93,0.35-1.12,0.77c-0.2,0.44,0.29,0.77,1.12,0.77
			C568.16,573.86,568.64,573.53,568.45,573.09z M342.11,571.85c0-0.16-0.5-0.3-1.12-0.3c-0.61,0-1.12,0.31-1.12,0.7
			c0,0.38,0.5,0.52,1.12,0.3C341.61,572.32,342.11,572.01,342.11,571.85z M403.65,570.46c1.15-0.35,2.09-0.96,2.09-1.35
			c0-0.84-3.93-0.03-4.71,0.98c-0.3,0.38-0.95,0.14-1.52-0.59c-0.82-1.02-1.16-1.07-1.85-0.28c-0.47,0.53-0.85,1.21-0.85,1.49
			C396.81,571.41,401.03,571.25,403.65,570.46z M432.25,570.78c1.42-0.85-0.05-0.85-1.95,0c-1.12,0.5-1.18,0.62-0.28,0.64
			C430.64,571.43,431.64,571.14,432.25,570.78L432.25,570.78z M347.69,570c0-0.42-0.5-0.77-1.12-0.77c-0.61,0-1.12,0.35-1.12,0.77
			c0,0.42,0.5,0.77,1.12,0.77C347.19,570.78,347.69,570.43,347.69,570z M357.41,567.99c0.49-0.26,0.88-0.8,0.88-1.21
			c0-1.07-2.38-0.43-2.66,0.72C355.39,568.55,356.03,568.72,357.41,567.99z M369.04,565.6c2.68-0.7,1.66-1.56-1.4-1.17
			c-3.33,0.42-3.47,0.51-2.92,1.73c0.23,0.52,0.89,0.67,1.59,0.36C366.97,566.24,368.2,565.82,369.04,565.6z M379.26,562.65
			c1.03-1.12,1.01-1.17-0.55-0.97c-0.9,0.12-1.73,0.65-1.86,1.18C376.53,564.2,377.95,564.07,379.26,562.65L379.26,562.65z
			 M385.65,560.74c0-0.42-0.5-0.77-1.12-0.77c-0.61,0-1.11,0.35-1.11,0.77s0.5,0.77,1.11,0.77
			C385.14,561.51,385.65,561.17,385.65,560.74z M390.47,559.97c0.15,0,0.13-0.32-0.05-0.7c-0.17-0.38-0.81-0.52-1.42-0.3
			c-0.61,0.22-0.96,0.73-0.78,1.14c0.18,0.41,0.7,0.54,1.16,0.3C389.83,560.17,390.32,559.97,390.47,559.97L390.47,559.97z
			 M395.86,558.35c-0.44-0.61-0.91-0.62-1.65-0.02c-0.9,0.73-0.83,0.83,0.62,0.85C396.03,559.19,396.31,558.97,395.86,558.35
			L395.86,558.35z M408.38,558.1c5.46-0.57,11.51-2.54,8.26-2.69c-2.14-0.1-17.1,1.48-18.06,1.9c-0.4,0.18-0.62,0.59-0.47,0.91
			C398.42,558.9,401.07,558.87,408.38,558.1z M427.02,553.77c2.65-1.24,2.79-1.42,1.25-1.47c-2.05-0.06-7.46,2.21-7.46,3.13
			C420.81,556.23,423.11,555.61,427.02,553.77z M300.31,552.95c1.65-0.47,3.38-0.84,3.85-0.83c0.87,0.01,5.16-1.01,9.49-2.26
			c4.34-1.26,8.93-3.27,8.93-3.93c0-0.72-4.53-0.29-8.65,0.81c-1.53,0.41-4.24,1.11-6.01,1.55c-1.77,0.44-3.53,1.08-3.91,1.42
			c-0.38,0.34-2.43,0.96-4.55,1.39c-2.16,0.43-3.97,1.2-4.09,1.74C295.07,554.02,296.38,554.05,300.31,552.95L300.31,552.95z
			 M439.94,551.34c1.77-0.47,3.35-1.13,3.5-1.46c0.41-0.92-0.76-1.66-1.55-0.99c-0.38,0.33-1.5,0.49-2.5,0.38
			c-1.83-0.22-4.66,0.77-7.7,2.69c-1.59,1-1.5,1.04,1.67,0.65C435.21,552.38,438.17,551.81,439.94,551.34L439.94,551.34z
			 M452.53,549.56c3.94-0.24,6.8-1.37,6.8-2.69c0-0.97-2.15-0.95-5.86,0.05c-1.53,0.41-3.61,0.73-4.61,0.7
			c-2.13-0.06-4.22,1.29-3.73,2.4c0.19,0.44,1.08,0.56,2.01,0.27C448.05,550.01,450.48,549.68,452.53,549.56z M462.67,546.84
			c0-0.42-0.38-0.77-0.84-0.77c-0.46,0-0.84,0.35-0.84,0.77c0,0.42,0.38,0.77,0.84,0.77C462.3,547.62,462.67,547.27,462.67,546.84z
			 M479.18,545.08c0.94-0.16,2.07-0.6,2.51-0.99c0.44-0.38,3.08-0.76,5.88-0.85c3.08-0.09,5.89-0.62,7.14-1.34
			c1.14-0.66,4.12-1.4,6.64-1.66c3.02-0.31,4.92-0.89,5.57-1.7c0.54-0.68,2.05-1.32,3.35-1.43c3.6-0.31,6.72-1.21,7.82-2.25
			c0.9-0.85,0.83-0.99-0.7-1.41c-1.89-0.52-4.97,0.1-5.99,1.21c-0.37,0.4-1.2,0.5-1.84,0.21c-0.64-0.28-1.47-0.19-1.84,0.2
			c-0.37,0.39-1.8,0.78-3.18,0.88c-1.38,0.09-3.27,0.79-4.2,1.54c-0.93,0.75-2.94,1.43-4.46,1.51c-1.53,0.07-5.29,0.78-8.36,1.58
			c-3.07,0.8-6.21,1.45-6.98,1.45c-6.12,0.02-10.6,1.41-10.6,3.27C469.93,545.85,475.42,545.72,479.18,545.08L479.18,545.08z
			 M519.89,539.13c0.19-0.42-0.19-0.77-0.84-0.77c-0.65,0-1.03,0.35-0.84,0.77c0.19,0.42,0.57,0.77,0.84,0.77
			C519.32,539.9,519.7,539.55,519.89,539.13z M489.19,537.58c0.19-0.42-0.05-0.77-0.53-0.77c-0.48,0-0.87,0.35-0.87,0.77
			c0,0.42,0.24,0.77,0.53,0.77C488.61,538.35,489,538.01,489.19,537.58z M529.1,537.71c0-1.09-0.63-1.59-1.45-1.15
			c-1.17,0.62-0.94,1.79,0.33,1.79C528.59,538.35,529.1,538.07,529.1,537.71z M535.11,535.89c-0.35-1.43-1.55-1.67-1.55-0.31
			c0,0.67,0.4,1.22,0.88,1.22C534.93,536.81,535.23,536.4,535.11,535.89L535.11,535.89z M527.67,534.74
			c3.78-0.33,5.69-0.74,8.68-1.85c1.38-0.51,3.77-1.02,5.3-1.12c12.33-0.82,16.08-1.2,16.65-1.69c0.36-0.31,2.41-0.68,4.56-0.82
			c6.45-0.41,7.22-0.53,8.07-1.29c0.45-0.4,2.16-0.67,3.8-0.61c1.64,0.06,3.65-0.24,4.45-0.66c1.77-0.93,10.29-1.57,11.15-0.84
			c0.34,0.29,0.64,0.78,0.67,1.1c0.03,0.32,0.24,0.49,0.47,0.39c0.23-0.11,0.34-0.61,0.26-1.12c-0.09-0.53,0.74-1.13,1.96-1.41
			c3.34-0.77,3.78-1.06,3.07-2.05c-0.46-0.64-2.49-0.62-7.77,0.08c-3.93,0.52-8.52,1.1-10.21,1.3c-3.67,0.42-5.99,0.81-6.56,1.11
			c-0.23,0.12-1.55,0.3-2.93,0.4c-2.21,0.16-6.95,0.66-20.09,2.14c-11.07,1.25-16.68,2.14-18.42,2.94c-1.07,0.49-3.71,1.1-5.86,1.36
			c-3.04,0.36-3.94,0.75-4.08,1.76c-0.12,0.92,0.28,1.38,1.39,1.57c0.86,0.15,1.81,0.11,2.1-0.08
			C524.61,535.15,526.12,534.87,527.67,534.74L527.67,534.74z M548.08,534.49c0-0.42-0.52-0.77-1.15-0.77
			c-0.63,0-0.99,0.35-0.8,0.77c0.19,0.42,0.71,0.77,1.15,0.77C547.71,535.27,548.08,534.92,548.08,534.49z M553.1,533.8
			c0-0.95-1.57-1.71-1.92-0.93c-0.16,0.34-0.12,0.85,0.07,1.12C551.78,534.74,553.1,534.6,553.1,533.8L553.1,533.8z M520.72,529.86
			c0-0.42-0.49-0.77-1.08-0.77c-0.6,0-1.24,0.35-1.43,0.77c-0.19,0.44,0.27,0.77,1.08,0.77
			C520.08,530.63,520.72,530.29,520.72,529.86z M231,527.86c1.1-1.43,0.24-2.4-1.1-1.25c-0.6,0.52-1.46,0.94-1.93,0.94
			c-0.46,0-0.84,0.53-0.84,1.17C227.13,530.12,229.7,529.54,231,527.86z M529.65,528.32c0.68-0.6,0.6-0.75-0.42-0.76
			c-0.69-0.01-1.26,0.34-1.26,0.76C527.98,529.29,528.57,529.29,529.65,528.32z M222.66,526c0-0.42-0.24-0.77-0.53-0.77
			c-0.29,0-0.68,0.35-0.87,0.77c-0.19,0.42,0.05,0.77,0.53,0.77C222.27,526.77,222.66,526.43,222.66,526z M606.12,525.62
			c0-0.64-0.38-1.16-0.84-1.16c-0.46,0-0.84,0.52-0.84,1.16c0,0.64,0.38,1.16,0.84,1.16C605.75,526.77,606.12,526.25,606.12,525.62z
			 M604.73,522.92c0.84-0.5,0.44-0.68-1.57-0.72c-1.66-0.03-2.55,0.24-2.34,0.72C601.23,523.84,603.18,523.84,604.73,522.92z
			 M640.27,501.9c-1.13-1.56-1.8,0.21-0.79,2.08c0.94,1.74,0.98,1.75,1.16,0.25C640.74,503.37,640.58,502.32,640.27,501.9z
			 M656.36,424.06c0-0.4-0.38-0.73-0.84-0.73c-0.86,0-1.11,0.91-0.48,1.78C655.49,425.73,656.36,425.04,656.36,424.06L656.36,424.06
			z M548.63,336.11c0-0.42-0.36-0.77-0.8-0.77c-0.44,0-0.96,0.35-1.15,0.77c-0.19,0.42,0.17,0.77,0.8,0.77
			C548.12,336.88,548.63,336.53,548.63,336.11z M536.89,335.37c0.45-0.4,0.7-0.88,0.56-1.07c-0.93-1.25-5.57-0.37-5.57,1.05
			C531.89,336.31,535.8,336.32,536.89,335.37L536.89,335.37z M548.19,333.03c1.44-0.01,4.08-0.55,5.86-1.21
			c1.78-0.66,4.73-1.37,6.55-1.59c3.57-0.42,4.22-0.73,4.22-1.97c0-0.81-0.79-0.74-9.49,0.77c-4.44,0.77-15.58,3.86-16.38,4.54
			c-1.3,1.1,1.23,1.44,3.75,0.51C544.27,333.51,546.74,333.04,548.19,333.03z M558.68,333.79c0-0.42-0.36-0.77-0.8-0.77
			c-0.44,0-0.96,0.35-1.15,0.77c-0.19,0.42,0.17,0.77,0.8,0.77C558.16,334.57,558.68,334.22,558.68,333.79L558.68,333.79z
			 M564.75,333.31c2.63-0.73,2.15-2.11-0.56-1.61c-2.53,0.47-4.35,2.09-2.35,2.09C562.48,333.79,563.79,333.58,564.75,333.31z
			 M585.75,329.16c0.19-0.42-0.19-0.77-0.84-0.77s-1.03,0.35-0.84,0.77c0.19,0.42,0.57,0.77,0.84,0.77S585.56,329.59,585.75,329.16z
			 M590.17,328.69c0.49-0.26,0.88-0.8,0.88-1.21c0-1.07-2.38-0.43-2.66,0.71C588.15,329.25,588.79,329.43,590.17,328.69
			L590.17,328.69z M573.33,327.23c-0.21-1.18-5.3-0.96-5.59,0.24c-0.18,0.77,0.48,0.95,2.74,0.77
			C572.13,328.11,573.41,327.66,573.33,327.23L573.33,327.23z M584.36,325.66c7.96-1.15,11.89-2.2,12.14-3.25
			c0.36-1.49-4.77-0.88-12.42,1.46c-4.15,1.27-4.29,1.35-3.89,2.25c0.2,0.46,0.78,0.6,1.29,0.32
			C581.99,326.16,583.28,325.81,584.36,325.66L584.36,325.66z M633.79,325.23c0.6-1.34-1.27-3.54-2.07-2.43
			c-0.49,0.68-0.48,1.18,0.06,2.09C632.62,326.29,633.26,326.4,633.79,325.23L633.79,325.23z M626.68,254.42
			c0.12-1.11-0.12-1.68-0.7-1.68c-0.57,0-0.88,0.7-0.88,2C625.1,257.15,626.41,256.89,626.68,254.42z M263.21,244.9
			c0.66,0.05,2.64-0.57,4.4-1.37c1.76-0.8,3.54-1.29,3.95-1.07c0.69,0.37,4.82-1.28,17.13-6.81c2.7-1.21,5.42-2.21,6.03-2.21
			c0.61,0,1.85-0.53,2.75-1.17c0.9-0.64,2.83-1.39,4.3-1.65c1.46-0.27,3.34-0.95,4.17-1.53c0.83-0.58,2.08-1.05,2.79-1.05
			c0.71,0,2-0.52,2.88-1.16c0.88-0.63,1.92-1.15,2.3-1.15c0.39,0,1.02-0.52,1.4-1.16c0.42-0.7,1.64-1.16,3.1-1.16
			c1.33,0,2.57-0.35,2.76-0.77c0.19-0.42,0.97-0.77,1.73-0.77c0.76,0,2.37-0.69,3.57-1.54c1.2-0.85,2.55-1.54,2.98-1.54
			c1.26,0,2.34-2.21,1.59-3.25c-0.68-0.95-3-0.07-9.6,3.63c-1.99,1.12-5.64,2.69-8.09,3.49c-5.16,1.68-7.7,2.62-10.05,3.74
			c-0.92,0.44-2.81,1.19-4.19,1.68c-4.06,1.43-8.33,3.15-13.4,5.42c-2.61,1.16-6.13,2.55-7.81,3.08c-1.69,0.53-5.03,1.96-7.43,3.17
			c-2.4,1.21-4.85,2.21-5.45,2.21c-0.6,0-1.52,0.32-2.05,0.71c-0.53,0.39-1.41,0.91-1.95,1.13c-0.54,0.23-0.98,0.82-0.98,1.3
			c0,0.54,0.38,0.66,0.98,0.3C261.57,245.07,262.55,244.85,263.21,244.9z M301.54,235.3c2.78-1.31,3.59-2.24,2.47-2.84
			c-0.81-0.43-7.11,2.21-7.91,3.31C295.23,236.98,298.61,236.68,301.54,235.3L301.54,235.3z M410,232.03
			c-1.34-0.36-2.73,0.47-2.32,1.38c0.21,0.47,0.89,0.4,1.82-0.19C410.67,232.48,410.77,232.23,410,232.03z M308.36,232.62
			c0.57-1.27-0.1-1.73-1.69-1.18c-0.79,0.28-1.29,0.84-1.11,1.25C306.01,233.7,307.9,233.65,308.36,232.62L308.36,232.62z
			 M315.52,229.91c2.19-0.67,4.76-1.73,5.7-2.36c0.94-0.63,1.95-1.08,2.23-1.01c1.21,0.32,1.91-0.12,1.91-1.2
			c0-1.29-1.97-1.59-2.51-0.39c-0.19,0.42-1.15,0.77-2.13,0.78c-0.98,0-2.5,0.52-3.38,1.16c-0.88,0.63-2.13,1.16-2.79,1.17
			c-1.11,0.02-4.55,3.01-3.5,3.05C311.31,231.12,313.32,230.58,315.52,229.91z M373.05,228.4c1.03-1.07,0.99-1.13-0.66-1.13
			c-1.73,0-2.68,0.87-1.99,1.82C370.97,229.87,371.88,229.63,373.05,228.4z M363.88,227.27c0-0.42-0.24-0.77-0.53-0.77
			s-0.68,0.35-0.87,0.77c-0.19,0.42,0.05,0.77,0.53,0.77C363.49,228.04,363.88,227.69,363.88,227.27z M370.02,224.95
			c0-0.42-0.24-0.77-0.52-0.77c-0.29,0-0.68,0.35-0.87,0.77c-0.19,0.42,0.04,0.77,0.52,0.77
			C369.63,225.72,370.02,225.37,370.02,224.95z M332.62,221.99c1.69-0.84,3.95-2.17,5.02-2.95c1.93-1.41,1.94-1.43,0.49-1.66
			c-1.7-0.27-10.68,4.67-11.02,6.07C326.85,224.57,328.11,224.23,332.62,221.99z M384.53,219.08l1.4-1.02l-1.45-0.03
			c-1.82-0.04-4.97,1.44-4.97,2.34C379.51,221.24,382.7,220.41,384.53,219.08z M342.67,216.46c0-0.42-0.38-0.77-0.84-0.77
			c-0.46,0-0.84,0.35-0.84,0.77c0,0.42,0.38,0.77,0.84,0.77C342.29,217.23,342.67,216.88,342.67,216.46z M347.48,214.37
			c1.83-1.11,1.98-1.36,0.93-1.59c-1.37-0.31-3.52,1.01-3.52,2.16C344.9,215.92,344.96,215.91,347.48,214.37z M398.8,213.01
			c1.04-1.09,1.03-1.13-0.34-1.16c-0.78-0.01-1.91,0.49-2.51,1.11c-1.04,1.09-1.03,1.13,0.35,1.16
			C397.07,214.13,398.2,213.63,398.8,213.01z M356.94,210.73c0.62-0.6,2.12-1.32,3.33-1.6c1.21-0.28,2.83-0.79,3.6-1.14
			c0.77-0.35,2.9-1.24,4.75-1.98c4.09-1.64,5.19-2.65,3.95-3.62c-0.53-0.41-1.89-0.23-3.52,0.47c-8.45,3.64-10.52,4.62-11,5.21
			c-0.29,0.36-1.08,0.66-1.74,0.66c-1.51,0-2.88,1.96-1.79,2.56C355.62,211.93,355.74,211.9,356.94,210.73z M403.79,211.06
			c0.44-0.99-1.41-0.99-2.51,0c-0.65,0.59-0.51,0.75,0.66,0.76C402.77,211.83,403.6,211.48,403.79,211.06z M409.79,209.16
			c1.15-0.27,2.09-0.82,2.09-1.23c0-0.97-1.09-0.93-3.4,0.14c-2.13,0.99-3.72,2.64-1.9,1.98
			C407.19,209.83,408.64,209.43,409.79,209.16z M420.59,205.58c0.52-0.6,0.63-1.21,0.29-1.68c-0.57-0.79-6.05,1.32-7.05,2.72
			C413.01,207.76,419.58,206.75,420.59,205.58L420.59,205.58z M426.15,202.98c1.04-1.09,1.03-1.13-0.34-1.16
			c-0.79-0.01-1.92,0.49-2.51,1.11c-1.04,1.09-1.03,1.13,0.35,1.16C424.42,204.1,425.55,203.6,426.15,202.98z M483.89,203.34
			c0-0.42-0.36-0.77-0.8-0.77c-0.44,0-0.96,0.35-1.15,0.77c-0.19,0.42,0.17,0.77,0.8,0.77
			C483.37,204.11,483.89,203.76,483.89,203.34z M492.82,202.22c3.78-1.17,10.74-3.16,15.07-4.3c1.38-0.36,3.64-1.06,5.02-1.55
			c1.38-0.49,4.77-1.38,7.53-1.99c8.79-1.93,14.4-3.47,15.45-4.25c1.39-1.03,1.28-2.24-0.21-2.24c-1.23,0-2.41,0.27-13.37,3.1
			c-3.27,0.84-6.94,1.53-8.16,1.53c-1.22,0-3.19,0.47-4.38,1.05c-1.19,0.58-3.67,1.3-5.51,1.61c-1.84,0.31-4.1,1.01-5.02,1.56
			c-3.35,2-5.09,2.7-8.52,3.44c-3.72,0.8-4.6,1.26-4.6,2.42C486.12,203.66,488.65,203.51,492.82,202.22L492.82,202.22z
			 M378.68,201.52c0.6-0.57,1.8-1.28,2.66-1.57c0.86-0.29,1.41-0.86,1.22-1.27c-0.44-0.98-2.9-0.97-3.34,0.02
			c-0.19,0.42-1.07,0.77-1.95,0.77c-1.35,0-3.36,1.64-3.36,2.76C373.92,203.03,377.69,202.47,378.68,201.52L378.68,201.52z
			 M390.4,196.78c0.62-0.53,2.25-1.21,3.63-1.5c1.38-0.29,4.51-1.35,6.97-2.36c5.32-2.17,12.59-4.87,15.47-5.73
			c1.14-0.34,2.65-1.11,3.35-1.72c0.7-0.61,2.62-1.19,4.26-1.31c1.89-0.13,4.2-1.02,6.27-2.41c1.86-1.25,3.78-2.02,4.42-1.79
			c1.48,0.53,8.67-2.68,10.22-4.57c1.21-1.47,1.2-1.48-2.3-1c-1.93,0.26-4.7,1.19-6.14,2.07c-1.45,0.87-4.01,2.04-5.7,2.61
			c-1.69,0.56-4.45,1.6-6.14,2.32c-1.69,0.71-4.2,1.57-5.58,1.89c-4.68,1.11-8.09,2.23-10.61,3.48c-1.38,0.69-4.14,1.74-6.14,2.35
			c-4.98,1.51-9.93,3.75-10.72,4.85c-0.36,0.5-1.55,0.92-2.64,0.92c-1.72,0-5.61,2.38-5.61,3.42
			C383.41,198.98,389.3,197.73,390.4,196.78z M445.09,195.62c0.19-0.42-0.17-0.77-0.8-0.77c-0.63,0-1.15,0.35-1.15,0.77
			c0,0.42,0.36,0.77,0.8,0.77C444.38,196.39,444.9,196.04,445.09,195.62z M450.95,193.23c0.66-0.52,0.58-0.66-0.37-0.68
			c-1.6-0.03-2.98,0.74-2.98,1.66C447.6,194.96,449.42,194.43,450.95,193.23z M544.45,187.17l2.23-1.46l-2.34-0.06
			c-2.4-0.06-5.19,1.21-5.19,2.38C539.14,189.16,542.14,188.68,544.45,187.17z M465.46,187.12c0-0.42-0.24-0.77-0.53-0.77
			c-0.29,0-0.68,0.35-0.87,0.77c-0.19,0.42,0.05,0.77,0.53,0.77S465.46,187.55,465.46,187.12z M553.1,184.04
			c0-0.42-0.36-0.77-0.8-0.77c-0.44,0-0.96,0.35-1.15,0.77c-0.19,0.42,0.17,0.77,0.8,0.77C552.58,184.81,553.1,184.46,553.1,184.04z
			 M538.86,182.48c-0.19-0.43-0.58-0.59-0.87-0.34c-0.78,0.66-0.63,1.12,0.35,1.12C538.82,183.26,539.05,182.91,538.86,182.48z
			 M482.73,180.84c1.1-0.49,2.34-1.01,2.77-1.18c0.43-0.16,0.64-0.49,0.47-0.72c-0.44-0.61-6.68,1.09-7.34,2
			C477.87,182.02,480.21,181.95,482.73,180.84z M493.61,177.39c0.49-0.26,0.88-0.78,0.88-1.16c0-1.05-2.34-0.77-3.91,0.47l-1.4,1.1
			l1.77,0.03C491.93,177.85,493.12,177.65,493.61,177.39L493.61,177.39z M503.7,173.82c3.84-1.2,4.41-2.17,1.08-1.82
			c-3.17,0.33-7.5,2.08-7.5,3.03C497.28,175.67,498.51,175.44,503.7,173.82z M452.18,172.75c0.83-0.58,2.03-1.06,2.66-1.06
			c0.63,0,1.59-0.3,2.12-0.68c1.63-1.14,4.89-2.41,6.17-2.41c1.42,0,7.88-2.95,8.89-4.06c0.38-0.42,0.7-1.11,0.7-1.53
			c0-1.01-3.14-0.18-8.25,2.17c-2.23,1.03-4.43,1.87-4.89,1.87c-0.46,0-1.27,0.31-1.8,0.69c-0.53,0.38-2.85,1.48-5.15,2.45
			c-4.65,1.96-5.33,2.49-4.76,3.76C448.28,174.9,449.69,174.5,452.18,172.75L452.18,172.75z M510.4,171.69
			c0.19-0.44-0.27-0.77-1.08-0.77c-0.79,0-1.43,0.35-1.43,0.77c0,0.42,0.49,0.77,1.08,0.77
			C509.57,172.46,510.21,172.11,510.4,171.69z M519.19,170.33c2.73-0.65,1.69-1.86-1.12-1.3c-3.05,0.61-3.18,0.7-2.65,1.88
			c0.21,0.48,0.8,0.63,1.31,0.33C517.24,170.94,518.34,170.53,519.19,170.33z M581.56,170.91c0-0.42-0.39-0.77-0.87-0.77
			c-0.48,0-0.71,0.35-0.53,0.77c0.19,0.42,0.58,0.77,0.87,0.77C581.33,171.69,581.56,171.34,581.56,170.91z M524.63,168.6
			c0-0.42-0.38-0.77-0.84-0.77c-0.46,0-0.84,0.35-0.84,0.77s0.38,0.77,0.84,0.77C524.25,169.37,524.63,169.02,524.63,168.6z
			 M527.42,167.83c0-0.42-0.38-0.77-0.84-0.77c-0.46,0-0.84,0.35-0.84,0.77c0,0.42,0.38,0.77,0.84,0.77
			C527.05,168.6,527.42,168.25,527.42,167.83z M546.33,163.49c0.96-0.27,1.74-0.82,1.74-1.22c0-0.85-3.35-0.03-4.16,1.01
			C543.28,164.1,543.9,164.16,546.33,163.49L546.33,163.49z M560.91,159.25c0-0.91-2.64-0.89-3.04,0.02
			c-0.36,0.8,1.27,1.49,2.34,0.99C560.6,160.09,560.91,159.63,560.91,159.25L560.91,159.25z M566.01,158.56
			c0.58,0,1.05-0.39,1.05-0.87c0-1.08-4.47-0.22-5.3,1.01c-0.4,0.59-0.02,0.69,1.33,0.35C564.11,158.78,565.43,158.56,566.01,158.56
			z M570.12,157.02c0.19-0.42-0.05-0.77-0.53-0.77c-0.48,0-0.87,0.35-0.87,0.77c0,0.42,0.24,0.77,0.53,0.77
			S569.93,157.45,570.12,157.02z M346.87,592.43c-0.37-0.83,1.41-2.35,2.74-2.35c0.71,0,0.67,0.28-0.24,1.54
			C348.14,593.31,347.38,593.56,346.87,592.43L346.87,592.43z M351.04,590.07c0-0.42,0.94-0.77,2.09-0.76
			c1.56,0.01,1.88,0.2,1.26,0.76C353.29,591.06,351.04,591.06,351.04,590.07z M645.51,565.44c-0.48-1.08,0.27-3.16,1.14-3.16
			c0.85,0,0.97,0.74,0.44,2.64C646.71,566.28,645.99,566.52,645.51,565.44L645.51,565.44z M645.97,554.89
			c0.19-0.67,0.34-1.89,0.34-2.7c0-0.99,0.39-1.48,1.18-1.48c0.95,0,1.12,0.34,0.84,1.74c-0.19,0.96-0.34,2.17-0.34,2.7
			c0,0.53-0.54,0.96-1.18,0.96C645.97,556.11,645.73,555.76,645.97,554.89L645.97,554.89z M632.14,308.64
			c-0.21-0.75-0.08-1.11,0.32-0.92c0.83,0.39,1.29,2.14,0.56,2.14C632.72,309.86,632.33,309.31,632.14,308.64z M634.36,303.79
			c-0.24-0.54-0.29-1.19-0.1-1.44c0.5-0.69,1.04,0.33,0.77,1.44C634.84,304.58,634.71,304.58,634.36,303.79L634.36,303.79z
			 M629.01,278.98c0-0.42,0.24-0.77,0.52-0.77c0.29,0,0.68,0.35,0.87,0.77c0.19,0.42-0.04,0.77-0.53,0.77
			C629.4,279.76,629.01,279.41,629.01,278.98z M627.98,276.24c0.11-0.76,0.53-1.53,0.94-1.72c0.48-0.22,0.68,0.15,0.56,1.03
			c-0.11,0.76-0.53,1.53-0.94,1.72C628.06,277.49,627.86,277.12,627.98,276.24L627.98,276.24z M562.03,136.24
			c0-0.49,0.44-1.07,0.98-1.3c0.54-0.23,1.41-0.74,1.95-1.13c0.53-0.39,1.84-0.72,2.9-0.72c1.06,0,3.23-0.38,4.81-0.85
			c1.96-0.58,3.05-0.6,3.44-0.06c0.64,0.89-1.47,1.81-7.38,3.2c-2,0.47-4.32,1.06-5.16,1.3
			C562.59,136.97,562.03,136.81,562.03,136.24L562.03,136.24z"/>
		
			<radialGradient id="SVGID_1_" cx="363.3018" cy="452.1416" r="240.1836" gradientTransform="matrix(2.8583 0 0 3.9529 -802.7863 -1105.6738)" gradientUnits="userSpaceOnUse">
			<stop  offset="0" style="stop-color:#F9ED32"/>
			<stop  offset="0.0615" style="stop-color:#F8D939"/>
			<stop  offset="0.1874" style="stop-color:#F5A54D"/>
			<stop  offset="0.365" style="stop-color:#F0536C"/>
			<stop  offset="0.4486" style="stop-color:#EE2A7B"/>
			<stop  offset="0.5994" style="stop-color:#9E2AA7"/>
			<stop  offset="0.7418" style="stop-color:#5B2ACD"/>
			<stop  offset="0.86" style="stop-color:#2A2AE8"/>
			<stop  offset="0.9496" style="stop-color:#0B2AF9"/>
			<stop  offset="1" style="stop-color:#002AFF"/>
		</radialGradient>
		<path class="st2" d="M473.84,590.85c0-0.42-0.25-0.77-0.56-0.77c-0.31,0-0.56,0.35-0.56,0.77s0.25,0.77,0.56,0.77
			C473.59,591.62,473.84,591.27,473.84,590.85z"/>
		
			<radialGradient id="SVGID_2_" cx="363.3018" cy="452.1416" r="240.1836" gradientTransform="matrix(2.8583 0 0 3.9529 -802.7863 -1105.6738)" gradientUnits="userSpaceOnUse">
			<stop  offset="0" style="stop-color:#F9ED32"/>
			<stop  offset="0.0615" style="stop-color:#F8D939"/>
			<stop  offset="0.1874" style="stop-color:#F5A54D"/>
			<stop  offset="0.365" style="stop-color:#F0536C"/>
			<stop  offset="0.4486" style="stop-color:#EE2A7B"/>
			<stop  offset="0.5994" style="stop-color:#9E2AA7"/>
			<stop  offset="0.7418" style="stop-color:#5B2ACD"/>
			<stop  offset="0.86" style="stop-color:#2A2AE8"/>
			<stop  offset="0.9496" style="stop-color:#0B2AF9"/>
			<stop  offset="1" style="stop-color:#002AFF"/>
		</radialGradient>
		<path class="st3" d="M403.05,588c-0.4-0.22-0.88-0.2-1.07,0.06c-0.19,0.26,0.14,0.44,0.73,0.41
			C403.37,588.43,403.5,588.25,403.05,588z"/>
		
			<radialGradient id="SVGID_3_" cx="363.3018" cy="452.1416" r="240.1836" gradientTransform="matrix(2.8583 0 0 3.9529 -802.7863 -1105.6738)" gradientUnits="userSpaceOnUse">
			<stop  offset="0" style="stop-color:#F9ED32"/>
			<stop  offset="0.0615" style="stop-color:#F8D939"/>
			<stop  offset="0.1874" style="stop-color:#F5A54D"/>
			<stop  offset="0.365" style="stop-color:#F0536C"/>
			<stop  offset="0.4486" style="stop-color:#EE2A7B"/>
			<stop  offset="0.5994" style="stop-color:#9E2AA7"/>
			<stop  offset="0.7418" style="stop-color:#5B2ACD"/>
			<stop  offset="0.86" style="stop-color:#2A2AE8"/>
			<stop  offset="0.9496" style="stop-color:#0B2AF9"/>
			<stop  offset="1" style="stop-color:#002AFF"/>
		</radialGradient>
		<path class="st4" d="M416.45,586.46c-0.4-0.22-0.88-0.2-1.07,0.06c-0.19,0.25,0.14,0.44,0.73,0.41
			C416.76,586.89,416.9,586.71,416.45,586.46z"/>
		
			<radialGradient id="SVGID_4_" cx="363.3018" cy="452.1416" r="240.1836" gradientTransform="matrix(2.8583 0 0 3.9529 -802.7863 -1105.6738)" gradientUnits="userSpaceOnUse">
			<stop  offset="0" style="stop-color:#F9ED32"/>
			<stop  offset="0.0615" style="stop-color:#F8D939"/>
			<stop  offset="0.1874" style="stop-color:#F5A54D"/>
			<stop  offset="0.365" style="stop-color:#F0536C"/>
			<stop  offset="0.4486" style="stop-color:#EE2A7B"/>
			<stop  offset="0.5994" style="stop-color:#9E2AA7"/>
			<stop  offset="0.7418" style="stop-color:#5B2ACD"/>
			<stop  offset="0.86" style="stop-color:#2A2AE8"/>
			<stop  offset="0.9496" style="stop-color:#0B2AF9"/>
			<stop  offset="1" style="stop-color:#002AFF"/>
		</radialGradient>
		<path class="st5" d="M224.33,585.44c0-0.42-0.25-0.77-0.56-0.77c-0.31,0-0.56,0.35-0.56,0.77c0,0.42,0.25,0.77,0.56,0.77
			C224.08,586.22,224.33,585.87,224.33,585.44z"/>
		
			<radialGradient id="SVGID_5_" cx="363.3018" cy="452.1416" r="240.1836" gradientTransform="matrix(2.8583 0 0 3.9529 -802.7863 -1105.6738)" gradientUnits="userSpaceOnUse">
			<stop  offset="0" style="stop-color:#F9ED32"/>
			<stop  offset="0.0615" style="stop-color:#F8D939"/>
			<stop  offset="0.1874" style="stop-color:#F5A54D"/>
			<stop  offset="0.365" style="stop-color:#F0536C"/>
			<stop  offset="0.4486" style="stop-color:#EE2A7B"/>
			<stop  offset="0.5994" style="stop-color:#9E2AA7"/>
			<stop  offset="0.7418" style="stop-color:#5B2ACD"/>
			<stop  offset="0.86" style="stop-color:#2A2AE8"/>
			<stop  offset="0.9496" style="stop-color:#0B2AF9"/>
			<stop  offset="1" style="stop-color:#002AFF"/>
		</radialGradient>
		<path class="st6" d="M503.42,584.63c0-0.45-0.25-0.6-0.56-0.34c-0.31,0.26-0.56,0.63-0.56,0.82s0.25,0.34,0.56,0.34
			C503.17,585.44,503.42,585.08,503.42,584.63L503.42,584.63z"/>
		
			<radialGradient id="SVGID_6_" cx="363.3018" cy="452.1416" r="240.1836" gradientTransform="matrix(2.8583 0 0 3.9529 -802.7863 -1105.6738)" gradientUnits="userSpaceOnUse">
			<stop  offset="0" style="stop-color:#F9ED32"/>
			<stop  offset="0.0615" style="stop-color:#F8D939"/>
			<stop  offset="0.1874" style="stop-color:#F5A54D"/>
			<stop  offset="0.365" style="stop-color:#F0536C"/>
			<stop  offset="0.4486" style="stop-color:#EE2A7B"/>
			<stop  offset="0.5994" style="stop-color:#9E2AA7"/>
			<stop  offset="0.7418" style="stop-color:#5B2ACD"/>
			<stop  offset="0.86" style="stop-color:#2A2AE8"/>
			<stop  offset="0.9496" style="stop-color:#0B2AF9"/>
			<stop  offset="1" style="stop-color:#002AFF"/>
		</radialGradient>
		<ellipse class="st7" cx="493.93" cy="574.64" rx="0.56" ry="0.77"/>
		
			<radialGradient id="SVGID_7_" cx="363.3018" cy="452.1416" r="240.1836" gradientTransform="matrix(2.8583 0 0 3.9529 -802.7863 -1105.6738)" gradientUnits="userSpaceOnUse">
			<stop  offset="0" style="stop-color:#F9ED32"/>
			<stop  offset="0.0615" style="stop-color:#F8D939"/>
			<stop  offset="0.1874" style="stop-color:#F5A54D"/>
			<stop  offset="0.365" style="stop-color:#F0536C"/>
			<stop  offset="0.4486" style="stop-color:#EE2A7B"/>
			<stop  offset="0.5994" style="stop-color:#9E2AA7"/>
			<stop  offset="0.7418" style="stop-color:#5B2ACD"/>
			<stop  offset="0.86" style="stop-color:#2A2AE8"/>
			<stop  offset="0.9496" style="stop-color:#0B2AF9"/>
			<stop  offset="1" style="stop-color:#002AFF"/>
		</radialGradient>
		<path class="st8" d="M526.31,566.15c0-0.42,0.11-0.77,0.25-0.77c0.14,0,0.4,0.35,0.59,0.77c0.19,0.42,0.08,0.77-0.24,0.77
			C526.57,566.92,526.31,566.57,526.31,566.15z"/>
		
			<radialGradient id="SVGID_8_" cx="363.3018" cy="452.1416" r="240.1836" gradientTransform="matrix(2.8583 0 0 3.9529 -802.7863 -1105.6738)" gradientUnits="userSpaceOnUse">
			<stop  offset="0" style="stop-color:#F9ED32"/>
			<stop  offset="0.0615" style="stop-color:#F8D939"/>
			<stop  offset="0.1874" style="stop-color:#F5A54D"/>
			<stop  offset="0.365" style="stop-color:#F0536C"/>
			<stop  offset="0.4486" style="stop-color:#EE2A7B"/>
			<stop  offset="0.5994" style="stop-color:#9E2AA7"/>
			<stop  offset="0.7418" style="stop-color:#5B2ACD"/>
			<stop  offset="0.86" style="stop-color:#2A2AE8"/>
			<stop  offset="0.9496" style="stop-color:#0B2AF9"/>
			<stop  offset="1" style="stop-color:#002AFF"/>
		</radialGradient>
		<path class="st9" d="M527.53,579.51c-0.4-0.22-0.89-0.2-1.07,0.06c-0.19,0.26,0.14,0.44,0.73,0.41
			C527.84,579.94,527.97,579.76,527.53,579.51z"/>
		
			<radialGradient id="SVGID_9_" cx="363.3018" cy="452.1416" r="240.1836" gradientTransform="matrix(2.8583 0 0 3.9529 -802.7863 -1105.6738)" gradientUnits="userSpaceOnUse">
			<stop  offset="0" style="stop-color:#F9ED32"/>
			<stop  offset="0.0615" style="stop-color:#F8D939"/>
			<stop  offset="0.1874" style="stop-color:#F5A54D"/>
			<stop  offset="0.365" style="stop-color:#F0536C"/>
			<stop  offset="0.4486" style="stop-color:#EE2A7B"/>
			<stop  offset="0.5994" style="stop-color:#9E2AA7"/>
			<stop  offset="0.7418" style="stop-color:#5B2ACD"/>
			<stop  offset="0.86" style="stop-color:#2A2AE8"/>
			<stop  offset="0.9496" style="stop-color:#0B2AF9"/>
			<stop  offset="1" style="stop-color:#002AFF"/>
		</radialGradient>
		<path class="st10" d="M543.74,576.41c-0.69-0.18-1.7-0.18-2.23,0.02c-0.53,0.19,0.03,0.34,1.26,0.33
			C544,576.75,544.44,576.59,543.74,576.41L543.74,576.41z"/>
		
			<radialGradient id="SVGID_10_" cx="363.3018" cy="452.1416" r="240.1836" gradientTransform="matrix(2.8583 0 0 3.9529 -802.7863 -1105.6738)" gradientUnits="userSpaceOnUse">
			<stop  offset="0" style="stop-color:#F9ED32"/>
			<stop  offset="0.0615" style="stop-color:#F8D939"/>
			<stop  offset="0.1874" style="stop-color:#F5A54D"/>
			<stop  offset="0.365" style="stop-color:#F0536C"/>
			<stop  offset="0.4486" style="stop-color:#EE2A7B"/>
			<stop  offset="0.5994" style="stop-color:#9E2AA7"/>
			<stop  offset="0.7418" style="stop-color:#5B2ACD"/>
			<stop  offset="0.86" style="stop-color:#2A2AE8"/>
			<stop  offset="0.9496" style="stop-color:#0B2AF9"/>
			<stop  offset="1" style="stop-color:#002AFF"/>
		</radialGradient>
		<path class="st11" d="M372.91,564.07c-0.4-0.22-0.88-0.2-1.07,0.06c-0.19,0.26,0.15,0.44,0.73,0.41
			C373.23,564.5,373.36,564.32,372.91,564.07z"/>
		
			<radialGradient id="SVGID_11_" cx="363.3018" cy="452.1416" r="240.1836" gradientTransform="matrix(2.8583 0 0 3.9529 -802.7863 -1105.6738)" gradientUnits="userSpaceOnUse">
			<stop  offset="0" style="stop-color:#F9ED32"/>
			<stop  offset="0.0615" style="stop-color:#F8D939"/>
			<stop  offset="0.1874" style="stop-color:#F5A54D"/>
			<stop  offset="0.365" style="stop-color:#F0536C"/>
			<stop  offset="0.4486" style="stop-color:#EE2A7B"/>
			<stop  offset="0.5994" style="stop-color:#9E2AA7"/>
			<stop  offset="0.7418" style="stop-color:#5B2ACD"/>
			<stop  offset="0.86" style="stop-color:#2A2AE8"/>
			<stop  offset="0.9496" style="stop-color:#0B2AF9"/>
			<stop  offset="1" style="stop-color:#002AFF"/>
		</radialGradient>
		<path class="st12" d="M497,535.27c0.19-0.42,0.09-0.77-0.21-0.77c-0.31,0-0.71,0.35-0.9,0.77c-0.19,0.42-0.09,0.77,0.21,0.77
			C496.41,536.04,496.81,535.69,497,535.27z"/>
		
			<radialGradient id="SVGID_12_" cx="363.3018" cy="452.1416" r="240.1836" gradientTransform="matrix(2.8583 0 0 3.9529 -802.7863 -1105.6738)" gradientUnits="userSpaceOnUse">
			<stop  offset="0" style="stop-color:#F9ED32"/>
			<stop  offset="0.0615" style="stop-color:#F8D939"/>
			<stop  offset="0.1874" style="stop-color:#F5A54D"/>
			<stop  offset="0.365" style="stop-color:#F0536C"/>
			<stop  offset="0.4486" style="stop-color:#EE2A7B"/>
			<stop  offset="0.5994" style="stop-color:#9E2AA7"/>
			<stop  offset="0.7418" style="stop-color:#5B2ACD"/>
			<stop  offset="0.86" style="stop-color:#2A2AE8"/>
			<stop  offset="0.9496" style="stop-color:#0B2AF9"/>
			<stop  offset="1" style="stop-color:#002AFF"/>
		</radialGradient>
		<path class="st13" d="M514.03,530.59c0-0.45-0.25-0.6-0.56-0.34c-0.31,0.26-0.56,0.63-0.56,0.82c0,0.19,0.25,0.34,0.56,0.34
			C513.77,531.41,514.03,531.04,514.03,530.59L514.03,530.59z"/>
		
			<radialGradient id="SVGID_13_" cx="363.3018" cy="452.1416" r="240.1836" gradientTransform="matrix(2.8583 0 0 3.9529 -802.7863 -1105.6738)" gradientUnits="userSpaceOnUse">
			<stop  offset="0" style="stop-color:#F9ED32"/>
			<stop  offset="0.0615" style="stop-color:#F8D939"/>
			<stop  offset="0.1874" style="stop-color:#F5A54D"/>
			<stop  offset="0.365" style="stop-color:#F0536C"/>
			<stop  offset="0.4486" style="stop-color:#EE2A7B"/>
			<stop  offset="0.5994" style="stop-color:#9E2AA7"/>
			<stop  offset="0.7418" style="stop-color:#5B2ACD"/>
			<stop  offset="0.86" style="stop-color:#2A2AE8"/>
			<stop  offset="0.9496" style="stop-color:#0B2AF9"/>
			<stop  offset="1" style="stop-color:#002AFF"/>
		</radialGradient>
		<path class="st14" d="M587.15,528.32c0-0.42-0.25-0.77-0.56-0.77c-0.31,0-0.56,0.35-0.56,0.77s0.25,0.77,0.56,0.77
			C586.9,529.09,587.15,528.74,587.15,528.32z"/>
		
			<radialGradient id="SVGID_14_" cx="363.3018" cy="452.1416" r="240.1836" gradientTransform="matrix(2.8583 0 0 3.9529 -802.7863 -1105.6738)" gradientUnits="userSpaceOnUse">
			<stop  offset="0" style="stop-color:#F9ED32"/>
			<stop  offset="0.0615" style="stop-color:#F8D939"/>
			<stop  offset="0.1874" style="stop-color:#F5A54D"/>
			<stop  offset="0.365" style="stop-color:#F0536C"/>
			<stop  offset="0.4486" style="stop-color:#EE2A7B"/>
			<stop  offset="0.5994" style="stop-color:#9E2AA7"/>
			<stop  offset="0.7418" style="stop-color:#5B2ACD"/>
			<stop  offset="0.86" style="stop-color:#2A2AE8"/>
			<stop  offset="0.9496" style="stop-color:#0B2AF9"/>
			<stop  offset="1" style="stop-color:#002AFF"/>
		</radialGradient>
		<path class="st15" d="M636.55,496.67c-0.19-0.42-0.46-0.77-0.59-0.77c-0.14,0-0.25,0.35-0.25,0.77c0,0.42,0.27,0.77,0.59,0.77
			C636.62,497.44,636.74,497.09,636.55,496.67z"/>
		
			<radialGradient id="SVGID_15_" cx="363.3018" cy="452.1416" r="240.1836" gradientTransform="matrix(2.8583 0 0 3.9529 -802.7863 -1105.6738)" gradientUnits="userSpaceOnUse">
			<stop  offset="0" style="stop-color:#F9ED32"/>
			<stop  offset="0.0615" style="stop-color:#F8D939"/>
			<stop  offset="0.1874" style="stop-color:#F5A54D"/>
			<stop  offset="0.365" style="stop-color:#F0536C"/>
			<stop  offset="0.4486" style="stop-color:#EE2A7B"/>
			<stop  offset="0.5994" style="stop-color:#9E2AA7"/>
			<stop  offset="0.7418" style="stop-color:#5B2ACD"/>
			<stop  offset="0.86" style="stop-color:#2A2AE8"/>
			<stop  offset="0.9496" style="stop-color:#0B2AF9"/>
			<stop  offset="1" style="stop-color:#002AFF"/>
		</radialGradient>
		<path class="st16" d="M636.37,477.62c-0.4-0.22-0.88-0.2-1.07,0.06c-0.19,0.26,0.14,0.44,0.73,0.41
			C636.68,478.05,636.82,477.86,636.37,477.62z"/>
		
			<radialGradient id="SVGID_16_" cx="363.3018" cy="452.1416" r="240.1836" gradientTransform="matrix(2.8583 0 0 3.9529 -802.7863 -1105.6738)" gradientUnits="userSpaceOnUse">
			<stop  offset="0" style="stop-color:#F9ED32"/>
			<stop  offset="0.0615" style="stop-color:#F8D939"/>
			<stop  offset="0.1874" style="stop-color:#F5A54D"/>
			<stop  offset="0.365" style="stop-color:#F0536C"/>
			<stop  offset="0.4486" style="stop-color:#EE2A7B"/>
			<stop  offset="0.5994" style="stop-color:#9E2AA7"/>
			<stop  offset="0.7418" style="stop-color:#5B2ACD"/>
			<stop  offset="0.86" style="stop-color:#2A2AE8"/>
			<stop  offset="0.9496" style="stop-color:#0B2AF9"/>
			<stop  offset="1" style="stop-color:#002AFF"/>
		</radialGradient>
		<path class="st17" d="M639.06,473.51c0-0.42-0.25-0.77-0.56-0.77s-0.56,0.35-0.56,0.77c0,0.42,0.25,0.77,0.56,0.77
			S639.06,473.94,639.06,473.51z"/>
		
			<radialGradient id="SVGID_17_" cx="363.3018" cy="452.1416" r="240.1836" gradientTransform="matrix(2.8583 0 0 3.9529 -802.7863 -1105.6738)" gradientUnits="userSpaceOnUse">
			<stop  offset="0" style="stop-color:#F9ED32"/>
			<stop  offset="0.0615" style="stop-color:#F8D939"/>
			<stop  offset="0.1874" style="stop-color:#F5A54D"/>
			<stop  offset="0.365" style="stop-color:#F0536C"/>
			<stop  offset="0.4486" style="stop-color:#EE2A7B"/>
			<stop  offset="0.5994" style="stop-color:#9E2AA7"/>
			<stop  offset="0.7418" style="stop-color:#5B2ACD"/>
			<stop  offset="0.86" style="stop-color:#2A2AE8"/>
			<stop  offset="0.9496" style="stop-color:#0B2AF9"/>
			<stop  offset="1" style="stop-color:#002AFF"/>
		</radialGradient>
		<path class="st18" d="M195.87,451.9c0-0.42-0.25-0.77-0.56-0.77s-0.56,0.35-0.56,0.77s0.25,0.77,0.56,0.77
			S195.87,452.32,195.87,451.9z"/>
		
			<radialGradient id="SVGID_18_" cx="363.3018" cy="452.1416" r="240.1836" gradientTransform="matrix(2.8583 0 0 3.9529 -802.7863 -1105.6738)" gradientUnits="userSpaceOnUse">
			<stop  offset="0" style="stop-color:#F9ED32"/>
			<stop  offset="0.0615" style="stop-color:#F8D939"/>
			<stop  offset="0.1874" style="stop-color:#F5A54D"/>
			<stop  offset="0.365" style="stop-color:#F0536C"/>
			<stop  offset="0.4486" style="stop-color:#EE2A7B"/>
			<stop  offset="0.5994" style="stop-color:#9E2AA7"/>
			<stop  offset="0.7418" style="stop-color:#5B2ACD"/>
			<stop  offset="0.86" style="stop-color:#2A2AE8"/>
			<stop  offset="0.9496" style="stop-color:#0B2AF9"/>
			<stop  offset="1" style="stop-color:#002AFF"/>
		</radialGradient>
		<path class="st19" d="M193.18,425.9c-0.4-0.22-0.88-0.2-1.07,0.06c-0.19,0.26,0.14,0.44,0.73,0.41
			C193.49,426.33,193.63,426.14,193.18,425.9z"/>
		
			<radialGradient id="SVGID_19_" cx="363.3018" cy="452.1416" r="240.1836" gradientTransform="matrix(2.8583 0 0 3.9529 -802.7863 -1105.6738)" gradientUnits="userSpaceOnUse">
			<stop  offset="0" style="stop-color:#F9ED32"/>
			<stop  offset="0.0615" style="stop-color:#F8D939"/>
			<stop  offset="0.1874" style="stop-color:#F5A54D"/>
			<stop  offset="0.365" style="stop-color:#F0536C"/>
			<stop  offset="0.4486" style="stop-color:#EE2A7B"/>
			<stop  offset="0.5994" style="stop-color:#9E2AA7"/>
			<stop  offset="0.7418" style="stop-color:#5B2ACD"/>
			<stop  offset="0.86" style="stop-color:#2A2AE8"/>
			<stop  offset="0.9496" style="stop-color:#0B2AF9"/>
			<stop  offset="1" style="stop-color:#002AFF"/>
		</radialGradient>
		<path class="st20" d="M554.77,334.52c0-0.45-0.25-0.6-0.56-0.34c-0.31,0.26-0.56,0.63-0.56,0.82c0,0.19,0.25,0.34,0.56,0.34
			C554.52,335.34,554.77,334.97,554.77,334.52L554.77,334.52z"/>
		
			<radialGradient id="SVGID_20_" cx="363.3018" cy="452.1416" r="240.1836" gradientTransform="matrix(2.8583 0 0 3.9529 -802.7863 -1105.6738)" gradientUnits="userSpaceOnUse">
			<stop  offset="0" style="stop-color:#F9ED32"/>
			<stop  offset="0.0615" style="stop-color:#F8D939"/>
			<stop  offset="0.1874" style="stop-color:#F5A54D"/>
			<stop  offset="0.365" style="stop-color:#F0536C"/>
			<stop  offset="0.4486" style="stop-color:#EE2A7B"/>
			<stop  offset="0.5994" style="stop-color:#9E2AA7"/>
			<stop  offset="0.7418" style="stop-color:#5B2ACD"/>
			<stop  offset="0.86" style="stop-color:#2A2AE8"/>
			<stop  offset="0.9496" style="stop-color:#0B2AF9"/>
			<stop  offset="1" style="stop-color:#002AFF"/>
		</radialGradient>
		<path class="st21" d="M570.4,331.48c0-0.42-0.25-0.77-0.56-0.77c-0.31,0-0.56,0.35-0.56,0.77c0,0.42,0.25,0.77,0.56,0.77
			C570.15,332.25,570.4,331.9,570.4,331.48z"/>
		
			<radialGradient id="SVGID_21_" cx="363.3018" cy="452.1416" r="240.1836" gradientTransform="matrix(2.8583 0 0 3.9529 -802.7863 -1105.6738)" gradientUnits="userSpaceOnUse">
			<stop  offset="0" style="stop-color:#F9ED32"/>
			<stop  offset="0.0615" style="stop-color:#F8D939"/>
			<stop  offset="0.1874" style="stop-color:#F5A54D"/>
			<stop  offset="0.365" style="stop-color:#F0536C"/>
			<stop  offset="0.4486" style="stop-color:#EE2A7B"/>
			<stop  offset="0.5994" style="stop-color:#9E2AA7"/>
			<stop  offset="0.7418" style="stop-color:#5B2ACD"/>
			<stop  offset="0.86" style="stop-color:#2A2AE8"/>
			<stop  offset="0.9496" style="stop-color:#0B2AF9"/>
			<stop  offset="1" style="stop-color:#002AFF"/>
		</radialGradient>
		<ellipse class="st22" cx="593.84" cy="326.85" rx="0.56" ry="0.77"/>
		
			<radialGradient id="SVGID_22_" cx="363.3018" cy="452.1416" r="240.1836" gradientTransform="matrix(2.8583 0 0 3.9529 -802.7863 -1105.6738)" gradientUnits="userSpaceOnUse">
			<stop  offset="0" style="stop-color:#F9ED32"/>
			<stop  offset="0.0615" style="stop-color:#F8D939"/>
			<stop  offset="0.1874" style="stop-color:#F5A54D"/>
			<stop  offset="0.365" style="stop-color:#F0536C"/>
			<stop  offset="0.4486" style="stop-color:#EE2A7B"/>
			<stop  offset="0.5994" style="stop-color:#9E2AA7"/>
			<stop  offset="0.7418" style="stop-color:#5B2ACD"/>
			<stop  offset="0.86" style="stop-color:#2A2AE8"/>
			<stop  offset="0.9496" style="stop-color:#0B2AF9"/>
			<stop  offset="1" style="stop-color:#002AFF"/>
		</radialGradient>
		<path class="st23" d="M577.24,326.33c-0.38-0.21-1.01-0.21-1.4,0c-0.38,0.21-0.07,0.39,0.7,0.39
			C577.31,326.73,577.62,326.55,577.24,326.33z"/>
		
			<radialGradient id="SVGID_23_" cx="363.3018" cy="452.1416" r="240.1836" gradientTransform="matrix(2.8583 0 0 3.9529 -802.7863 -1105.6738)" gradientUnits="userSpaceOnUse">
			<stop  offset="0" style="stop-color:#F9ED32"/>
			<stop  offset="0.0615" style="stop-color:#F8D939"/>
			<stop  offset="0.1874" style="stop-color:#F5A54D"/>
			<stop  offset="0.365" style="stop-color:#F0536C"/>
			<stop  offset="0.4486" style="stop-color:#EE2A7B"/>
			<stop  offset="0.5994" style="stop-color:#9E2AA7"/>
			<stop  offset="0.7418" style="stop-color:#5B2ACD"/>
			<stop  offset="0.86" style="stop-color:#2A2AE8"/>
			<stop  offset="0.9496" style="stop-color:#0B2AF9"/>
			<stop  offset="1" style="stop-color:#002AFF"/>
		</radialGradient>
		<ellipse class="st24" cx="598.87" cy="326.07" rx="0.56" ry="0.77"/>
		
			<radialGradient id="SVGID_24_" cx="363.3018" cy="452.1416" r="240.1836" gradientTransform="matrix(2.8583 0 0 3.9529 -802.7863 -1105.6738)" gradientUnits="userSpaceOnUse">
			<stop  offset="0" style="stop-color:#F9ED32"/>
			<stop  offset="0.0615" style="stop-color:#F8D939"/>
			<stop  offset="0.1874" style="stop-color:#F5A54D"/>
			<stop  offset="0.365" style="stop-color:#F0536C"/>
			<stop  offset="0.4486" style="stop-color:#EE2A7B"/>
			<stop  offset="0.5994" style="stop-color:#9E2AA7"/>
			<stop  offset="0.7418" style="stop-color:#5B2ACD"/>
			<stop  offset="0.86" style="stop-color:#2A2AE8"/>
			<stop  offset="0.9496" style="stop-color:#0B2AF9"/>
			<stop  offset="1" style="stop-color:#002AFF"/>
		</radialGradient>
		<path class="st25" d="M200.33,306.78c0-0.42-0.25-0.77-0.56-0.77s-0.56,0.35-0.56,0.77s0.25,0.77,0.56,0.77
			S200.33,307.2,200.33,306.78z"/>
		
			<radialGradient id="SVGID_25_" cx="363.3018" cy="452.1416" r="240.1836" gradientTransform="matrix(2.8583 0 0 3.9529 -802.7863 -1105.6738)" gradientUnits="userSpaceOnUse">
			<stop  offset="0" style="stop-color:#F9ED32"/>
			<stop  offset="0.0615" style="stop-color:#F8D939"/>
			<stop  offset="0.1874" style="stop-color:#F5A54D"/>
			<stop  offset="0.365" style="stop-color:#F0536C"/>
			<stop  offset="0.4486" style="stop-color:#EE2A7B"/>
			<stop  offset="0.5994" style="stop-color:#9E2AA7"/>
			<stop  offset="0.7418" style="stop-color:#5B2ACD"/>
			<stop  offset="0.86" style="stop-color:#2A2AE8"/>
			<stop  offset="0.9496" style="stop-color:#0B2AF9"/>
			<stop  offset="1" style="stop-color:#002AFF"/>
		</radialGradient>
		<path class="st26" d="M291.87,237.64c0-0.19-0.25-0.34-0.56-0.34c-0.31,0-0.56,0.37-0.56,0.82c0,0.45,0.25,0.6,0.56,0.34
			C291.62,238.2,291.87,237.83,291.87,237.64z"/>
		
			<radialGradient id="SVGID_26_" cx="363.3018" cy="452.1416" r="240.1836" gradientTransform="matrix(2.8583 0 0 3.9529 -802.7863 -1105.6738)" gradientUnits="userSpaceOnUse">
			<stop  offset="0" style="stop-color:#F9ED32"/>
			<stop  offset="0.0615" style="stop-color:#F8D939"/>
			<stop  offset="0.1874" style="stop-color:#F5A54D"/>
			<stop  offset="0.365" style="stop-color:#F0536C"/>
			<stop  offset="0.4486" style="stop-color:#EE2A7B"/>
			<stop  offset="0.5994" style="stop-color:#9E2AA7"/>
			<stop  offset="0.7418" style="stop-color:#5B2ACD"/>
			<stop  offset="0.86" style="stop-color:#2A2AE8"/>
			<stop  offset="0.9496" style="stop-color:#0B2AF9"/>
			<stop  offset="1" style="stop-color:#002AFF"/>
		</radialGradient>
		<path class="st27" d="M413.28,231.9c0.19-0.42,0.1-0.77-0.21-0.77c-0.31,0-0.71,0.35-0.9,0.77c-0.19,0.42-0.09,0.77,0.21,0.77
			C412.68,232.67,413.09,232.32,413.28,231.9z"/>
		
			<radialGradient id="SVGID_27_" cx="363.3018" cy="452.1416" r="240.1836" gradientTransform="matrix(2.8583 0 0 3.9529 -802.7863 -1105.6738)" gradientUnits="userSpaceOnUse">
			<stop  offset="0" style="stop-color:#F9ED32"/>
			<stop  offset="0.0615" style="stop-color:#F8D939"/>
			<stop  offset="0.1874" style="stop-color:#F5A54D"/>
			<stop  offset="0.365" style="stop-color:#F0536C"/>
			<stop  offset="0.4486" style="stop-color:#EE2A7B"/>
			<stop  offset="0.5994" style="stop-color:#9E2AA7"/>
			<stop  offset="0.7418" style="stop-color:#5B2ACD"/>
			<stop  offset="0.86" style="stop-color:#2A2AE8"/>
			<stop  offset="0.9496" style="stop-color:#0B2AF9"/>
			<stop  offset="1" style="stop-color:#002AFF"/>
		</radialGradient>
		<path class="st28" d="M367.51,225.72c0.19-0.42,0.09-0.77-0.21-0.77c-0.31,0-0.71,0.35-0.9,0.77c-0.19,0.42-0.09,0.77,0.21,0.77
			C366.91,226.5,367.32,226.15,367.51,225.72z"/>
		
			<radialGradient id="SVGID_28_" cx="363.3018" cy="452.1416" r="240.1836" gradientTransform="matrix(2.8583 0 0 3.9529 -802.7863 -1105.6738)" gradientUnits="userSpaceOnUse">
			<stop  offset="0" style="stop-color:#F9ED32"/>
			<stop  offset="0.0615" style="stop-color:#F8D939"/>
			<stop  offset="0.1874" style="stop-color:#F5A54D"/>
			<stop  offset="0.365" style="stop-color:#F0536C"/>
			<stop  offset="0.4486" style="stop-color:#EE2A7B"/>
			<stop  offset="0.5994" style="stop-color:#9E2AA7"/>
			<stop  offset="0.7418" style="stop-color:#5B2ACD"/>
			<stop  offset="0.86" style="stop-color:#2A2AE8"/>
			<stop  offset="0.9496" style="stop-color:#0B2AF9"/>
			<stop  offset="1" style="stop-color:#002AFF"/>
		</radialGradient>
		<path class="st29" d="M436.72,198.71c0.19-0.42,0.1-0.77-0.21-0.77c-0.31,0-0.71,0.35-0.9,0.77c-0.19,0.42-0.09,0.77,0.21,0.77
			C436.12,199.48,436.53,199.13,436.72,198.71z"/>
		
			<radialGradient id="SVGID_29_" cx="363.3018" cy="452.1416" r="240.1836" gradientTransform="matrix(2.8583 0 0 3.9529 -802.7863 -1105.6738)" gradientUnits="userSpaceOnUse">
			<stop  offset="0" style="stop-color:#F9ED32"/>
			<stop  offset="0.0615" style="stop-color:#F8D939"/>
			<stop  offset="0.1874" style="stop-color:#F5A54D"/>
			<stop  offset="0.365" style="stop-color:#F0536C"/>
			<stop  offset="0.4486" style="stop-color:#EE2A7B"/>
			<stop  offset="0.5994" style="stop-color:#9E2AA7"/>
			<stop  offset="0.7418" style="stop-color:#5B2ACD"/>
			<stop  offset="0.86" style="stop-color:#2A2AE8"/>
			<stop  offset="0.9496" style="stop-color:#0B2AF9"/>
			<stop  offset="1" style="stop-color:#002AFF"/>
		</radialGradient>
		<path class="st30" d="M475.62,182.74c-0.4-0.22-0.89-0.2-1.07,0.06c-0.19,0.26,0.15,0.44,0.73,0.41
			C475.93,183.17,476.06,182.98,475.62,182.74z"/>
		
			<radialGradient id="SVGID_30_" cx="363.3018" cy="452.1416" r="240.1836" gradientTransform="matrix(2.8583 0 0 3.9529 -802.7863 -1105.6738)" gradientUnits="userSpaceOnUse">
			<stop  offset="0" style="stop-color:#F9ED32"/>
			<stop  offset="0.0615" style="stop-color:#F8D939"/>
			<stop  offset="0.1874" style="stop-color:#F5A54D"/>
			<stop  offset="0.365" style="stop-color:#F0536C"/>
			<stop  offset="0.4486" style="stop-color:#EE2A7B"/>
			<stop  offset="0.5994" style="stop-color:#9E2AA7"/>
			<stop  offset="0.7418" style="stop-color:#5B2ACD"/>
			<stop  offset="0.86" style="stop-color:#2A2AE8"/>
			<stop  offset="0.9496" style="stop-color:#0B2AF9"/>
			<stop  offset="1" style="stop-color:#002AFF"/>
		</radialGradient>
		<path class="st31" d="M552.65,161.12c-0.4-0.22-0.89-0.2-1.07,0.06c-0.18,0.26,0.14,0.44,0.73,0.41
			C552.96,161.56,553.09,161.37,552.65,161.12z"/>
		
			<radialGradient id="SVGID_31_" cx="363.3018" cy="452.1416" r="240.1836" gradientTransform="matrix(2.8583 0 0 3.9529 -802.7863 -1105.6738)" gradientUnits="userSpaceOnUse">
			<stop  offset="0" style="stop-color:#F9ED32"/>
			<stop  offset="0.0615" style="stop-color:#F8D939"/>
			<stop  offset="0.1874" style="stop-color:#F5A54D"/>
			<stop  offset="0.365" style="stop-color:#F0536C"/>
			<stop  offset="0.4486" style="stop-color:#EE2A7B"/>
			<stop  offset="0.5994" style="stop-color:#9E2AA7"/>
			<stop  offset="0.7418" style="stop-color:#5B2ACD"/>
			<stop  offset="0.86" style="stop-color:#2A2AE8"/>
			<stop  offset="0.9496" style="stop-color:#0B2AF9"/>
			<stop  offset="1" style="stop-color:#002AFF"/>
		</radialGradient>
		<path class="st32" d="M340.71,593.93c0.19-0.42,0.6-0.77,0.9-0.77c0.31,0,0.4,0.35,0.21,0.77c-0.19,0.42-0.6,0.77-0.9,0.77
			C340.62,594.7,340.52,594.36,340.71,593.93z"/>
		
			<radialGradient id="SVGID_32_" cx="363.3018" cy="452.1416" r="240.1836" gradientTransform="matrix(2.8583 0 0 3.9529 -802.7863 -1105.6738)" gradientUnits="userSpaceOnUse">
			<stop  offset="0" style="stop-color:#F9ED32"/>
			<stop  offset="0.0615" style="stop-color:#F8D939"/>
			<stop  offset="0.1874" style="stop-color:#F5A54D"/>
			<stop  offset="0.365" style="stop-color:#F0536C"/>
			<stop  offset="0.4486" style="stop-color:#EE2A7B"/>
			<stop  offset="0.5994" style="stop-color:#9E2AA7"/>
			<stop  offset="0.7418" style="stop-color:#5B2ACD"/>
			<stop  offset="0.86" style="stop-color:#2A2AE8"/>
			<stop  offset="0.9496" style="stop-color:#0B2AF9"/>
			<stop  offset="1" style="stop-color:#002AFF"/>
		</radialGradient>
		<path class="st33" d="M577.81,131.85c0.18-0.26,0.67-0.29,1.07-0.06c0.44,0.25,0.31,0.43-0.34,0.47
			C577.95,132.29,577.62,132.11,577.81,131.85z"/>
		<g>
			<g>
				<path class="st0" d="M469.32,502.99h-74.63c-33.12,0-60.07-37.27-60.07-83.08v-90.95c0-45.81,26.95-83.08,60.07-83.08h74.63
					c33.12,0,60.07,37.27,60.07,83.08v90.95C529.39,465.72,502.44,502.99,469.32,502.99z M394.69,264.34
					c-25.76,0-46.72,28.98-46.72,64.61v90.95c0,35.63,20.96,64.62,46.72,64.62h74.63c25.76,0,46.72-28.99,46.72-64.62v-90.95
					c0-35.63-20.96-64.61-46.72-64.61H394.69z"/>
			</g>
			<g>
				<path class="st0" d="M432,448.39c-29.49,0-53.47-33.17-53.47-73.95c0-40.78,23.99-73.95,53.47-73.95
					c29.49,0,53.47,33.17,53.47,73.95C485.48,415.21,461.49,448.39,432,448.39z M432,318.94c-22.12,0-40.13,24.89-40.13,55.49
					c0,30.6,18,55.49,40.13,55.49c22.12,0,40.12-24.89,40.12-55.49C472.13,343.84,454.13,318.94,432,318.94z"/>
			</g>
			<g>
				<path class="st0" d="M495.75,302.76c0,8.47-4.97,15.34-11.09,15.34c-6.13,0-11.1-6.87-11.1-15.34c0-8.48,4.97-15.35,11.1-15.35
					C490.79,287.41,495.75,294.28,495.75,302.76z"/>
			</g>
		</g>
	</g>
</g>
</svg>
