<?xml version="1.0" encoding="utf-8"?>
<!-- Generator: Adobe Illustrator 23.0.1, SVG Export Plug-In . SVG Version: 6.00 Build 0)  -->
<svg version="1.1" id="Icons" xmlns="http://www.w3.org/2000/svg" xmlns:xlink="http://www.w3.org/1999/xlink" x="0px" y="0px"
	 viewBox="0 0 800 800" style="enable-background:new 0 0 800 800;" xml:space="preserve">
<style type="text/css">
	.st0{fill:#FFFFFF;}
	.st1{fill:#7BC5F8;}
</style>
<rect id="BG" class="st0" width="800" height="800"/>
<g>
	<g>
		<path id="path3797_3_" class="st1" d="M321.17,630.25c0-2.32,1.8-3.58,7.26-5.09c8.19-2.27,11.75-3.62,11.56-4.4
			c-0.26-1.08-3.5-1.27-5.42-0.32c-0.77,0.38-2.4,0.99-3.63,1.35c-1.23,0.36-3.73,1.18-5.56,1.81c-3.62,1.25-5.53,0.64-5.21-1.66
			c0.2-1.44,10.21-6.55,11.55-5.9c1.09,0.53,2.85-0.36,2.85-1.45c0-0.55,0.83-0.89,2.09-0.86c1.15,0.03,2.78-0.41,3.61-0.97
			c0.85-0.58,3.98-1.14,7.15-1.28c4.27-0.19,5.85-0.56,6.54-1.51c1.39-1.93-0.04-2.31-5.21-1.37c-11.29,2.03-12.71,2.36-13.26,3.11
			c-0.32,0.44-1.48,0.81-2.58,0.81c-1.1,0-3.37,0.53-5.05,1.18c-3.42,1.32-9.09,1.94-10.06,1.11c-0.42-0.36-0.12-1.2,0.89-2.5
			c0.88-1.13,1.4-2.44,1.21-3.09c-0.37-1.31,0.58-2.87,1.73-2.87c0.66,0,0.67,0.2,0.06,1.22c-1.6,2.67,1.66,3.05,5.17,0.6
			c0.83-0.58,2.34-1.06,3.35-1.08c1.01-0.02,2.47-0.52,3.24-1.12c1.38-1.08,1.36-1.09-0.72-0.85c-1.16,0.13-2.27,0.46-2.47,0.73
			c-0.67,0.93-3.06,0.52-2.82-0.47c0.13-0.53,1.59-1.18,3.26-1.45c1.66-0.27,4.2-1.2,5.63-2.07c1.43-0.87,3.1-1.4,3.71-1.18
			c1.39,0.5,3.45-0.97,3.45-2.47c0-1.48,0.91-1.46,1.32,0.03c0.53,1.9,4.57,1.52,5.61-0.53c0.81-1.59,0.91-1.61,1.9-0.37
			c0.99,1.24,1.35,1.22,6.3-0.34c2.89-0.91,5.69-1.98,6.24-2.37c1.35-0.97,0.58-2.41-1.06-1.97c-0.73,0.19-1.33,0.02-1.33-0.38
			c0-1.32-4.7,0.25-5.63,1.88c-0.75,1.31-1.08,1.42-2.1,0.66c-0.91-0.68-2.34-0.69-5.73-0.05c-2.49,0.47-4.9,0.65-5.37,0.4
			c-0.47-0.25-1.38-0.01-2.03,0.54c-0.73,0.61-2.13,0.84-3.69,0.59l-2.51-0.4l1.81-0.92c4.21-2.14,0.39-4-4.33-2.1
			c-1.69,0.68-3.82,1.35-4.75,1.48c-0.92,0.14-2.38,0.63-3.24,1.09c-0.87,0.46-2.5,0.84-3.64,0.84c-1.14,0-2.61,0.53-3.28,1.17
			c-1.63,1.58-2.27,0.05-0.92-2.18c0.56-0.93,1.08-1.82,1.16-1.99c0.07-0.17,0.45,0.06,0.84,0.5c0.47,0.52,1.67,0.56,3.5,0.11
			c1.53-0.38,3.74-0.91,4.9-1.18c1.16-0.27,2.24-0.79,2.41-1.16c0.16-0.37,0.85-0.67,1.52-0.68c0.67-0.01,1.85-0.7,2.62-1.53
			c1.52-1.64,2.79-1.99,2.79-0.77c0,1.18,1.83,0.92,3.26-0.46c0.7-0.68,1.77-1.06,2.37-0.84c1.55,0.56,4.98-0.89,4.98-2.11
			c0-0.56-0.81-1.25-1.8-1.52c-1.34-0.37-2.2-0.1-3.35,1.08c-1.43,1.46-1.64,1.49-2.88,0.37c-1.22-1.1-1.42-1.1-2.24,0.04
			c-0.64,0.89-1.39,1.1-2.61,0.73c-1.65-0.5-4.98,0.77-4.98,1.9c0,0.3-1.7,0.6-3.78,0.68c-2.08,0.08-4.65,0.48-5.72,0.91
			c-3.14,1.25-4.46,1-4.46-0.85c0-0.98-0.45-1.78-1.14-2.03c-1.6-0.58-1.15-2.59,0.99-4.45c0.98-0.86,1.8-1.81,1.81-2.13
			c0.02-0.32-1.1-0.58-2.48-0.58c-2.03,0-2.67-0.35-3.39-1.88c-0.7-1.49-1.56-1.99-4.06-2.41c-1.74-0.29-3.47-0.86-3.84-1.27
			c-0.37-0.41-1-0.46-1.4-0.12c-0.4,0.35-1.16,0.53-1.7,0.41c-0.54-0.12-0.98,0.19-0.98,0.69c0,0.53-0.46,0.74-1.11,0.51
			c-0.61-0.22-1.26-0.08-1.44,0.33c-0.18,0.4-0.8,0.52-1.38,0.27c-0.58-0.25-1.93,0.11-2.99,0.81c-1.07,0.7-2.15,1.1-2.4,0.88
			c-0.25-0.22-2.17,0.1-4.26,0.7c-2.09,0.61-4.02,0.91-4.3,0.68c-0.27-0.23-1.24,0.33-2.14,1.26c-0.99,1.01-2.02,1.48-2.59,1.18
			c-0.52-0.28-1.3-0.11-1.72,0.38c-0.45,0.52-1.7,0.71-3.01,0.47c-1.48-0.27-2.86,0.01-4.04,0.82c-1.7,1.17-3.98,1.91-9.05,2.92
			c-1.22,0.25-2.48,0.72-2.79,1.05c-0.31,0.34-1.83,0.81-3.37,1.04c-1.54,0.24-4.68,1.35-6.98,2.46c-2.3,1.11-5.45,2.47-7,3.01
			c-1.55,0.54-3.81,1.73-5.02,2.65c-2.68,2.02-6.42,3.9-9.59,4.82c-1.3,0.38-3.15,1.25-4.12,1.94c-0.97,0.69-4.92,1.9-8.8,2.69
			c-3.87,0.79-7.99,1.67-9.14,1.96c-1.25,0.31-2.09,0.22-2.09-0.23c0-1.73,2.18-3.25,5.31-3.71c1.84-0.27,3.55-0.77,3.81-1.11
			c0.95-1.27-0.59-1.42-3.83-0.37c-4.04,1.3-7.42,1.24-8.9-0.16c-0.98-0.93-1-1.04-0.12-1.04c1.44,0,1.82-2.21,0.59-3.45
			c-0.99-1.01-0.97-1.1,0.49-1.87c1.79-0.95,1.99-2.21,0.46-3c-1.92-0.99,0.03-3.37,3.14-3.83c3.06-0.46,4.57-1.61,3.41-2.6
			c-0.79-0.68-3.15-0.1-4.18,1.03c-0.44,0.48-1.79-0.04-3.97-1.51c-2.96-2-3.19-2.31-2.13-2.95c1.76-1.07,1.85-3.98,0.15-5.05
			c-1.45-0.91-2.25-3.96-1.35-5.19c0.33-0.45,0.3-0.92-0.08-1.24c-0.88-0.75-0.74-1.97,0.22-1.97c0.66,0,0.76-0.7,0.48-3.47
			c-0.29-2.89-0.19-3.47,0.57-3.47c0.5,0,0.91-0.52,0.91-1.16c0-0.82-0.6-1.16-2.01-1.16c-1.7,0-1.95-0.21-1.61-1.35
			c0.88-2.95,0.94-4.11,0.26-5.23c-0.57-0.95-0.53-1.43,0.21-2.56c1.24-1.89,1.18-2.25-0.76-4.75c-1.71-2.21-2.16-3.86-1.06-3.86
			c0.34,0,1.41-0.5,2.37-1.11c0.97-0.61,2.89-1.29,4.27-1.52c5.59-0.92,7.24-1.44,7.86-2.46c0.94-1.57-0.71-2.23-2.91-1.17
			c-2.23,1.08-6.81,1.13-6.34,0.08c0.19-0.42,1.15-0.78,2.13-0.78c0.98-0.01,2.16-0.35,2.62-0.77c0.74-0.68,0.74-0.85,0-1.53
			c-0.46-0.42-1.47-0.6-2.23-0.38c-3.52,0.97-6.14,1.13-6.14,0.37c0-1.22,0.4-1.34,10.33-2.93c1.84-0.3,3.97-1.14,4.73-1.88
			c0.76-0.74,1.76-1.36,2.23-1.38c0.47-0.02,1.84-1.23,3.04-2.7l2.19-2.67h-1.52c-1.62,0-4.81,1.96-4.81,2.96
			c0,0.33-1.26,0.63-2.79,0.66c-1.54,0.03-3.14,0.46-3.57,0.94c-0.58,0.67-1.13,0.66-2.23-0.03c-1.06-0.67-1.81-0.69-2.76-0.09
			c-0.79,0.5-1.62,0.55-2.09,0.14c-0.43-0.38-1.7-0.69-2.81-0.7c-1.73-0.01-3.9-1.79-3.22-2.63c0.79-0.97,3.98-2.78,4.9-2.78
			c0.61,0,1.26-0.33,1.44-0.74c0.2-0.46-1.51-0.65-4.47-0.52c-4.71,0.22-4.8,0.19-4.49-1.49c0.35-1.92-0.75-2.63-4.07-2.65
			c-1.6-0.01-1.78-0.18-1.19-1.16c0.56-0.94,0.5-1.24-0.35-1.63c-4.13-1.93-4.81-2.78-3.21-4.01c0.82-0.63,0.82-0.74,0.02-1.17
			c-1.31-0.69-0.47-2.85,1.1-2.85c0.74,0,1.34-0.37,1.34-0.83c0-0.46-0.56-0.77-1.26-0.69c-3.02,0.34-3.13,0.2-2.57-3.25
			c0.31-1.92,0.32-3.4,0.02-3.67c-0.28-0.25-0.48-1.32-0.44-2.38c0.05-1.58-0.23-1.98-1.55-2.18l-1.61-0.25l1.78-2.25
			c1.95-2.46,1.85-3.8-0.27-3.8c-0.75,0-1.36-0.32-1.36-0.71c0-0.39-0.12-1.17-0.28-1.74c-0.29-1.07,2.59-3.22,5.44-4.07
			c2.37-0.71,1.92-2.26-0.5-1.72c-2.84,0.64-4.03-0.49-4.46-4.2c-0.24-2.06-0.94-3.87-2.05-5.3c-1.54-2-1.61-2.29-0.8-3.41
			c0.49-0.68,1.23-1.23,1.65-1.23c0.8,0,2.11-1.47,2.11-2.38c0-0.58-2.92-1.54-4.88-1.6c-1.41-0.05-1.71-1.79-0.42-2.47
			c0.46-0.24,0.84-0.94,0.84-1.54c0-0.6,0.38-1.3,0.84-1.54c0.91-0.48,1.17-2.81,0.31-2.81c-0.29,0-0.75,0.53-1.01,1.19
			c-0.4,0.99-0.61,0.85-1.25-0.79c-0.66-1.71-0.65-2.14,0.08-3.14c1.1-1.53,0.67-5.54-0.7-6.56c-1.28-0.95-1.44-4.58-0.19-4.58
			c1.14,0,1.73-2.3,0.8-3.11c-0.58-0.49-0.59-0.88-0.09-1.73c0.85-1.42,0.31-2.11-1.66-2.11c-1.19,0-1.58-0.37-1.58-1.49
			c0-1.5,2.93-5.01,3.5-4.21c0.29,0.4,1.3-0.22,3.16-1.93c1.24-1.14-0.27-3.16-2.4-3.22c-1.6-0.05-1.64-0.11-0.49-0.75
			c0.69-0.38,1.26-1.23,1.26-1.88c0-1.38-1.72-1.58-2.64-0.31c-0.73,1.01-2.62,0.28-2.13-0.82c0.18-0.4-0.1-1.06-0.62-1.46
			c-0.52-0.4-1.01-1.55-1.1-2.56c-0.09-1-0.32-2.9-0.51-4.21c-0.25-1.66-0.09-2.75,0.52-3.59c0.79-1.08,0.79-1.25,0.02-1.66
			c-0.51-0.27-0.79-1.16-0.68-2.17c0.13-1.24,0.69-1.86,2.02-2.23c2.3-0.65,2.79-1.28,1.51-1.96c-0.55-0.29-1.44-0.14-1.99,0.33
			c-0.78,0.67-1.06,0.6-1.32-0.33c-0.46-1.64,0.08-2.6,1.45-2.6c0.86,0,1.08-0.37,0.86-1.5c-0.24-1.27,0.15-1.63,2.55-2.34
			c1.56-0.46,3.1-1.14,3.43-1.52c0.33-0.37,1.22-0.8,1.99-0.94c0.77-0.15,1.37-0.61,1.35-1.04c-0.03-0.42,1.1-1.46,2.5-2.3
			c1.4-0.84,2.97-2.1,3.48-2.81c0.88-1.22,5.47-3,7.74-3c1.69,0,1.83-1.37,0.28-2.78c-1.36-1.23-1.48-1.22-2.19,0.13
			c-0.63,1.18-0.99,1.28-2.11,0.57c-0.74-0.47-2-0.68-2.78-0.48c-1.28,0.34-1.52,0.01-2.33-3.27c-0.49-2-0.78-3.9-0.64-4.22
			c0.14-0.32,1.34-0.96,2.66-1.42c1.36-0.47,2.97-1.74,3.71-2.91l1.31-2.08l-3.19,0.52c-2.84,0.46-3.34,0.33-4.53-1.23
			c-1.75-2.29-1.87-6.44-0.2-7.17c1.07-0.47,1.09-0.58,0.19-1.48c-0.63-0.64-0.8-1.34-0.49-2.04c0.91-2.04,0.55-4.96-0.62-4.99
			c-1.65-0.05-2.47-1.03-2.08-2.51c0.46-1.73,1.11-2.32,3.64-3.29c1.15-0.44,2.09-1.17,2.09-1.63c0-0.45-0.41-0.61-0.91-0.34
			c-0.5,0.27-1.77,0.26-2.82-0.01c-1.52-0.39-1.89-0.83-1.79-2.14c0.06-0.9-0.08-2.26-0.31-3c-0.24-0.78-0.14-1.83,0.23-2.44
			c0.52-0.86,0.41-1.19-0.5-1.59c-0.63-0.28-1.15-0.99-1.15-1.58c0-0.64,0.34-0.9,0.82-0.64c0.53,0.28,1.06-0.29,1.48-1.57
			c0.36-1.1,0.87-2.01,1.13-2.01c0.93,0,0.44-1.45-0.65-1.93c-1.33-0.58-1.45-2.13-0.27-3.49c0.76-0.87,0.76-1.17-0.04-2.85
			c-0.73-1.54-0.76-2.09-0.17-3.06c0.59-0.99,0.53-1.37-0.35-2.26c-0.58-0.59-1.68-1.08-2.44-1.08c-1.29,0-1.32-0.08-0.46-1.4
			c0.72-1.1,0.77-1.6,0.24-2.34c-0.53-0.73-0.53-1.27,0.02-2.47c0.58-1.28,0.52-1.89-0.38-3.65c-0.7-1.38-1.17-3.91-1.34-7.34
			c-0.23-4.56-0.13-5.33,0.78-6.01c2.08-1.54,0.95-3.79-1.92-3.83c-0.98-0.02-0.81-0.34,0.88-1.7c2.39-1.91,2.58-2.56,0.93-3.16
			c-0.87-0.32-1.08-0.81-0.81-1.99c0.2-0.86,0.1-2.24-0.22-3.06c-1.11-2.87,0.7-3.82,12.8-6.67c4.45-1.05,8.97-2.28,10.05-2.73
			c1.07-0.45,4.46-1.47,7.53-2.27c12.55-3.27,24.1-7.32,47.44-16.65c30.39-12.14,30.99-12.37,38.52-15.04
			c9.58-3.39,13.77-5.09,16.19-6.55c2.71-1.64,9.94-5.29,14.51-7.32c10.68-4.74,23.19-10.1,25.12-10.76
			c3.73-1.28,7.59-2.86,12.22-5.02c2.42-1.13,5.69-2.43,7.26-2.89c1.57-0.46,3.53-1.31,4.36-1.9c0.83-0.58,2.15-1.06,2.94-1.06
			c0.79,0,1.87-0.33,2.4-0.73c0.88-0.67,9.89-4.05,14.65-5.49c1.07-0.33,4.97-1.7,8.65-3.04c3.68-1.34,7.78-2.76,9.11-3.14
			c1.33-0.38,3.96-1.39,5.86-2.24c5.62-2.51,17.41-7.22,30.15-12.04c2.71-1.02,7.17-2.9,9.92-4.18c2.74-1.27,7.44-3.05,10.42-3.96
			c2.99-0.91,6.82-2.1,8.5-2.66c1.69-0.55,4.58-1.42,6.42-1.92c1.84-0.5,4.6-1.38,6.14-1.95c1.54-0.57,4.8-1.42,7.26-1.89
			c2.46-0.47,5.97-1.18,7.81-1.59c1.84-0.41,4.48-0.91,5.86-1.13c1.38-0.22,3.27-0.7,4.19-1.08c0.92-0.38,5.94-1.78,11.16-3.12
			c5.22-1.34,11.12-2.91,13.12-3.5c1.99-0.58,5.26-1.46,7.26-1.94c2-0.49,5.39-1.36,7.54-1.95c6.76-1.85,8.65-1.74,8.65,0.46
			c0,1.21-0.25,1.49-1.05,1.14c-0.72-0.32-1.13-0.02-1.32,0.96c-0.22,1.14-0.68,1.36-2.34,1.09c-1.21-0.19-2.82,0.16-3.85,0.85
			c-0.97,0.65-3.91,1.59-6.52,2.09c-6.4,1.22-12.55,2.92-15.76,4.37c-1.46,0.66-3,1.01-3.44,0.78c-0.43-0.23-0.95-0.2-1.14,0.06
			c-0.19,0.26-1.5,0.58-2.9,0.69c-1.4,0.11-2.89,0.6-3.31,1.07c-0.41,0.48-1.46,0.79-2.32,0.69c-0.86-0.1-2.19,0.06-2.96,0.35
			c-0.77,0.29-3.15,0.85-5.3,1.23c-5.51,0.98-13.6,2.94-15.91,3.85c-1.07,0.42-3.45,0.96-5.27,1.2c-3.73,0.48-6.87,1.43-11.7,3.55
			c-1.82,0.8-4.12,1.45-5.13,1.45c-1.01,0-1.98,0.35-2.17,0.77c-0.19,0.42-0.78,0.77-1.31,0.77c-0.53,0-1.95,0.69-3.16,1.54
			c-1.2,0.85-3.25,1.54-4.55,1.54c-1.3,0-2.5,0.31-2.67,0.68c-0.17,0.38-1.5,0.93-2.95,1.23c-1.46,0.3-3.31,1.02-4.11,1.59
			c-1.46,1.04-6.9,3.23-14.19,5.69c-2.15,0.73-4.59,1.94-5.42,2.69c-0.83,0.75-1.76,1.16-2.06,0.9c-0.3-0.26-1.38,0.03-2.4,0.62
			c-1.02,0.6-3.23,1.52-4.92,2.04c-1.69,0.52-3.32,1.21-3.63,1.53c-0.56,0.57-2.75,1.21-6.34,1.84c-1.03,0.18-2.15,0.71-2.48,1.17
			c-0.33,0.46-1.13,0.84-1.77,0.84c-0.64,0-1.75,0.57-2.47,1.27c-0.72,0.7-2.85,1.52-4.73,1.82c-1.88,0.3-5.56,1.31-8.17,2.25
			c-2.61,0.93-5.62,2-6.7,2.38c-1.07,0.38-3.21,1.26-4.74,1.96c-1.54,0.7-4.97,2.08-7.63,3.07c-2.66,0.99-5.34,2.17-5.96,2.63
			c-0.62,0.46-1.76,0.83-2.54,0.83c-0.78,0-1.86,0.66-2.41,1.46c-0.55,0.8-2,1.63-3.23,1.85c-2.19,0.39-3.28,0.77-8.93,3.13
			c-9.5,3.97-14.23,6.15-16.22,7.49c-1.25,0.83-2.89,1.52-3.66,1.52c-0.76,0-1.67,0.39-2.01,0.86c-0.34,0.47-1.71,1.14-3.04,1.49
			c-3.58,0.93-5.49,2.1-5.49,3.38c0,0.62,0.21,1.32,0.48,1.54c0.53,0.45,3.46-0.71,5.85-2.33c0.87-0.59,2.12-1.09,2.79-1.1
			c0.67-0.02,1.84-0.52,2.61-1.13c0.77-0.61,2.05-1.12,2.86-1.13c0.8-0.02,2.1-0.72,2.88-1.57c0.78-0.85,1.78-1.36,2.22-1.12
			c0.44,0.23,2.03-0.24,3.54-1.06c1.51-0.82,3.87-1.74,5.25-2.06c1.38-0.31,3.44-1.22,4.58-2.02c1.14-0.8,2.6-1.45,3.24-1.45
			s2.33-0.89,3.74-1.99c1.47-1.14,3.05-1.81,3.69-1.58c0.62,0.22,1.77-0.07,2.56-0.65c0.79-0.58,4.7-2.17,8.69-3.53
			c3.99-1.36,7.5-2.78,7.79-3.15c0.29-0.37,1.04-0.68,1.67-0.68c0.63,0,1.9-0.58,2.82-1.28c0.92-0.7,3.06-1.53,4.74-1.84
			c5.55-1.02,7.51-1.73,9.49-3.45c1.33-1.16,3.34-1.88,6.28-2.26c2.37-0.31,4.44-0.84,4.59-1.18c0.15-0.34,1.19-0.85,2.3-1.14
			c1.12-0.29,2.44-0.81,2.94-1.15c1.48-1.02,4.82-2.36,5.88-2.36c0.54,0,1.66-0.48,2.47-1.07c0.82-0.59,3.99-1.83,7.06-2.75
			c3.07-0.92,6.34-2.13,7.26-2.69c0.92-0.56,2.81-1.44,4.19-1.96c1.38-0.52,3.18-1.43,3.99-2.02c0.81-0.59,2.49-1.08,3.73-1.08
			c1.59,0,2.74-0.57,3.93-1.96c1.21-1.4,2.3-1.94,3.81-1.88c2.11,0.08,6.82-1.37,9.83-3.01c0.86-0.47,2.33-0.86,3.25-0.86
			c0.92,0,2.15-0.35,2.72-0.77c1.22-0.9,8.13-3.19,9.77-3.23c0.61-0.02,1.95-0.37,2.96-0.79c2.9-1.19,11.43-3.75,12.67-3.8
			c0.61-0.03,3-0.4,5.3-0.83c2.3-0.43,4.91-0.73,5.79-0.68c0.88,0.06,1.89-0.22,2.23-0.61c0.35-0.39,2.31-1.07,4.36-1.5
			c2.25-0.48,4.4-1.48,5.43-2.53c1.32-1.35,1.96-1.57,2.91-0.98c1.2,0.74,9.22-0.52,13.05-2.06c0.92-0.37,3.31-0.87,5.3-1.11
			l3.63-0.44l-3.35,1.9c-1.84,1.05-4.35,1.93-5.58,1.97c-1.23,0.03-3.86,0.6-5.86,1.24c-4.36,1.41-15.01,4.24-16.19,4.3
			c-0.46,0.02-2.69,0.54-4.95,1.16c-2.26,0.62-4.47,0.93-4.92,0.69c-0.45-0.24-1.53,0.09-2.42,0.72c-0.97,0.69-3.14,1.15-5.43,1.15
			c-2.1,0-4.08,0.35-4.38,0.77c-0.31,0.43-1.8,0.94-3.32,1.14c-4.31,0.56-8.23,1.6-9.46,2.49c-1.34,0.98-4.74,2.25-10.05,3.75
			c-2.15,0.61-4.41,1.42-5.02,1.79c-0.61,0.38-2.2,1.13-3.52,1.68c-1.32,0.55-2.53,1.28-2.68,1.63c-0.54,1.2,4.09,0.66,4.82-0.56
			c0.39-0.65,1.37-1.09,2.16-0.97c1.54,0.23,7.16-1.39,15.4-4.44c2.76-1.02,6.66-2.22,8.65-2.65c5.74-1.25,10.48-2.66,10.9-3.24
			c0.21-0.29,0.97-0.22,1.68,0.15c0.77,0.41,2.05,0.39,3.15-0.05c1.02-0.4,2.78-0.73,3.91-0.73c1.14,0,2.2-0.3,2.37-0.68
			c0.17-0.37,2.38-1.08,4.92-1.58c6.49-1.27,6.48-1.27,10.2-2.77c3.09-1.24,5.13-1.72,14.51-3.39c1.84-0.33,4.06-1,4.92-1.5
			c0.86-0.49,2.7-0.9,4.08-0.9c1.38,0,3.02-0.37,3.63-0.83c1.36-1.01,7.35-1.61,9.83-0.99c1.29,0.32,1.81,0.87,1.81,1.91
			c0,0.93-0.39,1.46-1.08,1.46c-1.5,0-2.07,1.59-0.96,2.7c0.5,0.51,0.75,1.15,0.55,1.43c-0.2,0.28-0.07,0.5,0.29,0.5
			c0.36,0,0.65,0.67,0.65,1.5c0,0.82,0.24,1.71,0.54,1.96c0.59,0.5-1.56,3.84-2.48,3.86c-1.13,0.03-4.2,2.15-4.2,2.9
			c0,0.46,1.33,0.64,3.35,0.44c1.84-0.19,3.35-0.05,3.35,0.29c0,0.34-0.77,0.63-1.71,0.63c-0.94,0-2.26,0.4-2.93,0.9
			c-1.17,0.87-3.13,1.48-4.85,1.52c-0.46,0.01-1.34,0.3-1.95,0.64c-0.61,0.34-3.12,1.03-5.58,1.54c-2.46,0.5-5.72,1.21-7.26,1.56
			c-1.53,0.35-4.55,1.04-6.7,1.53c-2.15,0.49-4.41,1.19-5.02,1.57c-0.61,0.38-2.87,0.91-5.02,1.2c-2.15,0.28-4.76,1-5.79,1.59
			c-1.04,0.59-3.17,1.1-4.74,1.13c-2.84,0.05-3.76,0.23-12.35,2.51c-4.91,1.3-6.78,1.76-11.61,2.87c-1.78,0.41-3.78,1.14-4.44,1.63
			c-0.66,0.49-2.09,0.97-3.18,1.08c-2.79,0.26-6.99,1.66-8.81,2.93c-0.85,0.59-3.05,1.29-4.89,1.55c-1.84,0.26-5.31,1.52-7.71,2.81
			c-2.4,1.29-4.98,2.34-5.75,2.34c-0.76,0-2.43,0.7-3.7,1.54c-1.27,0.85-2.83,1.55-3.46,1.55c-0.63,0-1.87,0.52-2.75,1.16
			c-0.88,0.63-1.99,1.15-2.48,1.15c-0.48,0-1.43,0.72-2.12,1.61c-0.95,1.23-1.48,1.43-2.27,0.85c-0.73-0.54-1.69-0.42-3.26,0.38
			c-1.23,0.63-3.17,1.42-4.31,1.75c-1.15,0.33-2.4,0.95-2.79,1.38c-0.39,0.43-1.97,1-3.51,1.27c-1.54,0.27-4.18,1.19-5.86,2.05
			c-1.68,0.86-4.44,1.87-6.12,2.24c-4.55,1.01-6.21,1.57-8.08,2.74c-0.93,0.58-2.57,1.29-3.64,1.59c-1.07,0.29-2.21,0.78-2.51,1.09
			c-0.31,0.31-2.44,1.02-4.74,1.58c-2.3,0.56-4.87,1.49-5.69,2.05c-0.83,0.57-2,1.04-2.6,1.04c-0.6,0-2.93,0.89-5.19,1.99
			c-2.25,1.1-6.23,2.82-8.84,3.84c-6.85,2.67-10.58,4.61-11.61,6.04c-0.84,1.16-0.82,1.25,0.26,1.25c0.64,0,2.09-0.53,3.21-1.18
			c1.13-0.65,2.28-0.99,2.56-0.75c0.28,0.24,1.35-0.05,2.38-0.65c1.03-0.59,3.61-1.68,5.75-2.42c2.13-0.74,4.2-1.71,4.6-2.16
			c0.4-0.45,1.5-0.94,2.45-1.08c0.95-0.14,2.82-0.78,4.17-1.41c1.35-0.63,2.82-1.15,3.26-1.15c0.44,0,2.38-0.68,4.31-1.5
			c1.93-0.83,8.75-3.29,15.17-5.47c6.42-2.18,12.07-4.27,12.56-4.63c1.4-1.04,9.72-4.6,10.75-4.6c0.51,0,2.14-0.73,3.63-1.62
			c1.48-0.89,4.07-2.12,5.74-2.73c1.67-0.61,3.35-1.47,3.74-1.92c0.39-0.44,1.16-0.61,1.71-0.37c0.55,0.24,1.72-0.08,2.6-0.71
			c0.88-0.63,2.13-1.15,2.77-1.15c0.65,0,2.19-0.49,3.43-1.08c1.24-0.59,3.38-1.5,4.76-2.02c1.38-0.52,3.79-1.61,5.35-2.43
			c1.56-0.82,4.07-1.63,5.58-1.81c1.51-0.18,3.98-0.86,5.49-1.51c1.51-0.65,3.4-1.18,4.2-1.18c0.8,0,1.99-0.51,2.63-1.13
			c0.64-0.63,1.89-1.11,2.78-1.08c0.88,0.03,2.7-0.34,4.03-0.82c2.73-0.98,6.46-1.84,15.43-3.54c5.83-1.1,10.15-2.29,12-3.31
			c0.46-0.25,1.59-0.53,2.51-0.61c0.92-0.08,4.94-1.08,8.93-2.21c3.99-1.13,8.76-2.23,10.6-2.43c1.84-0.21,3.98-0.7,4.75-1.09
			c1.85-0.96,13.01-3.95,15.56-4.18c1.11-0.1,2.4-0.39,2.86-0.66c1.8-1.04,5.22-2.03,5.67-1.65c0.88,0.75,0.48,1.89-0.92,2.63
			c-1.57,0.83-1.82,2.14-0.54,2.82c0.54,0.28,0.73,0.99,0.52,1.9c-0.61,2.64,0.24,4.6,1.88,4.37c1.32-0.19,1.47,0.03,1.33,1.91
			l-0.16,2.12l5.18,0.01c5.66,0.01,7.21,0.63,5.77,2.28c-1.1,1.26-1.11,2.82-0.02,3.4c0.62,0.33,0.8,1.48,0.71,4.46
			c-0.07,2.35,0.12,4.13,0.48,4.3c1.79,0.82,2.4,2.4,2.65,6.78c0.41,7.24,1.44,12.66,2.55,13.49c1.57,1.16,1.76,3.63,0.38,4.92
			c-0.96,0.91-1.06,1.32-0.5,2.12c0.39,0.55,0.7,2.13,0.7,3.51c0,1.51,0.36,2.79,0.9,3.21c0.74,0.57,0.78,1,0.24,2.41
			c-0.53,1.37-0.49,2.06,0.18,3.49c0.46,0.98,0.7,2.52,0.53,3.42c-0.23,1.22,0.02,1.8,0.99,2.3l1.3,0.66l-1.27,0.94
			c-1.72,1.27-1.24,2.68,1.06,3.15l1.9,0.39l-1.59,2.04c-0.88,1.12-1.45,2.37-1.27,2.77c0.61,1.37,6.39,2.76,9.4,2.27
			c3.19-0.52,6.04,0.64,6.04,2.47c0,0.74,0.46,0.94,1.53,0.65c2.09-0.55,5.16,1.31,5.16,3.13c0,1.53-1.92,4.82-2.81,4.82
			c-0.29,0-0.54,0.67-0.54,1.5c0,2.03-1.14,2.87-1.77,1.31c-0.67-1.66-1.8-1.64-1.33,0.02c0.2,0.71,0.03,1.58-0.36,1.93
			c-0.71,0.63-0.24,1.41,1.52,2.51c0.31,0.19,0.12,0.85-0.42,1.45c-1.72,1.93-1.57,2.01,3.98,2.11c2.23,0.04,2.35,0.14,1.4,1.14
			c-0.58,0.6-1.49,1.11-2.02,1.12c-1.05,0.03-1.3,1.56-0.46,2.76c0.28,0.4,0.69,2.04,0.9,3.63c0.36,2.73,0.31,2.9-1.05,2.9
			c-0.83,0-1.67,0.61-2,1.44c-0.68,1.76-0.28,2.42,1.49,2.42c1.09,0,1.27,0.29,0.99,1.54c-0.27,1.19-0.1,1.54,0.77,1.54
			c1.17,0,2.1,1.31,1.51,2.12c-0.19,0.26-0.64,0.06-1-0.44c-0.36-0.5-0.99-0.91-1.39-0.91c-1.09,0-0.87,3.07,0.25,3.55
			c0.54,0.23,1.39,0.72,1.89,1.09c0.5,0.37,1.51,0.47,2.23,0.22c1.08-0.36,1.2-0.26,0.62,0.59c-0.38,0.57-0.7,1.63-0.7,2.36
			s0.31,1.51,0.7,1.74c0.38,0.23,0.03,0.23-0.79,0c-1.12-0.32-1.64-0.04-2.09,1.14c-0.76,1.96,0.06,2.82,1.6,1.68
			c0.89-0.66,1.22-0.53,1.69,0.69c0.97,2.5,0.72,4.69-0.54,4.69c-1.33,0-1.46,1.73-0.26,3.39c0.59,0.81,1.4,1.04,2.59,0.71
			c1.33-0.37,1.67-0.23,1.46,0.6c-0.15,0.6-0.97,1.08-1.84,1.08c-0.87,0-1.68,0.43-1.81,0.96c-0.13,0.53-0.7,0.96-1.27,0.96
			c-1.35,0-1.62,0.7-1.26,3.29c0.16,1.18,0.66,2.12,1.12,2.12c0.5,0,0.71-0.45,0.52-1.12c-0.78-2.83,3.77,1.5,5.34,5.08
			c0.76,1.74,1.29,2.21,1.99,1.79c0.53-0.31,1.46-0.56,2.07-0.56c0.61,0.01,5.51-0.63,10.88-1.43c10.66-1.57,15.67-1.8,17.17-0.8
			c3.88,2.59,4.31,3.02,4.15,4.23c-0.11,0.86,0.21,1.3,0.94,1.3c1.68,0,1.87,1.19,0.65,3.96c-0.83,1.89-0.95,2.77-0.49,3.55
			c0.47,0.78,0.37,1.28-0.39,2.04c-0.73,0.74-0.82,1.17-0.33,1.59c0.52,0.44,0.51,0.84-0.03,1.74c-0.58,0.96-0.47,1.39,0.58,2.49
			c1.14,1.19,1.18,1.43,0.39,2.34c-1.1,1.27-1.13,3.17-0.06,5.11c0.95,1.74,1.11,4.66,0.29,5.36c-0.91,0.78-0.41,5.07,0.69,5.88
			c1.33,0.98,1.26,2.78-0.12,3.38c-1.29,0.56-1.52,2.7-0.3,2.7c1.19,0,2.3,3.1,1.39,3.88c-0.52,0.44-0.31,1.1,0.78,2.5
			c1.67,2.14,1.84,2.88,0.69,2.88c-0.44,0-0.96,1.11-1.18,2.51c-0.21,1.38-0.62,2.91-0.91,3.4c-0.33,0.56-0.3,1.08,0.07,1.4
			c0.32,0.28,0.58-0.07,0.58-0.77c0-1.94,1.33-0.9,1.95,1.54c0.47,1.85,0.37,2.33-0.7,3.31c-1.6,1.47-1.58,3.08,0.07,5.55
			c1.69,2.52,2.4,6.22,1.2,6.22c-0.6,0-0.85,0.8-0.85,2.7c0,1.49,0.25,2.7,0.56,2.7c0.31,0,0.56,0.5,0.56,1.12
			c0,0.62,0.44,1.46,0.98,1.88c0.92,0.72,0.92,0.83-0.07,1.84c-0.84,0.86-0.93,1.38-0.44,2.63c0.44,1.14,0.43,1.8-0.06,2.47
			c-0.51,0.7-0.5,1.26,0.02,2.4c0.37,0.82,0.53,2.03,0.34,2.69c-0.18,0.66-0.07,1.63,0.24,2.16c0.32,0.53,0.76,3.14,0.97,5.81
			c0.28,3.47,0.68,5.05,1.39,5.58c0.85,0.63,0.91,1.07,0.36,3.08c-0.49,1.79-0.48,2.69,0.05,3.86c0.89,1.96,0.86,2.31-0.15,2.31
			c-0.55,0-0.84,0.77-0.84,2.26c0,2.07-0.25,2.36-3.02,3.47c-1.66,0.67-3.4,1.21-3.86,1.21c-0.47,0-1.56,0.81-2.43,1.81
			c-1.44,1.65-2.3,1.86-9.58,2.33c-7.59,0.49-13.53,2.17-15.47,4.39c-0.32,0.37-2,1.18-3.73,1.8c-5.22,1.88-6.33,3.13-4.58,5.14
			c0.79,0.91,0.79,1.06,0,1.68c-0.48,0.37-0.87,1.16-0.87,1.75c0,1.75,1.14,2.2,1.91,0.74c0.59-1.12,0.8-1.17,1.21-0.27
			c0.78,1.71,0.75,5.33-0.04,5.33c-0.39,0-1.03,0.54-1.42,1.2c-0.61,1.01-0.54,1.26,0.43,1.61c0.8,0.29,1.06,0.86,0.86,1.89
			c-0.15,0.81-0.53,1.48-0.83,1.48c-0.3,0,0.04,0.86,0.76,1.92c0.72,1.05,1.63,1.92,2.01,1.93c0.38,0.01,0.7,0.4,0.7,0.87
			c0,0.53-0.53,0.67-1.4,0.37c-1.6-0.56-1.86,0.69-0.62,3.03c0.9,1.7,0.58,3.32-1.03,5.15c-1.13,1.3-1.12,1.34,1.51,4.85
			c1.46,1.95,2.65,4.22,2.65,5.06c0,0.83,0.25,1.52,0.56,1.52c0.31,0,0.56,0.69,0.56,1.54c0,1.6-1.35,2.13-1.95,0.77
			c-0.8-1.78-1.26-0.59-0.53,1.35c0.44,1.17,0.8,2.54,0.8,3.04c0,1.66-1.17,1.97-1.94,0.51c-0.92-1.74-1.64-0.98-1.14,1.21
			c0.2,0.88,0.83,1.6,1.4,1.6c0.57,0,1.44,0.22,1.94,0.48c0.82,0.44,0.81,0.58-0.1,1.43c-0.55,0.52-1.69,1.18-2.54,1.46
			c-0.84,0.28-1.53,1.03-1.53,1.66c0,1.39,1.19,1.49,2.16,0.18c0.57-0.77,0.84-0.72,1.37,0.24c0.36,0.66,1.13,1.45,1.71,1.75
			c0.9,0.47,1,1.07,0.68,4.33c-0.23,2.4-0.14,3.98,0.24,4.3c0.73,0.63-0.35,2.69-1.41,2.69c-0.9,0-2.23,2.19-1.74,2.87
			c0.21,0.28,1.41,0.43,2.68,0.33c2.02-0.16,2.22-0.04,1.6,1c-0.39,0.65-0.56,1.73-0.38,2.38c0.22,0.8-0.13,1.43-1.05,1.92
			c-0.76,0.4-1.38,1.05-1.38,1.44c0,0.97,1.5,1.69,2.47,1.18c1.07-0.57,3.11,1.02,3.11,2.43c0,0.62-0.25,1.13-0.56,1.13
			c-0.31,0-0.56-0.55-0.56-1.21c0-0.72-0.38-1.11-0.94-0.96c-1.35,0.36-2.53,7.16-1.85,10.63c0.4,2,0.34,2.96-0.24,3.86
			c-0.42,0.66-0.86,2.05-0.96,3.09c-0.17,1.66-0.62,1.99-3.82,2.8c-2,0.5-7.48,1.55-12.18,2.32c-7.15,1.18-8.63,1.23-9.02,0.36
			c-0.38-0.85-2.23-0.94-9.82-0.5c-5.14,0.3-9.75,0.84-10.24,1.2c-0.49,0.36-3.37,0.87-6.4,1.13s-5.7,0.64-5.93,0.83
			c-0.95,0.81-12.23,2.73-20.45,3.48c-4.87,0.44-10.61,1.13-12.76,1.53c-2.15,0.4-5.59,0.74-7.65,0.75
			c-2.06,0.01-4.32,0.34-5.02,0.72c-0.7,0.38-4.04,1.26-7.42,1.95c-5.78,1.18-8,1.53-15.27,2.4c-1.64,0.2-3.2,0.54-3.45,0.76
			c-1.32,1.13-14.66,4.58-26.77,6.94c-3.22,0.63-7.37,1.65-9.21,2.28c-3.64,1.24-18.04,4.42-26.51,5.85
			c-2.92,0.49-10.45,2.24-16.75,3.88c-6.29,1.64-15.21,3.52-19.82,4.16c-4.6,0.65-11.01,1.55-14.23,2
			c-3.22,0.45-10.88,2.16-17.02,3.79c-6.14,1.63-13.42,3.37-16.19,3.86c-2.76,0.48-9.54,2.21-15.07,3.83
			c-11.32,3.33-12,3.42-12,1.57L321.17,630.25z M344.06,619.47c0-0.42-0.36-0.77-0.8-0.77c-0.44,0-0.96,0.35-1.15,0.77
			c-0.19,0.42,0.17,0.77,0.8,0.77C343.54,620.25,344.06,619.9,344.06,619.47z M348.84,619.14c1.03-1.05,1.04-1.13,0.07-1.64
			c-1.14-0.61-3.73,0.75-3.73,1.96C345.17,620.62,347.59,620.41,348.84,619.14L348.84,619.14z M355.08,618.99
			c0.69-0.25,1.26-0.97,1.26-1.58c0-1.73-4.12-1.05-4.36,0.72C351.78,619.56,352.79,619.84,355.08,618.99z M359.97,616.39
			c0.19-0.42-0.03-0.77-0.49-0.77c-0.46,0-0.99,0.35-1.18,0.77c-0.19,0.42,0.03,0.77,0.49,0.77
			C359.24,617.16,359.78,616.81,359.97,616.39z M367.76,614.36c1.04-1,1-1.06-0.66-1.06c-2.34,0-4.79,1.33-4.33,2.36
			C363.22,616.65,366.19,615.87,367.76,614.36z M372.45,613.38c0.55-0.49,0.58-0.81,0.11-1.22c-0.8-0.68-2.27,0.03-2.27,1.11
			C370.29,614.24,371.41,614.29,372.45,613.38L372.45,613.38z M378.63,612.22c1.5-0.75,1.71-1.07,0.97-1.46
			c-1.4-0.74-4.29,0.25-4.29,1.48C375.32,613.51,376.07,613.5,378.63,612.22L378.63,612.22z M395.09,610.17
			c1.08-1.47-0.34-1.62-6.48-0.69c-8.81,1.34-9.35,2.3-1.02,1.81C391.43,611.07,394.81,610.56,395.09,610.17z M361,608.28
			c1.1-0.64,2.95-1.16,4.11-1.16c1.16,0,2.83-0.52,3.71-1.16c0.88-0.64,2.51-1.16,3.63-1.17c1.12-0.01,4.67-0.53,7.89-1.17
			c3.22-0.64,8.5-1.53,11.72-1.99c11.73-1.67,19.58-3.25,20.63-4.14c2.07-1.77-0.94-2.57-4.44-1.18c-1.07,0.42-3.96,1.13-6.42,1.57
			c-2.46,0.44-6.4,1.14-8.75,1.56c-2.35,0.42-6.75,0.89-9.77,1.05c-3.02,0.16-7.5,0.85-9.95,1.52c-2.46,0.68-5.85,1.61-7.54,2.07
			c-7.67,2.09-9.83,3.19-9.17,4.66C357.11,609.77,358.73,609.59,361,608.28L361,608.28z M409.03,607.7c1.93-1.37-0.39-2.32-3.15-1.3
			c-2.92,1.08-3.32,1.41-2.91,2.33C403.33,609.54,407.42,608.85,409.03,607.7z M415.78,605.58c0.19-0.42-0.05-0.77-0.52-0.77
			c-0.48,0-0.87,0.35-0.87,0.77c0,0.42,0.24,0.77,0.52,0.77C415.2,606.35,415.59,606,415.78,605.58L415.78,605.58z M421.15,604.32
			c2.27-0.5,3.57-1.83,1.79-1.82c-1.69,0.01-5.13,1.54-5.55,2.47c-0.26,0.58-0.07,0.7,0.59,0.36
			C418.51,605.04,419.94,604.59,421.15,604.32L421.15,604.32z M340.43,604.04c0.19-0.42-0.05-0.77-0.53-0.77
			c-0.48,0-0.87,0.35-0.87,0.77c0,0.42,0.24,0.77,0.53,0.77C339.85,604.81,340.24,604.46,340.43,604.04z M214.54,601.37
			c0.56-0.93,0.42-1.22-0.78-1.63c-1.41-0.49-3.11,0.64-3.11,2.08C210.65,602.94,213.82,602.57,214.54,601.37L214.54,601.37z
			 M437.13,602c1.67-0.62,1.61-1.83-0.09-1.83c-1.83,0-3.18,0.78-2.8,1.62C434.6,602.6,435.37,602.66,437.13,602L437.13,602z
			 M358.85,600.18c0.19-0.42-0.03-0.77-0.49-0.77c-0.46,0-0.99,0.35-1.18,0.77c-0.19,0.42,0.03,0.77,0.49,0.77
			C358.13,600.95,358.66,600.6,358.85,600.18z M449.97,599.41c0.38-0.01,0.7-0.4,0.7-0.88c0-1.08-4.48-0.22-5.3,1.01
			c-0.4,0.59,0.09,0.69,1.67,0.36C448.27,599.64,449.59,599.42,449.97,599.41L449.97,599.41z M220.14,598.63
			c0-0.42-0.36-0.77-0.8-0.77c-0.44,0-0.96,0.35-1.15,0.77c-0.19,0.42,0.17,0.77,0.8,0.77C219.63,599.4,220.14,599.06,220.14,598.63
			z M364.15,598.63c0-0.42-0.36-0.77-0.8-0.77c-0.44,0-0.96,0.35-1.15,0.77c-0.19,0.42,0.17,0.77,0.8,0.77
			C363.63,599.4,364.15,599.06,364.15,598.63z M418.16,595.35c-0.13-0.53-0.69-0.97-1.26-0.97c-0.56,0-1.13,0.44-1.26,0.97
			c-0.15,0.61,0.31,0.96,1.26,0.96C417.84,596.32,418.3,595.96,418.16,595.35z M466.02,595.54c-0.19-0.42-0.58-0.77-0.87-0.77
			c-0.29,0-0.53,0.35-0.53,0.77s0.39,0.77,0.87,0.77C465.97,596.32,466.21,595.97,466.02,595.54z M471.74,595.83
			c1.92-0.71,1.49-1.83-0.7-1.83c-1.85,0-2.42,0.65-1.58,1.8C469.91,596.42,470.13,596.43,471.74,595.83L471.74,595.83z
			 M385.64,594.77c0.19-0.42-0.05-0.77-0.53-0.77c-0.48,0-0.87,0.35-0.87,0.77c0,0.42,0.24,0.77,0.53,0.77
			C385.06,595.54,385.45,595.2,385.64,594.77L385.64,594.77z M392.34,594c-0.19-0.42-0.71-0.77-1.15-0.77c-0.44,0-0.8,0.35-0.8,0.77
			s0.52,0.77,1.15,0.77C392.17,594.77,392.53,594.42,392.34,594z M422.93,594.01c0.58-0.01,0.85-0.36,0.64-0.84
			c-0.42-0.94-3.02-0.28-3.88,0.99c-0.39,0.58-0.14,0.68,0.84,0.34C421.29,594.24,422.38,594.02,422.93,594.01z M232.54,591.87
			c-1.05-0.48-2.48,0.45-2.07,1.36c0.23,0.51,0.76,0.47,1.57-0.12C232.83,592.52,233.01,592.08,232.54,591.87L232.54,591.87z
			 M346.4,592.12c0.87-0.5,1.41-1.16,1.2-1.45c-0.67-0.93-4.91-0.51-5.96,0.59c-0.98,1.03-0.98,1.09,0,1.88
			C342.68,593.95,343.57,593.77,346.4,592.12z M374.92,592.67c3.89-0.53,3.11-2.18-0.94-1.97c-3.58,0.19-4.26,0.55-4.26,2.28
			c0,0.9,0.31,1.06,1.26,0.63C371.68,593.29,373.45,592.87,374.92,592.67z M429.1,592.84c0.24-0.87-0.09-1.16-1.3-1.16
			c-1.62,0-2.53,0.89-1.86,1.82C426.62,594.45,428.78,594,429.1,592.84z M438.67,592.04c7.37-1.26,10.99-3.73,4.43-3.02
			c-2.13,0.23-4.75,0.75-5.83,1.15c-1.07,0.4-2.88,0.74-4.01,0.74c-2.03,0-3.02,0.82-2.27,1.86c0.21,0.29,1.65,0.31,3.19,0.05
			C435.73,592.55,437.75,592.2,438.67,592.04L438.67,592.04z M356.6,590.5c2.44-0.64,4.67-1.47,4.95-1.86
			c0.28-0.38,0.82-0.53,1.21-0.32c0.39,0.21,1.68-0.35,2.86-1.24l2.16-1.61l-2.51,0.43c-7.63,1.32-15.81,3.42-16.39,4.21
			c-0.88,1.21,0.28,2.5,1.8,2.01C351.49,591.87,354.15,591.14,356.6,590.5L356.6,590.5z M409.74,590.7
			c0.23-0.52-0.12-0.63-0.98-0.31c-0.74,0.27-1.66,0.5-2.04,0.51c-0.38,0.01-0.7,0.3-0.7,0.65
			C406.01,592.44,409.3,591.69,409.74,590.7z M384.68,590.26c0.16-0.66-0.11-0.94-0.75-0.77c-0.55,0.15-1.11,0.74-1.24,1.31
			c-0.16,0.66,0.11,0.94,0.75,0.77C383.98,591.42,384.55,590.83,384.68,590.26L384.68,590.26z M486.39,590.91
			c0-0.42-0.24-0.77-0.53-0.77c-0.29,0-0.68,0.35-0.87,0.77c-0.19,0.42,0.05,0.77,0.53,0.77C486,591.69,486.39,591.34,486.39,590.91
			z M455.13,588.63c1.69-0.44,4.95-1.16,7.26-1.6c9.78-1.85,12.05-2.3,12.84-2.56c0.46-0.15,1.84-0.52,3.07-0.83
			c1.23-0.31,2.78-0.93,3.45-1.38c0.67-0.45,1.62-0.6,2.12-0.34c0.56,0.3,1.42-0.23,2.23-1.36c0.9-1.25,1.41-1.53,1.59-0.88
			c0.29,1.03,6.03,0.33,8.74-1.08c1.39-0.72,8.11-1.65,11.62-1.6c1.01,0.01,2.3-0.31,2.84-0.72c0.55-0.41,2.29-0.88,3.86-1.05
			c1.57-0.17,3.18-0.67,3.57-1.11c0.39-0.44,2.41-0.77,4.49-0.74c2.22,0.03,4.05-0.32,4.44-0.86c0.36-0.5,1.11-0.92,1.67-0.92
			c0.55,0,1.01-0.33,1.01-0.73c0-0.82,3.1-0.6,4.65,0.33c0.56,0.34,3.07,0.38,5.58,0.1c2.51-0.28,6.56-0.69,9-0.91
			c2.44-0.22,5.46-0.73,6.7-1.12c1.24-0.4,3.19-0.73,4.32-0.74c1.13-0.01,2.23-0.4,2.44-0.86c0.22-0.5,1.12-0.65,2.22-0.36
			c1.1,0.29,2,0.14,2.22-0.36c0.22-0.49,1.04-0.64,1.95-0.36c0.86,0.26,3.04,0.11,4.83-0.33c1.79-0.44,4.77-0.84,6.61-0.89
			c1.84-0.05,4.81-0.78,6.59-1.62c1.78-0.85,4.25-1.64,5.49-1.77c2.55-0.26,3.57-1.28,3.07-3.08c-0.3-1.07-1.31-1.18-7.75-0.82
			c-4.07,0.22-9.42,0.74-11.87,1.15c-2.46,0.41-7.48,1.15-11.16,1.64c-3.68,0.49-7.42,1.4-8.3,2.02c-0.88,0.62-2.12,0.94-2.75,0.71
			c-0.63-0.23-1.87,0.17-2.75,0.89c-1.34,1.1-1.68,1.13-2.08,0.23c-0.38-0.85-1.48-0.96-5.42-0.51c-2.72,0.31-5.57,0.55-6.34,0.54
			c-0.77-0.01-2.28,0.38-3.35,0.88c-1.07,0.49-2.96,0.95-4.19,1.02c-8.26,0.46-14.52,1.25-18.14,2.29c-2.3,0.66-6.55,1.36-9.44,1.55
			c-3.06,0.2-5.95,0.83-6.92,1.5c-0.92,0.64-2.32,1.16-3.11,1.16c-1.61,0-12.93,2.69-16.81,4c-2.57,0.86-6.25,1.8-10.47,2.66
			c-2.58,0.53-3.05,1.42-1.19,2.24c3.16,1.39-3.55,3.84-12.23,4.47c-2.31,0.17-3.74,1.59-3.08,3.07
			C448.56,590.28,449.17,590.2,455.13,588.63z M418.85,588.6c0.65-0.58,0.5-0.75-0.7-0.76c-0.85-0.01-1.54,0.33-1.54,0.76
			C416.62,589.57,417.76,589.57,418.85,588.6z M427.16,587.9c1.15-1.01,0.18-2.54-1.23-1.94c-1.56,0.66-1.67,0.83-1.23,1.81
			C425.13,588.77,426.11,588.82,427.16,587.9L427.16,587.9z M433.07,587.09c0.18-0.41,0.7-0.54,1.15-0.3
			c0.45,0.24,1.26,0.19,1.8-0.12c0.93-0.52,0.93-0.58,0-1.05c-0.53-0.28-2.11-0.38-3.51-0.22c-2.1,0.23-2.43,0.47-1.89,1.36
			C431.36,587.99,432.58,588.16,433.07,587.09L433.07,587.09z M212.89,585.46c0.56-0.45-0.13-0.68-2.05-0.7
			c-3.29-0.03-4.8,0.56-4.3,1.68C206.91,587.28,211.51,586.57,212.89,585.46L212.89,585.46z M355.5,584.44
			c0.61-0.47,1.37-0.89,1.67-0.93c0.52-0.07,0.97-0.28,3.07-1.42c0.46-0.25-0.1-0.3-1.25-0.11c-1.15,0.19-2.23,0.02-2.41-0.38
			c-0.59-1.31-2.28-0.75-3.61,1.21c-0.81,1.19-1.92,1.93-2.92,1.93c-0.9,0-1.46,0.33-1.27,0.75
			C349.2,586.4,353.91,585.66,355.5,584.44L355.5,584.44z M377.2,585c2.8-0.27,5.72-0.83,6.48-1.25l1.4-0.77l-1.4-0.57
			c-1.83-0.74-6.02-0.05-7.97,1.31c-0.85,0.6-1.78,0.88-2.07,0.64c-0.74-0.63-3.36,0.4-3.36,1.32c0,0.42,0.41,0.55,0.91,0.29
			C371.71,585.7,374.41,585.26,377.2,585z M413.55,585.51c0.2-0.44-0.27-0.77-1.08-0.77c-0.79,0-1.43,0.35-1.43,0.77
			c0,0.42,0.49,0.77,1.08,0.77C412.72,586.28,413.36,585.93,413.55,585.51L413.55,585.51z M447.07,584.67
			c0.75-1.68-0.65-2.28-2.44-1.05c-0.98,0.67-1.78,1.38-1.78,1.56C442.85,585.92,446.72,585.45,447.07,584.67L447.07,584.67z
			 M453.15,583.11c0.32-0.41-0.41-0.69-1.82-0.69c-1.76,0-2.34,0.3-2.34,1.22c0,0.97,0.37,1.11,1.81,0.69
			C451.81,584.04,452.86,583.49,453.15,583.11z M220.1,583.09c1.1-0.48,4.25-2.22,7.02-3.87c2.76-1.65,5.36-2.99,5.78-2.98
			c0.41,0.01,3.23-1.37,6.26-3.06c3.03-1.69,5.87-2.88,6.31-2.65c0.44,0.24,1.57-0.12,2.5-0.79c0.93-0.67,2.58-1.21,3.65-1.21
			c1.07,0,2.53-0.31,3.24-0.69c1.22-0.66,5.7-2.04,12.98-4c3.7-0.99,5.88-2.17,5.88-3.15c0-0.72-4.1-0.19-7.53,0.98
			c-5.21,1.77-9.62,3.06-11.44,3.34c-1.07,0.16-2.71,0.72-3.63,1.24c-0.92,0.52-2.55,1.22-3.63,1.55c-3.35,1.04-4.14,1.35-5.86,2.28
			c-0.92,0.5-2.39,1.04-3.27,1.2c-2.29,0.42-3.57,1.01-7.34,3.41c-1.84,1.18-4.48,2.74-5.86,3.49c-1.38,0.74-3.01,1.62-3.63,1.95
			c-0.61,0.33-1.94,1.03-2.94,1.55C214.9,583.6,216.19,584.81,220.1,583.09L220.1,583.09z M460.58,582.23
			c1.48-1.63,0.66-2.26-2.23-1.73c-3.08,0.57-4.53,1.6-3.99,2.81C454.74,584.18,459.57,583.34,460.58,582.23z M389.55,582.42
			c-0.19-0.42-0.83-0.77-1.43-0.77c-0.6,0-1.08,0.35-1.08,0.77c0,0.42,0.64,0.77,1.43,0.77
			C389.27,583.19,389.74,582.86,389.55,582.42z M396.46,582.12c1.64-1.26,0.75-2.24-1.45-1.6c-0.86,0.25-2.18,0.63-2.93,0.85
			c-1.08,0.31-1.2,0.54-0.56,1.1C392.68,583.47,394.91,583.31,396.46,582.12L396.46,582.12z M366.06,581.26
			c0.59-0.62,1.62-0.92,2.31-0.69c0.68,0.24,1.42,0.04,1.63-0.44c0.29-0.65,0.58-0.65,1.15,0c0.58,0.66,1.09,0.54,2.16-0.54
			c1.86-1.87,1.81-2.9-0.09-2.16c-0.85,0.32-2.92,0.68-4.6,0.79c-4.1,0.27-4.07,0.27-4.99,1.07c-0.66,0.58-0.68,0.91-0.07,1.92
			C364.44,582.68,364.69,582.68,366.06,581.26L366.06,581.26z M401.69,580.49c-0.21-1.15-2.52-0.94-2.81,0.25
			c-0.17,0.73,0.22,0.95,1.35,0.77C401.11,581.38,401.77,580.92,401.69,580.49L401.69,580.49z M548.63,580.11
			c-0.19-0.42-0.69-0.77-1.12-0.77c-0.42,0-0.93,0.35-1.12,0.77c-0.2,0.44,0.29,0.77,1.12,0.77
			C548.34,580.88,548.82,580.55,548.63,580.11z M322.29,578.86c0-0.16-0.5-0.3-1.12-0.3c-0.61,0-1.12,0.31-1.12,0.7
			c0,0.38,0.5,0.52,1.12,0.3C321.79,579.34,322.29,579.02,322.29,578.86z M383.83,577.48c1.15-0.35,2.09-0.96,2.09-1.35
			c0-0.84-3.93-0.03-4.71,0.98c-0.3,0.38-0.95,0.14-1.52-0.59c-0.82-1.02-1.16-1.07-1.85-0.28c-0.47,0.53-0.85,1.21-0.85,1.49
			C376.99,578.42,381.21,578.27,383.83,577.48z M412.43,577.79c1.42-0.85-0.05-0.85-1.95,0c-1.12,0.5-1.18,0.62-0.28,0.64
			C410.82,578.45,411.82,578.15,412.43,577.79L412.43,577.79z M327.87,577.02c0-0.42-0.5-0.77-1.12-0.77
			c-0.61,0-1.12,0.35-1.12,0.77c0,0.42,0.5,0.77,1.12,0.77C327.37,577.79,327.87,577.44,327.87,577.02z M337.59,575.01
			c0.49-0.26,0.88-0.8,0.88-1.21c0-1.07-2.38-0.43-2.66,0.72C335.57,575.56,336.21,575.74,337.59,575.01z M349.22,572.61
			c2.68-0.7,1.66-1.56-1.4-1.17c-3.33,0.42-3.47,0.51-2.92,1.73c0.23,0.52,0.89,0.67,1.59,0.36
			C347.15,573.25,348.38,572.83,349.22,572.61z M359.44,569.67c1.03-1.12,1.01-1.17-0.55-0.97c-0.9,0.12-1.73,0.65-1.86,1.18
			C356.71,571.21,358.13,571.09,359.44,569.67L359.44,569.67z M365.83,567.76c0-0.42-0.5-0.77-1.12-0.77
			c-0.61,0-1.11,0.35-1.11,0.77s0.5,0.77,1.11,0.77C365.32,568.53,365.83,568.18,365.83,567.76z M370.65,566.98
			c0.15,0,0.13-0.32-0.05-0.7c-0.17-0.38-0.81-0.52-1.42-0.3c-0.61,0.22-0.96,0.73-0.78,1.14c0.18,0.41,0.7,0.54,1.16,0.3
			C370.01,567.18,370.5,566.98,370.65,566.98L370.65,566.98z M376.04,565.36c-0.44-0.61-0.91-0.62-1.65-0.02
			c-0.9,0.73-0.83,0.83,0.62,0.85C376.21,566.21,376.49,565.98,376.04,565.36L376.04,565.36z M388.56,565.12
			c5.46-0.57,11.51-2.54,8.26-2.69c-2.14-0.1-17.1,1.48-18.06,1.9c-0.4,0.18-0.62,0.59-0.47,0.91
			C378.6,565.91,381.25,565.88,388.56,565.12z M407.2,560.78c2.65-1.24,2.79-1.42,1.25-1.47c-2.05-0.06-7.46,2.21-7.46,3.13
			C400.99,563.24,403.29,562.63,407.2,560.78z M280.49,559.96c1.65-0.47,3.38-0.84,3.85-0.83c0.87,0.01,5.16-1.01,9.49-2.26
			c4.34-1.26,8.93-3.27,8.93-3.93c0-0.72-4.53-0.29-8.65,0.81c-1.53,0.41-4.24,1.11-6.01,1.55c-1.77,0.44-3.53,1.08-3.91,1.42
			c-0.38,0.34-2.43,0.96-4.55,1.39c-2.16,0.43-3.97,1.2-4.09,1.74C275.26,561.03,276.56,561.07,280.49,559.96L280.49,559.96z
			 M420.13,558.36c1.77-0.47,3.35-1.13,3.5-1.46c0.41-0.92-0.76-1.66-1.55-0.99c-0.38,0.33-1.5,0.49-2.5,0.38
			c-1.83-0.22-4.66,0.77-7.7,2.69c-1.59,1-1.5,1.04,1.67,0.65C415.39,559.39,418.35,558.83,420.13,558.36L420.13,558.36z
			 M432.71,556.57c3.94-0.24,6.8-1.37,6.8-2.69c0-0.97-2.15-0.95-5.86,0.05c-1.53,0.41-3.61,0.73-4.61,0.7
			c-2.13-0.06-4.22,1.29-3.73,2.4c0.2,0.44,1.08,0.56,2.01,0.27C428.23,557.03,430.66,556.7,432.71,556.57z M442.85,553.86
			c0-0.42-0.38-0.77-0.84-0.77c-0.46,0-0.84,0.35-0.84,0.77c0,0.42,0.38,0.77,0.84,0.77C442.48,554.63,442.85,554.28,442.85,553.86z
			 M459.36,552.1c0.94-0.16,2.07-0.6,2.51-0.99c0.44-0.38,3.08-0.76,5.88-0.85c3.08-0.09,5.89-0.62,7.14-1.34
			c1.14-0.66,4.12-1.4,6.64-1.66c3.02-0.31,4.92-0.89,5.57-1.7c0.54-0.68,2.05-1.32,3.35-1.43c3.6-0.31,6.72-1.21,7.82-2.25
			c0.9-0.85,0.83-0.99-0.7-1.41c-1.89-0.52-4.97,0.1-5.99,1.21c-0.37,0.4-1.2,0.5-1.84,0.21c-0.64-0.28-1.47-0.19-1.84,0.2
			c-0.37,0.39-1.8,0.78-3.18,0.88c-1.38,0.09-3.27,0.79-4.2,1.54c-0.93,0.75-2.94,1.43-4.46,1.51c-1.53,0.07-5.29,0.78-8.36,1.58
			c-3.07,0.8-6.21,1.45-6.98,1.45c-6.12,0.02-10.61,1.41-10.61,3.27C450.11,552.87,455.6,552.74,459.36,552.1L459.36,552.1z
			 M500.07,546.14c0.19-0.42-0.19-0.77-0.84-0.77c-0.65,0-1.03,0.35-0.84,0.77c0.19,0.42,0.57,0.77,0.84,0.77
			C499.5,546.91,499.88,546.57,500.07,546.14z M469.37,544.6c0.19-0.42-0.05-0.77-0.53-0.77c-0.48,0-0.87,0.35-0.87,0.77
			c0,0.42,0.24,0.77,0.53,0.77C468.79,545.37,469.18,545.02,469.37,544.6z M509.28,544.73c0-1.09-0.63-1.59-1.45-1.15
			c-1.17,0.62-0.94,1.79,0.33,1.79C508.77,545.37,509.28,545.08,509.28,544.73z M515.29,542.91c-0.35-1.43-1.55-1.67-1.55-0.31
			c0,0.67,0.4,1.22,0.88,1.22C515.11,543.82,515.41,543.41,515.29,542.91L515.29,542.91z M507.85,541.75
			c3.78-0.33,5.69-0.74,8.68-1.85c1.38-0.51,3.77-1.02,5.3-1.12c12.33-0.82,16.08-1.2,16.65-1.69c0.36-0.31,2.41-0.68,4.56-0.82
			c6.45-0.41,7.22-0.53,8.07-1.29c0.45-0.4,2.16-0.67,3.8-0.61c1.64,0.06,3.65-0.24,4.45-0.66c1.77-0.93,10.29-1.57,11.15-0.84
			c0.34,0.29,0.64,0.78,0.67,1.1c0.03,0.32,0.24,0.49,0.47,0.39c0.23-0.11,0.34-0.61,0.26-1.12c-0.09-0.53,0.74-1.13,1.96-1.41
			c3.34-0.77,3.78-1.06,3.07-2.05c-0.46-0.64-2.49-0.62-7.77,0.08c-3.93,0.52-8.52,1.1-10.21,1.3c-3.67,0.42-5.99,0.81-6.56,1.11
			c-0.23,0.12-1.55,0.3-2.93,0.4c-2.21,0.16-6.95,0.66-20.09,2.14c-11.07,1.25-16.68,2.14-18.42,2.94c-1.07,0.49-3.71,1.1-5.86,1.36
			c-3.04,0.36-3.94,0.75-4.08,1.76c-0.12,0.92,0.28,1.38,1.39,1.57c0.86,0.15,1.81,0.11,2.1-0.08
			C504.79,542.16,506.3,541.89,507.85,541.75L507.85,541.75z M528.26,541.51c0-0.42-0.52-0.77-1.15-0.77c-0.63,0-0.99,0.35-0.8,0.77
			s0.71,0.77,1.15,0.77C527.89,542.28,528.26,541.93,528.26,541.51z M533.28,540.82c0-0.95-1.57-1.71-1.92-0.93
			c-0.16,0.34-0.12,0.85,0.07,1.12C531.96,541.75,533.28,541.61,533.28,540.82L533.28,540.82z M500.9,536.88
			c0-0.42-0.49-0.77-1.08-0.77c-0.6,0-1.24,0.35-1.43,0.77c-0.19,0.44,0.27,0.77,1.08,0.77C500.26,537.65,500.9,537.3,500.9,536.88z
			 M211.18,534.87c1.1-1.43,0.24-2.4-1.1-1.25c-0.6,0.52-1.46,0.94-1.93,0.94c-0.46,0-0.84,0.53-0.84,1.17
			C207.31,537.13,209.88,536.56,211.18,534.87z M509.83,535.33c0.68-0.6,0.6-0.75-0.42-0.76c-0.69-0.01-1.26,0.34-1.26,0.76
			C508.16,536.3,508.75,536.3,509.83,535.33z M202.84,533.02c0-0.42-0.24-0.77-0.53-0.77s-0.68,0.35-0.87,0.77
			c-0.19,0.42,0.05,0.77,0.53,0.77C202.45,533.79,202.84,533.44,202.84,533.02z M586.3,532.63c0-0.64-0.38-1.16-0.84-1.16
			c-0.46,0-0.84,0.52-0.84,1.16c0,0.64,0.38,1.16,0.84,1.16C585.93,533.79,586.3,533.27,586.3,532.63z M584.91,529.93
			c0.84-0.5,0.44-0.68-1.57-0.72c-1.66-0.03-2.55,0.24-2.34,0.72C581.41,530.85,583.36,530.85,584.91,529.93z M620.45,508.91
			c-1.13-1.56-1.8,0.21-0.79,2.08c0.94,1.74,0.98,1.75,1.16,0.25C620.92,510.38,620.76,509.34,620.45,508.91z M636.54,431.08
			c0-0.4-0.38-0.73-0.84-0.73c-0.86,0-1.11,0.91-0.48,1.78C635.67,432.75,636.54,432.05,636.54,431.08L636.54,431.08z
			 M528.81,343.12c0-0.42-0.36-0.77-0.8-0.77c-0.44,0-0.96,0.35-1.15,0.77c-0.19,0.42,0.17,0.77,0.8,0.77
			C528.3,343.9,528.81,343.55,528.81,343.12z M517.07,342.38c0.45-0.4,0.7-0.88,0.56-1.07c-0.93-1.25-5.57-0.37-5.57,1.05
			C512.07,343.33,515.98,343.34,517.07,342.38L517.07,342.38z M528.37,340.05c1.44-0.01,4.08-0.55,5.86-1.21
			c1.78-0.66,4.73-1.37,6.55-1.59c3.57-0.42,4.22-0.73,4.22-1.97c0-0.81-0.79-0.74-9.49,0.77c-4.44,0.77-15.58,3.86-16.38,4.54
			c-1.3,1.1,1.23,1.44,3.75,0.51C524.45,340.53,526.92,340.05,528.37,340.05z M538.86,340.81c0-0.42-0.36-0.77-0.8-0.77
			c-0.44,0-0.96,0.35-1.15,0.77c-0.19,0.42,0.17,0.77,0.8,0.77C538.34,341.58,538.86,341.23,538.86,340.81L538.86,340.81z
			 M544.93,340.33c2.63-0.73,2.15-2.11-0.56-1.61c-2.53,0.47-4.35,2.09-2.35,2.09C542.67,340.81,543.97,340.59,544.93,340.33z
			 M565.93,336.18c0.19-0.42-0.19-0.77-0.84-0.77c-0.65,0-1.03,0.35-0.84,0.77s0.57,0.77,0.84,0.77
			C565.37,336.95,565.74,336.6,565.93,336.18z M570.35,335.71c0.49-0.26,0.88-0.8,0.88-1.21c0-1.07-2.38-0.43-2.66,0.71
			C568.33,336.26,568.97,336.44,570.35,335.71L570.35,335.71z M553.51,334.25c-0.21-1.18-5.3-0.96-5.59,0.24
			c-0.18,0.77,0.48,0.95,2.74,0.77C552.31,335.12,553.59,334.67,553.51,334.25L553.51,334.25z M564.54,332.67
			c7.96-1.15,11.89-2.2,12.14-3.25c0.36-1.49-4.77-0.88-12.42,1.46c-4.15,1.27-4.29,1.35-3.89,2.25c0.2,0.46,0.78,0.6,1.29,0.32
			C562.17,333.18,563.46,332.83,564.54,332.67L564.54,332.67z M613.97,332.24c0.6-1.34-1.27-3.54-2.07-2.43
			c-0.49,0.68-0.48,1.18,0.06,2.09C612.8,333.3,613.44,333.41,613.97,332.24L613.97,332.24z M606.86,261.43
			c0.12-1.11-0.12-1.68-0.7-1.68c-0.57,0-0.88,0.7-0.88,2C605.28,264.17,606.59,263.9,606.86,261.43z M243.39,251.92
			c0.66,0.05,2.64-0.57,4.41-1.37c1.76-0.8,3.54-1.29,3.95-1.07c0.69,0.37,4.82-1.28,17.13-6.81c2.7-1.21,5.42-2.21,6.03-2.21
			c0.61,0,1.85-0.53,2.75-1.17c0.9-0.64,2.83-1.39,4.3-1.65c1.46-0.27,3.34-0.95,4.17-1.53c0.83-0.58,2.08-1.05,2.79-1.05
			c0.71,0,2-0.52,2.88-1.16c0.88-0.63,1.92-1.15,2.3-1.15c0.39,0,1.02-0.52,1.4-1.16c0.42-0.7,1.64-1.16,3.1-1.16
			c1.33,0,2.57-0.35,2.76-0.77c0.19-0.42,0.97-0.77,1.73-0.77c0.76,0,2.37-0.69,3.57-1.54c1.2-0.85,2.55-1.54,2.98-1.54
			c1.26,0,2.34-2.21,1.59-3.25c-0.68-0.95-3-0.07-9.6,3.63c-1.99,1.12-5.64,2.69-8.09,3.49c-5.16,1.68-7.7,2.62-10.05,3.74
			c-0.92,0.44-2.81,1.19-4.19,1.68c-4.06,1.43-8.33,3.15-13.4,5.42c-2.61,1.16-6.13,2.55-7.81,3.08c-1.69,0.53-5.03,1.96-7.43,3.17
			c-2.4,1.21-4.85,2.21-5.45,2.21c-0.6,0-1.52,0.32-2.05,0.71c-0.53,0.39-1.41,0.91-1.95,1.13c-0.54,0.23-0.98,0.82-0.98,1.3
			c0,0.54,0.38,0.66,0.98,0.3C241.75,252.08,242.73,251.87,243.39,251.92z M281.72,242.32c2.78-1.31,3.59-2.24,2.47-2.84
			c-0.81-0.43-7.11,2.21-7.91,3.31C275.41,243.99,278.79,243.7,281.72,242.32L281.72,242.32z M390.18,239.04
			c-1.34-0.36-2.73,0.47-2.32,1.38c0.21,0.47,0.89,0.4,1.82-0.19C390.85,239.5,390.95,239.25,390.18,239.04z M288.54,239.63
			c0.57-1.27-0.1-1.73-1.7-1.18c-0.79,0.28-1.29,0.84-1.11,1.25C286.19,240.71,288.08,240.66,288.54,239.63L288.54,239.63z
			 M295.7,236.92c2.19-0.67,4.76-1.73,5.7-2.36c0.94-0.63,1.95-1.08,2.23-1.01c1.21,0.32,1.91-0.12,1.91-1.2
			c0-1.29-1.97-1.59-2.51-0.39c-0.19,0.42-1.15,0.77-2.13,0.78c-0.98,0-2.5,0.52-3.38,1.16c-0.88,0.63-2.13,1.16-2.79,1.17
			c-1.11,0.02-4.55,3.01-3.5,3.05C291.49,238.13,293.5,237.59,295.7,236.92z M353.23,235.41c1.03-1.07,0.99-1.13-0.66-1.13
			c-1.73,0-2.68,0.87-1.99,1.82C351.15,236.88,352.06,236.64,353.23,235.41z M344.06,234.28c0-0.42-0.24-0.77-0.53-0.77
			c-0.29,0-0.68,0.35-0.87,0.77c-0.19,0.42,0.05,0.77,0.53,0.77C343.67,235.05,344.06,234.71,344.06,234.28z M350.2,231.97
			c0-0.42-0.24-0.77-0.52-0.77c-0.29,0-0.68,0.35-0.87,0.77c-0.19,0.42,0.04,0.77,0.52,0.77
			C349.81,232.74,350.2,232.39,350.2,231.97z M312.8,229.01c1.69-0.84,3.95-2.17,5.02-2.95c1.93-1.41,1.94-1.43,0.49-1.66
			c-1.7-0.27-10.68,4.67-11.02,6.07C307.03,231.58,308.29,231.25,312.8,229.01z M364.71,226.1l1.4-1.02l-1.45-0.03
			c-1.82-0.04-4.97,1.44-4.97,2.34C359.69,228.25,362.88,227.43,364.71,226.1z M322.85,223.47c0-0.42-0.38-0.77-0.84-0.77
			c-0.46,0-0.84,0.35-0.84,0.77c0,0.42,0.38,0.77,0.84,0.77C322.47,224.25,322.85,223.9,322.85,223.47z M327.66,221.39
			c1.83-1.11,1.98-1.36,0.93-1.59c-1.37-0.31-3.52,1.01-3.52,2.16C325.08,222.93,325.14,222.92,327.66,221.39z M378.98,220.03
			c1.05-1.09,1.03-1.13-0.34-1.16c-0.78-0.01-1.91,0.49-2.51,1.11c-1.04,1.09-1.03,1.13,0.35,1.16
			C377.25,221.15,378.38,220.65,378.98,220.03z M337.12,217.75c0.62-0.6,2.12-1.32,3.33-1.6c1.21-0.28,2.83-0.79,3.6-1.14
			c0.77-0.35,2.9-1.24,4.75-1.98c4.09-1.64,5.19-2.65,3.95-3.62c-0.53-0.41-1.89-0.23-3.52,0.47c-8.45,3.64-10.52,4.62-11,5.21
			c-0.29,0.36-1.08,0.66-1.74,0.66c-1.51,0-2.88,1.96-1.79,2.56C335.8,218.94,335.92,218.92,337.12,217.75z M383.97,218.07
			c0.44-0.99-1.41-0.99-2.51,0c-0.65,0.59-0.51,0.75,0.66,0.76C382.95,218.84,383.78,218.49,383.97,218.07z M389.97,216.17
			c1.15-0.27,2.09-0.82,2.09-1.23c0-0.97-1.09-0.93-3.4,0.14c-2.13,0.99-3.72,2.64-1.9,1.98
			C387.37,216.84,388.82,216.44,389.97,216.17z M400.78,212.6c0.52-0.6,0.63-1.21,0.29-1.68c-0.57-0.79-6.05,1.32-7.05,2.72
			C393.19,214.77,399.76,213.77,400.78,212.6L400.78,212.6z M406.33,209.99c1.04-1.09,1.03-1.13-0.34-1.16
			c-0.79-0.01-1.91,0.49-2.51,1.11c-1.04,1.09-1.03,1.13,0.35,1.16C404.6,211.11,405.73,210.61,406.33,209.99z M464.07,210.35
			c0-0.42-0.36-0.77-0.8-0.77c-0.44,0-0.96,0.35-1.15,0.77c-0.19,0.42,0.17,0.77,0.8,0.77
			C463.55,211.12,464.07,210.78,464.07,210.35z M473,209.23c3.78-1.17,10.74-3.16,15.07-4.3c1.38-0.36,3.64-1.06,5.02-1.55
			c1.38-0.49,4.77-1.38,7.53-1.99c8.79-1.93,14.4-3.47,15.45-4.25c1.39-1.03,1.28-2.24-0.21-2.24c-1.23,0-2.41,0.27-13.37,3.1
			c-3.27,0.84-6.94,1.53-8.16,1.53c-1.22,0-3.2,0.47-4.38,1.05c-1.19,0.58-3.67,1.3-5.51,1.61c-1.84,0.31-4.1,1.01-5.02,1.56
			c-3.35,2-5.09,2.7-8.52,3.44c-3.72,0.8-4.6,1.26-4.6,2.42C466.3,210.67,468.83,210.52,473,209.23L473,209.23z M358.87,208.54
			c0.6-0.57,1.8-1.28,2.66-1.57c0.86-0.29,1.41-0.86,1.22-1.27c-0.44-0.98-2.9-0.97-3.34,0.02c-0.19,0.42-1.07,0.77-1.95,0.77
			c-1.35,0-3.36,1.64-3.36,2.76C354.1,210.04,357.87,209.48,358.87,208.54L358.87,208.54z M370.58,203.8
			c0.62-0.53,2.25-1.21,3.63-1.5c1.38-0.29,4.51-1.35,6.97-2.36c5.32-2.17,12.59-4.87,15.47-5.73c1.14-0.34,2.65-1.11,3.35-1.72
			c0.7-0.61,2.62-1.19,4.26-1.31c1.89-0.13,4.2-1.02,6.27-2.41c1.86-1.25,3.78-2.02,4.42-1.79c1.48,0.53,8.67-2.68,10.22-4.57
			c1.21-1.47,1.2-1.48-2.3-1c-1.93,0.26-4.69,1.19-6.14,2.07c-1.45,0.87-4.01,2.04-5.7,2.61c-1.69,0.56-4.45,1.6-6.14,2.32
			c-1.69,0.71-4.2,1.57-5.58,1.89c-4.68,1.11-8.09,2.23-10.6,3.48c-1.38,0.69-4.15,1.74-6.14,2.35c-4.98,1.51-9.93,3.75-10.72,4.85
			c-0.36,0.5-1.55,0.92-2.64,0.92c-1.72,0-5.61,2.38-5.61,3.42C363.59,206,369.48,204.74,370.58,203.8z M425.27,202.63
			c0.19-0.42-0.17-0.77-0.8-0.77c-0.63,0-1.15,0.35-1.15,0.77c0,0.42,0.36,0.77,0.8,0.77C424.56,203.41,425.08,203.06,425.27,202.63
			z M431.13,200.25c0.66-0.52,0.58-0.66-0.37-0.68c-1.6-0.03-2.98,0.74-2.98,1.66C427.78,201.98,429.6,201.45,431.13,200.25z
			 M524.63,194.18l2.23-1.46l-2.35-0.06c-2.4-0.06-5.19,1.21-5.19,2.38C519.33,196.17,522.32,195.69,524.63,194.18z M445.64,194.14
			c0-0.42-0.24-0.77-0.53-0.77c-0.29,0-0.68,0.35-0.87,0.77c-0.19,0.43,0.05,0.77,0.53,0.77
			C445.25,194.91,445.64,194.56,445.64,194.14z M533.28,191.05c0-0.42-0.36-0.77-0.8-0.77c-0.44,0-0.96,0.35-1.15,0.77
			c-0.19,0.42,0.17,0.77,0.8,0.77C532.76,191.82,533.28,191.48,533.28,191.05z M519.04,189.5c-0.19-0.43-0.58-0.59-0.87-0.34
			c-0.77,0.66-0.63,1.12,0.35,1.12C519,190.28,519.23,189.93,519.04,189.5z M462.91,187.86c1.1-0.49,2.34-1.01,2.77-1.18
			c0.43-0.16,0.64-0.49,0.47-0.72c-0.44-0.61-6.68,1.09-7.34,2C458.05,189.03,460.39,188.97,462.91,187.86z M473.79,184.41
			c0.49-0.26,0.88-0.78,0.88-1.16c0-1.05-2.34-0.77-3.91,0.47l-1.4,1.1l1.77,0.03C472.11,184.87,473.3,184.67,473.79,184.41
			L473.79,184.41z M483.88,180.83c3.84-1.2,4.41-2.17,1.08-1.82c-3.17,0.33-7.5,2.08-7.5,3.03
			C477.46,182.69,478.69,182.46,483.88,180.83z M432.36,179.76c0.83-0.58,2.03-1.06,2.66-1.06s1.59-0.3,2.12-0.68
			c1.63-1.14,4.89-2.41,6.17-2.41c1.42,0,7.88-2.95,8.89-4.06c0.38-0.42,0.7-1.11,0.7-1.53c0-1.01-3.14-0.18-8.25,2.17
			c-2.23,1.03-4.43,1.87-4.89,1.87c-0.46,0-1.27,0.31-1.8,0.69c-0.53,0.38-2.85,1.48-5.15,2.45c-4.65,1.96-5.33,2.49-4.76,3.76
			C428.46,181.91,429.87,181.51,432.36,179.76L432.36,179.76z M490.58,178.7c0.19-0.44-0.27-0.77-1.08-0.77
			c-0.79,0-1.43,0.35-1.43,0.77c0,0.42,0.49,0.77,1.08,0.77C489.75,179.47,490.39,179.13,490.58,178.7z M499.37,177.35
			c2.73-0.65,1.69-1.86-1.12-1.3c-3.05,0.61-3.18,0.7-2.65,1.88c0.21,0.48,0.8,0.63,1.31,0.33
			C497.42,177.96,498.53,177.55,499.37,177.35z M561.75,177.93c0-0.42-0.39-0.77-0.87-0.77c-0.48,0-0.71,0.35-0.53,0.77
			c0.19,0.42,0.58,0.77,0.87,0.77C561.51,178.7,561.75,178.35,561.75,177.93z M504.81,175.61c0-0.42-0.38-0.77-0.84-0.77
			c-0.46,0-0.84,0.35-0.84,0.77c0,0.42,0.38,0.77,0.84,0.77C504.43,176.39,504.81,176.04,504.81,175.61z M507.6,174.84
			c0-0.42-0.38-0.77-0.84-0.77c-0.46,0-0.84,0.35-0.84,0.77c0,0.42,0.38,0.77,0.84,0.77C507.23,175.61,507.6,175.27,507.6,174.84z
			 M526.51,170.5c0.96-0.27,1.74-0.82,1.74-1.22c0-0.85-3.35-0.03-4.16,1.01C523.46,171.12,524.08,171.17,526.51,170.5L526.51,170.5
			z M541.09,166.27c0-0.91-2.64-0.89-3.04,0.02c-0.36,0.8,1.27,1.49,2.34,0.99C540.78,167.1,541.09,166.64,541.09,166.27
			L541.09,166.27z M546.19,165.58c0.58,0,1.05-0.39,1.05-0.87c0-1.08-4.47-0.22-5.3,1.01c-0.4,0.59-0.02,0.69,1.33,0.35
			C544.29,165.8,545.61,165.58,546.19,165.58z M550.3,164.03c0.19-0.42-0.05-0.77-0.53-0.77c-0.48,0-0.87,0.35-0.87,0.77
			c0,0.42,0.24,0.77,0.53,0.77S550.11,164.46,550.3,164.03z M327.05,599.44c-0.37-0.83,1.41-2.35,2.74-2.35
			c0.71,0,0.67,0.28-0.24,1.54C328.32,600.32,327.56,600.57,327.05,599.44L327.05,599.44z M331.22,597.09
			c0-0.42,0.94-0.77,2.09-0.76c1.56,0.01,1.88,0.2,1.26,0.76C333.47,598.07,331.22,598.07,331.22,597.09z M625.69,572.45
			c-0.48-1.08,0.27-3.16,1.14-3.16c0.85,0,0.97,0.74,0.44,2.64C626.89,573.29,626.17,573.53,625.69,572.45L625.69,572.45z
			 M626.15,561.9c0.19-0.67,0.34-1.89,0.34-2.7c0-0.99,0.39-1.48,1.18-1.48c0.95,0,1.12,0.34,0.84,1.74
			c-0.19,0.96-0.34,2.17-0.34,2.7c0,0.53-0.54,0.96-1.18,0.96C626.15,563.12,625.91,562.78,626.15,561.9L626.15,561.9z
			 M612.32,315.66c-0.21-0.75-0.08-1.11,0.32-0.92c0.83,0.39,1.29,2.14,0.56,2.14C612.9,316.88,612.51,316.33,612.32,315.66z
			 M614.54,310.81c-0.24-0.54-0.29-1.19-0.1-1.44c0.5-0.69,1.04,0.33,0.77,1.44C615.02,311.59,614.89,311.59,614.54,310.81
			L614.54,310.81z M609.19,286c0-0.42,0.24-0.77,0.52-0.77c0.29,0,0.68,0.35,0.87,0.77c0.19,0.42-0.04,0.77-0.53,0.77
			C609.58,286.77,609.19,286.42,609.19,286z M608.16,283.26c0.11-0.76,0.53-1.53,0.94-1.72c0.48-0.22,0.68,0.15,0.56,1.03
			c-0.11,0.76-0.53,1.53-0.94,1.72C608.24,284.51,608.04,284.14,608.16,283.26L608.16,283.26z M542.21,143.26
			c0-0.49,0.44-1.07,0.98-1.3c0.54-0.23,1.41-0.74,1.95-1.13c0.53-0.39,1.84-0.72,2.9-0.72c1.06,0,3.23-0.38,4.81-0.85
			c1.96-0.58,3.05-0.6,3.44-0.06c0.64,0.89-1.47,1.81-7.38,3.2c-2,0.47-4.32,1.06-5.16,1.3
			C542.77,143.98,542.21,143.82,542.21,143.26L542.21,143.26z"/>
		<path class="st1" d="M454.02,597.86c0-0.42-0.25-0.77-0.56-0.77c-0.31,0-0.56,0.35-0.56,0.77s0.25,0.77,0.56,0.77
			C453.77,598.63,454.02,598.28,454.02,597.86z"/>
		<path class="st1" d="M383.23,595.02c-0.4-0.22-0.88-0.2-1.07,0.06c-0.19,0.26,0.14,0.44,0.73,0.41
			C383.55,595.45,383.68,595.26,383.23,595.02z"/>
		<path class="st1" d="M396.63,593.47c-0.4-0.22-0.88-0.2-1.07,0.06c-0.19,0.25,0.14,0.44,0.73,0.41
			C396.94,593.91,397.08,593.72,396.63,593.47z"/>
		<ellipse class="st1" cx="203.96" cy="592.46" rx="0.56" ry="0.77"/>
		<path class="st1" d="M483.6,591.64c0-0.45-0.25-0.6-0.56-0.34c-0.31,0.26-0.56,0.63-0.56,0.82c0,0.19,0.25,0.34,0.56,0.34
			C483.35,592.46,483.6,592.09,483.6,591.64L483.6,591.64z"/>
		<ellipse class="st1" cx="474.11" cy="581.65" rx="0.56" ry="0.77"/>
		<path class="st1" d="M506.49,573.16c0-0.42,0.11-0.77,0.25-0.77c0.14,0,0.4,0.35,0.59,0.77c0.19,0.42,0.08,0.77-0.24,0.77
			C506.75,573.93,506.49,573.58,506.49,573.16z"/>
		<path class="st1" d="M507.71,586.53c-0.4-0.22-0.89-0.2-1.07,0.06c-0.19,0.26,0.14,0.44,0.73,0.41
			C508.02,586.96,508.15,586.77,507.71,586.53z"/>
		<path class="st1" d="M523.92,583.42c-0.69-0.18-1.7-0.18-2.23,0.02c-0.53,0.19,0.03,0.34,1.26,0.33
			C524.18,583.77,524.62,583.61,523.92,583.42L523.92,583.42z"/>
		<path class="st1" d="M353.09,571.09c-0.4-0.22-0.88-0.2-1.07,0.06c-0.19,0.26,0.15,0.44,0.73,0.41
			C353.41,571.52,353.54,571.33,353.09,571.09z"/>
		<path class="st1" d="M477.18,542.28c0.19-0.42,0.09-0.77-0.21-0.77c-0.31,0-0.71,0.35-0.9,0.77c-0.19,0.42-0.09,0.77,0.21,0.77
			C476.59,543.05,476.99,542.71,477.18,542.28z"/>
		<path class="st1" d="M494.21,537.6c0-0.45-0.25-0.6-0.56-0.34c-0.31,0.26-0.56,0.63-0.56,0.82c0,0.19,0.25,0.34,0.56,0.34
			C493.95,538.42,494.21,538.05,494.21,537.6L494.21,537.6z"/>
		<path class="st1" d="M567.33,535.33c0-0.42-0.25-0.77-0.56-0.77s-0.56,0.35-0.56,0.77c0,0.42,0.25,0.77,0.56,0.77
			S567.33,535.76,567.33,535.33z"/>
		<path class="st1" d="M616.73,503.68c-0.19-0.42-0.46-0.77-0.59-0.77c-0.14,0-0.25,0.35-0.25,0.77s0.27,0.77,0.59,0.77
			C616.81,504.46,616.92,504.11,616.73,503.68z"/>
		<path class="st1" d="M616.55,484.63c-0.4-0.22-0.88-0.2-1.07,0.06c-0.19,0.26,0.14,0.44,0.73,0.41
			C616.86,485.06,617,484.88,616.55,484.63z"/>
		<path class="st1" d="M619.24,480.53c0-0.42-0.25-0.77-0.56-0.77c-0.31,0-0.56,0.35-0.56,0.77c0,0.42,0.25,0.77,0.56,0.77
			C618.99,481.3,619.24,480.95,619.24,480.53z"/>
		<path class="st1" d="M176.05,458.91c0-0.42-0.25-0.77-0.56-0.77s-0.56,0.35-0.56,0.77c0,0.42,0.25,0.77,0.56,0.77
			S176.05,459.34,176.05,458.91z"/>
		<path class="st1" d="M173.36,432.91c-0.4-0.22-0.88-0.2-1.07,0.06c-0.19,0.26,0.14,0.44,0.73,0.41
			C173.67,433.34,173.81,433.16,173.36,432.91z"/>
		<path class="st1" d="M534.95,341.53c0-0.45-0.25-0.6-0.56-0.34c-0.31,0.26-0.56,0.63-0.56,0.82c0,0.19,0.25,0.34,0.56,0.34
			C534.7,342.35,534.95,341.98,534.95,341.53L534.95,341.53z"/>
		<path class="st1" d="M550.58,338.49c0-0.42-0.25-0.77-0.56-0.77c-0.31,0-0.56,0.35-0.56,0.77c0,0.42,0.25,0.77,0.56,0.77
			C550.33,339.26,550.58,338.92,550.58,338.49z"/>
		<ellipse class="st1" cx="574.02" cy="333.86" rx="0.56" ry="0.77"/>
		<path class="st1" d="M557.42,333.35c-0.38-0.21-1.01-0.21-1.4,0c-0.38,0.21-0.07,0.39,0.7,0.39
			C557.49,333.74,557.8,333.56,557.42,333.35z"/>
		<ellipse class="st1" cx="579.05" cy="333.09" rx="0.56" ry="0.77"/>
		<ellipse class="st1" cx="179.96" cy="313.79" rx="0.56" ry="0.77"/>
		<path class="st1" d="M272.05,244.66c0-0.19-0.25-0.34-0.56-0.34c-0.31,0-0.56,0.37-0.56,0.82c0,0.45,0.25,0.6,0.56,0.34
			C271.8,245.21,272.05,244.84,272.05,244.66z"/>
		<path class="st1" d="M393.46,238.91c0.19-0.42,0.1-0.77-0.21-0.77c-0.31,0-0.71,0.35-0.9,0.77c-0.19,0.42-0.09,0.77,0.21,0.77
			C392.86,239.68,393.27,239.34,393.46,238.91z"/>
		<path class="st1" d="M347.69,232.74c0.19-0.42,0.09-0.77-0.21-0.77c-0.31,0-0.71,0.35-0.9,0.77c-0.19,0.42-0.09,0.77,0.21,0.77
			C347.09,233.51,347.5,233.16,347.69,232.74z"/>
		<path class="st1" d="M416.9,205.72c0.19-0.42,0.1-0.77-0.21-0.77c-0.31,0-0.71,0.35-0.9,0.77c-0.19,0.42-0.09,0.77,0.21,0.77
			C416.3,206.49,416.71,206.14,416.9,205.72z"/>
		<path class="st1" d="M455.8,189.75c-0.4-0.22-0.89-0.2-1.07,0.06c-0.19,0.26,0.15,0.44,0.73,0.41
			C456.11,190.18,456.24,190,455.8,189.75z"/>
		<path class="st1" d="M532.83,168.14c-0.4-0.22-0.89-0.2-1.07,0.06c-0.18,0.26,0.14,0.44,0.73,0.41
			C533.14,168.57,533.27,168.38,532.83,168.14z"/>
		<path class="st1" d="M320.89,600.95c0.19-0.42,0.6-0.77,0.9-0.77c0.31,0,0.4,0.35,0.21,0.77c-0.19,0.42-0.6,0.77-0.9,0.77
			C320.8,601.72,320.7,601.37,320.89,600.95z"/>
		<path class="st1" d="M557.99,138.87c0.18-0.26,0.67-0.29,1.07-0.06c0.44,0.25,0.31,0.43-0.34,0.47
			C558.13,139.31,557.8,139.12,557.99,138.87z"/>
		<g>
			<path class="st0" d="M507.61,270.27L507.61,270.27C507.61,270.27,507.61,270.27,507.61,270.27
				C507.61,270.28,507.61,270.28,507.61,270.27z"/>
			<path class="st0" d="M499.57,299.13c-4.45,1.7-7.95,1.43-7.95,1.43l0.14-1.17c4.14-4.58,14.57-18.63,15.95-25.21
				c0.6-2.84-0.11-3.82-0.11-3.91l-13.33,7.83l-11.15,6.96l0,0c-7.7-11.27-19.35-18.45-32.38-18.45
				c-23.19,0-41.99,22.71-41.99,50.74c0,5.13,0.55,14.48,1.72,19.14c0,1.47,0.04-1.47,0,0c-14.93-0.57-34.07-9.03-51.11-20.98
				c-33.62-23.55-35.72-39.86-35.72-39.86c-5.28,7.75-8,33.42-2.65,53.55c3.43,12.89,15.2,24.45,15.2,24.45l0,0
				c0,0-5.27,0.13-10.78-2.44c-5.52-2.58-7.6-5.13-7.6-5.13c-3.28,11.06,3.3,30.82,14.68,45c6.63,8.27,18.74,13.45,18.74,13.45
				l-18.92,0.74c-1.06,25.43,38.57,40.54,38.57,40.54l0,0c-11.62,12.35-25.09,19.88-39.54,19.88c-7.49,0-14.72-1.55-21.59-4.38
				c19.08,21.75,43.61,36.76,70.28,34.83c70.76-5.15,110.7-89.26,112.6-171.87l0.09,0.17c0,0,3.32-2.29,10.4-12.09
				c7.09-9.8,11.5-21.27,11.5-21.27S504.02,297.43,499.57,299.13z"/>
			<path class="st0" d="M507.61,270.28C507.67,271.84,507.61,270.43,507.61,270.28L507.61,270.28z"/>
		</g>
	</g>
</g>
</svg>
