<?xml version="1.0" encoding="utf-8"?>
<!-- Generator: Adobe Illustrator 23.0.1, SVG Export Plug-In . SVG Version: 6.00 Build 0)  -->
<svg version="1.1" id="Icons" xmlns="http://www.w3.org/2000/svg" xmlns:xlink="http://www.w3.org/1999/xlink" x="0px" y="0px"
	 viewBox="0 0 800 800" style="enable-background:new 0 0 800 800;" xml:space="preserve">
<style type="text/css">
	.st0{fill:#FFFFFF;}
	.st1{fill:#32BA46;}
</style>
<rect id="BG" class="st0" width="800" height="800"/>
<g>
	<g>
		<path id="path3797_1_" class="st1" d="M323.28,601.36c0-2.32,1.8-3.58,7.26-5.09c8.19-2.27,11.75-3.62,11.56-4.4
			c-0.26-1.08-3.5-1.27-5.42-0.32c-0.77,0.38-2.4,0.99-3.63,1.35c-1.23,0.36-3.73,1.18-5.56,1.81c-3.62,1.25-5.53,0.64-5.21-1.66
			c0.2-1.44,10.21-6.55,11.55-5.9c1.09,0.53,2.85-0.36,2.85-1.45c0-0.55,0.83-0.89,2.09-0.86c1.15,0.03,2.78-0.41,3.61-0.97
			c0.85-0.58,3.98-1.14,7.15-1.28c4.27-0.19,5.85-0.56,6.54-1.51c1.39-1.93-0.04-2.31-5.21-1.37c-11.29,2.03-12.71,2.36-13.26,3.11
			c-0.32,0.44-1.48,0.81-2.58,0.81c-1.1,0-3.37,0.53-5.05,1.18c-3.42,1.32-9.09,1.94-10.06,1.11c-0.42-0.36-0.12-1.2,0.89-2.5
			c0.88-1.13,1.4-2.44,1.22-3.09c-0.37-1.31,0.58-2.87,1.73-2.87c0.66,0,0.67,0.2,0.06,1.22c-1.6,2.67,1.66,3.05,5.17,0.6
			c0.83-0.58,2.34-1.06,3.35-1.08c1.01-0.02,2.47-0.52,3.24-1.12c1.38-1.08,1.36-1.09-0.72-0.85c-1.16,0.13-2.27,0.46-2.47,0.73
			c-0.67,0.93-3.06,0.52-2.82-0.47c0.13-0.53,1.59-1.18,3.26-1.45c1.66-0.27,4.2-1.2,5.63-2.07c1.43-0.87,3.1-1.4,3.71-1.18
			c1.39,0.5,3.45-0.97,3.45-2.47c0-1.48,0.91-1.46,1.32,0.03c0.53,1.9,4.57,1.52,5.61-0.53c0.81-1.59,0.91-1.61,1.9-0.37
			c0.99,1.24,1.35,1.22,6.3-0.34c2.89-0.91,5.69-1.98,6.24-2.37c1.35-0.97,0.58-2.41-1.06-1.97c-0.73,0.19-1.33,0.02-1.33-0.38
			c0-1.32-4.7,0.25-5.63,1.88c-0.75,1.31-1.08,1.42-2.1,0.66c-0.91-0.68-2.34-0.69-5.73-0.05c-2.49,0.47-4.9,0.65-5.37,0.4
			c-0.47-0.25-1.38-0.01-2.03,0.54c-0.73,0.61-2.13,0.84-3.69,0.59l-2.51-0.4l1.81-0.92c4.21-2.14,0.39-4-4.33-2.1
			c-1.69,0.68-3.82,1.35-4.75,1.48c-0.92,0.14-2.38,0.63-3.24,1.09c-0.87,0.46-2.5,0.84-3.64,0.84c-1.14,0-2.61,0.53-3.28,1.17
			c-1.63,1.58-2.27,0.05-0.92-2.18c0.56-0.93,1.08-1.82,1.16-1.99c0.07-0.17,0.45,0.06,0.84,0.5c0.47,0.52,1.67,0.56,3.5,0.11
			c1.53-0.38,3.74-0.91,4.9-1.18c1.16-0.27,2.24-0.79,2.41-1.16c0.16-0.37,0.85-0.67,1.52-0.68c0.67-0.01,1.85-0.7,2.62-1.53
			c1.52-1.64,2.79-2,2.79-0.77c0,1.18,1.83,0.92,3.26-0.46c0.7-0.68,1.77-1.06,2.37-0.84c1.55,0.56,4.98-0.89,4.98-2.11
			c0-0.56-0.81-1.25-1.8-1.52c-1.34-0.37-2.2-0.1-3.35,1.08c-1.43,1.46-1.64,1.49-2.88,0.37c-1.22-1.1-1.42-1.1-2.24,0.04
			c-0.64,0.89-1.39,1.1-2.61,0.73c-1.65-0.5-4.98,0.77-4.98,1.9c0,0.3-1.7,0.6-3.78,0.68c-2.08,0.08-4.65,0.48-5.72,0.91
			c-3.14,1.25-4.46,1-4.46-0.85c0-0.98-0.45-1.78-1.14-2.03c-1.6-0.58-1.15-2.59,0.99-4.45c0.98-0.86,1.8-1.81,1.81-2.13
			c0.02-0.32-1.1-0.58-2.48-0.58c-2.03,0-2.67-0.35-3.39-1.88c-0.7-1.49-1.56-1.99-4.06-2.41c-1.74-0.29-3.47-0.86-3.84-1.27
			c-0.37-0.41-1-0.46-1.4-0.12c-0.4,0.35-1.16,0.53-1.7,0.41c-0.54-0.12-0.98,0.19-0.98,0.69c0,0.53-0.46,0.74-1.11,0.51
			c-0.61-0.22-1.26-0.08-1.44,0.33c-0.18,0.4-0.8,0.52-1.38,0.27c-0.58-0.25-1.93,0.11-3,0.81c-1.07,0.7-2.15,1.1-2.4,0.88
			c-0.25-0.22-2.17,0.1-4.26,0.7c-2.09,0.61-4.02,0.91-4.3,0.68c-0.27-0.23-1.24,0.33-2.14,1.26c-0.99,1.01-2.02,1.48-2.59,1.18
			c-0.52-0.28-1.3-0.11-1.72,0.38c-0.45,0.52-1.7,0.71-3.01,0.47c-1.48-0.27-2.86,0.01-4.04,0.82c-1.7,1.17-3.98,1.91-9.05,2.92
			c-1.22,0.25-2.48,0.72-2.79,1.05c-0.31,0.34-1.83,0.81-3.37,1.04c-1.54,0.24-4.68,1.35-6.98,2.46c-2.3,1.11-5.45,2.47-7,3.01
			c-1.55,0.54-3.81,1.73-5.02,2.65c-2.68,2.02-6.42,3.9-9.59,4.82c-1.3,0.38-3.15,1.25-4.12,1.94c-0.97,0.69-4.92,1.9-8.8,2.69
			c-3.87,0.79-7.99,1.67-9.14,1.96c-1.25,0.31-2.09,0.22-2.09-0.23c0-1.73,2.18-3.25,5.31-3.71c1.84-0.27,3.55-0.77,3.81-1.11
			c0.95-1.27-0.59-1.42-3.83-0.37c-4.04,1.3-7.42,1.24-8.9-0.16c-0.98-0.93-1-1.04-0.12-1.04c1.44,0,1.82-2.21,0.59-3.45
			c-0.99-1.01-0.97-1.1,0.49-1.87c1.79-0.95,1.99-2.21,0.46-3c-1.92-0.99,0.03-3.37,3.14-3.83c3.06-0.45,4.57-1.61,3.41-2.6
			c-0.79-0.68-3.15-0.1-4.18,1.03c-0.44,0.48-1.79-0.04-3.97-1.51c-2.96-2-3.19-2.31-2.13-2.95c1.76-1.07,1.85-3.98,0.15-5.05
			c-1.45-0.91-2.25-3.96-1.36-5.19c0.33-0.45,0.3-0.92-0.08-1.24c-0.88-0.75-0.74-1.97,0.22-1.97c0.66,0,0.76-0.7,0.48-3.47
			c-0.29-2.89-0.19-3.47,0.57-3.47c0.5,0,0.91-0.52,0.91-1.16c0-0.82-0.6-1.16-2.01-1.16c-1.7,0-1.95-0.21-1.61-1.35
			c0.88-2.95,0.94-4.11,0.26-5.23c-0.57-0.95-0.53-1.43,0.21-2.56c1.24-1.89,1.18-2.25-0.76-4.75c-1.71-2.21-2.16-3.86-1.06-3.86
			c0.34,0,1.41-0.5,2.37-1.11c0.97-0.61,2.89-1.29,4.27-1.52c5.59-0.92,7.24-1.44,7.86-2.46c0.94-1.57-0.71-2.23-2.91-1.17
			c-2.23,1.08-6.81,1.13-6.34,0.08c0.19-0.42,1.15-0.78,2.13-0.78c0.98-0.01,2.16-0.35,2.62-0.77c0.74-0.68,0.74-0.85,0-1.53
			c-0.46-0.42-1.47-0.6-2.23-0.38c-3.52,0.97-6.14,1.13-6.14,0.37c0-1.23,0.4-1.34,10.33-2.93c1.84-0.3,3.97-1.14,4.73-1.88
			s1.76-1.36,2.23-1.38c0.47-0.02,1.84-1.23,3.04-2.7l2.19-2.67h-1.52c-1.62,0-4.81,1.96-4.81,2.96c0,0.33-1.26,0.63-2.79,0.66
			c-1.54,0.03-3.14,0.46-3.57,0.94c-0.58,0.67-1.13,0.66-2.23-0.03c-1.06-0.67-1.81-0.69-2.76-0.09c-0.79,0.5-1.62,0.55-2.09,0.14
			c-0.43-0.38-1.7-0.69-2.81-0.7c-1.73-0.01-3.9-1.79-3.22-2.63c0.79-0.97,3.98-2.78,4.9-2.78c0.61,0,1.26-0.33,1.44-0.74
			c0.2-0.46-1.51-0.65-4.47-0.52c-4.71,0.22-4.8,0.19-4.49-1.49c0.35-1.92-0.75-2.63-4.07-2.65c-1.6-0.01-1.78-0.18-1.19-1.16
			c0.56-0.94,0.5-1.24-0.35-1.63c-4.13-1.93-4.81-2.78-3.21-4.01c0.82-0.63,0.82-0.74,0.02-1.17c-1.31-0.69-0.47-2.85,1.1-2.85
			c0.74,0,1.34-0.37,1.34-0.83c0-0.46-0.56-0.77-1.26-0.69c-3.02,0.34-3.13,0.2-2.57-3.25c0.31-1.92,0.32-3.4,0.02-3.67
			c-0.28-0.25-0.48-1.32-0.44-2.38c0.05-1.58-0.23-1.98-1.55-2.18l-1.61-0.25l1.78-2.25c1.95-2.46,1.85-3.8-0.27-3.8
			c-0.75,0-1.36-0.32-1.36-0.71c0-0.39-0.12-1.17-0.28-1.74c-0.29-1.07,2.59-3.22,5.44-4.07c2.37-0.71,1.92-2.26-0.5-1.72
			c-2.84,0.64-4.03-0.49-4.46-4.2c-0.24-2.06-0.94-3.87-2.05-5.3c-1.54-2-1.61-2.29-0.8-3.41c0.49-0.68,1.23-1.23,1.65-1.23
			c0.8,0,2.11-1.47,2.11-2.38c0-0.58-2.92-1.54-4.88-1.6c-1.41-0.05-1.71-1.79-0.42-2.47c0.46-0.24,0.84-0.94,0.84-1.54
			c0-0.6,0.38-1.3,0.84-1.54c0.91-0.48,1.17-2.81,0.31-2.81c-0.29,0-0.75,0.53-1.01,1.19c-0.4,0.99-0.61,0.85-1.25-0.79
			c-0.66-1.71-0.65-2.14,0.08-3.14c1.1-1.53,0.67-5.54-0.7-6.56c-1.28-0.95-1.44-4.58-0.19-4.58c1.14,0,1.73-2.3,0.8-3.11
			c-0.58-0.49-0.59-0.88-0.09-1.73c0.85-1.42,0.31-2.11-1.66-2.11c-1.19,0-1.58-0.37-1.58-1.49c0-1.5,2.93-5.01,3.5-4.21
			c0.29,0.4,1.3-0.22,3.16-1.93c1.24-1.14-0.27-3.16-2.4-3.22c-1.6-0.05-1.64-0.11-0.49-0.75c0.69-0.38,1.26-1.23,1.26-1.88
			c0-1.38-1.72-1.58-2.64-0.31c-0.73,1.01-2.62,0.28-2.13-0.82c0.18-0.4-0.1-1.06-0.62-1.46c-0.52-0.4-1.01-1.55-1.1-2.56
			c-0.09-1-0.32-2.9-0.51-4.21c-0.25-1.66-0.09-2.75,0.52-3.59c0.79-1.08,0.79-1.25,0.02-1.66c-0.51-0.27-0.79-1.16-0.68-2.17
			c0.13-1.24,0.69-1.86,2.02-2.23c2.3-0.65,2.79-1.28,1.51-1.96c-0.55-0.29-1.44-0.14-1.99,0.33c-0.78,0.67-1.06,0.6-1.32-0.33
			c-0.46-1.64,0.08-2.6,1.45-2.6c0.86,0,1.08-0.37,0.86-1.5c-0.24-1.27,0.15-1.63,2.55-2.34c1.56-0.46,3.1-1.14,3.43-1.52
			c0.33-0.37,1.22-0.8,1.99-0.94c0.77-0.15,1.37-0.61,1.35-1.04s1.1-1.46,2.5-2.3c1.4-0.84,2.97-2.1,3.48-2.81
			c0.88-1.22,5.47-3,7.74-3c1.69,0,1.83-1.37,0.28-2.78c-1.36-1.23-1.48-1.22-2.19,0.13c-0.63,1.18-0.99,1.28-2.11,0.57
			c-0.74-0.47-2-0.68-2.78-0.48c-1.28,0.34-1.52,0.01-2.33-3.27c-0.49-2-0.78-3.9-0.64-4.22c0.14-0.32,1.34-0.96,2.66-1.42
			c1.36-0.47,2.97-1.74,3.71-2.91l1.31-2.08l-3.19,0.52c-2.84,0.46-3.34,0.33-4.53-1.23c-1.75-2.29-1.87-6.44-0.2-7.17
			c1.07-0.47,1.09-0.58,0.19-1.48c-0.63-0.64-0.8-1.34-0.49-2.04c0.91-2.04,0.55-4.96-0.62-4.99c-1.65-0.05-2.47-1.03-2.08-2.51
			c0.46-1.73,1.11-2.32,3.64-3.29c1.15-0.44,2.09-1.17,2.09-1.63c0-0.45-0.41-0.61-0.91-0.34c-0.5,0.27-1.77,0.26-2.82-0.01
			c-1.52-0.39-1.89-0.83-1.79-2.14c0.06-0.9-0.08-2.26-0.31-3c-0.24-0.78-0.14-1.83,0.23-2.44c0.52-0.86,0.41-1.19-0.5-1.59
			c-0.63-0.28-1.15-0.99-1.15-1.58c0-0.64,0.34-0.9,0.82-0.64c0.53,0.28,1.06-0.29,1.48-1.57c0.36-1.1,0.87-2.01,1.13-2.01
			c0.93,0,0.44-1.45-0.65-1.93c-1.33-0.58-1.45-2.13-0.27-3.49c0.76-0.87,0.76-1.17-0.04-2.85c-0.73-1.54-0.76-2.09-0.17-3.06
			c0.59-0.99,0.53-1.37-0.35-2.26c-0.58-0.59-1.68-1.08-2.44-1.08c-1.29,0-1.32-0.08-0.46-1.4c0.72-1.1,0.77-1.6,0.24-2.34
			c-0.53-0.73-0.53-1.27,0.02-2.47c0.58-1.28,0.52-1.89-0.38-3.65c-0.7-1.38-1.17-3.91-1.34-7.34c-0.23-4.56-0.13-5.33,0.78-6.01
			c2.08-1.54,0.95-3.79-1.92-3.83c-0.98-0.02-0.81-0.34,0.88-1.7c2.39-1.91,2.58-2.56,0.93-3.16c-0.87-0.32-1.08-0.81-0.81-1.99
			c0.2-0.86,0.1-2.24-0.22-3.06c-1.11-2.87,0.7-3.82,12.8-6.67c4.45-1.05,8.97-2.28,10.05-2.73c1.07-0.45,4.46-1.47,7.53-2.27
			c12.55-3.27,24.1-7.32,47.44-16.65c30.39-12.14,30.99-12.37,38.52-15.04c9.58-3.39,13.77-5.09,16.19-6.55
			c2.71-1.64,9.94-5.29,14.51-7.32c10.68-4.74,23.19-10.1,25.12-10.76c3.73-1.28,7.59-2.86,12.22-5.02
			c2.42-1.13,5.69-2.43,7.26-2.89c1.57-0.46,3.53-1.31,4.36-1.9c0.83-0.58,2.15-1.06,2.94-1.06c0.79,0,1.87-0.33,2.4-0.73
			c0.88-0.67,9.89-4.05,14.65-5.49c1.07-0.33,4.97-1.69,8.65-3.04c3.69-1.34,7.78-2.76,9.11-3.14c1.33-0.38,3.96-1.39,5.86-2.24
			c5.62-2.51,17.41-7.22,30.15-12.04c2.71-1.02,7.17-2.9,9.92-4.18c2.74-1.27,7.44-3.05,10.42-3.96c2.99-0.91,6.82-2.1,8.5-2.66
			c1.69-0.55,4.58-1.42,6.42-1.92c1.84-0.5,4.6-1.38,6.14-1.95c1.54-0.57,4.8-1.42,7.26-1.89c2.46-0.47,5.97-1.18,7.81-1.59
			c1.84-0.41,4.48-0.91,5.86-1.13c1.38-0.22,3.27-0.7,4.19-1.08c0.92-0.38,5.94-1.78,11.16-3.12c5.22-1.34,11.12-2.91,13.12-3.5
			c1.99-0.58,5.26-1.46,7.26-1.94c2-0.49,5.39-1.36,7.54-1.95c6.76-1.85,8.65-1.74,8.65,0.46c0,1.21-0.25,1.49-1.05,1.14
			c-0.72-0.32-1.13-0.02-1.32,0.96c-0.22,1.14-0.68,1.36-2.34,1.09c-1.21-0.19-2.82,0.16-3.85,0.85c-0.97,0.65-3.91,1.59-6.52,2.09
			c-6.4,1.22-12.55,2.92-15.76,4.37c-1.46,0.66-3,1.01-3.44,0.78c-0.43-0.23-0.95-0.2-1.14,0.06c-0.19,0.26-1.5,0.58-2.9,0.69
			c-1.4,0.11-2.89,0.6-3.31,1.07c-0.41,0.48-1.46,0.79-2.32,0.69c-0.86-0.1-2.19,0.06-2.96,0.35c-0.77,0.29-3.15,0.85-5.3,1.23
			c-5.51,0.98-13.6,2.94-15.91,3.85c-1.07,0.42-3.45,0.96-5.27,1.2c-3.73,0.48-6.88,1.43-11.7,3.55c-1.82,0.8-4.12,1.45-5.13,1.45
			c-1.01,0-1.98,0.35-2.17,0.77c-0.19,0.42-0.78,0.77-1.31,0.77c-0.53,0-1.95,0.69-3.16,1.54c-1.2,0.85-3.25,1.54-4.55,1.54
			c-1.3,0-2.5,0.31-2.67,0.68c-0.17,0.38-1.5,0.93-2.95,1.23c-1.46,0.3-3.31,1.02-4.11,1.59c-1.46,1.04-6.9,3.23-14.19,5.69
			c-2.15,0.73-4.59,1.94-5.42,2.69c-0.83,0.75-1.76,1.16-2.06,0.9c-0.3-0.26-1.38,0.03-2.4,0.62c-1.02,0.6-3.23,1.52-4.92,2.04
			c-1.69,0.52-3.32,1.21-3.63,1.53c-0.56,0.57-2.75,1.21-6.34,1.84c-1.03,0.18-2.15,0.71-2.48,1.17c-0.33,0.46-1.13,0.84-1.77,0.84
			c-0.64,0-1.75,0.57-2.47,1.27c-0.72,0.7-2.85,1.52-4.73,1.82c-1.88,0.3-5.56,1.31-8.16,2.25c-2.61,0.93-5.62,2-6.7,2.38
			c-1.07,0.38-3.21,1.26-4.74,1.96c-1.54,0.7-4.97,2.08-7.63,3.07c-2.66,0.99-5.34,2.17-5.96,2.63c-0.62,0.46-1.76,0.83-2.54,0.83
			c-0.78,0-1.86,0.66-2.41,1.46c-0.55,0.8-2,1.63-3.23,1.85c-2.19,0.39-3.28,0.77-8.93,3.13c-9.5,3.97-14.23,6.15-16.22,7.49
			c-1.25,0.83-2.89,1.52-3.66,1.52c-0.76,0-1.67,0.39-2.01,0.86c-0.34,0.47-1.71,1.14-3.04,1.49c-3.58,0.93-5.49,2.1-5.49,3.38
			c0,0.62,0.21,1.32,0.48,1.54c0.53,0.45,3.46-0.71,5.85-2.33c0.87-0.59,2.12-1.09,2.79-1.1c0.67-0.02,1.84-0.52,2.61-1.13
			c0.77-0.61,2.05-1.12,2.85-1.13c0.8-0.02,2.1-0.72,2.88-1.57c0.78-0.85,1.78-1.36,2.22-1.12c0.44,0.23,2.03-0.24,3.54-1.06
			c1.51-0.82,3.87-1.74,5.25-2.06c1.38-0.31,3.44-1.22,4.58-2.02c1.14-0.8,2.6-1.45,3.24-1.45c0.64,0,2.33-0.89,3.74-1.99
			c1.47-1.14,3.05-1.81,3.69-1.58c0.62,0.22,1.77-0.07,2.56-0.65c0.79-0.58,4.7-2.17,8.69-3.53c3.99-1.36,7.5-2.78,7.79-3.15
			c0.29-0.37,1.04-0.68,1.67-0.68c0.63,0,1.9-0.58,2.82-1.28c0.92-0.7,3.06-1.53,4.74-1.84c5.55-1.02,7.51-1.73,9.49-3.45
			c1.33-1.16,3.34-1.88,6.28-2.26c2.38-0.31,4.44-0.84,4.59-1.18c0.15-0.34,1.19-0.85,2.3-1.14c1.12-0.29,2.44-0.81,2.94-1.15
			c1.48-1.02,4.82-2.36,5.88-2.36c0.54,0,1.66-0.48,2.47-1.07c0.82-0.59,3.99-1.83,7.06-2.75c3.07-0.92,6.34-2.13,7.26-2.69
			c0.92-0.56,2.81-1.44,4.19-1.96s3.18-1.43,3.99-2.02c0.81-0.59,2.49-1.08,3.73-1.08c1.59,0,2.74-0.57,3.93-1.96
			c1.21-1.4,2.3-1.94,3.81-1.88c2.11,0.08,6.82-1.37,9.83-3.01c0.86-0.47,2.33-0.86,3.25-0.86c0.92,0,2.15-0.35,2.72-0.77
			c1.22-0.9,8.13-3.19,9.77-3.23c0.61-0.02,1.95-0.37,2.96-0.79c2.9-1.19,11.43-3.75,12.67-3.8c0.61-0.03,3-0.4,5.3-0.83
			c2.3-0.43,4.91-0.73,5.79-0.68c0.88,0.06,1.89-0.22,2.23-0.61c0.35-0.39,2.31-1.07,4.36-1.5c2.25-0.48,4.4-1.48,5.43-2.53
			c1.32-1.35,1.96-1.57,2.91-0.98c1.2,0.74,9.22-0.52,13.05-2.06c0.92-0.37,3.31-0.87,5.3-1.11l3.63-0.44l-3.35,1.9
			c-1.84,1.05-4.35,1.93-5.58,1.97c-1.23,0.03-3.86,0.6-5.86,1.24c-4.36,1.41-15.01,4.24-16.19,4.3c-0.46,0.02-2.69,0.54-4.95,1.16
			c-2.26,0.62-4.47,0.93-4.92,0.69c-0.45-0.24-1.53,0.09-2.42,0.72c-0.97,0.69-3.14,1.15-5.43,1.15c-2.1,0-4.08,0.35-4.38,0.77
			c-0.31,0.43-1.8,0.94-3.32,1.14c-4.31,0.56-8.23,1.6-9.46,2.49c-1.34,0.98-4.74,2.25-10.05,3.75c-2.15,0.61-4.41,1.42-5.02,1.79
			c-0.61,0.38-2.2,1.13-3.52,1.68c-1.32,0.55-2.53,1.28-2.68,1.63c-0.54,1.2,4.09,0.66,4.82-0.56c0.39-0.65,1.37-1.09,2.16-0.97
			c1.54,0.23,7.16-1.39,15.4-4.44c2.76-1.02,6.66-2.22,8.65-2.65c5.74-1.25,10.48-2.66,10.9-3.24c0.21-0.29,0.97-0.22,1.68,0.15
			c0.77,0.41,2.05,0.39,3.15-0.05c1.02-0.4,2.78-0.73,3.91-0.73c1.14,0,2.2-0.3,2.37-0.68c0.17-0.37,2.38-1.08,4.92-1.58
			c6.49-1.27,6.48-1.27,10.2-2.77c3.09-1.24,5.13-1.72,14.51-3.39c1.84-0.33,4.06-1,4.92-1.5c0.86-0.49,2.7-0.9,4.08-0.9
			c1.38,0,3.02-0.37,3.63-0.83c1.36-1.01,7.35-1.61,9.83-0.99c1.29,0.32,1.81,0.87,1.81,1.91c0,0.93-0.39,1.46-1.08,1.46
			c-1.5,0-2.07,1.59-0.96,2.7c0.5,0.51,0.75,1.15,0.55,1.43c-0.2,0.28-0.07,0.5,0.29,0.5c0.36,0,0.65,0.67,0.65,1.5
			c0,0.82,0.24,1.71,0.54,1.96c0.59,0.5-1.56,3.84-2.48,3.86c-1.13,0.03-4.2,2.15-4.2,2.9c0,0.46,1.33,0.64,3.35,0.44
			c1.84-0.19,3.35-0.05,3.35,0.29c0,0.34-0.77,0.63-1.71,0.63c-0.94,0-2.26,0.4-2.93,0.9c-1.17,0.87-3.13,1.48-4.85,1.52
			c-0.46,0.01-1.34,0.3-1.95,0.64c-0.61,0.34-3.12,1.03-5.58,1.54c-2.46,0.5-5.72,1.21-7.26,1.56c-1.53,0.35-4.55,1.04-6.7,1.53
			c-2.15,0.49-4.41,1.19-5.02,1.57c-0.61,0.38-2.87,0.91-5.02,1.2c-2.15,0.28-4.76,1-5.79,1.59c-1.04,0.59-3.17,1.1-4.75,1.13
			c-2.84,0.05-3.76,0.23-12.35,2.51c-4.91,1.3-6.78,1.76-11.61,2.87c-1.78,0.41-3.78,1.14-4.44,1.63c-0.66,0.49-2.09,0.97-3.18,1.08
			c-2.79,0.26-6.99,1.66-8.81,2.93c-0.85,0.59-3.05,1.29-4.89,1.55c-1.84,0.26-5.31,1.52-7.71,2.81c-2.4,1.29-4.98,2.34-5.75,2.34
			c-0.76,0-2.43,0.7-3.7,1.54c-1.27,0.85-2.83,1.55-3.46,1.55c-0.63,0-1.87,0.52-2.75,1.16c-0.88,0.63-1.99,1.15-2.48,1.15
			c-0.48,0-1.43,0.72-2.12,1.61c-0.95,1.23-1.48,1.43-2.27,0.85c-0.73-0.54-1.69-0.42-3.26,0.38c-1.23,0.63-3.17,1.42-4.31,1.75
			c-1.15,0.33-2.4,0.95-2.79,1.38c-0.39,0.43-1.97,1-3.51,1.27c-1.54,0.27-4.18,1.19-5.86,2.05c-1.68,0.86-4.44,1.87-6.12,2.24
			c-4.55,1.01-6.21,1.57-8.08,2.74c-0.93,0.58-2.57,1.29-3.64,1.59c-1.07,0.29-2.21,0.78-2.51,1.09c-0.31,0.31-2.44,1.02-4.74,1.58
			c-2.3,0.56-4.87,1.49-5.69,2.05c-0.83,0.57-2,1.04-2.6,1.04c-0.6,0-2.93,0.89-5.19,1.99c-2.25,1.1-6.23,2.82-8.84,3.84
			c-6.85,2.67-10.58,4.61-11.61,6.04c-0.84,1.16-0.82,1.25,0.26,1.25c0.64,0,2.09-0.53,3.21-1.18c1.13-0.65,2.28-0.99,2.56-0.75
			c0.28,0.24,1.35-0.05,2.38-0.64c1.03-0.59,3.61-1.68,5.75-2.42c2.13-0.74,4.2-1.71,4.6-2.16c0.4-0.45,1.5-0.94,2.45-1.08
			c0.95-0.14,2.82-0.78,4.17-1.41c1.35-0.63,2.82-1.15,3.26-1.15c0.44,0,2.38-0.68,4.31-1.5c1.93-0.83,8.75-3.29,15.17-5.47
			c6.42-2.18,12.07-4.27,12.56-4.63c1.4-1.04,9.72-4.6,10.75-4.6c0.51,0,2.14-0.73,3.63-1.62c1.48-0.89,4.07-2.12,5.74-2.73
			c1.67-0.61,3.35-1.47,3.74-1.92c0.39-0.44,1.16-0.61,1.71-0.37c0.55,0.24,1.72-0.08,2.6-0.71c0.88-0.63,2.13-1.15,2.77-1.15
			c0.65,0,2.19-0.49,3.43-1.08c1.24-0.59,3.38-1.5,4.76-2.02c1.38-0.52,3.79-1.61,5.35-2.43c1.56-0.82,4.07-1.63,5.58-1.81
			c1.51-0.18,3.98-0.86,5.49-1.51c1.51-0.65,3.4-1.18,4.2-1.18c0.8,0,1.99-0.51,2.63-1.13c0.64-0.63,1.89-1.11,2.78-1.08
			c0.88,0.03,2.7-0.34,4.03-0.82c2.73-0.98,6.46-1.84,15.43-3.54c5.83-1.1,10.15-2.29,12-3.31c0.46-0.25,1.59-0.53,2.51-0.61
			c0.92-0.08,4.94-1.08,8.93-2.21c3.99-1.13,8.76-2.23,10.61-2.43c1.84-0.21,3.98-0.7,4.75-1.09c1.85-0.96,13.01-3.95,15.56-4.18
			c1.11-0.1,2.4-0.39,2.86-0.66c1.8-1.04,5.22-2.03,5.67-1.65c0.88,0.75,0.48,1.89-0.92,2.63c-1.57,0.83-1.82,2.14-0.54,2.82
			c0.54,0.28,0.73,0.99,0.52,1.9c-0.61,2.64,0.24,4.6,1.88,4.37c1.32-0.19,1.47,0.03,1.33,1.91l-0.16,2.12l5.18,0.01
			c5.66,0.01,7.21,0.63,5.77,2.28c-1.1,1.26-1.11,2.82-0.02,3.4c0.62,0.33,0.8,1.48,0.71,4.46c-0.07,2.35,0.12,4.13,0.48,4.3
			c1.79,0.82,2.4,2.4,2.65,6.78c0.41,7.24,1.44,12.66,2.55,13.49c1.57,1.16,1.76,3.63,0.38,4.92c-0.96,0.91-1.06,1.32-0.5,2.12
			c0.39,0.55,0.7,2.13,0.7,3.51c0,1.51,0.36,2.79,0.9,3.21c0.74,0.57,0.78,1,0.24,2.41c-0.53,1.37-0.49,2.06,0.18,3.49
			c0.46,0.98,0.7,2.52,0.53,3.42c-0.23,1.22,0.02,1.8,0.99,2.3l1.3,0.66l-1.27,0.94c-1.72,1.27-1.24,2.68,1.06,3.15l1.9,0.39
			l-1.59,2.04c-0.88,1.12-1.45,2.37-1.27,2.77c0.61,1.37,6.39,2.76,9.4,2.27c3.19-0.52,6.04,0.64,6.04,2.47
			c0,0.74,0.46,0.94,1.53,0.65c2.09-0.55,5.16,1.31,5.16,3.13c0,1.53-1.92,4.82-2.81,4.82c-0.29,0-0.54,0.67-0.54,1.5
			c0,2.03-1.14,2.87-1.77,1.31c-0.67-1.66-1.8-1.64-1.33,0.02c0.2,0.71,0.03,1.58-0.36,1.93c-0.71,0.63-0.24,1.41,1.52,2.51
			c0.31,0.19,0.12,0.85-0.42,1.45c-1.72,1.93-1.57,2.01,3.98,2.11c2.23,0.04,2.35,0.14,1.4,1.14c-0.58,0.6-1.49,1.11-2.02,1.12
			c-1.05,0.03-1.3,1.56-0.46,2.76c0.28,0.4,0.69,2.04,0.9,3.63c0.36,2.73,0.31,2.9-1.05,2.9c-0.83,0-1.67,0.61-2,1.44
			c-0.68,1.76-0.28,2.42,1.49,2.42c1.09,0,1.27,0.29,0.99,1.54c-0.27,1.19-0.1,1.54,0.77,1.54c1.17,0,2.1,1.31,1.51,2.12
			c-0.19,0.26-0.64,0.06-1-0.44c-0.36-0.5-0.99-0.91-1.39-0.91c-1.09,0-0.87,3.07,0.25,3.55c0.54,0.23,1.39,0.72,1.89,1.09
			c0.5,0.37,1.51,0.47,2.23,0.22c1.08-0.36,1.2-0.26,0.62,0.59c-0.38,0.57-0.7,1.63-0.7,2.36s0.31,1.51,0.7,1.74
			c0.38,0.23,0.03,0.23-0.79,0c-1.12-0.32-1.64-0.04-2.09,1.14c-0.76,1.96,0.06,2.82,1.6,1.68c0.89-0.66,1.22-0.53,1.69,0.69
			c0.97,2.5,0.72,4.69-0.54,4.69c-1.33,0-1.46,1.73-0.26,3.39c0.59,0.81,1.4,1.04,2.59,0.71c1.33-0.37,1.67-0.23,1.46,0.6
			c-0.15,0.6-0.97,1.08-1.84,1.08c-0.87,0-1.68,0.43-1.81,0.96c-0.13,0.53-0.7,0.96-1.27,0.96c-1.35,0-1.62,0.7-1.26,3.29
			c0.16,1.18,0.66,2.12,1.12,2.12c0.5,0,0.71-0.45,0.52-1.12c-0.78-2.83,3.77,1.5,5.34,5.08c0.76,1.74,1.29,2.21,1.99,1.79
			c0.53-0.31,1.46-0.56,2.07-0.56c0.61,0.01,5.51-0.63,10.88-1.43c10.66-1.57,15.67-1.8,17.17-0.8c3.88,2.59,4.31,3.02,4.15,4.23
			c-0.11,0.86,0.21,1.3,0.95,1.3c1.68,0,1.87,1.19,0.65,3.96c-0.83,1.89-0.95,2.77-0.49,3.55c0.47,0.78,0.37,1.28-0.39,2.04
			c-0.73,0.74-0.82,1.17-0.33,1.59c0.52,0.44,0.51,0.84-0.03,1.74c-0.58,0.96-0.47,1.39,0.58,2.49c1.14,1.19,1.18,1.43,0.39,2.34
			c-1.1,1.27-1.13,3.17-0.06,5.11c0.95,1.74,1.11,4.66,0.29,5.36c-0.91,0.78-0.41,5.07,0.69,5.88c1.33,0.98,1.26,2.78-0.12,3.38
			c-1.29,0.56-1.52,2.7-0.3,2.7c1.19,0,2.3,3.1,1.39,3.88c-0.52,0.44-0.31,1.1,0.78,2.5c1.67,2.14,1.84,2.88,0.69,2.88
			c-0.44,0-0.96,1.11-1.18,2.51c-0.21,1.38-0.62,2.91-0.91,3.4c-0.33,0.56-0.3,1.08,0.07,1.4c0.32,0.28,0.58-0.07,0.58-0.77
			c0-1.94,1.33-0.9,1.95,1.54c0.47,1.85,0.37,2.33-0.7,3.31c-1.6,1.47-1.58,3.08,0.07,5.55c1.69,2.52,2.4,6.22,1.2,6.22
			c-0.6,0-0.85,0.8-0.85,2.7c0,1.49,0.25,2.7,0.56,2.7c0.31,0,0.56,0.5,0.56,1.12c0,0.62,0.44,1.46,0.98,1.88
			c0.92,0.72,0.92,0.83-0.07,1.84c-0.84,0.86-0.93,1.38-0.44,2.63c0.44,1.14,0.43,1.8-0.06,2.47c-0.51,0.7-0.5,1.26,0.02,2.4
			c0.37,0.82,0.53,2.03,0.34,2.69c-0.18,0.66-0.07,1.63,0.24,2.16c0.32,0.53,0.76,3.14,0.97,5.81c0.28,3.47,0.68,5.05,1.39,5.58
			c0.85,0.63,0.91,1.07,0.36,3.08c-0.49,1.79-0.48,2.69,0.05,3.86c0.89,1.96,0.86,2.31-0.15,2.31c-0.55,0-0.84,0.77-0.84,2.26
			c0,2.07-0.25,2.36-3.02,3.47c-1.66,0.67-3.4,1.21-3.86,1.21c-0.47,0-1.56,0.81-2.43,1.81c-1.44,1.65-2.3,1.86-9.58,2.33
			c-7.59,0.49-13.53,2.17-15.47,4.39c-0.32,0.37-2,1.18-3.73,1.8c-5.22,1.88-6.33,3.13-4.58,5.14c0.79,0.91,0.79,1.06,0,1.68
			c-0.48,0.37-0.87,1.16-0.87,1.75c0,1.75,1.14,2.2,1.91,0.74c0.59-1.12,0.8-1.17,1.21-0.27c0.78,1.71,0.75,5.33-0.04,5.33
			c-0.39,0-1.03,0.54-1.42,1.2c-0.61,1.01-0.54,1.26,0.43,1.61c0.8,0.29,1.06,0.86,0.86,1.89c-0.15,0.81-0.53,1.48-0.83,1.48
			c-0.3,0,0.04,0.86,0.76,1.92c0.72,1.05,1.63,1.92,2.01,1.93c0.38,0.01,0.7,0.4,0.7,0.87c0,0.53-0.53,0.67-1.4,0.37
			c-1.6-0.56-1.86,0.69-0.62,3.03c0.9,1.7,0.58,3.32-1.03,5.15c-1.13,1.3-1.12,1.34,1.51,4.85c1.46,1.95,2.65,4.22,2.65,5.06
			c0,0.83,0.25,1.52,0.56,1.52c0.31,0,0.56,0.69,0.56,1.54c0,1.6-1.35,2.13-1.95,0.77c-0.8-1.78-1.26-0.59-0.53,1.35
			c0.44,1.17,0.8,2.54,0.8,3.04c0,1.66-1.17,1.97-1.94,0.51c-0.92-1.74-1.64-0.98-1.14,1.21c0.2,0.88,0.83,1.6,1.4,1.6
			c0.57,0,1.44,0.22,1.94,0.48c0.82,0.44,0.81,0.58-0.1,1.43c-0.55,0.52-1.69,1.18-2.54,1.46c-0.84,0.28-1.53,1.03-1.53,1.66
			c0,1.39,1.19,1.49,2.16,0.18c0.57-0.77,0.84-0.72,1.37,0.24c0.36,0.66,1.13,1.45,1.71,1.75c0.9,0.47,1,1.07,0.68,4.33
			c-0.23,2.4-0.14,3.98,0.24,4.3c0.73,0.63-0.35,2.69-1.41,2.69c-0.9,0-2.23,2.19-1.74,2.87c0.21,0.29,1.41,0.43,2.68,0.33
			c2.02-0.16,2.22-0.04,1.6,1c-0.39,0.65-0.56,1.73-0.38,2.38c0.22,0.8-0.13,1.43-1.05,1.92c-0.76,0.4-1.38,1.05-1.38,1.44
			c0,0.97,1.5,1.69,2.47,1.18c1.07-0.57,3.11,1.02,3.11,2.43c0,0.62-0.25,1.13-0.56,1.13c-0.31,0-0.56-0.55-0.56-1.21
			c0-0.72-0.38-1.11-0.94-0.96c-1.35,0.36-2.53,7.16-1.85,10.63c0.4,2,0.34,2.96-0.24,3.86c-0.42,0.66-0.86,2.05-0.96,3.09
			c-0.17,1.66-0.62,1.99-3.82,2.8c-2,0.5-7.48,1.55-12.18,2.32c-7.15,1.18-8.63,1.23-9.02,0.36c-0.38-0.85-2.23-0.94-9.82-0.5
			c-5.14,0.3-9.75,0.84-10.24,1.2c-0.49,0.36-3.37,0.87-6.4,1.13c-3.03,0.27-5.7,0.64-5.93,0.83c-0.95,0.81-12.23,2.73-20.45,3.48
			c-4.87,0.44-10.61,1.13-12.76,1.53c-2.15,0.4-5.59,0.74-7.65,0.75c-2.06,0.01-4.32,0.34-5.02,0.72c-0.7,0.38-4.04,1.26-7.42,1.95
			c-5.78,1.18-8,1.53-15.27,2.4c-1.64,0.2-3.2,0.54-3.45,0.76c-1.32,1.13-14.66,4.58-26.77,6.94c-3.22,0.63-7.37,1.65-9.21,2.28
			c-3.64,1.24-18.04,4.42-26.51,5.85c-2.92,0.49-10.45,2.24-16.75,3.88c-6.29,1.64-15.21,3.52-19.82,4.16
			c-4.6,0.65-11.01,1.55-14.23,2c-3.22,0.45-10.88,2.16-17.02,3.79c-6.14,1.63-13.42,3.37-16.19,3.86
			c-2.76,0.49-9.54,2.21-15.07,3.83c-11.32,3.33-12,3.42-12,1.57L323.28,601.36z M346.17,590.59c0-0.42-0.36-0.77-0.8-0.77
			c-0.44,0-0.96,0.35-1.15,0.77c-0.19,0.42,0.17,0.77,0.8,0.77C345.65,591.36,346.17,591.01,346.17,590.59z M350.94,590.26
			c1.03-1.05,1.04-1.13,0.07-1.64c-1.14-0.61-3.73,0.75-3.73,1.96C347.28,591.74,349.7,591.53,350.94,590.26L350.94,590.26z
			 M357.19,590.1c0.69-0.25,1.26-0.97,1.26-1.58c0-1.73-4.12-1.05-4.36,0.72C353.89,590.67,354.9,590.95,357.19,590.1z
			 M362.08,587.5c0.19-0.42-0.03-0.77-0.49-0.77c-0.46,0-0.99,0.35-1.18,0.77c-0.19,0.42,0.03,0.77,0.49,0.77
			C361.35,588.27,361.89,587.93,362.08,587.5z M369.87,585.47c1.04-1,0.99-1.06-0.66-1.06c-2.34,0-4.79,1.33-4.33,2.36
			C365.33,587.76,368.3,586.99,369.87,585.47z M374.55,584.5c0.55-0.49,0.58-0.81,0.11-1.22c-0.8-0.68-2.27,0.03-2.27,1.11
			C372.4,585.35,373.51,585.41,374.55,584.5L374.55,584.5z M380.74,583.34c1.5-0.75,1.71-1.07,0.97-1.46
			c-1.4-0.74-4.29,0.25-4.29,1.48C377.43,584.62,378.18,584.62,380.74,583.34L380.74,583.34z M397.2,581.29
			c1.08-1.47-0.34-1.62-6.48-0.69c-8.81,1.34-9.35,2.3-1.02,1.81C393.54,582.18,396.92,581.68,397.2,581.29z M363.11,579.4
			c1.1-0.64,2.95-1.16,4.11-1.16c1.16,0,2.83-0.52,3.71-1.16c0.88-0.64,2.51-1.16,3.63-1.17c1.12-0.01,4.67-0.53,7.89-1.17
			c3.22-0.64,8.5-1.53,11.72-1.99c11.73-1.67,19.58-3.25,20.63-4.14c2.07-1.77-0.94-2.57-4.44-1.18c-1.07,0.42-3.96,1.13-6.42,1.57
			c-2.46,0.44-6.4,1.14-8.75,1.56c-2.35,0.42-6.75,0.89-9.77,1.05c-3.02,0.16-7.5,0.85-9.95,1.52c-2.46,0.68-5.85,1.61-7.54,2.07
			c-7.67,2.09-9.83,3.19-9.17,4.66C359.22,580.88,360.84,580.7,363.11,579.4L363.11,579.4z M411.14,578.81
			c1.93-1.37-0.39-2.32-3.15-1.3c-2.92,1.08-3.32,1.41-2.91,2.33C405.44,580.65,409.53,579.96,411.14,578.81z M417.89,576.69
			c0.19-0.42-0.05-0.77-0.52-0.77c-0.48,0-0.87,0.35-0.87,0.77c0,0.42,0.24,0.77,0.52,0.77
			C417.31,577.47,417.7,577.12,417.89,576.69L417.89,576.69z M423.26,575.43c2.27-0.5,3.57-1.83,1.79-1.82
			c-1.69,0.01-5.13,1.54-5.55,2.47c-0.26,0.58-0.07,0.7,0.59,0.36C420.62,576.15,422.05,575.7,423.26,575.43L423.26,575.43z
			 M342.54,575.15c0.19-0.42-0.05-0.77-0.53-0.77c-0.48,0-0.87,0.35-0.87,0.77c0,0.42,0.24,0.77,0.53,0.77
			C341.96,575.92,342.35,575.58,342.54,575.15z M216.65,572.48c0.56-0.93,0.42-1.22-0.78-1.63c-1.41-0.49-3.11,0.64-3.11,2.08
			C212.76,574.05,215.93,573.69,216.65,572.48L216.65,572.48z M439.24,573.12c1.67-0.62,1.61-1.83-0.09-1.83
			c-1.83,0-3.18,0.78-2.8,1.62C436.7,573.72,437.48,573.77,439.24,573.12L439.24,573.12z M360.96,571.29
			c0.19-0.42-0.03-0.77-0.49-0.77c-0.46,0-0.99,0.35-1.18,0.77c-0.19,0.42,0.03,0.77,0.49,0.77
			C360.24,572.06,360.77,571.72,360.96,571.29z M452.08,570.53c0.38-0.01,0.7-0.4,0.7-0.88c0-1.08-4.48-0.22-5.3,1.01
			c-0.4,0.59,0.09,0.69,1.67,0.36C450.38,570.75,451.7,570.53,452.08,570.53L452.08,570.53z M222.25,569.75
			c0-0.42-0.36-0.77-0.8-0.77c-0.44,0-0.96,0.35-1.15,0.77c-0.19,0.42,0.17,0.77,0.8,0.77
			C221.74,570.52,222.25,570.17,222.25,569.75z M366.26,569.75c0-0.42-0.36-0.77-0.8-0.77c-0.44,0-0.96,0.35-1.15,0.77
			c-0.19,0.42,0.17,0.77,0.8,0.77C365.74,570.52,366.26,570.17,366.26,569.75z M420.26,566.47c-0.13-0.53-0.69-0.97-1.26-0.97
			c-0.56,0-1.13,0.44-1.26,0.97c-0.15,0.61,0.31,0.96,1.26,0.96C419.95,567.43,420.41,567.08,420.26,566.47z M468.13,566.66
			c-0.19-0.42-0.58-0.77-0.87-0.77c-0.29,0-0.53,0.35-0.53,0.77s0.39,0.77,0.87,0.77S468.32,567.08,468.13,566.66z M473.85,566.94
			c1.92-0.71,1.49-1.83-0.7-1.83c-1.85,0-2.42,0.65-1.58,1.8C472.02,567.54,472.24,567.54,473.85,566.94L473.85,566.94z
			 M387.75,565.89c0.19-0.42-0.05-0.77-0.53-0.77c-0.48,0-0.87,0.35-0.87,0.77s0.24,0.77,0.53,0.77
			C387.17,566.66,387.56,566.31,387.75,565.89L387.75,565.89z M394.45,565.11c-0.19-0.42-0.71-0.77-1.15-0.77
			c-0.44,0-0.8,0.35-0.8,0.77c0,0.42,0.52,0.77,1.15,0.77C394.28,565.89,394.64,565.54,394.45,565.11z M425.04,565.13
			c0.58-0.01,0.85-0.36,0.64-0.84c-0.42-0.94-3.02-0.28-3.88,0.99c-0.39,0.58-0.14,0.68,0.84,0.34
			C423.4,565.35,424.49,565.13,425.04,565.13z M234.65,562.98c-1.05-0.48-2.48,0.45-2.07,1.36c0.23,0.51,0.76,0.47,1.57-0.12
			C234.94,563.63,235.11,563.2,234.65,562.98L234.65,562.98z M348.51,563.23c0.87-0.5,1.41-1.16,1.2-1.45
			c-0.67-0.93-4.91-0.51-5.95,0.59c-0.98,1.03-0.98,1.09,0,1.88C344.79,565.07,345.68,564.88,348.51,563.23z M377.03,563.78
			c3.89-0.53,3.11-2.18-0.94-1.97c-3.58,0.19-4.26,0.55-4.26,2.28c0,0.9,0.31,1.06,1.26,0.63
			C373.79,564.4,375.56,563.98,377.03,563.78z M431.21,563.96c0.24-0.87-0.09-1.16-1.3-1.16c-1.62,0-2.53,0.89-1.86,1.82
			C428.73,565.56,430.89,565.11,431.21,563.96z M440.78,563.16c7.37-1.26,10.99-3.73,4.43-3.02c-2.13,0.23-4.75,0.75-5.83,1.15
			c-1.07,0.4-2.88,0.74-4.01,0.74c-2.03,0-3.02,0.82-2.27,1.86c0.21,0.29,1.65,0.31,3.19,0.05
			C437.84,563.66,439.86,563.32,440.78,563.16L440.78,563.16z M358.71,561.62c2.44-0.64,4.67-1.47,4.95-1.86
			c0.28-0.38,0.82-0.53,1.21-0.32c0.39,0.21,1.68-0.35,2.86-1.24l2.16-1.61l-2.51,0.43c-7.63,1.32-15.81,3.42-16.39,4.21
			c-0.88,1.21,0.28,2.5,1.8,2.01C353.6,562.99,356.26,562.25,358.71,561.62L358.71,561.62z M411.85,561.82
			c0.23-0.52-0.12-0.63-0.98-0.31c-0.74,0.27-1.66,0.5-2.04,0.51c-0.38,0.01-0.7,0.3-0.7,0.65
			C408.12,563.55,411.4,562.8,411.85,561.82z M386.79,561.37c0.16-0.66-0.11-0.94-0.75-0.77c-0.55,0.15-1.11,0.74-1.24,1.31
			c-0.16,0.66,0.11,0.94,0.75,0.77C386.09,562.53,386.66,561.95,386.79,561.37L386.79,561.37z M488.5,562.03
			c0-0.42-0.24-0.77-0.53-0.77c-0.29,0-0.68,0.35-0.87,0.77c-0.19,0.42,0.05,0.77,0.53,0.77C488.11,562.8,488.5,562.45,488.5,562.03
			z M457.24,559.74c1.69-0.44,4.95-1.16,7.26-1.6c9.78-1.85,12.05-2.3,12.84-2.56c0.46-0.15,1.84-0.52,3.07-0.83
			c1.23-0.31,2.78-0.93,3.45-1.38c0.67-0.45,1.62-0.6,2.12-0.34c0.56,0.3,1.42-0.23,2.23-1.36c0.9-1.25,1.41-1.53,1.59-0.88
			c0.29,1.03,6.03,0.33,8.74-1.08c1.39-0.72,8.11-1.65,11.62-1.6c1.01,0.01,2.3-0.31,2.84-0.72c0.55-0.41,2.29-0.88,3.86-1.05
			c1.57-0.17,3.18-0.67,3.57-1.11c0.39-0.44,2.41-0.77,4.49-0.74c2.22,0.03,4.05-0.32,4.44-0.86c0.36-0.5,1.11-0.92,1.67-0.92
			c0.55,0,1.01-0.33,1.01-0.73c0-0.82,3.1-0.6,4.65,0.33c0.56,0.34,3.07,0.38,5.58,0.1c2.51-0.28,6.56-0.69,9-0.91
			c2.44-0.22,5.46-0.73,6.7-1.12c1.24-0.4,3.19-0.73,4.32-0.74c1.13-0.01,2.23-0.4,2.44-0.86c0.22-0.5,1.12-0.65,2.22-0.36
			c1.1,0.29,2,0.14,2.22-0.36c0.22-0.49,1.04-0.64,1.95-0.36c0.86,0.26,3.04,0.11,4.83-0.33c1.79-0.44,4.77-0.84,6.61-0.89
			c1.84-0.05,4.81-0.78,6.59-1.62c1.78-0.85,4.25-1.64,5.49-1.77c2.55-0.26,3.57-1.28,3.07-3.08c-0.3-1.07-1.31-1.18-7.75-0.82
			c-4.07,0.22-9.42,0.74-11.87,1.15c-2.46,0.41-7.48,1.15-11.16,1.64c-3.68,0.49-7.42,1.4-8.3,2.02c-0.88,0.62-2.12,0.94-2.75,0.71
			c-0.63-0.23-1.87,0.17-2.75,0.89c-1.34,1.1-1.68,1.13-2.08,0.23c-0.38-0.85-1.48-0.96-5.42-0.51c-2.72,0.31-5.57,0.55-6.34,0.54
			c-0.77-0.01-2.28,0.38-3.35,0.88c-1.07,0.49-2.96,0.95-4.19,1.02c-8.26,0.45-14.52,1.25-18.14,2.29c-2.3,0.66-6.55,1.36-9.44,1.55
			c-3.06,0.2-5.95,0.83-6.92,1.5c-0.92,0.64-2.32,1.16-3.11,1.16c-1.61,0-12.93,2.69-16.81,4c-2.57,0.86-6.25,1.8-10.47,2.66
			c-2.58,0.53-3.05,1.42-1.19,2.24c3.16,1.39-3.55,3.84-12.23,4.47c-2.31,0.17-3.74,1.59-3.08,3.07
			C450.67,561.4,451.28,561.31,457.24,559.74z M420.96,559.71c0.65-0.58,0.5-0.75-0.7-0.76c-0.85-0.01-1.54,0.33-1.54,0.76
			C418.73,560.69,419.87,560.69,420.96,559.71z M429.27,559.02c1.15-1.01,0.18-2.54-1.23-1.94c-1.56,0.66-1.67,0.83-1.23,1.81
			C427.24,559.88,428.22,559.93,429.27,559.02L429.27,559.02z M435.18,558.2c0.18-0.41,0.7-0.54,1.15-0.3
			c0.45,0.24,1.26,0.19,1.8-0.12c0.93-0.52,0.93-0.58,0-1.05c-0.53-0.28-2.11-0.38-3.51-0.22c-2.1,0.23-2.43,0.47-1.89,1.36
			C433.47,559.11,434.69,559.28,435.18,558.2L435.18,558.2z M215,556.57c0.56-0.45-0.13-0.68-2.05-0.7c-3.29-0.03-4.8,0.56-4.3,1.68
			C209.02,558.39,213.62,557.69,215,556.57L215,556.57z M357.61,555.56c0.61-0.47,1.37-0.89,1.67-0.93
			c0.52-0.07,0.97-0.28,3.07-1.42c0.46-0.25-0.1-0.3-1.25-0.11c-1.15,0.19-2.23,0.02-2.41-0.38c-0.59-1.31-2.28-0.75-3.61,1.21
			c-0.81,1.19-1.92,1.93-2.92,1.93c-0.9,0-1.46,0.33-1.27,0.75C351.31,557.51,356.02,556.77,357.61,555.56L357.61,555.56z
			 M379.31,556.11c2.8-0.27,5.72-0.83,6.48-1.25l1.4-0.77l-1.4-0.57c-1.83-0.74-6.02-0.05-7.97,1.31c-0.85,0.6-1.78,0.88-2.07,0.64
			c-0.74-0.63-3.36,0.4-3.36,1.32c0,0.42,0.41,0.55,0.91,0.29C373.82,556.81,376.52,556.38,379.31,556.11z M415.66,556.62
			c0.19-0.44-0.27-0.77-1.08-0.77c-0.79,0-1.43,0.35-1.43,0.77c0,0.42,0.49,0.77,1.08,0.77
			C414.83,557.4,415.47,557.05,415.66,556.62L415.66,556.62z M449.18,555.79c0.75-1.68-0.65-2.28-2.44-1.05
			c-0.98,0.67-1.78,1.38-1.78,1.56C444.96,557.03,448.83,556.56,449.18,555.79L449.18,555.79z M455.26,554.23
			c0.32-0.41-0.41-0.69-1.82-0.69c-1.76,0-2.34,0.3-2.34,1.22c0,0.97,0.37,1.11,1.81,0.69
			C453.92,555.16,454.97,554.61,455.26,554.23z M222.21,554.2c1.1-0.48,4.25-2.22,7.02-3.87c2.76-1.65,5.36-2.99,5.78-2.98
			c0.41,0.01,3.23-1.37,6.26-3.06c3.03-1.69,5.87-2.88,6.31-2.65c0.44,0.24,1.57-0.12,2.5-0.79c0.93-0.67,2.58-1.21,3.65-1.21
			c1.07,0,2.53-0.31,3.24-0.69c1.22-0.66,5.7-2.04,12.98-4c3.7-0.99,5.88-2.16,5.88-3.15c0-0.72-4.1-0.19-7.53,0.98
			c-5.21,1.77-9.62,3.06-11.44,3.34c-1.07,0.16-2.71,0.72-3.63,1.24c-0.92,0.52-2.55,1.22-3.63,1.55c-3.35,1.04-4.14,1.35-5.86,2.28
			c-0.92,0.5-2.39,1.04-3.27,1.2c-2.29,0.42-3.57,1.01-7.34,3.41c-1.84,1.18-4.48,2.74-5.86,3.49s-3.01,1.62-3.63,1.95
			c-0.61,0.33-1.94,1.03-2.94,1.55C217.01,554.71,218.3,555.93,222.21,554.2L222.21,554.2z M462.69,553.35
			c1.48-1.63,0.66-2.26-2.23-1.73c-3.08,0.57-4.53,1.6-3.99,2.81C456.85,555.3,461.68,554.45,462.69,553.35z M391.66,553.54
			c-0.19-0.42-0.83-0.77-1.43-0.77c-0.6,0-1.08,0.35-1.08,0.77c0,0.42,0.64,0.77,1.43,0.77
			C391.38,554.31,391.85,553.97,391.66,553.54z M398.57,553.23c1.64-1.26,0.75-2.24-1.45-1.6c-0.86,0.25-2.18,0.63-2.93,0.85
			c-1.08,0.31-1.2,0.54-0.56,1.1C394.79,554.58,397.02,554.43,398.57,553.23L398.57,553.23z M368.17,552.37
			c0.59-0.62,1.62-0.92,2.31-0.69c0.68,0.24,1.42,0.04,1.63-0.44c0.29-0.65,0.58-0.65,1.15,0c0.58,0.66,1.09,0.54,2.16-0.54
			c1.86-1.87,1.81-2.9-0.09-2.16c-0.85,0.32-2.92,0.68-4.6,0.79c-4.1,0.27-4.07,0.27-4.99,1.07c-0.66,0.58-0.68,0.91-0.07,1.92
			C366.55,553.79,366.8,553.8,368.17,552.37L368.17,552.37z M403.8,551.61c-0.21-1.15-2.52-0.94-2.81,0.25
			c-0.17,0.73,0.22,0.95,1.35,0.77C403.22,552.49,403.87,552.03,403.8,551.61L403.8,551.61z M550.74,551.22
			c-0.19-0.42-0.69-0.77-1.12-0.77c-0.42,0-0.93,0.35-1.12,0.77c-0.2,0.44,0.29,0.77,1.12,0.77
			C550.45,551.99,550.93,551.66,550.74,551.22z M324.4,549.97c0-0.16-0.5-0.3-1.12-0.3c-0.61,0-1.12,0.31-1.12,0.7
			c0,0.38,0.5,0.52,1.12,0.3C323.9,550.45,324.4,550.14,324.4,549.97z M385.94,548.59c1.15-0.35,2.09-0.96,2.09-1.35
			c0-0.84-3.93-0.03-4.71,0.98c-0.3,0.38-0.95,0.14-1.52-0.59c-0.82-1.02-1.16-1.07-1.85-0.28c-0.47,0.53-0.85,1.21-0.85,1.49
			C379.1,549.54,383.32,549.38,385.94,548.59z M414.54,548.9c1.42-0.85-0.05-0.85-1.95,0c-1.12,0.5-1.18,0.62-0.28,0.64
			C412.93,549.56,413.93,549.27,414.54,548.9L414.54,548.9z M329.98,548.13c0-0.42-0.5-0.77-1.12-0.77c-0.61,0-1.12,0.35-1.12,0.77
			c0,0.42,0.5,0.77,1.12,0.77C329.48,548.9,329.98,548.56,329.98,548.13z M339.7,546.12c0.49-0.26,0.88-0.8,0.88-1.21
			c0-1.07-2.38-0.43-2.66,0.72C337.68,546.67,338.32,546.85,339.7,546.12z M351.33,543.73c2.68-0.7,1.66-1.56-1.4-1.17
			c-3.33,0.42-3.47,0.51-2.92,1.73c0.23,0.52,0.89,0.67,1.59,0.36C349.26,544.36,350.49,543.95,351.33,543.73z M361.55,540.78
			c1.03-1.12,1.01-1.17-0.55-0.97c-0.9,0.12-1.73,0.65-1.86,1.18C358.82,542.33,360.24,542.2,361.55,540.78L361.55,540.78z
			 M367.94,538.87c0-0.42-0.5-0.77-1.12-0.77c-0.61,0-1.11,0.35-1.11,0.77c0,0.42,0.5,0.77,1.11,0.77
			C367.43,539.64,367.94,539.29,367.94,538.87z M372.76,538.1c0.15,0,0.13-0.32-0.05-0.7c-0.17-0.38-0.81-0.52-1.42-0.3
			c-0.61,0.22-0.96,0.73-0.78,1.14c0.18,0.41,0.7,0.54,1.16,0.3C372.12,538.29,372.61,538.1,372.76,538.1L372.76,538.1z
			 M378.15,536.47c-0.44-0.61-0.91-0.62-1.65-0.02c-0.9,0.73-0.83,0.83,0.62,0.85C378.32,537.32,378.6,537.09,378.15,536.47
			L378.15,536.47z M390.67,536.23c5.46-0.57,11.51-2.54,8.26-2.69c-2.14-0.1-17.1,1.48-18.06,1.9c-0.4,0.18-0.62,0.59-0.47,0.91
			C380.71,537.03,383.36,536.99,390.67,536.23z M409.31,531.9c2.65-1.24,2.79-1.42,1.25-1.47c-2.05-0.06-7.46,2.21-7.46,3.13
			C403.1,534.36,405.4,533.74,409.31,531.9z M282.6,531.08c1.65-0.47,3.38-0.84,3.85-0.83c0.87,0.01,5.16-1.01,9.49-2.26
			c4.34-1.26,8.93-3.27,8.93-3.93c0-0.72-4.53-0.29-8.65,0.81c-1.53,0.41-4.24,1.11-6.01,1.55c-1.77,0.44-3.53,1.08-3.91,1.42
			c-0.38,0.34-2.43,0.96-4.55,1.39c-2.16,0.43-3.97,1.2-4.09,1.74C277.36,532.15,278.67,532.18,282.6,531.08L282.6,531.08z
			 M422.23,529.47c1.77-0.47,3.35-1.13,3.5-1.46c0.41-0.92-0.76-1.66-1.55-0.99c-0.38,0.33-1.5,0.49-2.5,0.38
			c-1.83-0.22-4.66,0.77-7.7,2.69c-1.59,1-1.5,1.04,1.67,0.65C417.5,530.51,420.46,529.94,422.23,529.47L422.23,529.47z
			 M434.82,527.69c3.94-0.24,6.8-1.37,6.8-2.69c0-0.97-2.15-0.95-5.86,0.05c-1.53,0.41-3.61,0.73-4.61,0.7
			c-2.13-0.06-4.22,1.29-3.73,2.4c0.19,0.44,1.08,0.56,2.01,0.27C430.34,528.14,432.77,527.81,434.82,527.69z M444.96,524.97
			c0-0.42-0.38-0.77-0.84-0.77c-0.46,0-0.84,0.35-0.84,0.77c0,0.42,0.38,0.77,0.84,0.77C444.59,525.75,444.96,525.4,444.96,524.97z
			 M461.47,523.21c0.94-0.16,2.07-0.6,2.51-0.99c0.44-0.38,3.08-0.76,5.88-0.85c3.08-0.09,5.89-0.62,7.14-1.34
			c1.14-0.66,4.12-1.4,6.64-1.66c3.02-0.31,4.92-0.89,5.57-1.7c0.54-0.68,2.05-1.32,3.35-1.43c3.6-0.31,6.72-1.21,7.82-2.25
			c0.9-0.85,0.83-0.99-0.7-1.41c-1.89-0.52-4.97,0.1-5.99,1.21c-0.37,0.4-1.2,0.5-1.84,0.21c-0.64-0.28-1.47-0.19-1.84,0.2
			c-0.37,0.39-1.8,0.78-3.18,0.88c-1.38,0.09-3.27,0.79-4.2,1.54c-0.93,0.75-2.94,1.43-4.46,1.51c-1.53,0.07-5.29,0.78-8.36,1.58
			c-3.07,0.8-6.21,1.45-6.98,1.45c-6.12,0.02-10.6,1.41-10.6,3.27C452.22,523.98,457.71,523.85,461.47,523.21L461.47,523.21z
			 M502.18,517.26c0.19-0.42-0.19-0.77-0.84-0.77c-0.65,0-1.03,0.35-0.84,0.77c0.19,0.42,0.57,0.77,0.84,0.77
			C501.61,518.03,501.99,517.68,502.18,517.26z M471.48,515.71c0.19-0.42-0.05-0.77-0.53-0.77c-0.48,0-0.87,0.35-0.87,0.77
			c0,0.42,0.24,0.77,0.53,0.77C470.9,516.48,471.29,516.14,471.48,515.71z M511.39,515.84c0-1.09-0.63-1.59-1.45-1.15
			c-1.17,0.62-0.94,1.79,0.33,1.79C510.88,516.48,511.39,516.19,511.39,515.84z M517.4,514.02c-0.35-1.43-1.55-1.67-1.55-0.31
			c0,0.67,0.4,1.22,0.88,1.22C517.22,514.94,517.52,514.52,517.4,514.02L517.4,514.02z M509.96,512.87
			c3.78-0.33,5.69-0.74,8.68-1.85c1.38-0.51,3.77-1.02,5.3-1.12c12.33-0.82,16.08-1.2,16.65-1.69c0.36-0.31,2.41-0.68,4.56-0.82
			c6.45-0.41,7.22-0.53,8.07-1.29c0.45-0.4,2.16-0.67,3.8-0.61c1.64,0.06,3.65-0.24,4.45-0.66c1.77-0.93,10.29-1.57,11.15-0.84
			c0.34,0.29,0.64,0.78,0.67,1.1c0.03,0.32,0.24,0.49,0.47,0.39c0.23-0.11,0.34-0.61,0.26-1.12c-0.09-0.53,0.74-1.13,1.96-1.41
			c3.34-0.77,3.78-1.06,3.07-2.05c-0.46-0.64-2.49-0.62-7.77,0.08c-3.93,0.52-8.52,1.1-10.21,1.3c-3.67,0.42-5.99,0.81-6.56,1.11
			c-0.23,0.12-1.55,0.3-2.93,0.4c-2.21,0.16-6.95,0.66-20.09,2.14c-11.07,1.25-16.68,2.14-18.42,2.94c-1.07,0.49-3.71,1.1-5.86,1.36
			c-3.04,0.36-3.94,0.75-4.08,1.76c-0.12,0.92,0.28,1.38,1.39,1.57c0.86,0.15,1.81,0.11,2.1-0.08
			C506.9,513.28,508.41,513,509.96,512.87L509.96,512.87z M530.36,512.62c0-0.42-0.52-0.77-1.15-0.77c-0.63,0-0.99,0.35-0.8,0.77
			c0.19,0.42,0.71,0.77,1.15,0.77C530,513.39,530.36,513.05,530.36,512.62z M535.39,511.93c0-0.95-1.57-1.71-1.92-0.93
			c-0.16,0.34-0.12,0.85,0.07,1.12C534.07,512.86,535.39,512.73,535.39,511.93L535.39,511.93z M503.01,507.99
			c0-0.42-0.49-0.77-1.08-0.77c-0.6,0-1.24,0.35-1.43,0.77c-0.19,0.44,0.27,0.77,1.08,0.77
			C502.37,508.76,503.01,508.42,503.01,507.99z M213.29,505.99c1.1-1.43,0.24-2.4-1.1-1.25c-0.6,0.52-1.46,0.94-1.93,0.94
			c-0.46,0-0.84,0.53-0.84,1.17C209.42,508.25,211.99,507.67,213.29,505.99z M511.94,506.45c0.68-0.6,0.6-0.75-0.42-0.76
			c-0.69-0.01-1.26,0.34-1.26,0.76C510.27,507.41,510.86,507.41,511.94,506.45z M204.95,504.13c0-0.42-0.24-0.77-0.53-0.77
			c-0.29,0-0.68,0.35-0.87,0.77c-0.19,0.42,0.05,0.77,0.53,0.77C204.56,504.9,204.95,504.56,204.95,504.13z M588.41,503.75
			c0-0.64-0.38-1.16-0.84-1.16c-0.46,0-0.84,0.52-0.84,1.16c0,0.64,0.38,1.16,0.84,1.16C588.04,504.9,588.41,504.38,588.41,503.75z
			 M587.02,501.04c0.84-0.5,0.44-0.68-1.57-0.72c-1.66-0.03-2.55,0.24-2.34,0.72C583.52,501.97,585.47,501.97,587.02,501.04z
			 M622.56,480.03c-1.13-1.56-1.8,0.21-0.79,2.08c0.94,1.74,0.98,1.75,1.16,0.25C623.03,481.5,622.87,480.45,622.56,480.03z
			 M638.65,402.19c0-0.4-0.38-0.73-0.84-0.73c-0.86,0-1.11,0.91-0.48,1.78C637.78,403.86,638.65,403.17,638.65,402.19L638.65,402.19
			z M530.92,314.24c0-0.42-0.36-0.77-0.8-0.77c-0.44,0-0.96,0.35-1.15,0.77c-0.19,0.42,0.17,0.77,0.8,0.77
			C530.41,315.01,530.92,314.66,530.92,314.24z M519.18,313.5c0.45-0.4,0.7-0.88,0.56-1.07c-0.93-1.25-5.57-0.37-5.57,1.05
			C514.18,314.44,518.09,314.45,519.18,313.5L519.18,313.5z M530.48,311.16c1.44-0.01,4.08-0.55,5.86-1.21
			c1.78-0.66,4.73-1.37,6.55-1.59c3.57-0.42,4.22-0.73,4.22-1.97c0-0.81-0.79-0.74-9.49,0.77c-4.44,0.77-15.58,3.86-16.38,4.54
			c-1.3,1.1,1.23,1.44,3.75,0.51C526.56,311.64,529.03,311.16,530.48,311.16z M540.97,311.92c0-0.42-0.36-0.77-0.8-0.77
			c-0.44,0-0.96,0.35-1.15,0.77c-0.19,0.42,0.17,0.77,0.8,0.77C540.45,312.7,540.97,312.35,540.97,311.92L540.97,311.92z
			 M547.04,311.44c2.63-0.73,2.15-2.11-0.56-1.61c-2.53,0.47-4.35,2.09-2.35,2.09C544.77,311.92,546.08,311.71,547.04,311.44z
			 M568.04,307.29c0.19-0.42-0.19-0.77-0.84-0.77c-0.65,0-1.03,0.35-0.84,0.77s0.57,0.77,0.84,0.77
			C567.48,308.06,567.85,307.72,568.04,307.29z M572.46,306.82c0.49-0.26,0.88-0.8,0.88-1.21c0-1.07-2.38-0.43-2.66,0.71
			C570.44,307.38,571.08,307.56,572.46,306.82L572.46,306.82z M555.62,305.36c-0.21-1.18-5.3-0.96-5.59,0.24
			c-0.18,0.77,0.48,0.95,2.74,0.77C554.42,306.24,555.7,305.79,555.62,305.36L555.62,305.36z M566.65,303.78
			c7.96-1.15,11.89-2.2,12.14-3.25c0.36-1.49-4.77-0.88-12.42,1.46c-4.15,1.27-4.29,1.35-3.89,2.25c0.2,0.46,0.78,0.6,1.29,0.32
			C564.28,304.29,565.57,303.94,566.65,303.78L566.65,303.78z M616.08,303.36c0.6-1.34-1.27-3.54-2.07-2.43
			c-0.49,0.68-0.48,1.18,0.06,2.09C614.91,304.41,615.55,304.53,616.08,303.36L616.08,303.36z M608.97,232.55
			c0.12-1.11-0.12-1.68-0.7-1.68c-0.57,0-0.88,0.7-0.88,2C607.39,235.28,608.7,235.02,608.97,232.55z M245.5,223.03
			c0.66,0.05,2.64-0.57,4.41-1.37c1.76-0.8,3.54-1.29,3.95-1.07c0.69,0.37,4.82-1.28,17.13-6.81c2.7-1.21,5.42-2.21,6.03-2.21
			c0.61,0,1.85-0.53,2.75-1.17c0.9-0.64,2.83-1.39,4.3-1.65c1.46-0.27,3.34-0.95,4.17-1.53c0.83-0.58,2.08-1.05,2.79-1.05
			c0.71,0,2-0.52,2.88-1.16c0.88-0.63,1.92-1.15,2.3-1.15c0.39,0,1.02-0.52,1.4-1.16c0.42-0.7,1.64-1.16,3.1-1.16
			c1.33,0,2.57-0.35,2.76-0.77c0.19-0.42,0.97-0.77,1.73-0.77c0.76,0,2.37-0.69,3.57-1.54c1.2-0.85,2.55-1.54,2.98-1.54
			c1.26,0,2.34-2.21,1.59-3.25c-0.68-0.95-3-0.07-9.6,3.63c-1.99,1.12-5.64,2.69-8.09,3.49c-5.16,1.68-7.7,2.62-10.05,3.74
			c-0.92,0.44-2.81,1.19-4.19,1.68c-4.06,1.43-8.33,3.15-13.4,5.42c-2.61,1.16-6.13,2.55-7.81,3.08c-1.69,0.53-5.03,1.96-7.43,3.17
			c-2.4,1.21-4.85,2.21-5.45,2.21c-0.6,0-1.52,0.32-2.05,0.71c-0.53,0.39-1.41,0.91-1.95,1.13c-0.54,0.23-0.98,0.82-0.98,1.3
			c0,0.54,0.38,0.66,0.98,0.3C243.86,223.2,244.84,222.98,245.5,223.03z M283.83,213.43c2.78-1.31,3.59-2.24,2.47-2.84
			c-0.81-0.43-7.11,2.21-7.91,3.31C277.52,215.11,280.89,214.81,283.83,213.43L283.83,213.43z M392.29,210.16
			c-1.34-0.36-2.73,0.47-2.32,1.38c0.21,0.47,0.89,0.4,1.82-0.19C392.96,210.61,393.06,210.36,392.29,210.16z M290.65,210.75
			c0.57-1.27-0.1-1.73-1.7-1.18c-0.79,0.28-1.29,0.84-1.11,1.25C288.3,211.83,290.19,211.78,290.65,210.75L290.65,210.75z
			 M297.81,208.03c2.19-0.67,4.76-1.73,5.7-2.36c0.94-0.63,1.95-1.08,2.23-1.01c1.21,0.32,1.91-0.12,1.91-1.2
			c0-1.29-1.97-1.59-2.51-0.39c-0.19,0.42-1.15,0.77-2.13,0.78c-0.98,0-2.5,0.52-3.38,1.16c-0.88,0.63-2.13,1.16-2.79,1.17
			c-1.11,0.02-4.55,3.01-3.5,3.05C293.6,209.25,295.61,208.7,297.81,208.03z M355.34,206.53c1.03-1.07,0.99-1.13-0.66-1.13
			c-1.73,0-2.68,0.87-1.99,1.82C353.26,208,354.17,207.76,355.34,206.53z M346.17,205.4c0-0.42-0.24-0.77-0.53-0.77
			c-0.29,0-0.68,0.35-0.87,0.77c-0.19,0.42,0.05,0.77,0.53,0.77C345.78,206.17,346.17,205.82,346.17,205.4z M352.31,203.08
			c0-0.42-0.24-0.77-0.52-0.77c-0.29,0-0.68,0.35-0.87,0.77c-0.19,0.42,0.04,0.77,0.52,0.77
			C351.91,203.85,352.31,203.5,352.31,203.08z M314.91,200.12c1.69-0.84,3.95-2.17,5.02-2.95c1.93-1.41,1.94-1.43,0.49-1.66
			c-1.7-0.27-10.68,4.67-11.02,6.07C309.14,202.7,310.4,202.36,314.91,200.12z M366.82,197.21l1.4-1.02l-1.45-0.03
			c-1.82-0.04-4.97,1.44-4.97,2.34C361.8,199.37,364.99,198.54,366.82,197.21z M324.96,194.59c0-0.42-0.38-0.77-0.84-0.77
			c-0.46,0-0.84,0.35-0.84,0.77c0,0.42,0.38,0.77,0.84,0.77C324.58,195.36,324.96,195.01,324.96,194.59z M329.77,192.5
			c1.83-1.11,1.98-1.36,0.93-1.59c-1.37-0.31-3.52,1.01-3.52,2.16C327.19,194.05,327.25,194.04,329.77,192.5z M381.09,191.14
			c1.04-1.09,1.03-1.13-0.34-1.16c-0.78-0.01-1.91,0.49-2.51,1.11c-1.04,1.09-1.03,1.13,0.35,1.16
			C379.36,192.26,380.49,191.76,381.09,191.14z M339.23,188.86c0.62-0.6,2.12-1.32,3.33-1.6c1.21-0.28,2.83-0.79,3.6-1.14
			c0.77-0.35,2.9-1.24,4.75-1.98c4.09-1.64,5.19-2.65,3.95-3.62c-0.53-0.41-1.89-0.23-3.52,0.47c-8.45,3.64-10.52,4.62-11,5.21
			c-0.29,0.36-1.08,0.66-1.74,0.66c-1.51,0-2.88,1.96-1.79,2.56C337.91,190.06,338.03,190.03,339.23,188.86z M386.08,189.18
			c0.44-0.99-1.41-0.99-2.51,0c-0.65,0.59-0.51,0.75,0.66,0.76C385.06,189.95,385.89,189.61,386.08,189.18z M392.08,187.29
			c1.15-0.27,2.09-0.82,2.09-1.23c0-0.97-1.09-0.93-3.4,0.14c-2.13,0.99-3.72,2.64-1.9,1.98
			C389.48,187.96,390.93,187.56,392.08,187.29z M402.88,183.71c0.52-0.6,0.63-1.21,0.29-1.68c-0.57-0.79-6.05,1.32-7.05,2.72
			C395.3,185.88,401.86,184.88,402.88,183.71L402.88,183.71z M408.44,181.1c1.04-1.09,1.03-1.13-0.34-1.16
			c-0.79-0.01-1.92,0.49-2.51,1.11c-1.04,1.09-1.03,1.13,0.35,1.16C406.71,182.23,407.84,181.73,408.44,181.1z M466.17,181.47
			c0-0.42-0.36-0.77-0.8-0.77c-0.44,0-0.96,0.35-1.15,0.77c-0.19,0.42,0.17,0.77,0.8,0.77
			C465.66,182.24,466.17,181.89,466.17,181.47z M475.1,180.35c3.78-1.17,10.74-3.16,15.07-4.3c1.38-0.36,3.64-1.06,5.02-1.55
			c1.38-0.49,4.77-1.38,7.53-1.99c8.79-1.93,14.4-3.47,15.45-4.25c1.39-1.03,1.28-2.24-0.21-2.24c-1.23,0-2.41,0.27-13.37,3.1
			c-3.27,0.84-6.94,1.53-8.16,1.53c-1.22,0-3.19,0.47-4.38,1.05c-1.19,0.58-3.67,1.3-5.51,1.61c-1.84,0.31-4.1,1.01-5.02,1.56
			c-3.35,2-5.09,2.7-8.52,3.44c-3.72,0.8-4.6,1.26-4.6,2.42C468.41,181.79,470.94,181.64,475.1,180.35L475.1,180.35z M360.97,179.65
			c0.6-0.57,1.8-1.28,2.66-1.57c0.86-0.29,1.41-0.86,1.22-1.27c-0.44-0.98-2.9-0.97-3.34,0.02c-0.19,0.42-1.07,0.77-1.95,0.77
			c-1.35,0-3.36,1.64-3.36,2.76C356.21,181.16,359.98,180.6,360.97,179.65L360.97,179.65z M372.69,174.91
			c0.62-0.53,2.25-1.21,3.63-1.5c1.38-0.29,4.51-1.35,6.97-2.36c5.32-2.17,12.59-4.87,15.47-5.73c1.14-0.34,2.65-1.11,3.35-1.72
			c0.7-0.61,2.62-1.19,4.26-1.31c1.89-0.13,4.2-1.02,6.27-2.41c1.86-1.25,3.78-2.02,4.42-1.79c1.48,0.53,8.67-2.68,10.22-4.57
			c1.21-1.47,1.2-1.48-2.3-1c-1.93,0.26-4.7,1.19-6.14,2.07c-1.45,0.87-4.01,2.04-5.7,2.61c-1.69,0.56-4.45,1.6-6.14,2.32
			c-1.69,0.71-4.2,1.57-5.58,1.89c-4.68,1.11-8.09,2.23-10.61,3.48c-1.38,0.69-4.14,1.74-6.14,2.35c-4.98,1.51-9.93,3.75-10.72,4.85
			c-0.36,0.5-1.55,0.92-2.64,0.92c-1.72,0-5.61,2.38-5.61,3.42C365.7,177.11,371.59,175.86,372.69,174.91z M427.38,173.75
			c0.19-0.42-0.17-0.77-0.8-0.77c-0.63,0-1.15,0.35-1.15,0.77c0,0.42,0.36,0.77,0.8,0.77C426.67,174.52,427.19,174.17,427.38,173.75
			z M433.24,171.36c0.66-0.52,0.58-0.66-0.37-0.68c-1.6-0.03-2.98,0.74-2.98,1.66C429.89,173.09,431.71,172.56,433.24,171.36z
			 M526.74,165.3l2.23-1.46l-2.34-0.06c-2.4-0.06-5.19,1.21-5.19,2.38C521.43,167.29,524.43,166.81,526.74,165.3z M447.75,165.25
			c0-0.42-0.24-0.77-0.53-0.77c-0.29,0-0.68,0.35-0.87,0.77c-0.19,0.42,0.05,0.77,0.53,0.77S447.75,165.68,447.75,165.25z
			 M535.39,162.17c0-0.42-0.36-0.77-0.8-0.77c-0.44,0-0.96,0.35-1.15,0.77c-0.19,0.42,0.17,0.77,0.8,0.77
			C534.87,162.94,535.39,162.59,535.39,162.17z M521.15,160.61c-0.19-0.43-0.58-0.59-0.87-0.34c-0.77,0.66-0.63,1.12,0.35,1.12
			C521.11,161.39,521.34,161.04,521.15,160.61z M465.02,158.97c1.1-0.49,2.34-1.01,2.77-1.18c0.43-0.16,0.64-0.49,0.47-0.72
			c-0.44-0.61-6.68,1.09-7.34,2C460.16,160.14,462.5,160.08,465.02,158.97z M475.9,155.52c0.49-0.26,0.88-0.78,0.88-1.16
			c0-1.05-2.34-0.77-3.91,0.47l-1.4,1.1l1.77,0.03C474.22,155.98,475.41,155.78,475.9,155.52L475.9,155.52z M485.99,151.95
			c3.84-1.2,4.41-2.17,1.08-1.82c-3.17,0.33-7.5,2.08-7.5,3.03C479.57,153.8,480.8,153.57,485.99,151.95z M434.47,150.88
			c0.83-0.58,2.03-1.06,2.66-1.06c0.63,0,1.59-0.3,2.12-0.68c1.63-1.14,4.89-2.41,6.17-2.41c1.42,0,7.88-2.95,8.89-4.06
			c0.38-0.42,0.7-1.11,0.7-1.53c0-1.01-3.14-0.18-8.25,2.17c-2.23,1.03-4.43,1.87-4.89,1.87s-1.27,0.31-1.8,0.69
			c-0.53,0.38-2.85,1.48-5.15,2.45c-4.65,1.96-5.33,2.49-4.76,3.76C430.57,153.02,431.98,152.62,434.47,150.88L434.47,150.88z
			 M492.69,149.82c0.19-0.44-0.27-0.77-1.08-0.77c-0.79,0-1.43,0.35-1.43,0.77c0,0.42,0.49,0.77,1.08,0.77
			C491.86,150.59,492.5,150.24,492.69,149.82z M501.48,148.46c2.73-0.65,1.69-1.86-1.12-1.3c-3.05,0.61-3.18,0.7-2.65,1.88
			c0.21,0.48,0.8,0.63,1.31,0.33C499.53,149.07,500.63,148.66,501.48,148.46z M563.85,149.04c0-0.42-0.39-0.77-0.87-0.77
			c-0.48,0-0.71,0.35-0.53,0.77c0.19,0.42,0.58,0.77,0.87,0.77C563.62,149.82,563.85,149.47,563.85,149.04z M506.92,146.73
			c0-0.42-0.38-0.77-0.84-0.77c-0.46,0-0.84,0.35-0.84,0.77c0,0.42,0.38,0.77,0.84,0.77C506.54,147.5,506.92,147.15,506.92,146.73z
			 M509.71,145.96c0-0.42-0.38-0.77-0.84-0.77c-0.46,0-0.84,0.35-0.84,0.77c0,0.42,0.38,0.77,0.84,0.77
			C509.34,146.73,509.71,146.38,509.71,145.96z M528.62,141.61c0.96-0.27,1.74-0.82,1.74-1.22c0-0.85-3.35-0.03-4.16,1.01
			C525.57,142.23,526.19,142.28,528.62,141.61L528.62,141.61z M543.2,137.38c0-0.91-2.64-0.89-3.04,0.02
			c-0.36,0.8,1.27,1.49,2.34,0.99C542.89,138.22,543.2,137.76,543.2,137.38L543.2,137.38z M548.3,136.69c0.58,0,1.05-0.39,1.05-0.87
			c0-1.08-4.47-0.22-5.3,1.01c-0.4,0.59-0.02,0.69,1.33,0.35C546.4,136.91,547.72,136.69,548.3,136.69z M552.41,135.15
			c0.19-0.42-0.05-0.77-0.53-0.77c-0.48,0-0.87,0.35-0.87,0.77c0,0.42,0.24,0.77,0.53,0.77
			C551.83,135.92,552.22,135.57,552.41,135.15z M329.16,570.55c-0.37-0.83,1.41-2.35,2.74-2.35c0.71,0,0.67,0.29-0.24,1.54
			C330.43,571.43,329.66,571.68,329.16,570.55L329.16,570.55z M333.33,568.2c0-0.42,0.94-0.77,2.09-0.76
			c1.56,0.01,1.88,0.2,1.26,0.76C335.58,569.18,333.33,569.18,333.33,568.2z M627.8,543.57c-0.48-1.08,0.27-3.16,1.14-3.16
			c0.85,0,0.97,0.74,0.44,2.64C629,544.41,628.28,544.64,627.8,543.57L627.8,543.57z M628.26,533.01c0.19-0.67,0.34-1.89,0.34-2.7
			c0-0.99,0.39-1.48,1.18-1.48c0.95,0,1.12,0.34,0.84,1.74c-0.19,0.96-0.34,2.17-0.34,2.7c0,0.53-0.54,0.96-1.18,0.96
			C628.26,534.24,628.02,533.89,628.26,533.01L628.26,533.01z M614.43,286.77c-0.21-0.75-0.08-1.11,0.32-0.92
			c0.83,0.39,1.29,2.14,0.56,2.14C615.01,287.99,614.62,287.44,614.43,286.77z M616.65,281.92c-0.24-0.54-0.29-1.19-0.1-1.44
			c0.5-0.69,1.04,0.33,0.77,1.44C617.13,282.71,617,282.71,616.65,281.92L616.65,281.92z M611.3,257.11c0-0.42,0.24-0.77,0.52-0.77
			c0.29,0,0.68,0.35,0.87,0.77c0.19,0.42-0.04,0.77-0.53,0.77C611.69,257.89,611.3,257.54,611.3,257.11z M610.27,254.37
			c0.11-0.76,0.53-1.53,0.94-1.72c0.48-0.22,0.68,0.15,0.56,1.03c-0.11,0.76-0.53,1.53-0.94,1.72
			C610.35,255.62,610.15,255.25,610.27,254.37L610.27,254.37z M544.32,114.37c0-0.49,0.44-1.07,0.98-1.3
			c0.54-0.23,1.41-0.74,1.95-1.13c0.53-0.39,1.84-0.72,2.9-0.72c1.06,0,3.23-0.38,4.81-0.85c1.96-0.58,3.05-0.6,3.44-0.06
			c0.64,0.89-1.47,1.81-7.38,3.2c-2,0.47-4.32,1.06-5.16,1.3C544.88,115.09,544.32,114.93,544.32,114.37L544.32,114.37z"/>
		<path class="st1" d="M456.13,568.97c0-0.42-0.25-0.77-0.56-0.77c-0.31,0-0.56,0.35-0.56,0.77c0,0.42,0.25,0.77,0.56,0.77
			C455.88,569.75,456.13,569.4,456.13,568.97z"/>
		<path class="st1" d="M385.34,566.13c-0.4-0.22-0.88-0.2-1.07,0.06c-0.19,0.26,0.14,0.44,0.73,0.41
			C385.66,566.56,385.79,566.38,385.34,566.13z"/>
		<path class="st1" d="M398.74,564.59c-0.4-0.22-0.88-0.2-1.07,0.06c-0.19,0.25,0.14,0.44,0.73,0.41
			C399.05,565.02,399.19,564.84,398.74,564.59z"/>
		<path class="st1" d="M206.62,563.57c0-0.42-0.25-0.77-0.56-0.77c-0.31,0-0.56,0.35-0.56,0.77c0,0.42,0.25,0.77,0.56,0.77
			C206.37,564.34,206.62,564,206.62,563.57z"/>
		<path class="st1" d="M485.71,562.76c0-0.45-0.25-0.6-0.56-0.34c-0.31,0.26-0.56,0.63-0.56,0.82s0.25,0.34,0.56,0.34
			C485.46,563.57,485.71,563.2,485.71,562.76L485.71,562.76z"/>
		<ellipse class="st1" cx="476.22" cy="552.76" rx="0.56" ry="0.77"/>
		<path class="st1" d="M508.59,544.27c0-0.42,0.11-0.77,0.25-0.77c0.14,0,0.4,0.35,0.59,0.77c0.19,0.42,0.08,0.77-0.24,0.77
			C508.86,545.05,508.59,544.7,508.59,544.27z"/>
		<path class="st1" d="M509.82,557.64c-0.4-0.22-0.89-0.2-1.07,0.06c-0.19,0.26,0.14,0.44,0.73,0.41
			C510.13,558.07,510.26,557.89,509.82,557.64z"/>
		<path class="st1" d="M526.03,554.53c-0.69-0.18-1.7-0.18-2.23,0.02c-0.53,0.19,0.03,0.34,1.26,0.33
			C526.29,554.88,526.73,554.72,526.03,554.53L526.03,554.53z"/>
		<path class="st1" d="M355.2,542.2c-0.4-0.22-0.88-0.2-1.07,0.06c-0.19,0.26,0.15,0.44,0.73,0.41
			C355.52,542.63,355.65,542.45,355.2,542.2z"/>
		<path class="st1" d="M479.29,513.39c0.19-0.42,0.09-0.77-0.21-0.77c-0.31,0-0.71,0.35-0.9,0.77c-0.19,0.42-0.09,0.77,0.21,0.77
			C478.69,514.17,479.1,513.82,479.29,513.39z"/>
		<path class="st1" d="M496.32,508.72c0-0.45-0.25-0.6-0.56-0.34c-0.31,0.26-0.56,0.63-0.56,0.82c0,0.19,0.25,0.34,0.56,0.34
			C496.06,509.53,496.32,509.17,496.32,508.72L496.32,508.72z"/>
		<ellipse class="st1" cx="568.88" cy="506.45" rx="0.56" ry="0.77"/>
		<path class="st1" d="M618.83,474.8c-0.19-0.42-0.46-0.77-0.59-0.77c-0.14,0-0.25,0.35-0.25,0.77c0,0.42,0.27,0.77,0.59,0.77
			C618.91,475.57,619.03,475.22,618.83,474.8z"/>
		<path class="st1" d="M618.66,455.75c-0.4-0.22-0.88-0.2-1.07,0.06c-0.19,0.26,0.14,0.44,0.73,0.41
			C618.97,456.17,619.11,455.99,618.66,455.75z"/>
		<path class="st1" d="M621.35,451.64c0-0.42-0.25-0.77-0.56-0.77s-0.56,0.35-0.56,0.77c0,0.42,0.25,0.77,0.56,0.77
			S621.35,452.06,621.35,451.64z"/>
		<ellipse class="st1" cx="177.6" cy="430.03" rx="0.56" ry="0.77"/>
		<path class="st1" d="M175.47,404.03c-0.4-0.22-0.88-0.2-1.07,0.06c-0.19,0.26,0.14,0.44,0.73,0.41
			C175.78,404.46,175.92,404.27,175.47,404.03z"/>
		<path class="st1" d="M537.06,312.65c0-0.45-0.25-0.6-0.56-0.34c-0.31,0.26-0.56,0.63-0.56,0.82c0,0.19,0.25,0.34,0.56,0.34
			C536.81,313.47,537.06,313.1,537.06,312.65L537.06,312.65z"/>
		<path class="st1" d="M552.69,309.61c0-0.42-0.25-0.77-0.56-0.77c-0.31,0-0.56,0.35-0.56,0.77c0,0.42,0.25,0.77,0.56,0.77
			C552.44,310.38,552.69,310.03,552.69,309.61z"/>
		<path class="st1" d="M576.69,304.97c0-0.42-0.25-0.77-0.56-0.77c-0.31,0-0.56,0.35-0.56,0.77s0.25,0.77,0.56,0.77
			C576.44,305.75,576.69,305.4,576.69,304.97z"/>
		<path class="st1" d="M559.53,304.46c-0.38-0.21-1.01-0.21-1.4,0c-0.38,0.21-0.07,0.39,0.7,0.39
			C559.6,304.85,559.91,304.68,559.53,304.46z"/>
		<path class="st1" d="M581.72,304.2c0-0.42-0.25-0.77-0.56-0.77s-0.56,0.35-0.56,0.77c0,0.42,0.25,0.77,0.56,0.77
			S581.72,304.63,581.72,304.2z"/>
		<ellipse class="st1" cx="182.06" cy="284.9" rx="0.56" ry="0.77"/>
		<path class="st1" d="M274.16,215.77c0-0.19-0.25-0.34-0.56-0.34c-0.31,0-0.56,0.37-0.56,0.82c0,0.45,0.25,0.6,0.56,0.34
			C273.91,216.33,274.16,215.96,274.16,215.77z"/>
		<path class="st1" d="M395.56,210.03c0.19-0.42,0.1-0.77-0.21-0.77c-0.31,0-0.71,0.35-0.9,0.77c-0.19,0.42-0.09,0.77,0.21,0.77
			C394.97,210.8,395.38,210.45,395.56,210.03z"/>
		<path class="st1" d="M349.8,203.85c0.19-0.42,0.09-0.77-0.21-0.77c-0.31,0-0.71,0.35-0.9,0.77c-0.19,0.42-0.09,0.77,0.21,0.77
			C349.2,204.62,349.61,204.28,349.8,203.85z"/>
		<path class="st1" d="M419.01,176.83c0.19-0.42,0.1-0.77-0.21-0.77c-0.31,0-0.71,0.35-0.9,0.77c-0.19,0.42-0.09,0.77,0.21,0.77
			C418.41,177.61,418.82,177.26,419.01,176.83z"/>
		<path class="st1" d="M457.91,160.87c-0.4-0.22-0.89-0.2-1.07,0.06c-0.19,0.26,0.15,0.44,0.73,0.41
			C458.22,161.3,458.35,161.11,457.91,160.87z"/>
		<path class="st1" d="M534.94,139.25c-0.4-0.22-0.89-0.2-1.07,0.06c-0.18,0.26,0.14,0.44,0.73,0.41
			C535.25,139.68,535.38,139.5,534.94,139.25z"/>
		<path class="st1" d="M323,572.06c0.19-0.42,0.6-0.77,0.9-0.77c0.31,0,0.4,0.35,0.21,0.77c-0.19,0.42-0.6,0.77-0.9,0.77
			C322.91,572.83,322.81,572.49,323,572.06z"/>
		<path class="st1" d="M560.1,109.98c0.18-0.26,0.67-0.29,1.07-0.06c0.44,0.25,0.31,0.43-0.34,0.47
			C560.24,110.42,559.91,110.24,560.1,109.98z"/>
		<g>
			<g>
				<path class="st0" d="M414.29,481.12c-16.27,0-32.23-5.95-46.36-17.26l-36.22,17.26l7.44-53.04
					c-11.67-22.11-17.82-48.13-17.82-75.51c0-70.88,41.7-128.56,92.96-128.56c51.26,0,92.96,57.67,92.96,128.56
					C507.25,423.45,465.55,481.12,414.29,481.12z M369.6,442.84l2.8,2.43c12.63,10.95,27.11,16.73,41.89,16.73
					c43.63,0,79.13-49.09,79.13-109.43c0-60.34-35.5-109.43-79.13-109.43c-43.63,0-79.13,49.09-79.13,109.43
					c0,24.55,5.82,47.81,16.81,67.26l1.94,3.44l-4.07,28.99L369.6,442.84z"/>
			</g>
			<path class="st0" d="M367.36,303.17c0,0,5.45-13.19,9.9-13.94c4.45-0.76,10.17-0.76,11.72,3.27c1.54,4.01,8.44,27.38,8.44,27.38
				s1.18,4.02-0.64,7.91c-1.81,3.89-5.9,9.54-5.9,9.54s-2.27,4.02,0,8.29c2.27,4.27,5.79,12.12,13.08,22.19
				c7.27,10.07,21.24,17.25,21.24,17.25s2,0.37,3.27-1.38c1.27-1.76,8.17-13.69,8.17-13.69s2.22-3.95,5.9-1.63
				c3.68,2.32,19.61,13.3,19.61,13.3s1.86,0.95,1.86,4.83c0,3.9-1.14,13.42-3.47,16.64c-2.33,3.23-9.14,13.15-19.37,13.15
				c-10.23,0-34.6-11.51-47.58-29.47c-12.98-17.96-24.52-36.17-27.24-52.75C363.64,317.49,364,310,367.36,303.17z"/>
		</g>
	</g>
</g>
</svg>
